//Event file generated from Sappy .s format.
	#include "MPlayDef.event"

	#define	mus_route113_grp  voicegroup064
	#define	mus_route113_pri  0
	#define	mus_route113_rev  reverb_set+50
	#define	mus_route113_mvl  84
	#define	mus_route113_key  0
	#define	mus_route113_tbs  1
	#define	mus_route113_exg  1
	#define	mus_route113_cmp  1

	// .rodata
	//	mus_route113
	ALIGN 4

//**************** Track 1 (Midi-Chn.1) ****************//

mus_route113_1:
	BYTE	KEYSH   mus_route113_key+0
// 000   ----------------------------------------
	BYTE	TEMPO   128*mus_route113_tbs/2
	BYTE		VOICE   127
	BYTE		LFOS    44
	BYTE		BENDR   12
	BYTE		VOL     67*mus_route113_mvl/mxv
	BYTE		PAN     c_v+63
	BYTE	W12
mus_route113_1_B1:
// 001   ----------------------------------------
mus_route113_1_001:
	BYTE		N03     En5   v112
	BYTE	W06
	BYTE		        En5   v056
	BYTE	W06
	BYTE		N03   
	BYTE	W06
	BYTE		N03   
	BYTE	W06
	BYTE		N03   
	BYTE	W06
	BYTE		N03   
	BYTE	W06
	BYTE		        En5   v112
	BYTE	W06
	BYTE		        En5   v056
	BYTE	W06
	BYTE		N03   
	BYTE	W06
	BYTE		N03   
	BYTE	W06
	BYTE		N03   
	BYTE	W06
	BYTE		N03   
	BYTE	W06
	BYTE	PEND
// 002   ----------------------------------------
	BYTE	PATT
	 POIN2	mus_route113_1_001
// 003   ----------------------------------------
	BYTE	PATT
	 POIN2	mus_route113_1_001
// 004   ----------------------------------------
	BYTE	PATT
	 POIN2	mus_route113_1_001
// 005   ----------------------------------------
	BYTE	PATT
	 POIN2	mus_route113_1_001
// 006   ----------------------------------------
	BYTE	PATT
	 POIN2	mus_route113_1_001
// 007   ----------------------------------------
	BYTE	PATT
	 POIN2	mus_route113_1_001
// 008   ----------------------------------------
	BYTE	PATT
	 POIN2	mus_route113_1_001
// 009   ----------------------------------------
	BYTE	PATT
	 POIN2	mus_route113_1_001
// 010   ----------------------------------------
	BYTE	PATT
	 POIN2	mus_route113_1_001
// 011   ----------------------------------------
	BYTE	PATT
	 POIN2	mus_route113_1_001
// 012   ----------------------------------------
	BYTE	PATT
	 POIN2	mus_route113_1_001
// 013   ----------------------------------------
	BYTE	PATT
	 POIN2	mus_route113_1_001
// 014   ----------------------------------------
	BYTE	PATT
	 POIN2	mus_route113_1_001
// 015   ----------------------------------------
	BYTE	PATT
	 POIN2	mus_route113_1_001
// 016   ----------------------------------------
	BYTE	PATT
	 POIN2	mus_route113_1_001
// 017   ----------------------------------------
	BYTE	PATT
	 POIN2	mus_route113_1_001
// 018   ----------------------------------------
	BYTE	PATT
	 POIN2	mus_route113_1_001
// 019   ----------------------------------------
	BYTE	PATT
	 POIN2	mus_route113_1_001
// 020   ----------------------------------------
	BYTE	PATT
	 POIN2	mus_route113_1_001
// 021   ----------------------------------------
	BYTE	PATT
	 POIN2	mus_route113_1_001
// 022   ----------------------------------------
	BYTE	PATT
	 POIN2	mus_route113_1_001
// 023   ----------------------------------------
	BYTE	PATT
	 POIN2	mus_route113_1_001
// 024   ----------------------------------------
	BYTE	PATT
	 POIN2	mus_route113_1_001
// 025   ----------------------------------------
	BYTE	PATT
	 POIN2	mus_route113_1_001
// 026   ----------------------------------------
	BYTE	PATT
	 POIN2	mus_route113_1_001
// 027   ----------------------------------------
	BYTE	PATT
	 POIN2	mus_route113_1_001
// 028   ----------------------------------------
	BYTE	PATT
	 POIN2	mus_route113_1_001
// 029   ----------------------------------------
	BYTE	PATT
	 POIN2	mus_route113_1_001
// 030   ----------------------------------------
	BYTE	PATT
	 POIN2	mus_route113_1_001
// 031   ----------------------------------------
	BYTE	PATT
	 POIN2	mus_route113_1_001
// 032   ----------------------------------------
	BYTE	PATT
	 POIN2	mus_route113_1_001
// 033   ----------------------------------------
	BYTE	PATT
	 POIN2	mus_route113_1_001
// 034   ----------------------------------------
	BYTE	PATT
	 POIN2	mus_route113_1_001
// 035   ----------------------------------------
	BYTE	PATT
	 POIN2	mus_route113_1_001
// 036   ----------------------------------------
	BYTE	PATT
	 POIN2	mus_route113_1_001
// 037   ----------------------------------------
	BYTE	PATT
	 POIN2	mus_route113_1_001
// 038   ----------------------------------------
	BYTE	PATT
	 POIN2	mus_route113_1_001
// 039   ----------------------------------------
	BYTE	PATT
	 POIN2	mus_route113_1_001
// 040   ----------------------------------------
	BYTE	PATT
	 POIN2	mus_route113_1_001
// 041   ----------------------------------------
	BYTE	PATT
	 POIN2	mus_route113_1_001
// 042   ----------------------------------------
	BYTE	PATT
	 POIN2	mus_route113_1_001
// 043   ----------------------------------------
	BYTE	PATT
	 POIN2	mus_route113_1_001
// 044   ----------------------------------------
	BYTE	PATT
	 POIN2	mus_route113_1_001
// 045   ----------------------------------------
	BYTE	PATT
	 POIN2	mus_route113_1_001
// 046   ----------------------------------------
	BYTE	PATT
	 POIN2	mus_route113_1_001
// 047   ----------------------------------------
	BYTE	PATT
	 POIN2	mus_route113_1_001
// 048   ----------------------------------------
	BYTE	PATT
	 POIN2	mus_route113_1_001
	BYTE	GoTo
	 POIN2	mus_route113_1_B1
mus_route113_1_B2:
// 049   ----------------------------------------
	BYTE	FINE

//**************** Track 2 (Midi-Chn.2) ****************//

mus_route113_2:
	BYTE	KEYSH   mus_route113_key+0
// 000   ----------------------------------------
	BYTE		VOICE   24
	BYTE		LFOS    44
	BYTE		BENDR   12
	BYTE		PAN     c_v+3
	BYTE		VOL     114*mus_route113_mvl/mxv
	BYTE		N06     Fs3   v112
	BYTE	W06
	BYTE		        Bn3 
	BYTE	W06
mus_route113_2_B1:
// 001   ----------------------------------------
mus_route113_2_001:
	BYTE		VOICE   24
	BYTE		N36     Dn4   v112
	BYTE	W12
	BYTE		MOD     7
	BYTE	W24
	BYTE		        0
	BYTE	W02
	BYTE		N22     Cs4 
	BYTE	W22
	BYTE		N12     An3 
	BYTE	W12
	BYTE	PEND
// 002   ----------------------------------------
mus_route113_2_002:
	BYTE		N24     Bn3   v112
	BYTE	W24
	BYTE		N12     Dn3 
	BYTE	W12
	BYTE		N36     Gn3 
	BYTE	W12
	BYTE		MOD     7
	BYTE	W24
	BYTE	PEND
// 003   ----------------------------------------
	BYTE		        0
	BYTE		N12     Dn4 
	BYTE	W12
	BYTE		N06     Cs4 
	BYTE	W12
	BYTE		N12     An3 
	BYTE	W12
	BYTE		N24     Bn3 
	BYTE	W24
	BYTE		N12     Dn3 
	BYTE	W12
// 004   ----------------------------------------
mus_route113_2_004:
	BYTE		N60     Gn3   v112
	BYTE	W24
	BYTE		MOD     7
	BYTE	W36
	BYTE		        0
	BYTE		N06     Bn3 
	BYTE	W06
	BYTE		        Cs4 
	BYTE	W06
	BYTE	PEND
// 005   ----------------------------------------
mus_route113_2_005:
	BYTE		N72     An3   v112
	BYTE	W24
	BYTE		MOD     7
	BYTE	W48
	BYTE	PEND
// 006   ----------------------------------------
mus_route113_2_006:
	BYTE		MOD     0
	BYTE	W48
	BYTE		VOICE   60
	BYTE	W12
	BYTE		N06     Dn3   v112
	BYTE	W12
	BYTE	PEND
// 007   ----------------------------------------
	BYTE		VOICE   60
	BYTE		TIE     An3 
	BYTE	W24
	BYTE		VOL     108*mus_route113_mvl/mxv
	BYTE	W02
	BYTE		        106*mus_route113_mvl/mxv
	BYTE	W03
	BYTE		        100*mus_route113_mvl/mxv
	BYTE	W03
	BYTE		        96*mus_route113_mvl/mxv
	BYTE	W04
	BYTE		        94*mus_route113_mvl/mxv
	BYTE	W02
	BYTE		        90*mus_route113_mvl/mxv
	BYTE	W03
	BYTE		        88*mus_route113_mvl/mxv
	BYTE	W03
	BYTE		        84*mus_route113_mvl/mxv
	BYTE	W04
	BYTE		        79*mus_route113_mvl/mxv
	BYTE		MOD     3
	BYTE	W02
	BYTE		VOL     76*mus_route113_mvl/mxv
	BYTE	W03
	BYTE		        73*mus_route113_mvl/mxv
	BYTE	W03
	BYTE		        70*mus_route113_mvl/mxv
	BYTE	W04
	BYTE		        67*mus_route113_mvl/mxv
	BYTE	W02
	BYTE		        61*mus_route113_mvl/mxv
	BYTE	W03
	BYTE		        56*mus_route113_mvl/mxv
	BYTE	W03
	BYTE		        53*mus_route113_mvl/mxv
	BYTE	W04
// 008   ----------------------------------------
	BYTE		MOD     6
	BYTE	W02
	BYTE		VOL     47*mus_route113_mvl/mxv
	BYTE	W03
	BYTE		        44*mus_route113_mvl/mxv
	BYTE	W03
	BYTE		        40*mus_route113_mvl/mxv
	BYTE	W04
	BYTE		        38*mus_route113_mvl/mxv
	BYTE	W02
	BYTE		        34*mus_route113_mvl/mxv
	BYTE	W03
	BYTE		        29*mus_route113_mvl/mxv
	BYTE	W03
	BYTE		        26*mus_route113_mvl/mxv
	BYTE	W04
	BYTE		        23*mus_route113_mvl/mxv
	BYTE	W02
	BYTE		        17*mus_route113_mvl/mxv
	BYTE	W03
	BYTE		        14*mus_route113_mvl/mxv
	BYTE	W03
	BYTE		        14*mus_route113_mvl/mxv
	BYTE	W04
	BYTE		        11*mus_route113_mvl/mxv
	BYTE	W02
	BYTE		        8*mus_route113_mvl/mxv
	BYTE	W03
	BYTE		        5*mus_route113_mvl/mxv
	BYTE	W03
	BYTE		        2*mus_route113_mvl/mxv
	BYTE	W04
	BYTE		EOT   
	BYTE		VOL     2*mus_route113_mvl/mxv
	BYTE		MOD     0
	BYTE	W12
	BYTE		VOICE   24
	BYTE		VOL     112*mus_route113_mvl/mxv
	BYTE		N06     En4 
	BYTE	W06
	BYTE		        Ds4 
	BYTE	W06
// 009   ----------------------------------------
	BYTE	PATT
	 POIN2	mus_route113_2_001
// 010   ----------------------------------------
	BYTE		N24     Gn4   v112
	BYTE	W24
	BYTE		N12     Dn3 
	BYTE	W12
	BYTE		N24     Gn3 
	BYTE	W24
	BYTE		N06     Gn4 
	BYTE	W06
	BYTE		        Fs4 
	BYTE	W06
// 011   ----------------------------------------
	BYTE		N12     Dn4 
	BYTE	W12
	BYTE		N06     Cs4 
	BYTE	W12
	BYTE		N12     An3 
	BYTE	W12
	BYTE		N24     Cs4 
	BYTE	W24
	BYTE		N12     Dn3 
	BYTE	W12
// 012   ----------------------------------------
	BYTE		        Gn4 
	BYTE	W12
	BYTE		        Dn4 
	BYTE	W12
	BYTE		        Gn3 
	BYTE	W12
	BYTE		        Bn3 
	BYTE	W12
	BYTE		        Dn3 
	BYTE	W12
	BYTE		N06     Bn3 
	BYTE	W06
	BYTE		        Cs4 
	BYTE	W06
// 013   ----------------------------------------
	BYTE	PATT
	 POIN2	mus_route113_2_005
// 014   ----------------------------------------
	BYTE	PATT
	 POIN2	mus_route113_2_006
// 015   ----------------------------------------
	BYTE		VOICE   60
	BYTE		TIE     An3   v112
	BYTE	W24
	BYTE		VOL     108*mus_route113_mvl/mxv
	BYTE	W02
	BYTE		        106*mus_route113_mvl/mxv
	BYTE	W03
	BYTE		        100*mus_route113_mvl/mxv
	BYTE	W03
	BYTE		        96*mus_route113_mvl/mxv
	BYTE	W04
	BYTE		        94*mus_route113_mvl/mxv
	BYTE	W02
	BYTE		        90*mus_route113_mvl/mxv
	BYTE	W03
	BYTE		        88*mus_route113_mvl/mxv
	BYTE	W03
	BYTE		        84*mus_route113_mvl/mxv
	BYTE	W04
	BYTE		        79*mus_route113_mvl/mxv
	BYTE	W02
	BYTE		        76*mus_route113_mvl/mxv
	BYTE	W03
	BYTE		        73*mus_route113_mvl/mxv
	BYTE	W03
	BYTE		        70*mus_route113_mvl/mxv
	BYTE	W04
	BYTE		        67*mus_route113_mvl/mxv
	BYTE	W02
	BYTE		        61*mus_route113_mvl/mxv
	BYTE	W03
	BYTE		        56*mus_route113_mvl/mxv
	BYTE	W03
	BYTE		        53*mus_route113_mvl/mxv
	BYTE	W04
// 016   ----------------------------------------
	BYTE		MOD     7
	BYTE	W02
	BYTE		VOL     47*mus_route113_mvl/mxv
	BYTE	W03
	BYTE		        44*mus_route113_mvl/mxv
	BYTE	W03
	BYTE		        40*mus_route113_mvl/mxv
	BYTE	W04
	BYTE		        38*mus_route113_mvl/mxv
	BYTE	W02
	BYTE		        34*mus_route113_mvl/mxv
	BYTE	W03
	BYTE		        29*mus_route113_mvl/mxv
	BYTE	W03
	BYTE		        26*mus_route113_mvl/mxv
	BYTE	W04
	BYTE		        23*mus_route113_mvl/mxv
	BYTE	W02
	BYTE		        17*mus_route113_mvl/mxv
	BYTE	W03
	BYTE		        14*mus_route113_mvl/mxv
	BYTE	W03
	BYTE		        14*mus_route113_mvl/mxv
	BYTE	W04
	BYTE		        11*mus_route113_mvl/mxv
	BYTE	W02
	BYTE		        8*mus_route113_mvl/mxv
	BYTE	W03
	BYTE		        5*mus_route113_mvl/mxv
	BYTE	W03
	BYTE		        2*mus_route113_mvl/mxv
	BYTE	W04
	BYTE		EOT   
	BYTE		VOL     2*mus_route113_mvl/mxv
	BYTE		MOD     0
	BYTE	W12
	BYTE		VOICE   24
	BYTE		VOL     112*mus_route113_mvl/mxv
	BYTE		N06   
	BYTE	W06
	BYTE		        As3 
	BYTE	W06
// 017   ----------------------------------------
	BYTE		N24     Bn3 
	BYTE	W24
	BYTE		N06     Cs4 
	BYTE	W12
	BYTE		N24     Dn4 
	BYTE	W12
	BYTE		MOD     6
	BYTE	W12
	BYTE		        0
	BYTE		N06     Bn3 
	BYTE	W12
// 018   ----------------------------------------
	BYTE		N24     Cs4 
	BYTE	W24
	BYTE		N06     Dn4 
	BYTE	W12
	BYTE		N24     En4 
	BYTE	W12
	BYTE		MOD     7
	BYTE	W12
	BYTE		        0
	BYTE		N06     Cs4 
	BYTE	W12
// 019   ----------------------------------------
	BYTE		        Dn4 
	BYTE	W12
	BYTE		        En4 
	BYTE	W12
	BYTE		        Fs4 
	BYTE	W12
	BYTE		N03     Gn4 
	BYTE	W03
	BYTE		N09     Fs4 
	BYTE	W09
	BYTE		N06     Fn4 
	BYTE	W12
	BYTE		        Fs4 
	BYTE	W12
// 020   ----------------------------------------
	BYTE		N12     Bn4 
	BYTE	W12
	BYTE		N06     Fs4 
	BYTE	W12
	BYTE		        En4 
	BYTE	W12
	BYTE		N24     Dn4 
	BYTE	W12
	BYTE		MOD     7
	BYTE	W12
	BYTE		        0
	BYTE		N06     Cs4 
	BYTE	W12
// 021   ----------------------------------------
	BYTE		N24     Dn4 
	BYTE	W24
	BYTE		N06     Bn3 
	BYTE	W12
	BYTE		N24     Cs4 
	BYTE	W24
	BYTE		N06     Dn4 
	BYTE	W12
// 022   ----------------------------------------
	BYTE		N03     Fn4 
	BYTE	W03
	BYTE		N21     En4 
	BYTE	W21
	BYTE		N06     Cs4 
	BYTE	W12
	BYTE		N24     Dn4 
	BYTE	W24
	BYTE		N06     En4 
	BYTE	W12
// 023   ----------------------------------------
	BYTE		        Fs4 
	BYTE	W12
	BYTE		N03     Gn4 
	BYTE	W03
	BYTE		N09     Fs4 
	BYTE	W09
	BYTE		N12     Fn4 
	BYTE	W12
	BYTE		N06     Fs4 
	BYTE	W12
	BYTE		        Fn4 
	BYTE	W12
	BYTE		        Fs4 
	BYTE	W12
// 024   ----------------------------------------
	BYTE		N12     As4 
	BYTE	W12
	BYTE		N06     Fs4 
	BYTE	W12
	BYTE		N12     En4 
	BYTE	W12
	BYTE		        Fs4 
	BYTE	W12
	BYTE		VOICE   60
	BYTE		VOL     73*mus_route113_mvl/mxv
	BYTE		N12     Dn4 
	BYTE	W12
	BYTE		N06     Cs4 
	BYTE	W06
	BYTE		        Cn4 
	BYTE	W06
// 025   ----------------------------------------
	BYTE		VOL     73*mus_route113_mvl/mxv
	BYTE		N24     Bn3 
	BYTE	W24
	BYTE		N06     Cs4 
	BYTE	W09
	BYTE		N03     Ds4 
	BYTE	W03
	BYTE		N24     Dn4 
	BYTE	W12
	BYTE		MOD     6
	BYTE	W12
	BYTE		        0
	BYTE		N06     Bn3 
	BYTE	W12
// 026   ----------------------------------------
	BYTE		N24     Cs4 
	BYTE	W24
	BYTE		N06     Dn4 
	BYTE	W12
	BYTE		N24     En4 
	BYTE	W24
	BYTE		N06     Cs4 
	BYTE	W12
// 027   ----------------------------------------
	BYTE		        Dn4 
	BYTE	W12
	BYTE		        En4 
	BYTE	W12
	BYTE		        Fs4 
	BYTE	W12
	BYTE		N03     Gn4 
	BYTE	W03
	BYTE		N09     Fs4 
	BYTE	W09
	BYTE		N06     Fn4 
	BYTE	W12
	BYTE		        Fs4 
	BYTE	W09
	BYTE		N03     An4   v080
	BYTE	W03
// 028   ----------------------------------------
	BYTE		N12     Gs4   v112
	BYTE	W12
	BYTE		N06     Fs4 
	BYTE	W12
	BYTE		N12     En4 
	BYTE	W12
	BYTE		N18     Bn3 
	BYTE	W18
	BYTE		N06     Cs4 
	BYTE	W06
	BYTE		        Dn4 
	BYTE	W06
	BYTE		        En4 
	BYTE	W06
// 029   ----------------------------------------
	BYTE		N24     Gn4 
	BYTE	W24
	BYTE		N06     An4 
	BYTE	W12
	BYTE		N24     Gn4 
	BYTE	W12
	BYTE		MOD     6
	BYTE	W12
	BYTE		        0
	BYTE		N06     Fs4 
	BYTE	W12
// 030   ----------------------------------------
	BYTE		N24     En4 
	BYTE	W24
	BYTE		N06     Bn3 
	BYTE	W12
	BYTE		N24     Cs4 
	BYTE	W12
	BYTE		MOD     6
	BYTE	W12
	BYTE		        0
	BYTE		N06     Dn4 
	BYTE	W12
// 031   ----------------------------------------
	BYTE		N03     Fn4 
	BYTE	W03
	BYTE		N06     En4 
	BYTE	W09
	BYTE		N12   
	BYTE	W12
	BYTE		N06     Ds4 
	BYTE	W12
	BYTE		        En4 
	BYTE	W12
	BYTE		        Ds4 
	BYTE	W12
	BYTE		        En4 
	BYTE	W12
// 032   ----------------------------------------
	BYTE		N03     Fs4 
	BYTE	W03
	BYTE		N21     Gn4 
	BYTE	W21
	BYTE		N06     Fs4 
	BYTE	W12
	BYTE		N24     En4 
	BYTE	W24
	BYTE		N06     Fs3 
	BYTE	W06
	BYTE		        Bn3 
	BYTE	W06
// 033   ----------------------------------------
	BYTE		VOICE   73
	BYTE		N03     Ds4   v096
	BYTE	W03
	BYTE		N32     Dn4   v112
	BYTE	W09
	BYTE		MOD     7
	BYTE	W24
	BYTE		        0
	BYTE	W02
	BYTE		N22     Cs4 
	BYTE	W22
	BYTE		N12     An3 
	BYTE	W12
// 034   ----------------------------------------
	BYTE	PATT
	 POIN2	mus_route113_2_002
// 035   ----------------------------------------
	BYTE		MOD     0
	BYTE		N03     Ds4   v096
	BYTE	W03
	BYTE		N09     Dn4   v112
	BYTE	W09
	BYTE		N06     Cs4 
	BYTE	W12
	BYTE		N12     An3 
	BYTE	W12
	BYTE		N24     Bn3 
	BYTE	W24
	BYTE		N12     Dn3 
	BYTE	W12
// 036   ----------------------------------------
	BYTE	PATT
	 POIN2	mus_route113_2_004
// 037   ----------------------------------------
	BYTE		N72     An3   v112
	BYTE	W24
	BYTE		MOD     6
	BYTE	W48
// 038   ----------------------------------------
	BYTE	PATT
	 POIN2	mus_route113_2_006
// 039   ----------------------------------------
	BYTE		VOICE   60
	BYTE		N12     An3   v112
	BYTE	W12
	BYTE		N06     Dn3 
	BYTE	W12
	BYTE		VOL     108*mus_route113_mvl/mxv
	BYTE		N96     An3 
	BYTE	W02
	BYTE		VOL     106*mus_route113_mvl/mxv
	BYTE	W03
	BYTE		        100*mus_route113_mvl/mxv
	BYTE	W03
	BYTE		        96*mus_route113_mvl/mxv
	BYTE	W04
	BYTE		        94*mus_route113_mvl/mxv
	BYTE	W02
	BYTE		        90*mus_route113_mvl/mxv
	BYTE	W03
	BYTE		        88*mus_route113_mvl/mxv
	BYTE	W03
	BYTE		        84*mus_route113_mvl/mxv
	BYTE	W04
	BYTE		        79*mus_route113_mvl/mxv
	BYTE	W02
	BYTE		        76*mus_route113_mvl/mxv
	BYTE	W03
	BYTE		        73*mus_route113_mvl/mxv
	BYTE	W03
	BYTE		        70*mus_route113_mvl/mxv
	BYTE	W04
	BYTE		        67*mus_route113_mvl/mxv
	BYTE	W02
	BYTE		        61*mus_route113_mvl/mxv
	BYTE	W03
	BYTE		        56*mus_route113_mvl/mxv
	BYTE	W03
	BYTE		        53*mus_route113_mvl/mxv
	BYTE	W04
// 040   ----------------------------------------
	BYTE		MOD     7
	BYTE	W02
	BYTE		VOL     47*mus_route113_mvl/mxv
	BYTE	W03
	BYTE		        44*mus_route113_mvl/mxv
	BYTE	W03
	BYTE		        40*mus_route113_mvl/mxv
	BYTE	W04
	BYTE		        38*mus_route113_mvl/mxv
	BYTE	W02
	BYTE		        34*mus_route113_mvl/mxv
	BYTE	W03
	BYTE		        29*mus_route113_mvl/mxv
	BYTE	W03
	BYTE		        26*mus_route113_mvl/mxv
	BYTE	W04
	BYTE		        23*mus_route113_mvl/mxv
	BYTE	W02
	BYTE		        17*mus_route113_mvl/mxv
	BYTE	W03
	BYTE		        14*mus_route113_mvl/mxv
	BYTE	W03
	BYTE		        14*mus_route113_mvl/mxv
	BYTE	W04
	BYTE		        11*mus_route113_mvl/mxv
	BYTE	W02
	BYTE		        8*mus_route113_mvl/mxv
	BYTE	W03
	BYTE		        5*mus_route113_mvl/mxv
	BYTE	W03
	BYTE		        2*mus_route113_mvl/mxv
	BYTE	W04
	BYTE		        2*mus_route113_mvl/mxv
	BYTE		MOD     0
	BYTE	W12
	BYTE		VOICE   73
	BYTE		VOL     112*mus_route113_mvl/mxv
	BYTE		N06     En4 
	BYTE	W06
	BYTE		        Ds4 
	BYTE	W06
// 041   ----------------------------------------
	BYTE		N03     Cs4   v092
	BYTE	W03
	BYTE		N32     Dn4   v112
	BYTE	W09
	BYTE		MOD     7
	BYTE	W24
	BYTE		        0
	BYTE	W02
	BYTE		N22     Cs4 
	BYTE	W22
	BYTE		N12     An3 
	BYTE	W12
// 042   ----------------------------------------
	BYTE		N03     Gs4   v088
	BYTE	W03
	BYTE		N21     Gn4   v112
	BYTE	W21
	BYTE		N12     Dn3 
	BYTE	W12
	BYTE		N24     Gn3 
	BYTE	W24
	BYTE		N06     Gn4 
	BYTE	W06
	BYTE		        Fs4 
	BYTE	W06
// 043   ----------------------------------------
	BYTE		N03     Cs4   v096
	BYTE	W03
	BYTE		N09     Dn4   v112
	BYTE	W09
	BYTE		N06     Cs4 
	BYTE	W12
	BYTE		N12     An3 
	BYTE	W12
	BYTE		N24     Cs4 
	BYTE	W24
	BYTE		N12     Dn3 
	BYTE	W12
// 044   ----------------------------------------
	BYTE		N03     Gs4   v092
	BYTE	W03
	BYTE		N09     Gn4   v112
	BYTE	W09
	BYTE		N12     Dn4 
	BYTE	W12
	BYTE		        Gn3 
	BYTE	W12
	BYTE		        Bn3 
	BYTE	W12
	BYTE		        Dn3 
	BYTE	W12
	BYTE		N06     Bn3 
	BYTE	W06
	BYTE		        Cs4 
	BYTE	W06
// 045   ----------------------------------------
	BYTE		N03     As3   v096
	BYTE	W03
	BYTE		N68     An3   v112
	BYTE	W21
	BYTE		MOD     7
	BYTE	W48
// 046   ----------------------------------------
	BYTE	PATT
	 POIN2	mus_route113_2_006
// 047   ----------------------------------------
	BYTE		VOICE   60
	BYTE		N60     An3   v112
	BYTE	W24
	BYTE		VOL     108*mus_route113_mvl/mxv
	BYTE		MOD     5
	BYTE	W02
	BYTE		VOL     106*mus_route113_mvl/mxv
	BYTE	W03
	BYTE		        100*mus_route113_mvl/mxv
	BYTE	W03
	BYTE		        96*mus_route113_mvl/mxv
	BYTE	W04
	BYTE		        94*mus_route113_mvl/mxv
	BYTE	W02
	BYTE		        90*mus_route113_mvl/mxv
	BYTE	W03
	BYTE		        88*mus_route113_mvl/mxv
	BYTE	W03
	BYTE		        84*mus_route113_mvl/mxv
	BYTE	W04
	BYTE		        76*mus_route113_mvl/mxv
	BYTE	W02
	BYTE		        70*mus_route113_mvl/mxv
	BYTE	W03
	BYTE		        64*mus_route113_mvl/mxv
	BYTE	W03
	BYTE		        55*mus_route113_mvl/mxv
	BYTE	W04
	BYTE		        112*mus_route113_mvl/mxv
	BYTE		MOD     0
	BYTE		N06     Dn3 
	BYTE	W12
// 048   ----------------------------------------
	BYTE		N48     An3 
	BYTE	W24
	BYTE		VOL     112*mus_route113_mvl/mxv
	BYTE		MOD     6
	BYTE	W02
	BYTE		VOL     106*mus_route113_mvl/mxv
	BYTE	W03
	BYTE		        96*mus_route113_mvl/mxv
	BYTE	W03
	BYTE		        90*mus_route113_mvl/mxv
	BYTE	W04
	BYTE		        79*mus_route113_mvl/mxv
	BYTE	W02
	BYTE		        76*mus_route113_mvl/mxv
	BYTE	W03
	BYTE		        70*mus_route113_mvl/mxv
	BYTE	W03
	BYTE		        64*mus_route113_mvl/mxv
	BYTE	W04
	BYTE		        61*mus_route113_mvl/mxv
	BYTE		MOD     0
	BYTE	W02
	BYTE		VOL     47*mus_route113_mvl/mxv
	BYTE	W03
	BYTE		        44*mus_route113_mvl/mxv
	BYTE	W03
	BYTE		        38*mus_route113_mvl/mxv
	BYTE	W04
	BYTE		VOICE   24
	BYTE		VOL     112*mus_route113_mvl/mxv
	BYTE		N06     Fs3 
	BYTE	W06
	BYTE		        Bn3 
	BYTE	W06
	BYTE	GoTo
	 POIN2	mus_route113_2_B1
mus_route113_2_B2:
// 049   ----------------------------------------
	BYTE	FINE

//**************** Track 3 (Midi-Chn.3) ****************//

mus_route113_3:
	BYTE	KEYSH   mus_route113_key+0
// 000   ----------------------------------------
	BYTE		VOICE   24
	BYTE		BENDR   12
	BYTE		LFOS    44
	BYTE		BENDR   12
	BYTE		LFOS    44
	BYTE		PAN     c_v+28
	BYTE		VOL     88*mus_route113_mvl/mxv
	BYTE	W12
mus_route113_3_B1:
// 001   ----------------------------------------
mus_route113_3_001:
	BYTE		PAN     c_v+0
	BYTE		VOL     112*mus_route113_mvl/mxv
	BYTE		N06     Gn1   v112
	BYTE	W06
	BYTE		        Gn1   v040
	BYTE	W06
	BYTE		        Bn1   v112
	BYTE	W06
	BYTE		        Bn1   v040
	BYTE	W06
	BYTE		        Fs2   v112
	BYTE	W06
	BYTE		        Fs2   v040
	BYTE	W06
	BYTE		        Gn2   v112
	BYTE	W06
	BYTE		        Gn2   v040
	BYTE	W06
	BYTE		        Bn2   v112
	BYTE	W06
	BYTE		        Bn2   v040
	BYTE	W06
	BYTE		        Fs3   v112
	BYTE	W06
	BYTE		        Fs3   v040
	BYTE	W06
	BYTE	PEND
// 002   ----------------------------------------
mus_route113_3_002:
	BYTE		PAN     c_v+27
	BYTE		VOL     90*mus_route113_mvl/mxv
	BYTE		N04     An3   v112
	BYTE	W04
	BYTE		        Bn3 
	BYTE	W04
	BYTE		        Gn3 
	BYTE	W04
	BYTE		        Fs3 
	BYTE	W04
	BYTE		        Gn3 
	BYTE	W04
	BYTE		        Dn3 
	BYTE	W04
	BYTE		        Cs3 
	BYTE	W04
	BYTE		        Dn3 
	BYTE	W04
	BYTE		        Bn2 
	BYTE	W04
	BYTE		PAN     c_v-28
	BYTE		N04     An2 
	BYTE	W04
	BYTE		        Bn2 
	BYTE	W04
	BYTE		        Gn2 
	BYTE	W04
	BYTE		        Fs2 
	BYTE	W04
	BYTE		        Gn2 
	BYTE	W04
	BYTE		        Dn2 
	BYTE	W04
	BYTE		        Cs2 
	BYTE	W04
	BYTE		        Dn2 
	BYTE	W04
	BYTE		        Bn1 
	BYTE	W04
	BYTE	PEND
// 003   ----------------------------------------
	BYTE	PATT
	 POIN2	mus_route113_3_001
// 004   ----------------------------------------
mus_route113_3_004:
	BYTE		PAN     c_v+27
	BYTE		VOL     90*mus_route113_mvl/mxv
	BYTE		N04     An3   v112
	BYTE	W04
	BYTE		        Bn3 
	BYTE	W04
	BYTE		        Gn3 
	BYTE	W04
	BYTE		        Fs3 
	BYTE	W04
	BYTE		        Gn3 
	BYTE	W04
	BYTE		        Dn3 
	BYTE	W04
	BYTE		        Cs3 
	BYTE	W04
	BYTE		        Dn3 
	BYTE	W04
	BYTE		        Bn2 
	BYTE	W04
	BYTE		PAN     c_v-27
	BYTE		N04     An2 
	BYTE	W04
	BYTE		        Bn2 
	BYTE	W04
	BYTE		        Gn2 
	BYTE	W04
	BYTE		        Fs2 
	BYTE	W04
	BYTE		        Gn2 
	BYTE	W04
	BYTE		        Dn2 
	BYTE	W04
	BYTE		        Cs2 
	BYTE	W04
	BYTE		        Dn2 
	BYTE	W04
	BYTE		        Bn1 
	BYTE	W04
	BYTE	PEND
// 005   ----------------------------------------
mus_route113_3_005:
	BYTE		PAN     c_v+0
	BYTE		VOL     112*mus_route113_mvl/mxv
	BYTE		N06     Dn1   v112
	BYTE	W06
	BYTE		        Dn1   v040
	BYTE	W06
	BYTE		        Fs1   v112
	BYTE	W06
	BYTE		        Fs1   v040
	BYTE	W06
	BYTE		        Cs2   v112
	BYTE	W06
	BYTE		        Cs2   v040
	BYTE	W06
	BYTE		        Dn2   v112
	BYTE	W06
	BYTE		        Dn2   v040
	BYTE	W06
	BYTE		        Fs2   v112
	BYTE	W06
	BYTE		        Fs2   v040
	BYTE	W06
	BYTE		        Cs3   v112
	BYTE	W06
	BYTE		        Cs3   v040
	BYTE	W06
	BYTE	PEND
// 006   ----------------------------------------
mus_route113_3_006:
	BYTE		PAN     c_v+28
	BYTE		VOL     90*mus_route113_mvl/mxv
	BYTE		N04     En3   v112
	BYTE	W04
	BYTE		        Fs3 
	BYTE	W04
	BYTE		        Dn3 
	BYTE	W04
	BYTE		        Cs3 
	BYTE	W04
	BYTE		        Dn3 
	BYTE	W04
	BYTE		        An2 
	BYTE	W04
	BYTE		        Gs2 
	BYTE	W04
	BYTE		        An2 
	BYTE	W04
	BYTE		        Fs2 
	BYTE	W04
	BYTE		PAN     c_v-27
	BYTE		N04     En2 
	BYTE	W04
	BYTE		        Fs2 
	BYTE	W04
	BYTE		        Dn2 
	BYTE	W04
	BYTE		        Cs2 
	BYTE	W04
	BYTE		        Dn2 
	BYTE	W04
	BYTE		        An1 
	BYTE	W16
	BYTE	PEND
// 007   ----------------------------------------
	BYTE		PAN     c_v+0
	BYTE	W72
// 008   ----------------------------------------
	BYTE	W72
// 009   ----------------------------------------
mus_route113_3_009:
	BYTE		VOL     112*mus_route113_mvl/mxv
	BYTE		N06     Gn1   v112
	BYTE	W06
	BYTE		        Gn1   v040
	BYTE	W06
	BYTE		        Bn1   v112
	BYTE	W06
	BYTE		        Bn1   v040
	BYTE	W06
	BYTE		        Fs2   v112
	BYTE	W06
	BYTE		        Fs2   v040
	BYTE	W06
	BYTE		        Gn2   v112
	BYTE	W06
	BYTE		        Gn2   v040
	BYTE	W06
	BYTE		        Bn2   v112
	BYTE	W06
	BYTE		        Bn2   v040
	BYTE	W06
	BYTE		        Fs3   v112
	BYTE	W06
	BYTE		        Fs3   v040
	BYTE	W06
	BYTE	PEND
// 010   ----------------------------------------
mus_route113_3_010:
	BYTE		PAN     c_v+29
	BYTE		VOL     90*mus_route113_mvl/mxv
	BYTE		N04     An3   v112
	BYTE	W04
	BYTE		        Bn3 
	BYTE	W04
	BYTE		        Gn3 
	BYTE	W04
	BYTE		        Fs3 
	BYTE	W04
	BYTE		        Gn3 
	BYTE	W04
	BYTE		        Dn3 
	BYTE	W04
	BYTE		        Cs3 
	BYTE	W04
	BYTE		        Dn3 
	BYTE	W04
	BYTE		        Bn2 
	BYTE	W04
	BYTE		PAN     c_v-27
	BYTE		N04     An2 
	BYTE	W04
	BYTE		        Bn2 
	BYTE	W04
	BYTE		        Gn2 
	BYTE	W04
	BYTE		        Fs2 
	BYTE	W04
	BYTE		        Gn2 
	BYTE	W04
	BYTE		        Dn2 
	BYTE	W04
	BYTE		        Cs2 
	BYTE	W04
	BYTE		        Dn2 
	BYTE	W04
	BYTE		        Bn1 
	BYTE	W04
	BYTE	PEND
// 011   ----------------------------------------
	BYTE	PATT
	 POIN2	mus_route113_3_001
// 012   ----------------------------------------
mus_route113_3_012:
	BYTE		PAN     c_v+28
	BYTE		VOL     90*mus_route113_mvl/mxv
	BYTE		N04     An3   v112
	BYTE	W04
	BYTE		        Bn3 
	BYTE	W04
	BYTE		        Gn3 
	BYTE	W04
	BYTE		        Fs3 
	BYTE	W04
	BYTE		        Gn3 
	BYTE	W04
	BYTE		        Dn3 
	BYTE	W04
	BYTE		        Cs3 
	BYTE	W04
	BYTE		        Dn3 
	BYTE	W04
	BYTE		        Bn2 
	BYTE	W04
	BYTE		PAN     c_v-27
	BYTE		N04     An2 
	BYTE	W04
	BYTE		        Bn2 
	BYTE	W04
	BYTE		        Gn2 
	BYTE	W04
	BYTE		        Fs2 
	BYTE	W04
	BYTE		        Gn2 
	BYTE	W04
	BYTE		        Dn2 
	BYTE	W04
	BYTE		        Cs2 
	BYTE	W04
	BYTE		        Dn2 
	BYTE	W04
	BYTE		        Bn1 
	BYTE	W04
	BYTE	PEND
// 013   ----------------------------------------
	BYTE	PATT
	 POIN2	mus_route113_3_005
// 014   ----------------------------------------
mus_route113_3_014:
	BYTE		PAN     c_v+28
	BYTE		VOL     90*mus_route113_mvl/mxv
	BYTE		N04     En3   v112
	BYTE	W04
	BYTE		        Fs3 
	BYTE	W04
	BYTE		        Dn3 
	BYTE	W04
	BYTE		        Cs3 
	BYTE	W04
	BYTE		        Dn3 
	BYTE	W04
	BYTE		        An2 
	BYTE	W04
	BYTE		        Gs2 
	BYTE	W04
	BYTE		        An2 
	BYTE	W04
	BYTE		        Fs2 
	BYTE	W04
	BYTE		PAN     c_v-28
	BYTE		N04     En2 
	BYTE	W04
	BYTE		        Fs2 
	BYTE	W04
	BYTE		        Dn2 
	BYTE	W04
	BYTE		        Cs2 
	BYTE	W04
	BYTE		        Dn2 
	BYTE	W04
	BYTE		        An1 
	BYTE	W16
	BYTE	PEND
// 015   ----------------------------------------
	BYTE		PAN     c_v+0
	BYTE	W72
// 016   ----------------------------------------
	BYTE	W72
// 017   ----------------------------------------
	BYTE		VOL     118*mus_route113_mvl/mxv
	BYTE		N06     Bn1 
	BYTE	W06
	BYTE		N03     Dn2 
	BYTE	W06
	BYTE		N06     Fs2 
	BYTE	W06
	BYTE		N03     Bn2 
	BYTE	W06
	BYTE		N06     Dn3 
	BYTE	W06
	BYTE		N03     Bn2 
	BYTE	W06
	BYTE		N06     Fs2 
	BYTE	W06
	BYTE		N03     Dn2 
	BYTE	W06
	BYTE		N06     Bn1 
	BYTE	W06
	BYTE		N03     Dn2 
	BYTE	W06
	BYTE		N06     Fs2 
	BYTE	W06
	BYTE		N03     Bn2 
	BYTE	W06
// 018   ----------------------------------------
mus_route113_3_018:
	BYTE		N06     Dn3   v112
	BYTE	W06
	BYTE		N03     As2 
	BYTE	W06
	BYTE		N06     Fs2 
	BYTE	W06
	BYTE		N03     Dn2 
	BYTE	W06
	BYTE		N06     As1 
	BYTE	W06
	BYTE		N03     Dn2 
	BYTE	W06
	BYTE		N06     Fs2 
	BYTE	W06
	BYTE		N03     As2 
	BYTE	W06
	BYTE		N06     Dn3 
	BYTE	W06
	BYTE		N03     As2 
	BYTE	W06
	BYTE		N06     Fs2 
	BYTE	W06
	BYTE		N03     Dn2 
	BYTE	W06
	BYTE	PEND
// 019   ----------------------------------------
mus_route113_3_019:
	BYTE		N06     An1   v112
	BYTE	W06
	BYTE		N03     Dn2 
	BYTE	W06
	BYTE		N06     Fs2 
	BYTE	W06
	BYTE		N03     An2 
	BYTE	W06
	BYTE		N06     Dn3 
	BYTE	W06
	BYTE		N03     An2 
	BYTE	W06
	BYTE		N06     Fs2 
	BYTE	W06
	BYTE		N03     Dn2 
	BYTE	W06
	BYTE		N06     An1 
	BYTE	W06
	BYTE		N03     Dn2 
	BYTE	W06
	BYTE		N06     Fs2 
	BYTE	W06
	BYTE		N03     An2 
	BYTE	W06
	BYTE	PEND
// 020   ----------------------------------------
mus_route113_3_020:
	BYTE		N06     Dn3   v112
	BYTE	W06
	BYTE		N03     Gs2 
	BYTE	W06
	BYTE		N06     Fs2 
	BYTE	W06
	BYTE		N03     Dn2 
	BYTE	W06
	BYTE		N06     Gs1 
	BYTE	W06
	BYTE		N03     Dn2 
	BYTE	W06
	BYTE		N06     Fs2 
	BYTE	W06
	BYTE		N03     Gs2 
	BYTE	W06
	BYTE		N06     Dn3 
	BYTE	W06
	BYTE		N03     Gs2 
	BYTE	W06
	BYTE		N06     Fs2 
	BYTE	W06
	BYTE		N03     Dn2 
	BYTE	W06
	BYTE	PEND
// 021   ----------------------------------------
	BYTE		N06     Gn1 
	BYTE	W06
	BYTE		N03     Bn1 
	BYTE	W06
	BYTE		N06     Dn2 
	BYTE	W06
	BYTE		N03     Gn2 
	BYTE	W06
	BYTE		N06     Bn2 
	BYTE	W06
	BYTE		N03     Gn2 
	BYTE	W06
	BYTE		N06     Dn2 
	BYTE	W06
	BYTE		N03     Bn1 
	BYTE	W06
	BYTE		N06     Gn1 
	BYTE	W06
	BYTE		N03     Bn1 
	BYTE	W06
	BYTE		N06     Dn2 
	BYTE	W06
	BYTE		N03     Gn2 
	BYTE	W06
// 022   ----------------------------------------
	BYTE		N06     An2 
	BYTE	W06
	BYTE		N03     En2 
	BYTE	W06
	BYTE		N06     Cs2 
	BYTE	W06
	BYTE		N03     An1 
	BYTE	W06
	BYTE		N06     En1 
	BYTE	W06
	BYTE		N03     An1 
	BYTE	W06
	BYTE		N06     Cs2 
	BYTE	W06
	BYTE		N03     En2 
	BYTE	W06
	BYTE		N06     An2 
	BYTE	W06
	BYTE		N03     En2 
	BYTE	W06
	BYTE		N06     Cs2 
	BYTE	W06
	BYTE		N03     An1 
	BYTE	W06
// 023   ----------------------------------------
	BYTE		N06     Fs1 
	BYTE	W06
	BYTE		N03     As1 
	BYTE	W06
	BYTE		N06     Cs2 
	BYTE	W06
	BYTE		N03     En2 
	BYTE	W06
	BYTE		N06     Fs2 
	BYTE	W06
	BYTE		N03     En2 
	BYTE	W06
	BYTE		N06     Cs2 
	BYTE	W06
	BYTE		N03     As1 
	BYTE	W06
	BYTE		N06     Fs1 
	BYTE	W06
	BYTE		N03     As1 
	BYTE	W06
	BYTE		N06     Cs2 
	BYTE	W06
	BYTE		N03     En2 
	BYTE	W06
// 024   ----------------------------------------
	BYTE		N06     As2 
	BYTE	W06
	BYTE		N03     Fs2 
	BYTE	W06
	BYTE		N06     En2 
	BYTE	W06
	BYTE		N03     Cs2 
	BYTE	W06
	BYTE		N06     As1 
	BYTE	W06
	BYTE		N03     Cs2 
	BYTE	W06
	BYTE		N06     En2 
	BYTE	W06
	BYTE		N03     Fs2 
	BYTE	W06
	BYTE		N06     As2 
	BYTE	W06
	BYTE		N03     Fs2 
	BYTE	W06
	BYTE		N06     En2 
	BYTE	W06
	BYTE		N03     Cs2 
	BYTE	W06
// 025   ----------------------------------------
	BYTE		N06     Bn1 
	BYTE	W06
	BYTE		N03     Dn2 
	BYTE	W06
	BYTE		N06     Fs2 
	BYTE	W06
	BYTE		N03     Bn2 
	BYTE	W06
	BYTE		N06     Dn3 
	BYTE	W06
	BYTE		N03     Bn2 
	BYTE	W06
	BYTE		N06     Fs2 
	BYTE	W06
	BYTE		N03     Dn2 
	BYTE	W06
	BYTE		N06     Bn1 
	BYTE	W06
	BYTE		N03     Dn2 
	BYTE	W06
	BYTE		N06     Fs2 
	BYTE	W06
	BYTE		N03     Bn2 
	BYTE	W06
// 026   ----------------------------------------
	BYTE	PATT
	 POIN2	mus_route113_3_018
// 027   ----------------------------------------
	BYTE	PATT
	 POIN2	mus_route113_3_019
// 028   ----------------------------------------
	BYTE	PATT
	 POIN2	mus_route113_3_020
// 029   ----------------------------------------
	BYTE		N06     Gn1   v112
	BYTE	W06
	BYTE		N03     Dn2 
	BYTE	W06
	BYTE		N06     Fs2 
	BYTE	W06
	BYTE		N03     Bn2 
	BYTE	W06
	BYTE		N06     Dn3 
	BYTE	W06
	BYTE		N03     Bn2 
	BYTE	W06
	BYTE		N06     Fs2 
	BYTE	W06
	BYTE		N03     Dn2 
	BYTE	W06
	BYTE		N06     Gn1 
	BYTE	W06
	BYTE		N03     Dn2 
	BYTE	W06
	BYTE		N06     Fs2 
	BYTE	W06
	BYTE		N03     Bn2 
	BYTE	W06
// 030   ----------------------------------------
	BYTE		N06     Dn3 
	BYTE	W06
	BYTE		N03     Gs2 
	BYTE	W06
	BYTE		N06     Fs2 
	BYTE	W06
	BYTE		N03     Dn2 
	BYTE	W06
	BYTE		N06     Gs1 
	BYTE	W06
	BYTE		N03     Dn2 
	BYTE	W06
	BYTE		N06     Fs2 
	BYTE	W06
	BYTE		N03     Gs2 
	BYTE	W06
	BYTE		N06     Bn2 
	BYTE	W06
	BYTE		N03     Gs2 
	BYTE	W06
	BYTE		N06     Fs2 
	BYTE	W06
	BYTE		N03     Dn2 
	BYTE	W06
// 031   ----------------------------------------
mus_route113_3_031:
	BYTE		N06     An1   v112
	BYTE	W06
	BYTE		N03     En2 
	BYTE	W06
	BYTE		N06     An2 
	BYTE	W06
	BYTE		N03     Cs3 
	BYTE	W06
	BYTE		N06     En3 
	BYTE	W06
	BYTE		N03     Cs3 
	BYTE	W06
	BYTE		N06     An2 
	BYTE	W06
	BYTE		N03     En2 
	BYTE	W06
	BYTE		N06     An1 
	BYTE	W06
	BYTE		N03     En2 
	BYTE	W06
	BYTE		N06     An2 
	BYTE	W06
	BYTE		N03     Cs3 
	BYTE	W06
	BYTE	PEND
// 032   ----------------------------------------
	BYTE	PATT
	 POIN2	mus_route113_3_031
// 033   ----------------------------------------
	BYTE	PATT
	 POIN2	mus_route113_3_009
// 034   ----------------------------------------
	BYTE	PATT
	 POIN2	mus_route113_3_002
// 035   ----------------------------------------
	BYTE	PATT
	 POIN2	mus_route113_3_001
// 036   ----------------------------------------
	BYTE	PATT
	 POIN2	mus_route113_3_004
// 037   ----------------------------------------
	BYTE	PATT
	 POIN2	mus_route113_3_005
// 038   ----------------------------------------
	BYTE	PATT
	 POIN2	mus_route113_3_006
// 039   ----------------------------------------
	BYTE		PAN     c_v+0
	BYTE	W72
// 040   ----------------------------------------
	BYTE	W72
// 041   ----------------------------------------
	BYTE	PATT
	 POIN2	mus_route113_3_009
// 042   ----------------------------------------
	BYTE	PATT
	 POIN2	mus_route113_3_010
// 043   ----------------------------------------
	BYTE	PATT
	 POIN2	mus_route113_3_001
// 044   ----------------------------------------
	BYTE	PATT
	 POIN2	mus_route113_3_012
// 045   ----------------------------------------
	BYTE	PATT
	 POIN2	mus_route113_3_005
// 046   ----------------------------------------
	BYTE	PATT
	 POIN2	mus_route113_3_014
// 047   ----------------------------------------
	BYTE		PAN     c_v+0
	BYTE	W72
// 048   ----------------------------------------
	BYTE	W72
	BYTE	GoTo
	 POIN2	mus_route113_3_B1
mus_route113_3_B2:
// 049   ----------------------------------------
	BYTE	FINE

//**************** Track 4 (Midi-Chn.4) ****************//

mus_route113_4:
	BYTE	KEYSH   mus_route113_key+0
// 000   ----------------------------------------
	BYTE		VOICE   47
	BYTE		LFOS    44
	BYTE		BENDR   12
	BYTE		VOL     124*mus_route113_mvl/mxv
	BYTE		PAN     c_v+15
	BYTE	W12
mus_route113_4_B1:
// 001   ----------------------------------------
	BYTE	W72
// 002   ----------------------------------------
	BYTE	W72
// 003   ----------------------------------------
	BYTE	W72
// 004   ----------------------------------------
	BYTE	W72
// 005   ----------------------------------------
	BYTE	W72
// 006   ----------------------------------------
mus_route113_4_006:
	BYTE	W60
	BYTE		N03     An2   v120
	BYTE	W06
	BYTE		N03   
	BYTE	W06
	BYTE	PEND
// 007   ----------------------------------------
	BYTE		N12     Dn2 
	BYTE	W72
// 008   ----------------------------------------
	BYTE	W72
// 009   ----------------------------------------
	BYTE	W72
// 010   ----------------------------------------
	BYTE	W72
// 011   ----------------------------------------
	BYTE	W72
// 012   ----------------------------------------
	BYTE	W72
// 013   ----------------------------------------
	BYTE	W72
// 014   ----------------------------------------
mus_route113_4_014:
	BYTE	W60
	BYTE		N03     An1   v120
	BYTE	W06
	BYTE		N03   
	BYTE	W06
	BYTE	PEND
// 015   ----------------------------------------
	BYTE		N15     Dn2 
	BYTE	W72
// 016   ----------------------------------------
	BYTE	W72
// 017   ----------------------------------------
	BYTE	W72
// 018   ----------------------------------------
	BYTE	W72
// 019   ----------------------------------------
	BYTE	W72
// 020   ----------------------------------------
	BYTE	W72
// 021   ----------------------------------------
	BYTE	W72
// 022   ----------------------------------------
	BYTE	W72
// 023   ----------------------------------------
	BYTE	W72
// 024   ----------------------------------------
	BYTE	W72
// 025   ----------------------------------------
	BYTE	W72
// 026   ----------------------------------------
	BYTE	W72
// 027   ----------------------------------------
	BYTE	W72
// 028   ----------------------------------------
	BYTE	W72
// 029   ----------------------------------------
	BYTE	W72
// 030   ----------------------------------------
	BYTE	W72
// 031   ----------------------------------------
	BYTE	W72
// 032   ----------------------------------------
	BYTE	W72
// 033   ----------------------------------------
	BYTE	W72
// 034   ----------------------------------------
	BYTE	W72
// 035   ----------------------------------------
	BYTE	W72
// 036   ----------------------------------------
	BYTE	W72
// 037   ----------------------------------------
	BYTE	W72
// 038   ----------------------------------------
	BYTE	PATT
	 POIN2	mus_route113_4_006
// 039   ----------------------------------------
	BYTE		N12     Dn2   v120
	BYTE	W12
	BYTE		N06     An2 
	BYTE	W12
	BYTE		N12     Dn2 
	BYTE	W48
// 040   ----------------------------------------
	BYTE	W72
// 041   ----------------------------------------
	BYTE	W72
// 042   ----------------------------------------
	BYTE	W72
// 043   ----------------------------------------
	BYTE	W72
// 044   ----------------------------------------
	BYTE	W72
// 045   ----------------------------------------
	BYTE	W72
// 046   ----------------------------------------
	BYTE	PATT
	 POIN2	mus_route113_4_014
// 047   ----------------------------------------
	BYTE		N15     Dn2   v120
	BYTE	W60
	BYTE		N03     An1 
	BYTE	W06
	BYTE		N03   
	BYTE	W06
// 048   ----------------------------------------
	BYTE		N12     Dn2 
	BYTE	W72
	BYTE	GoTo
	 POIN2	mus_route113_4_B1
mus_route113_4_B2:
// 049   ----------------------------------------
	BYTE	FINE

//**************** Track 5 (Midi-Chn.5) ****************//

mus_route113_5:
	BYTE	KEYSH   mus_route113_key+0
// 000   ----------------------------------------
	BYTE		VOICE   80
	BYTE		LFOS    44
	BYTE		XCMD    xIECV   18
	BYTE		        xIECV   16
	BYTE		BENDR   12
	BYTE		VOL     64*mus_route113_mvl/mxv
	BYTE		PAN     c_v-53
	BYTE	W12
mus_route113_5_B1:
// 001   ----------------------------------------
mus_route113_5_001:
	BYTE		N12     Fs3   v084
	BYTE	W12
	BYTE		N03     Fs3   v112
	BYTE	W06
	BYTE		        Fs3   v084
	BYTE	W06
	BYTE		N12   
	BYTE	W12
	BYTE		N09     Fs3   v072
	BYTE	W12
	BYTE		N03     Fs3   v112
	BYTE	W06
	BYTE		        Fs3   v076
	BYTE	W06
	BYTE		N12   
	BYTE	W12
	BYTE	PEND
// 002   ----------------------------------------
mus_route113_5_002:
	BYTE		N12     Fs3   v084
	BYTE	W12
	BYTE		N03     Fs3   v112
	BYTE	W06
	BYTE		        Fs3   v064
	BYTE	W06
	BYTE		        Fs3   v116
	BYTE	W06
	BYTE		        Fs3   v080
	BYTE	W06
	BYTE		N09     Fs3   v072
	BYTE	W12
	BYTE		N03     Fs3   v112
	BYTE	W06
	BYTE		        Fs3   v076
	BYTE	W06
	BYTE		N12   
	BYTE	W12
	BYTE	PEND
// 003   ----------------------------------------
	BYTE	PATT
	 POIN2	mus_route113_5_001
// 004   ----------------------------------------
	BYTE	PATT
	 POIN2	mus_route113_5_002
// 005   ----------------------------------------
mus_route113_5_005:
	BYTE		N12     Cs3   v084
	BYTE	W12
	BYTE		N03     Cs3   v112
	BYTE	W06
	BYTE		        Cs3   v084
	BYTE	W06
	BYTE		N12   
	BYTE	W12
	BYTE		N09     Cs3   v072
	BYTE	W12
	BYTE		N03     Cs3   v112
	BYTE	W06
	BYTE		        Cs3   v076
	BYTE	W06
	BYTE		N12   
	BYTE	W12
	BYTE	PEND
// 006   ----------------------------------------
mus_route113_5_006:
	BYTE		N12     Cs3   v084
	BYTE	W12
	BYTE		N03     Cs3   v112
	BYTE	W06
	BYTE		        Cs3   v064
	BYTE	W06
	BYTE		        Cs3   v116
	BYTE	W06
	BYTE		        Cs3   v080
	BYTE	W06
	BYTE		N09     Cs3   v072
	BYTE	W12
	BYTE		N03     Cs3   v112
	BYTE	W06
	BYTE		        Cs3   v076
	BYTE	W06
	BYTE		N12   
	BYTE	W12
	BYTE	PEND
// 007   ----------------------------------------
	BYTE	PATT
	 POIN2	mus_route113_5_005
// 008   ----------------------------------------
	BYTE	PATT
	 POIN2	mus_route113_5_006
// 009   ----------------------------------------
	BYTE	PATT
	 POIN2	mus_route113_5_001
// 010   ----------------------------------------
	BYTE	PATT
	 POIN2	mus_route113_5_002
// 011   ----------------------------------------
	BYTE	PATT
	 POIN2	mus_route113_5_001
// 012   ----------------------------------------
	BYTE	PATT
	 POIN2	mus_route113_5_002
// 013   ----------------------------------------
	BYTE	PATT
	 POIN2	mus_route113_5_005
// 014   ----------------------------------------
	BYTE	PATT
	 POIN2	mus_route113_5_006
// 015   ----------------------------------------
	BYTE	PATT
	 POIN2	mus_route113_5_005
// 016   ----------------------------------------
	BYTE	PATT
	 POIN2	mus_route113_5_006
// 017   ----------------------------------------
mus_route113_5_017:
	BYTE		N12     Dn3   v084
	BYTE	W12
	BYTE		N03     Dn3   v112
	BYTE	W06
	BYTE		        Dn3   v084
	BYTE	W06
	BYTE		N12   
	BYTE	W12
	BYTE		N09     Dn3   v072
	BYTE	W12
	BYTE		N03     Dn3   v112
	BYTE	W06
	BYTE		        Dn3   v076
	BYTE	W06
	BYTE		N12   
	BYTE	W12
	BYTE	PEND
// 018   ----------------------------------------
mus_route113_5_018:
	BYTE		N12     Dn3   v084
	BYTE	W12
	BYTE		N03     Dn3   v112
	BYTE	W06
	BYTE		        Dn3   v064
	BYTE	W06
	BYTE		        Dn3   v116
	BYTE	W06
	BYTE		        Dn3   v080
	BYTE	W06
	BYTE		N09     Dn3   v072
	BYTE	W12
	BYTE		N03     Dn3   v112
	BYTE	W06
	BYTE		        Dn3   v076
	BYTE	W06
	BYTE		N12   
	BYTE	W12
	BYTE	PEND
// 019   ----------------------------------------
	BYTE	PATT
	 POIN2	mus_route113_5_017
// 020   ----------------------------------------
	BYTE	PATT
	 POIN2	mus_route113_5_018
// 021   ----------------------------------------
mus_route113_5_021:
	BYTE		N12     Bn3   v084
	BYTE	W12
	BYTE		N03     Bn3   v112
	BYTE	W06
	BYTE		        Bn3   v084
	BYTE	W06
	BYTE		N12   
	BYTE	W12
	BYTE		N09     Bn3   v072
	BYTE	W12
	BYTE		N03     Bn3   v112
	BYTE	W06
	BYTE		        Bn3   v076
	BYTE	W06
	BYTE		N12   
	BYTE	W12
	BYTE	PEND
// 022   ----------------------------------------
	BYTE		        Cs4   v084
	BYTE	W12
	BYTE		N03     Cs4   v112
	BYTE	W06
	BYTE		        Cs4   v064
	BYTE	W06
	BYTE		        Cs4   v116
	BYTE	W06
	BYTE		        Cs4   v080
	BYTE	W06
	BYTE		N09     Cs4   v072
	BYTE	W12
	BYTE		N03     Cs4   v112
	BYTE	W06
	BYTE		        Cs4   v076
	BYTE	W06
	BYTE		N12   
	BYTE	W12
// 023   ----------------------------------------
	BYTE		        As3   v084
	BYTE	W12
	BYTE		N03     As3   v112
	BYTE	W06
	BYTE		        As3   v084
	BYTE	W06
	BYTE		N12   
	BYTE	W12
	BYTE		N09     As3   v072
	BYTE	W12
	BYTE		N03     As3   v112
	BYTE	W06
	BYTE		        As3   v076
	BYTE	W06
	BYTE		N12   
	BYTE	W12
// 024   ----------------------------------------
	BYTE		        Fs3   v084
	BYTE	W12
	BYTE		N03     Fs3   v112
	BYTE	W06
	BYTE		        Fs3   v064
	BYTE	W06
	BYTE		        Fs3   v116
	BYTE	W06
	BYTE		        Fs3   v080
	BYTE	W06
	BYTE		N09     As3   v072
	BYTE	W12
	BYTE		N03     As3   v112
	BYTE	W06
	BYTE		        As3   v076
	BYTE	W06
	BYTE		N12   
	BYTE	W12
// 025   ----------------------------------------
mus_route113_5_025:
	BYTE		N12     Dn4   v084
	BYTE	W12
	BYTE		N03     Dn4   v112
	BYTE	W06
	BYTE		        Dn4   v084
	BYTE	W06
	BYTE		N12   
	BYTE	W12
	BYTE		N09     Dn4   v072
	BYTE	W12
	BYTE		N03     Dn4   v112
	BYTE	W06
	BYTE		        Dn4   v076
	BYTE	W06
	BYTE		N12   
	BYTE	W12
	BYTE	PEND
// 026   ----------------------------------------
mus_route113_5_026:
	BYTE		N12     Dn4   v084
	BYTE	W12
	BYTE		N03     Dn4   v112
	BYTE	W06
	BYTE		        Dn4   v064
	BYTE	W06
	BYTE		        Dn4   v116
	BYTE	W06
	BYTE		        Dn4   v080
	BYTE	W06
	BYTE		N09     Dn4   v072
	BYTE	W12
	BYTE		N03     Dn4   v112
	BYTE	W06
	BYTE		        Dn4   v076
	BYTE	W06
	BYTE		N12   
	BYTE	W12
	BYTE	PEND
// 027   ----------------------------------------
	BYTE	PATT
	 POIN2	mus_route113_5_025
// 028   ----------------------------------------
	BYTE	PATT
	 POIN2	mus_route113_5_026
// 029   ----------------------------------------
	BYTE	PATT
	 POIN2	mus_route113_5_021
// 030   ----------------------------------------
	BYTE		N12     Gs3   v084
	BYTE	W12
	BYTE		N03     Gs3   v112
	BYTE	W06
	BYTE		        Gs3   v064
	BYTE	W06
	BYTE		        Gs3   v116
	BYTE	W06
	BYTE		        Gs3   v080
	BYTE	W06
	BYTE		N09     Gs3   v072
	BYTE	W12
	BYTE		N03     Gs3   v112
	BYTE	W06
	BYTE		        Gs3   v076
	BYTE	W06
	BYTE		N12   
	BYTE	W12
// 031   ----------------------------------------
	BYTE		        An3   v084
	BYTE	W12
	BYTE		N03     An3   v112
	BYTE	W06
	BYTE		        An3   v084
	BYTE	W06
	BYTE		N12   
	BYTE	W12
	BYTE		N09     An3   v072
	BYTE	W12
	BYTE		N03     An3   v112
	BYTE	W06
	BYTE		        An3   v076
	BYTE	W06
	BYTE		N12   
	BYTE	W12
// 032   ----------------------------------------
	BYTE		        An3   v084
	BYTE	W12
	BYTE		N03     An3   v112
	BYTE	W06
	BYTE		        An3   v064
	BYTE	W06
	BYTE		        An3   v116
	BYTE	W06
	BYTE		        An3   v080
	BYTE	W06
	BYTE		N09     Cs4   v072
	BYTE	W12
	BYTE		N03     Cs4   v112
	BYTE	W06
	BYTE		        Cs4   v076
	BYTE	W06
	BYTE		N12   
	BYTE	W12
// 033   ----------------------------------------
	BYTE	PATT
	 POIN2	mus_route113_5_001
// 034   ----------------------------------------
	BYTE	PATT
	 POIN2	mus_route113_5_002
// 035   ----------------------------------------
	BYTE	PATT
	 POIN2	mus_route113_5_001
// 036   ----------------------------------------
	BYTE	PATT
	 POIN2	mus_route113_5_002
// 037   ----------------------------------------
	BYTE	PATT
	 POIN2	mus_route113_5_005
// 038   ----------------------------------------
	BYTE	PATT
	 POIN2	mus_route113_5_006
// 039   ----------------------------------------
	BYTE	PATT
	 POIN2	mus_route113_5_005
// 040   ----------------------------------------
	BYTE	PATT
	 POIN2	mus_route113_5_006
// 041   ----------------------------------------
	BYTE	PATT
	 POIN2	mus_route113_5_001
// 042   ----------------------------------------
	BYTE	PATT
	 POIN2	mus_route113_5_002
// 043   ----------------------------------------
	BYTE	PATT
	 POIN2	mus_route113_5_001
// 044   ----------------------------------------
	BYTE	PATT
	 POIN2	mus_route113_5_002
// 045   ----------------------------------------
	BYTE	PATT
	 POIN2	mus_route113_5_005
// 046   ----------------------------------------
	BYTE	PATT
	 POIN2	mus_route113_5_006
// 047   ----------------------------------------
	BYTE	PATT
	 POIN2	mus_route113_5_005
// 048   ----------------------------------------
	BYTE	PATT
	 POIN2	mus_route113_5_006
	BYTE	GoTo
	 POIN2	mus_route113_5_B1
mus_route113_5_B2:
// 049   ----------------------------------------
	BYTE	FINE

//**************** Track 6 (Midi-Chn.6) ****************//

mus_route113_6:
	BYTE	KEYSH   mus_route113_key+0
// 000   ----------------------------------------
	BYTE		VOICE   81
	BYTE		LFOS    44
	BYTE		XCMD    xIECV   18
	BYTE		        xIECV   16
	BYTE		BENDR   12
	BYTE		VOL     64*mus_route113_mvl/mxv
	BYTE		PAN     c_v+63
	BYTE	W12
mus_route113_6_B1:
// 001   ----------------------------------------
mus_route113_6_001:
	BYTE		N12     Bn3   v084
	BYTE	W12
	BYTE		N03     Bn3   v112
	BYTE	W06
	BYTE		        Bn3   v084
	BYTE	W06
	BYTE		N12   
	BYTE	W12
	BYTE		N09     Bn3   v072
	BYTE	W12
	BYTE		N03     Bn3   v112
	BYTE	W06
	BYTE		        Bn3   v076
	BYTE	W06
	BYTE		N12   
	BYTE	W12
	BYTE	PEND
// 002   ----------------------------------------
mus_route113_6_002:
	BYTE		N12     Bn3   v084
	BYTE	W12
	BYTE		N03     Bn3   v112
	BYTE	W06
	BYTE		        Bn3   v064
	BYTE	W06
	BYTE		        Bn3   v116
	BYTE	W06
	BYTE		        Bn3   v080
	BYTE	W06
	BYTE		N09     Bn3   v072
	BYTE	W12
	BYTE		N03     Bn3   v112
	BYTE	W06
	BYTE		        Bn3   v076
	BYTE	W06
	BYTE		N12   
	BYTE	W12
	BYTE	PEND
// 003   ----------------------------------------
	BYTE	PATT
	 POIN2	mus_route113_6_001
// 004   ----------------------------------------
	BYTE	PATT
	 POIN2	mus_route113_6_002
// 005   ----------------------------------------
mus_route113_6_005:
	BYTE		N12     Fs3   v084
	BYTE	W12
	BYTE		N03     Fs3   v112
	BYTE	W06
	BYTE		        Fs3   v084
	BYTE	W06
	BYTE		N12   
	BYTE	W12
	BYTE		N09     Fs3   v072
	BYTE	W12
	BYTE		N03     Fs3   v112
	BYTE	W06
	BYTE		        Fs3   v076
	BYTE	W06
	BYTE		N12   
	BYTE	W12
	BYTE	PEND
// 006   ----------------------------------------
mus_route113_6_006:
	BYTE		N12     Fs3   v084
	BYTE	W12
	BYTE		N03     Fs3   v112
	BYTE	W06
	BYTE		        Fs3   v064
	BYTE	W06
	BYTE		        Fs3   v116
	BYTE	W06
	BYTE		        Fs3   v080
	BYTE	W06
	BYTE		N09     Fs3   v072
	BYTE	W12
	BYTE		N03     Fs3   v112
	BYTE	W06
	BYTE		        Fs3   v076
	BYTE	W06
	BYTE		N12   
	BYTE	W12
	BYTE	PEND
// 007   ----------------------------------------
	BYTE	PATT
	 POIN2	mus_route113_6_005
// 008   ----------------------------------------
	BYTE	PATT
	 POIN2	mus_route113_6_006
// 009   ----------------------------------------
	BYTE	PATT
	 POIN2	mus_route113_6_001
// 010   ----------------------------------------
	BYTE	PATT
	 POIN2	mus_route113_6_002
// 011   ----------------------------------------
	BYTE	PATT
	 POIN2	mus_route113_6_001
// 012   ----------------------------------------
	BYTE	PATT
	 POIN2	mus_route113_6_002
// 013   ----------------------------------------
	BYTE	PATT
	 POIN2	mus_route113_6_005
// 014   ----------------------------------------
	BYTE	PATT
	 POIN2	mus_route113_6_006
// 015   ----------------------------------------
	BYTE	PATT
	 POIN2	mus_route113_6_005
// 016   ----------------------------------------
	BYTE	PATT
	 POIN2	mus_route113_6_006
// 017   ----------------------------------------
	BYTE		N12     An3   v084
	BYTE	W12
	BYTE		N03     An3   v112
	BYTE	W06
	BYTE		        An3   v084
	BYTE	W06
	BYTE		N12   
	BYTE	W12
	BYTE		N09     An3   v072
	BYTE	W12
	BYTE		N03     An3   v112
	BYTE	W06
	BYTE		        An3   v076
	BYTE	W06
	BYTE		N12   
	BYTE	W12
// 018   ----------------------------------------
	BYTE		        As3   v084
	BYTE	W12
	BYTE		N03     As3   v112
	BYTE	W06
	BYTE		        As3   v064
	BYTE	W06
	BYTE		        As3   v116
	BYTE	W06
	BYTE		        As3   v080
	BYTE	W06
	BYTE		N09     As3   v072
	BYTE	W12
	BYTE		N03     As3   v112
	BYTE	W06
	BYTE		        As3   v076
	BYTE	W06
	BYTE		N12   
	BYTE	W12
// 019   ----------------------------------------
	BYTE	PATT
	 POIN2	mus_route113_6_001
// 020   ----------------------------------------
	BYTE		N12     Cs4   v084
	BYTE	W12
	BYTE		N03     Cs4   v112
	BYTE	W06
	BYTE		        Cs4   v064
	BYTE	W06
	BYTE		        Cs4   v116
	BYTE	W06
	BYTE		        Cs4   v080
	BYTE	W06
	BYTE		N09     Dn4   v072
	BYTE	W12
	BYTE		N03     Dn4   v112
	BYTE	W06
	BYTE		        Dn4   v076
	BYTE	W06
	BYTE		N12   
	BYTE	W12
// 021   ----------------------------------------
mus_route113_6_021:
	BYTE		N12     Fs4   v084
	BYTE	W12
	BYTE		N03     Fs4   v112
	BYTE	W06
	BYTE		        Fs4   v084
	BYTE	W06
	BYTE		N12   
	BYTE	W12
	BYTE		N09     Fs4   v072
	BYTE	W12
	BYTE		N03     Fs4   v112
	BYTE	W06
	BYTE		        Fs4   v076
	BYTE	W06
	BYTE		N12   
	BYTE	W12
	BYTE	PEND
// 022   ----------------------------------------
	BYTE		        Gn4   v084
	BYTE	W12
	BYTE		N03     Gn4   v112
	BYTE	W06
	BYTE		        Gn4   v064
	BYTE	W06
	BYTE		        Gn4   v116
	BYTE	W06
	BYTE		        Gn4   v080
	BYTE	W06
	BYTE		N09     Gn4   v072
	BYTE	W12
	BYTE		N03     Gn4   v112
	BYTE	W06
	BYTE		        Gn4   v076
	BYTE	W06
	BYTE		N12   
	BYTE	W12
// 023   ----------------------------------------
	BYTE		        En4   v084
	BYTE	W12
	BYTE		N03     En4   v112
	BYTE	W06
	BYTE		        En4   v084
	BYTE	W06
	BYTE		N12   
	BYTE	W12
	BYTE		N09     En4   v072
	BYTE	W12
	BYTE		N03     En4   v112
	BYTE	W06
	BYTE		        En4   v076
	BYTE	W06
	BYTE		N12   
	BYTE	W12
// 024   ----------------------------------------
	BYTE		        Cs4   v084
	BYTE	W12
	BYTE		N03     Cs4   v112
	BYTE	W06
	BYTE		        Cs4   v064
	BYTE	W06
	BYTE		        Cs4   v116
	BYTE	W06
	BYTE		        Cs4   v080
	BYTE	W06
	BYTE		N09     Fs4   v072
	BYTE	W12
	BYTE		N03     Fs4   v112
	BYTE	W06
	BYTE		        Fs4   v076
	BYTE	W06
	BYTE		N12   
	BYTE	W12
// 025   ----------------------------------------
	BYTE		        An4   v084
	BYTE	W12
	BYTE		N03     An4   v112
	BYTE	W06
	BYTE		        An4   v084
	BYTE	W06
	BYTE		N12   
	BYTE	W12
	BYTE		N09     An4   v072
	BYTE	W12
	BYTE		N03     An4   v112
	BYTE	W06
	BYTE		        An4   v076
	BYTE	W06
	BYTE		N12   
	BYTE	W12
// 026   ----------------------------------------
	BYTE		        As4   v084
	BYTE	W12
	BYTE		N03     As4   v112
	BYTE	W06
	BYTE		        As4   v064
	BYTE	W06
	BYTE		        As4   v116
	BYTE	W06
	BYTE		        As4   v080
	BYTE	W06
	BYTE		N09     As4   v072
	BYTE	W12
	BYTE		N03     As4   v112
	BYTE	W06
	BYTE		        As4   v076
	BYTE	W06
	BYTE		N12   
	BYTE	W12
// 027   ----------------------------------------
	BYTE		        Bn4   v084
	BYTE	W12
	BYTE		N03     Bn4   v112
	BYTE	W06
	BYTE		        Bn4   v084
	BYTE	W06
	BYTE		N12   
	BYTE	W12
	BYTE		N09     Bn4   v072
	BYTE	W12
	BYTE		N03     Bn4   v112
	BYTE	W06
	BYTE		        Bn4   v076
	BYTE	W06
	BYTE		N12   
	BYTE	W12
// 028   ----------------------------------------
	BYTE		        Cs5   v084
	BYTE	W12
	BYTE		N03     Cs5   v112
	BYTE	W06
	BYTE		        Cs5   v064
	BYTE	W06
	BYTE		        Cs5   v116
	BYTE	W06
	BYTE		        Cs5   v080
	BYTE	W06
	BYTE		N09     Bn4   v072
	BYTE	W12
	BYTE		N03     Bn4   v112
	BYTE	W06
	BYTE		        Bn4   v076
	BYTE	W06
	BYTE		N12   
	BYTE	W12
// 029   ----------------------------------------
	BYTE	PATT
	 POIN2	mus_route113_6_021
// 030   ----------------------------------------
	BYTE		N12     Dn4   v084
	BYTE	W12
	BYTE		N03     Dn4   v112
	BYTE	W06
	BYTE		        Dn4   v064
	BYTE	W06
	BYTE		        Dn4   v116
	BYTE	W06
	BYTE		        Dn4   v080
	BYTE	W06
	BYTE		N09     Dn4   v072
	BYTE	W12
	BYTE		N03     Dn4   v112
	BYTE	W06
	BYTE		        Dn4   v076
	BYTE	W06
	BYTE		N12   
	BYTE	W12
// 031   ----------------------------------------
	BYTE		        Cs4   v084
	BYTE	W12
	BYTE		N03     Cs4   v112
	BYTE	W06
	BYTE		        Cs4   v084
	BYTE	W06
	BYTE		N12   
	BYTE	W12
	BYTE		N09     Cs4   v072
	BYTE	W12
	BYTE		N03     Cs4   v112
	BYTE	W06
	BYTE		        Cs4   v076
	BYTE	W06
	BYTE		N12   
	BYTE	W12
// 032   ----------------------------------------
	BYTE		        En4   v084
	BYTE	W12
	BYTE		N03     En4   v112
	BYTE	W06
	BYTE		        En4   v064
	BYTE	W06
	BYTE		        En4   v116
	BYTE	W06
	BYTE		        En4   v080
	BYTE	W06
	BYTE		N09     Gn4   v072
	BYTE	W12
	BYTE		N03     Gn4   v112
	BYTE	W06
	BYTE		        Gn4   v076
	BYTE	W06
	BYTE		N12   
	BYTE	W12
// 033   ----------------------------------------
	BYTE	PATT
	 POIN2	mus_route113_6_001
// 034   ----------------------------------------
	BYTE	PATT
	 POIN2	mus_route113_6_002
// 035   ----------------------------------------
	BYTE	PATT
	 POIN2	mus_route113_6_001
// 036   ----------------------------------------
	BYTE	PATT
	 POIN2	mus_route113_6_002
// 037   ----------------------------------------
	BYTE	PATT
	 POIN2	mus_route113_6_005
// 038   ----------------------------------------
	BYTE	PATT
	 POIN2	mus_route113_6_006
// 039   ----------------------------------------
	BYTE	PATT
	 POIN2	mus_route113_6_005
// 040   ----------------------------------------
	BYTE	PATT
	 POIN2	mus_route113_6_006
// 041   ----------------------------------------
	BYTE	PATT
	 POIN2	mus_route113_6_001
// 042   ----------------------------------------
	BYTE	PATT
	 POIN2	mus_route113_6_002
// 043   ----------------------------------------
	BYTE	PATT
	 POIN2	mus_route113_6_001
// 044   ----------------------------------------
	BYTE	PATT
	 POIN2	mus_route113_6_002
// 045   ----------------------------------------
	BYTE	PATT
	 POIN2	mus_route113_6_005
// 046   ----------------------------------------
	BYTE	PATT
	 POIN2	mus_route113_6_006
// 047   ----------------------------------------
	BYTE	PATT
	 POIN2	mus_route113_6_005
// 048   ----------------------------------------
	BYTE	PATT
	 POIN2	mus_route113_6_006
	BYTE	GoTo
	 POIN2	mus_route113_6_B1
mus_route113_6_B2:
// 049   ----------------------------------------
	BYTE	FINE

//**************** Track 7 (Midi-Chn.7) ****************//

mus_route113_7:
	BYTE	KEYSH   mus_route113_key+0
// 000   ----------------------------------------
	BYTE		VOICE   0
	BYTE		PAN     c_v+0
	BYTE		VOL     127*mus_route113_mvl/mxv
	BYTE	W12
mus_route113_7_B1:
// 001   ----------------------------------------
mus_route113_7_001:
	BYTE		N06     Cn1   v127
	BYTE	W24
	BYTE		        Cn1   v112
	BYTE	W12
	BYTE		        Dn1   v116
	BYTE	W06
	BYTE		        Dn1   v064
	BYTE	W06
	BYTE		        Dn1   v048
	BYTE	W06
	BYTE		        Dn1   v032
	BYTE	W06
	BYTE		        Cn1   v112
	BYTE	W12
	BYTE	PEND
// 002   ----------------------------------------
	BYTE		        Cn1   v127
	BYTE	W24
	BYTE		        Cn1   v112
	BYTE	W12
	BYTE		        Dn1   v116
	BYTE	W06
	BYTE		        Dn1   v060
	BYTE	W06
	BYTE		        Dn1   v052
	BYTE	W06
	BYTE		        Dn1   v040
	BYTE	W06
	BYTE		        Dn1   v032
	BYTE	W06
	BYTE		        Dn1   v020
	BYTE	W06
// 003   ----------------------------------------
	BYTE		        Cn1   v127
	BYTE	W18
	BYTE		        Cn1   v096
	BYTE	W06
	BYTE		        Cn1   v112
	BYTE	W12
	BYTE		        Dn1   v116
	BYTE	W06
	BYTE		        Dn1   v064
	BYTE	W06
	BYTE		        Dn1   v052
	BYTE	W06
	BYTE		        Dn1   v044
	BYTE	W06
	BYTE		        Cn1   v112
	BYTE	W12
// 004   ----------------------------------------
	BYTE		        Cn1   v127
	BYTE	W24
	BYTE		        Cn1   v112
	BYTE	W12
	BYTE		        Dn1   v116
	BYTE	W06
	BYTE		        Dn1   v060
	BYTE	W06
	BYTE		        Dn1   v052
	BYTE	W06
	BYTE		        Dn1   v040
	BYTE	W06
	BYTE		        Dn1   v028
	BYTE	W06
	BYTE		        Dn1   v016
	BYTE	W06
// 005   ----------------------------------------
mus_route113_7_005:
	BYTE		N06     Cn1   v127
	BYTE	W24
	BYTE		        Cn1   v112
	BYTE	W12
	BYTE		        Dn1   v116
	BYTE	W06
	BYTE		        Dn1   v064
	BYTE	W06
	BYTE		        Dn1   v048
	BYTE	W06
	BYTE		        Dn1   v036
	BYTE	W06
	BYTE		        Cn1   v112
	BYTE	W12
	BYTE	PEND
// 006   ----------------------------------------
	BYTE		        Cn1   v127
	BYTE	W18
	BYTE		        Cn1   v092
	BYTE	W06
	BYTE		        Cn1   v112
	BYTE	W12
	BYTE		        Dn1   v116
	BYTE	W06
	BYTE		        Dn1   v064
	BYTE	W06
	BYTE		        Dn1   v052
	BYTE	W06
	BYTE		        Dn1   v040
	BYTE	W06
	BYTE		        Dn1   v032
	BYTE	W06
	BYTE		        Dn1   v020
	BYTE	W06
// 007   ----------------------------------------
	BYTE		        Cn1   v127
	BYTE	W24
	BYTE		        Cn1   v112
	BYTE	W12
	BYTE		        Dn1   v116
	BYTE	W06
	BYTE		        Dn1   v060
	BYTE	W06
	BYTE		        Dn1   v048
	BYTE	W06
	BYTE		        Dn1   v032
	BYTE	W06
	BYTE		        Cn1   v112
	BYTE	W12
// 008   ----------------------------------------
	BYTE		        Cn1   v127
	BYTE	W18
	BYTE		        Cn1   v096
	BYTE	W06
	BYTE		        Cn1   v112
	BYTE	W12
	BYTE		        Dn1   v116
	BYTE	W06
	BYTE		        Dn1   v064
	BYTE	W06
	BYTE		        Dn1   v044
	BYTE	W06
	BYTE		        Dn1   v064
	BYTE	W06
	BYTE		        Dn1   v112
	BYTE	W06
	BYTE		        Dn1   v064
	BYTE	W06
// 009   ----------------------------------------
mus_route113_7_009:
	BYTE		N06     Cn1   v127
	BYTE	W24
	BYTE		        Cn1   v112
	BYTE	W12
	BYTE		        Dn1   v116
	BYTE	W06
	BYTE		        Dn1   v064
	BYTE	W06
	BYTE		        Dn1   v052
	BYTE	W06
	BYTE		        Dn1   v036
	BYTE	W06
	BYTE		        Cn1   v112
	BYTE	W12
	BYTE	PEND
// 010   ----------------------------------------
mus_route113_7_010:
	BYTE		N06     Cn1   v127
	BYTE	W18
	BYTE		        Cn1   v096
	BYTE	W06
	BYTE		        Cn1   v112
	BYTE	W12
	BYTE		        Dn1   v116
	BYTE	W06
	BYTE		        Dn1   v064
	BYTE	W06
	BYTE		        Dn1   v052
	BYTE	W06
	BYTE		        Dn1   v044
	BYTE	W06
	BYTE		        Dn1   v032
	BYTE	W06
	BYTE		        Dn1   v024
	BYTE	W06
	BYTE	PEND
// 011   ----------------------------------------
mus_route113_7_011:
	BYTE		N06     Cn1   v127
	BYTE	W24
	BYTE		        Cn1   v112
	BYTE	W12
	BYTE		        Dn1   v116
	BYTE	W06
	BYTE		        Dn1   v060
	BYTE	W06
	BYTE		        Dn1   v052
	BYTE	W06
	BYTE		        Dn1   v040
	BYTE	W06
	BYTE		        Cn1   v112
	BYTE	W12
	BYTE	PEND
// 012   ----------------------------------------
	BYTE	PATT
	 POIN2	mus_route113_7_010
// 013   ----------------------------------------
	BYTE	PATT
	 POIN2	mus_route113_7_009
// 014   ----------------------------------------
	BYTE		N06     Cn1   v127
	BYTE	W24
	BYTE		        Cn1   v112
	BYTE	W12
	BYTE		        Dn1   v116
	BYTE	W06
	BYTE		        Dn1   v064
	BYTE	W06
	BYTE		        Dn1   v052
	BYTE	W06
	BYTE		        Dn1   v040
	BYTE	W06
	BYTE		        Dn1   v028
	BYTE	W06
	BYTE		        Dn1   v024
	BYTE	W06
// 015   ----------------------------------------
	BYTE		        Cn1   v127
	BYTE	W24
	BYTE		        Cn1   v112
	BYTE	W12
	BYTE		        Dn1   v116
	BYTE	W06
	BYTE		        Dn1   v064
	BYTE	W06
	BYTE		        Dn1   v044
	BYTE	W06
	BYTE		        Dn1   v024
	BYTE	W06
	BYTE		        Cn1   v112
	BYTE	W12
// 016   ----------------------------------------
	BYTE		        Cn1   v127
	BYTE	W18
	BYTE		        Cn1   v096
	BYTE	W06
	BYTE		        Cn1   v112
	BYTE	W12
	BYTE		        Dn1   v116
	BYTE	W06
	BYTE		        Dn1   v064
	BYTE	W06
	BYTE		        Cn1   v112
	BYTE	W12
	BYTE		        Dn1   v116
	BYTE	W06
	BYTE		        Dn1   v064
	BYTE	W06
// 017   ----------------------------------------
	BYTE		        Cn1   v127
	BYTE	W24
	BYTE		        Cn1   v112
	BYTE	W12
	BYTE		        Dn1   v116
	BYTE	W06
	BYTE		        Dn1   v060
	BYTE	W06
	BYTE		        Dn1   v044
	BYTE	W06
	BYTE		        Dn1   v032
	BYTE	W06
	BYTE		        Cn1   v112
	BYTE	W12
// 018   ----------------------------------------
	BYTE		        Cn1   v127
	BYTE	W18
	BYTE		        Cn1   v096
	BYTE	W06
	BYTE		        Cn1   v112
	BYTE	W12
	BYTE		        Dn1   v116
	BYTE	W06
	BYTE		        Dn1   v064
	BYTE	W06
	BYTE		        Dn1   v052
	BYTE	W06
	BYTE		        Dn1   v044
	BYTE	W06
	BYTE		        Dn1   v032
	BYTE	W06
	BYTE		        Dn1   v020
	BYTE	W06
// 019   ----------------------------------------
mus_route113_7_019:
	BYTE		N06     Cn1   v127
	BYTE	W24
	BYTE		        Cn1   v112
	BYTE	W12
	BYTE		        Dn1   v116
	BYTE	W06
	BYTE		        Dn1   v060
	BYTE	W06
	BYTE		        Dn1   v048
	BYTE	W06
	BYTE		        Dn1   v036
	BYTE	W06
	BYTE		        Cn1   v112
	BYTE	W12
	BYTE	PEND
// 020   ----------------------------------------
	BYTE	PATT
	 POIN2	mus_route113_7_010
// 021   ----------------------------------------
mus_route113_7_021:
	BYTE		N06     Cn1   v127
	BYTE	W24
	BYTE		        Cn1   v112
	BYTE	W12
	BYTE		        Dn1   v116
	BYTE	W06
	BYTE		        Dn1   v064
	BYTE	W06
	BYTE		        Dn1   v052
	BYTE	W06
	BYTE		        Dn1   v040
	BYTE	W06
	BYTE		        Cn1   v112
	BYTE	W12
	BYTE	PEND
// 022   ----------------------------------------
	BYTE		        Cn1   v127
	BYTE	W18
	BYTE		        Cn1   v092
	BYTE	W06
	BYTE		        Cn1   v112
	BYTE	W12
	BYTE		        Dn1   v116
	BYTE	W06
	BYTE		        Dn1   v064
	BYTE	W06
	BYTE		        Dn1   v052
	BYTE	W06
	BYTE		        Dn1   v044
	BYTE	W06
	BYTE		        Dn1   v032
	BYTE	W06
	BYTE		        Dn1   v024
	BYTE	W06
// 023   ----------------------------------------
mus_route113_7_023:
	BYTE		N06     Cn1   v127
	BYTE	W24
	BYTE		        Cn1   v112
	BYTE	W12
	BYTE		        Dn1   v116
	BYTE	W06
	BYTE		        Dn1   v064
	BYTE	W06
	BYTE		        Dn1   v052
	BYTE	W06
	BYTE		        Dn1   v044
	BYTE	W06
	BYTE		        Cn1   v112
	BYTE	W12
	BYTE	PEND
// 024   ----------------------------------------
	BYTE		        Cn1   v127
	BYTE	W18
	BYTE		        Cn1   v096
	BYTE	W06
	BYTE		        Cn1   v112
	BYTE	W12
	BYTE		        Dn1   v116
	BYTE	W06
	BYTE		        Dn1   v064
	BYTE	W06
	BYTE		        Dn1   v056
	BYTE	W06
	BYTE		        Dn1   v044
	BYTE	W06
	BYTE		        Dn1   v032
	BYTE	W06
	BYTE		        Dn1   v020
	BYTE	W06
// 025   ----------------------------------------
	BYTE	PATT
	 POIN2	mus_route113_7_001
// 026   ----------------------------------------
	BYTE		N06     Cn1   v127
	BYTE	W18
	BYTE		        Cn1   v092
	BYTE	W06
	BYTE		        Cn1   v112
	BYTE	W12
	BYTE		        Dn1   v116
	BYTE	W06
	BYTE		        Dn1   v064
	BYTE	W06
	BYTE		        Dn1   v052
	BYTE	W06
	BYTE		        Dn1   v040
	BYTE	W06
	BYTE		        Cn1   v112
	BYTE		N06     Dn1   v036
	BYTE	W06
	BYTE		        Dn1   v056
	BYTE	W06
// 027   ----------------------------------------
	BYTE		        Cn1   v127
	BYTE	W18
	BYTE		        Cn1   v096
	BYTE	W06
	BYTE		        Cn1   v112
	BYTE	W12
	BYTE		        Dn1   v116
	BYTE	W06
	BYTE		        Dn1   v064
	BYTE	W06
	BYTE		        Dn1   v052
	BYTE	W06
	BYTE		        Dn1   v040
	BYTE	W06
	BYTE		        Cn1   v112
	BYTE		N06     Dn1   v036
	BYTE	W06
	BYTE		        Dn1   v056
	BYTE	W06
// 028   ----------------------------------------
	BYTE		        Cn1   v127
	BYTE	W18
	BYTE		        Cn1   v096
	BYTE	W06
	BYTE		        Cn1   v112
	BYTE	W12
	BYTE		        Dn1   v116
	BYTE	W06
	BYTE		        Dn1   v064
	BYTE	W06
	BYTE		        Dn1   v052
	BYTE	W06
	BYTE		        Dn1   v040
	BYTE	W06
	BYTE		        Cn1   v112
	BYTE		N06     Dn1   v036
	BYTE	W06
	BYTE		        Dn1   v060
	BYTE	W06
// 029   ----------------------------------------
	BYTE		        Cn1   v127
	BYTE	W18
	BYTE		        Cn1   v096
	BYTE	W06
	BYTE		        Cn1   v112
	BYTE	W12
	BYTE		        Dn1   v116
	BYTE	W06
	BYTE		        Dn1   v064
	BYTE	W06
	BYTE		        Dn1   v052
	BYTE	W06
	BYTE		        Dn1   v040
	BYTE	W06
	BYTE		        Dn1   v032
	BYTE	W06
	BYTE		        Dn1   v024
	BYTE	W06
// 030   ----------------------------------------
	BYTE	PATT
	 POIN2	mus_route113_7_011
// 031   ----------------------------------------
	BYTE		N06     Cn1   v127
	BYTE	W18
	BYTE		        Cn1   v092
	BYTE	W06
	BYTE		        Cn1   v112
	BYTE	W12
	BYTE		        Dn1   v116
	BYTE	W06
	BYTE		        Dn1   v060
	BYTE	W06
	BYTE		        Dn1   v052
	BYTE	W06
	BYTE		        Dn1   v040
	BYTE	W06
	BYTE		        Dn1   v028
	BYTE	W06
	BYTE		        Dn1   v024
	BYTE	W06
// 032   ----------------------------------------
	BYTE	PATT
	 POIN2	mus_route113_7_019
// 033   ----------------------------------------
	BYTE		N06     Cn1   v127
	BYTE	W18
	BYTE		        Cn1   v096
	BYTE	W06
	BYTE		        Cn1   v112
	BYTE	W12
	BYTE		        Dn1   v116
	BYTE	W06
	BYTE		        Dn1   v064
	BYTE	W06
	BYTE		        Dn1   v056
	BYTE	W06
	BYTE		        Dn1   v048
	BYTE	W06
	BYTE		        Dn1   v112
	BYTE	W06
	BYTE		        Dn1   v060
	BYTE	W06
// 034   ----------------------------------------
	BYTE		        Cn1   v127
	BYTE	W12
	BYTE		        Dn1   v112
	BYTE	W06
	BYTE		        Dn1   v060
	BYTE	W06
	BYTE		        Cn1   v112
	BYTE	W12
	BYTE		        Dn1   v116
	BYTE	W06
	BYTE		        Dn1   v064
	BYTE	W06
	BYTE		        Dn1   v052
	BYTE	W06
	BYTE		        Dn1   v044
	BYTE	W06
	BYTE		        Dn1   v032
	BYTE	W06
	BYTE		        Dn1   v024
	BYTE	W06
// 035   ----------------------------------------
	BYTE		        Cn1   v127
	BYTE	W18
	BYTE		        Cn1   v096
	BYTE	W06
	BYTE		        Cn1   v112
	BYTE	W12
	BYTE		        Dn1   v116
	BYTE	W06
	BYTE		        Dn1   v064
	BYTE	W06
	BYTE		        Dn1   v052
	BYTE	W06
	BYTE		        Dn1   v040
	BYTE	W06
	BYTE		        Dn1   v112
	BYTE	W06
	BYTE		        Dn1   v060
	BYTE	W06
// 036   ----------------------------------------
	BYTE		        Cn1   v127
	BYTE	W24
	BYTE		        Cn1   v112
	BYTE	W12
	BYTE		        Dn1   v116
	BYTE	W06
	BYTE		        Dn1   v064
	BYTE	W06
	BYTE		        Dn1   v056
	BYTE	W06
	BYTE		        Dn1   v048
	BYTE	W06
	BYTE		        Dn1   v040
	BYTE	W06
	BYTE		        Dn1   v032
	BYTE	W06
// 037   ----------------------------------------
	BYTE	PATT
	 POIN2	mus_route113_7_019
// 038   ----------------------------------------
	BYTE		N06     Cn1   v127
	BYTE	W18
	BYTE		        Cn1   v064
	BYTE	W06
	BYTE		        Cn1   v112
	BYTE	W06
	BYTE		        Dn1 
	BYTE	W06
	BYTE		        Dn1   v116
	BYTE	W06
	BYTE		        Dn1   v064
	BYTE	W06
	BYTE		        Dn1   v056
	BYTE	W06
	BYTE		        Dn1   v044
	BYTE	W06
	BYTE		        Dn1   v036
	BYTE	W06
	BYTE		        Dn1   v024
	BYTE	W06
// 039   ----------------------------------------
	BYTE		        Cn1   v127
	BYTE	W12
	BYTE		        Dn1   v112
	BYTE	W06
	BYTE		        Dn1   v064
	BYTE	W06
	BYTE		        Cn1   v112
	BYTE	W12
	BYTE		        Dn1   v116
	BYTE	W06
	BYTE		        Dn1   v060
	BYTE	W06
	BYTE		        Dn1   v048
	BYTE	W06
	BYTE		        Dn1   v036
	BYTE	W06
	BYTE		        Dn1   v112
	BYTE	W06
	BYTE		        Dn1   v064
	BYTE	W06
// 040   ----------------------------------------
	BYTE		        Cn1   v127
	BYTE	W18
	BYTE		        Dn1   v096
	BYTE	W06
	BYTE		        Cn1   v112
	BYTE	W12
	BYTE		        Dn1   v116
	BYTE	W06
	BYTE		        Dn1   v056
	BYTE	W06
	BYTE		        Dn1   v048
	BYTE	W06
	BYTE		        Dn1   v096
	BYTE	W06
	BYTE		        Dn1   v112
	BYTE	W06
	BYTE		        Dn1   v060
	BYTE	W06
// 041   ----------------------------------------
	BYTE	PATT
	 POIN2	mus_route113_7_023
// 042   ----------------------------------------
	BYTE		N06     Cn1   v127
	BYTE	W18
	BYTE		        Cn1   v096
	BYTE	W06
	BYTE		        Cn1   v112
	BYTE	W06
	BYTE		        Dn1 
	BYTE	W06
	BYTE		        Dn1   v116
	BYTE	W06
	BYTE		        Dn1   v064
	BYTE	W06
	BYTE		        Dn1   v052
	BYTE	W06
	BYTE		        Dn1   v036
	BYTE	W06
	BYTE		        Dn1   v112
	BYTE	W06
	BYTE		        Dn1   v024
	BYTE	W06
// 043   ----------------------------------------
	BYTE		        Cn1   v127
	BYTE	W12
	BYTE		        Dn1   v112
	BYTE	W06
	BYTE		        Dn1   v060
	BYTE	W06
	BYTE		        Cn1   v112
	BYTE	W12
	BYTE		        Dn1   v116
	BYTE	W06
	BYTE		        Dn1   v064
	BYTE	W06
	BYTE		        Dn1   v048
	BYTE	W06
	BYTE		        Dn1   v032
	BYTE	W06
	BYTE		        Cn1   v112
	BYTE	W12
// 044   ----------------------------------------
	BYTE		        Cn1   v127
	BYTE	W18
	BYTE		        Cn1   v096
	BYTE	W06
	BYTE		        Cn1   v112
	BYTE	W12
	BYTE		        Dn1   v116
	BYTE	W06
	BYTE		        Dn1   v064
	BYTE	W06
	BYTE		        Dn1   v052
	BYTE	W06
	BYTE		        Dn1   v040
	BYTE	W06
	BYTE		        Cn1   v112
	BYTE	W06
	BYTE		N06   
	BYTE	W06
// 045   ----------------------------------------
	BYTE	PATT
	 POIN2	mus_route113_7_021
// 046   ----------------------------------------
	BYTE		N06     Cn1   v127
	BYTE	W12
	BYTE		        Dn1   v112
	BYTE	W06
	BYTE		        Dn1   v064
	BYTE	W06
	BYTE		        Cn1   v112
	BYTE	W12
	BYTE		        Dn1   v116
	BYTE	W06
	BYTE		        Dn1   v060
	BYTE	W06
	BYTE		        Dn1   v052
	BYTE	W06
	BYTE		        Dn1   v044
	BYTE	W06
	BYTE		        Dn1   v036
	BYTE	W06
	BYTE		        Dn1   v028
	BYTE	W06
// 047   ----------------------------------------
	BYTE	PATT
	 POIN2	mus_route113_7_005
// 048   ----------------------------------------
	BYTE		N06     Cn1   v127
	BYTE	W18
	BYTE		        Cn1   v096
	BYTE	W06
	BYTE		        Cn1   v112
	BYTE	W12
	BYTE		        Dn1   v116
	BYTE	W06
	BYTE		        Dn1   v064
	BYTE	W06
	BYTE		        Dn1   v044
	BYTE	W06
	BYTE		        Cn1   v112
	BYTE	W06
	BYTE		        Dn1   v116
	BYTE	W06
	BYTE		        Dn1   v056
	BYTE	W06
	BYTE	GoTo
	 POIN2	mus_route113_7_B1
mus_route113_7_B2:
// 049   ----------------------------------------
	BYTE	FINE

//**************** Track 8 (Midi-Chn.8) ****************//

mus_route113_8:
	BYTE	KEYSH   mus_route113_key+0
// 000   ----------------------------------------
	BYTE		VOICE   82
	BYTE		LFOS    44
	BYTE		XCMD    xIECV   18
	BYTE		        xIECV   16
	BYTE		BENDR   12
	BYTE		PAN     c_v+0
	BYTE		VOL     55*mus_route113_mvl/mxv
	BYTE		BEND    c_v+0
	BYTE		N06     Fs3   v112
	BYTE	W02
	BYTE		BEND    c_v+2
	BYTE	W04
	BYTE		N06     Bn3 
	BYTE	W06
mus_route113_8_B1:
// 001   ----------------------------------------
mus_route113_8_001:
	BYTE		N36     Dn4   v112
	BYTE	W12
	BYTE		MOD     7
	BYTE	W24
	BYTE		        0
	BYTE	W02
	BYTE		N22     Cs4 
	BYTE	W22
	BYTE		N12     An3 
	BYTE	W12
	BYTE	PEND
// 002   ----------------------------------------
mus_route113_8_002:
	BYTE		N24     Bn3   v112
	BYTE	W24
	BYTE		N12     Dn3 
	BYTE	W12
	BYTE		N36     Gn3 
	BYTE	W12
	BYTE		MOD     7
	BYTE	W24
	BYTE	PEND
// 003   ----------------------------------------
	BYTE		        0
	BYTE		N12     Dn4 
	BYTE	W12
	BYTE		N06     Cs4 
	BYTE	W12
	BYTE		N12     An3 
	BYTE	W12
	BYTE		N24     Bn3 
	BYTE	W24
	BYTE		N12     Dn3 
	BYTE	W12
// 004   ----------------------------------------
mus_route113_8_004:
	BYTE		N60     Gn3   v112
	BYTE	W24
	BYTE		MOD     7
	BYTE	W36
	BYTE		        0
	BYTE		N06     Bn3 
	BYTE	W06
	BYTE		        Cs4 
	BYTE	W06
	BYTE	PEND
// 005   ----------------------------------------
	BYTE	W24
	BYTE		MOD     7
	BYTE	W48
// 006   ----------------------------------------
	BYTE		        0
	BYTE	W72
// 007   ----------------------------------------
	BYTE	W24
	BYTE		VOL     17*mus_route113_mvl/mxv
	BYTE	W24
	BYTE		MOD     3
	BYTE	W24
// 008   ----------------------------------------
	BYTE		        6
	BYTE	W48
	BYTE		        0
	BYTE	W12
	BYTE		VOL     55*mus_route113_mvl/mxv
	BYTE		N06     En4 
	BYTE	W06
	BYTE		        Ds4 
	BYTE	W06
// 009   ----------------------------------------
	BYTE	PATT
	 POIN2	mus_route113_8_001
// 010   ----------------------------------------
	BYTE		N24     Gn4   v112
	BYTE	W24
	BYTE		N12     Dn3 
	BYTE	W12
	BYTE		N24     Gn3 
	BYTE	W24
	BYTE		N06     Gn4 
	BYTE	W06
	BYTE		        Fs4 
	BYTE	W06
// 011   ----------------------------------------
	BYTE		N12     Dn4 
	BYTE	W12
	BYTE		N06     Cs4 
	BYTE	W12
	BYTE		N12     An3 
	BYTE	W12
	BYTE		N24     Cs4 
	BYTE	W24
	BYTE		N12     Dn3 
	BYTE	W12
// 012   ----------------------------------------
	BYTE		        Gn4 
	BYTE	W12
	BYTE		        Dn4 
	BYTE	W12
	BYTE		        Gn3 
	BYTE	W12
	BYTE		        Bn3 
	BYTE	W12
	BYTE		        Dn3 
	BYTE	W12
	BYTE		N06     Bn3 
	BYTE	W06
	BYTE		        Cs4 
	BYTE	W06
// 013   ----------------------------------------
	BYTE	W24
	BYTE		MOD     7
	BYTE	W48
// 014   ----------------------------------------
	BYTE		        0
	BYTE	W72
// 015   ----------------------------------------
	BYTE	W24
	BYTE		VOL     20*mus_route113_mvl/mxv
	BYTE	W48
// 016   ----------------------------------------
	BYTE		MOD     7
	BYTE	W48
	BYTE		        0
	BYTE	W12
	BYTE		VOL     55*mus_route113_mvl/mxv
	BYTE		N06     An3 
	BYTE	W06
	BYTE		        As3 
	BYTE	W06
// 017   ----------------------------------------
	BYTE		N24     Bn3 
	BYTE	W24
	BYTE		N06     Cs4 
	BYTE	W12
	BYTE		N24     Dn4 
	BYTE	W12
	BYTE		MOD     6
	BYTE	W12
	BYTE		        0
	BYTE		N06     Bn3 
	BYTE	W12
// 018   ----------------------------------------
	BYTE		N24     Cs4 
	BYTE	W24
	BYTE		N06     Dn4 
	BYTE	W12
	BYTE		N24     En4 
	BYTE	W12
	BYTE		MOD     7
	BYTE	W12
	BYTE		        0
	BYTE		N06     Cs4 
	BYTE	W12
// 019   ----------------------------------------
	BYTE		        Dn4 
	BYTE	W12
	BYTE		        En4 
	BYTE	W12
	BYTE		        Fs4 
	BYTE	W12
	BYTE		N03     Gn4 
	BYTE	W03
	BYTE		N09     Fs4 
	BYTE	W09
	BYTE		N06     Fn4 
	BYTE	W12
	BYTE		        Fs4 
	BYTE	W12
// 020   ----------------------------------------
	BYTE		N12     Bn4 
	BYTE	W12
	BYTE		N06     Fs4 
	BYTE	W12
	BYTE		        En4 
	BYTE	W12
	BYTE		N24     Dn4 
	BYTE	W12
	BYTE		MOD     7
	BYTE	W12
	BYTE		        0
	BYTE		N06     Cs4 
	BYTE	W12
// 021   ----------------------------------------
	BYTE		N24     Dn4 
	BYTE	W24
	BYTE		N06     Bn3 
	BYTE	W12
	BYTE		N24     Cs4 
	BYTE	W24
	BYTE		N06     Dn4 
	BYTE	W12
// 022   ----------------------------------------
	BYTE		N03     Fn4 
	BYTE	W03
	BYTE		N21     En4 
	BYTE	W21
	BYTE		N06     Cs4 
	BYTE	W12
	BYTE		N24     Dn4 
	BYTE	W24
	BYTE		N06     En4 
	BYTE	W12
// 023   ----------------------------------------
	BYTE		        Fs4 
	BYTE	W12
	BYTE		N03     Gn4 
	BYTE	W03
	BYTE		N09     Fs4 
	BYTE	W09
	BYTE		N12     Fn4 
	BYTE	W12
	BYTE		N06     Fs4 
	BYTE	W12
	BYTE		        Fn4 
	BYTE	W12
	BYTE		        Fs4 
	BYTE	W12
// 024   ----------------------------------------
	BYTE		N12     As4 
	BYTE	W12
	BYTE		N06     Fs4 
	BYTE	W12
	BYTE		N12     En4 
	BYTE	W12
	BYTE		        Fs4 
	BYTE	W12
	BYTE		        Dn4 
	BYTE	W12
	BYTE		N06     Cs4 
	BYTE	W06
	BYTE		        Cn4 
	BYTE	W06
// 025   ----------------------------------------
	BYTE		N24     Bn3 
	BYTE	W24
	BYTE		N06     Cs4 
	BYTE	W09
	BYTE		N03     Ds4 
	BYTE	W03
	BYTE		N24     Dn4 
	BYTE	W12
	BYTE		MOD     6
	BYTE	W12
	BYTE		        0
	BYTE		N06     Bn3 
	BYTE	W12
// 026   ----------------------------------------
	BYTE		N24     Cs4 
	BYTE	W24
	BYTE		N06     Dn4 
	BYTE	W12
	BYTE		N24     En4 
	BYTE	W24
	BYTE		N06     Cs4 
	BYTE	W12
// 027   ----------------------------------------
	BYTE		        Dn4 
	BYTE	W12
	BYTE		        En4 
	BYTE	W12
	BYTE		        Fs4 
	BYTE	W12
	BYTE		N03     Gn4 
	BYTE	W03
	BYTE		N09     Fs4 
	BYTE	W09
	BYTE		N06     Fn4 
	BYTE	W12
	BYTE		        Fs4 
	BYTE	W09
	BYTE		N03     An4   v080
	BYTE	W03
// 028   ----------------------------------------
	BYTE		N12     Gs4   v112
	BYTE	W12
	BYTE		N06     Fs4 
	BYTE	W12
	BYTE		N12     En4 
	BYTE	W12
	BYTE		N18     Bn3 
	BYTE	W18
	BYTE		N06     Cs4 
	BYTE	W06
	BYTE		        Dn4 
	BYTE	W06
	BYTE		        En4 
	BYTE	W06
// 029   ----------------------------------------
	BYTE		N24     Gn4 
	BYTE	W24
	BYTE		N06     An4 
	BYTE	W12
	BYTE		N24     Gn4 
	BYTE	W12
	BYTE		MOD     6
	BYTE	W12
	BYTE		        0
	BYTE		N06     Fs4 
	BYTE	W12
// 030   ----------------------------------------
	BYTE		N24     En4 
	BYTE	W24
	BYTE		N06     Bn3 
	BYTE	W12
	BYTE		N24     Cs4 
	BYTE	W12
	BYTE		MOD     6
	BYTE	W12
	BYTE		        0
	BYTE		N06     Dn4 
	BYTE	W12
// 031   ----------------------------------------
	BYTE		N03     Fn4 
	BYTE	W03
	BYTE		N06     En4 
	BYTE	W09
	BYTE		N12   
	BYTE	W12
	BYTE		N06     Ds4 
	BYTE	W12
	BYTE		        En4 
	BYTE	W12
	BYTE		        Ds4 
	BYTE	W12
	BYTE		        En4 
	BYTE	W12
// 032   ----------------------------------------
	BYTE		N03     Fs4 
	BYTE	W03
	BYTE		N21     Gn4 
	BYTE	W21
	BYTE		N06     Fs4 
	BYTE	W12
	BYTE		N24     En4 
	BYTE	W24
	BYTE		N06     Fs3 
	BYTE	W06
	BYTE		        Bn3 
	BYTE	W06
// 033   ----------------------------------------
	BYTE		N03     Ds4   v096
	BYTE	W03
	BYTE		N32     Dn4   v112
	BYTE	W09
	BYTE		MOD     7
	BYTE	W24
	BYTE		        0
	BYTE	W02
	BYTE		N22     Cs4 
	BYTE	W22
	BYTE		N12     An3 
	BYTE	W12
// 034   ----------------------------------------
	BYTE	PATT
	 POIN2	mus_route113_8_002
// 035   ----------------------------------------
	BYTE		MOD     0
	BYTE		N03     Ds4   v096
	BYTE	W03
	BYTE		N09     Dn4   v112
	BYTE	W09
	BYTE		N06     Cs4 
	BYTE	W12
	BYTE		N12     An3 
	BYTE	W12
	BYTE		N24     Bn3 
	BYTE	W24
	BYTE		N12     Dn3 
	BYTE	W12
// 036   ----------------------------------------
	BYTE	PATT
	 POIN2	mus_route113_8_004
// 037   ----------------------------------------
	BYTE		N72     An3   v112
	BYTE	W24
	BYTE		MOD     6
	BYTE	W48
// 038   ----------------------------------------
	BYTE		        0
	BYTE	W72
// 039   ----------------------------------------
	BYTE	W24
	BYTE		VOL     14*mus_route113_mvl/mxv
	BYTE	W48
// 040   ----------------------------------------
	BYTE		MOD     7
	BYTE	W48
	BYTE		        0
	BYTE	W12
	BYTE		VOL     55*mus_route113_mvl/mxv
	BYTE		N06     En4 
	BYTE	W06
	BYTE		        Ds4 
	BYTE	W06
// 041   ----------------------------------------
	BYTE		N03     Cs4   v092
	BYTE	W03
	BYTE		N32     Dn4   v112
	BYTE	W09
	BYTE		MOD     7
	BYTE	W24
	BYTE		        0
	BYTE	W02
	BYTE		N22     Cs4 
	BYTE	W22
	BYTE		N12     An3 
	BYTE	W12
// 042   ----------------------------------------
	BYTE		N03     Gs4   v088
	BYTE	W03
	BYTE		N21     Gn4   v112
	BYTE	W21
	BYTE		N12     Dn3 
	BYTE	W12
	BYTE		N24     Gn3 
	BYTE	W24
	BYTE		N06     Gn4 
	BYTE	W06
	BYTE		        Fs4 
	BYTE	W06
// 043   ----------------------------------------
	BYTE		N03     Cs4   v096
	BYTE	W03
	BYTE		N09     Dn4   v112
	BYTE	W09
	BYTE		N06     Cs4 
	BYTE	W12
	BYTE		N12     An3 
	BYTE	W12
	BYTE		N24     Cs4 
	BYTE	W24
	BYTE		N12     Dn3 
	BYTE	W12
// 044   ----------------------------------------
	BYTE		N03     Gs4   v092
	BYTE	W03
	BYTE		N09     Gn4   v112
	BYTE	W09
	BYTE		N12     Dn4 
	BYTE	W12
	BYTE		        Gn3 
	BYTE	W12
	BYTE		        Bn3 
	BYTE	W12
	BYTE		        Dn3 
	BYTE	W12
	BYTE		N06     Bn3 
	BYTE	W06
	BYTE		        Cs4 
	BYTE	W06
// 045   ----------------------------------------
	BYTE		N03     As3   v096
	BYTE	W03
	BYTE		N68     An3   v112
	BYTE	W21
	BYTE		MOD     7
	BYTE	W48
// 046   ----------------------------------------
	BYTE		        0
	BYTE	W72
// 047   ----------------------------------------
	BYTE	W24
	BYTE		VOL     20*mus_route113_mvl/mxv
	BYTE		MOD     5
	BYTE	W36
	BYTE		VOL     64*mus_route113_mvl/mxv
	BYTE		MOD     0
	BYTE	W12
// 048   ----------------------------------------
	BYTE	W24
	BYTE		VOL     20*mus_route113_mvl/mxv
	BYTE		MOD     6
	BYTE	W24
	BYTE		        0
	BYTE	W12
	BYTE		VOL     55*mus_route113_mvl/mxv
	BYTE		N06     Fs3 
	BYTE	W06
	BYTE		        Bn3 
	BYTE	W06
	BYTE	GoTo
	 POIN2	mus_route113_8_B1
mus_route113_8_B2:
// 049   ----------------------------------------
	BYTE	FINE

//**************** Track 9 (Midi-Chn.9) ****************//

mus_route113_9:
	BYTE	KEYSH   mus_route113_key+0
// 000   ----------------------------------------
	BYTE		VOICE   24
	BYTE		LFOS    44
	BYTE		BENDR   12
	BYTE		VOL     67*mus_route113_mvl/mxv
	BYTE		PAN     c_v-19
	BYTE		N06     Bn2   v112
	BYTE	W06
	BYTE		        Dn3 
	BYTE	W06
mus_route113_9_B1:
// 001   ----------------------------------------
	BYTE		VOL     70*mus_route113_mvl/mxv
	BYTE		N36     Gn3   v112
	BYTE	W12
	BYTE		MOD     7
	BYTE	W24
	BYTE		        0
	BYTE	W03
	BYTE		N24     Fs3 
	BYTE	W24
	BYTE		N09     Dn3 
	BYTE	W09
// 002   ----------------------------------------
mus_route113_9_002:
	BYTE		N24     Gn3   v112
	BYTE	W24
	BYTE	W03
	BYTE		N09     Gn2 
	BYTE	W09
	BYTE		N36     Bn2 
	BYTE	W12
	BYTE		MOD     7
	BYTE	W24
	BYTE	PEND
// 003   ----------------------------------------
mus_route113_9_003:
	BYTE		VOICE   24
	BYTE		MOD     0
	BYTE		N12     Gn3   v112
	BYTE	W15
	BYTE		N06     Fs3 
	BYTE	W12
	BYTE		N09     Dn3 
	BYTE	W09
	BYTE		N24     Fs3 
	BYTE	W24
	BYTE	W03
	BYTE		N09     Gn2 
	BYTE	W09
	BYTE	PEND
// 004   ----------------------------------------
mus_route113_9_004:
	BYTE		N60     Bn2   v112
	BYTE	W24
	BYTE		MOD     7
	BYTE	W36
	BYTE		        0
	BYTE		N06     Gn3 
	BYTE	W06
	BYTE		        An3 
	BYTE	W06
	BYTE	PEND
// 005   ----------------------------------------
mus_route113_9_005:
	BYTE	W03
	BYTE		N68     Dn3   v112
	BYTE	W21
	BYTE		MOD     7
	BYTE	W48
	BYTE	PEND
// 006   ----------------------------------------
mus_route113_9_006:
	BYTE		MOD     0
	BYTE	W48
	BYTE		VOICE   60
	BYTE		VOL     87*mus_route113_mvl/mxv
	BYTE	W12
	BYTE		N06     Gn2   v112
	BYTE	W12
	BYTE	PEND
// 007   ----------------------------------------
	BYTE		TIE     En3 
	BYTE	W24
	BYTE		VOL     82*mus_route113_mvl/mxv
	BYTE	W02
	BYTE		        78*mus_route113_mvl/mxv
	BYTE	W03
	BYTE		        76*mus_route113_mvl/mxv
	BYTE	W03
	BYTE		        73*mus_route113_mvl/mxv
	BYTE	W04
	BYTE		        67*mus_route113_mvl/mxv
	BYTE	W05
	BYTE		        64*mus_route113_mvl/mxv
	BYTE	W03
	BYTE		        61*mus_route113_mvl/mxv
	BYTE	W04
	BYTE		MOD     3
	BYTE	W02
	BYTE		VOL     56*mus_route113_mvl/mxv
	BYTE	W03
	BYTE		        53*mus_route113_mvl/mxv
	BYTE	W07
	BYTE		        47*mus_route113_mvl/mxv
	BYTE	W02
	BYTE		        47*mus_route113_mvl/mxv
	BYTE	W03
	BYTE		        41*mus_route113_mvl/mxv
	BYTE	W03
	BYTE		        40*mus_route113_mvl/mxv
	BYTE	W04
// 008   ----------------------------------------
	BYTE		        37*mus_route113_mvl/mxv
	BYTE		MOD     6
	BYTE	W02
	BYTE		VOL     34*mus_route113_mvl/mxv
	BYTE	W03
	BYTE		        32*mus_route113_mvl/mxv
	BYTE	W03
	BYTE		        29*mus_route113_mvl/mxv
	BYTE	W04
	BYTE		        28*mus_route113_mvl/mxv
	BYTE	W02
	BYTE		        23*mus_route113_mvl/mxv
	BYTE	W03
	BYTE		        23*mus_route113_mvl/mxv
	BYTE	W03
	BYTE		        17*mus_route113_mvl/mxv
	BYTE	W04
	BYTE		        16*mus_route113_mvl/mxv
	BYTE	W02
	BYTE		        14*mus_route113_mvl/mxv
	BYTE	W03
	BYTE		        11*mus_route113_mvl/mxv
	BYTE	W03
	BYTE		        8*mus_route113_mvl/mxv
	BYTE	W06
	BYTE		        5*mus_route113_mvl/mxv
	BYTE	W06
	BYTE		        2*mus_route113_mvl/mxv
	BYTE	W04
	BYTE		EOT   
	BYTE		MOD     0
	BYTE	W12
	BYTE		VOICE   24
	BYTE		VOL     69*mus_route113_mvl/mxv
	BYTE		N06     An3 
	BYTE	W06
	BYTE		        Gs3 
	BYTE	W06
// 009   ----------------------------------------
mus_route113_9_009:
	BYTE		N36     Gn3   v112
	BYTE	W12
	BYTE		MOD     7
	BYTE	W24
	BYTE		        0
	BYTE	W03
	BYTE		N24     Fs3 
	BYTE	W24
	BYTE		N09     Dn3 
	BYTE	W09
	BYTE	PEND
// 010   ----------------------------------------
mus_route113_9_010:
	BYTE		N24     Dn4   v112
	BYTE	W24
	BYTE	W03
	BYTE		N09     Gn2 
	BYTE	W09
	BYTE		N24     Bn2 
	BYTE	W24
	BYTE		N06     Dn4 
	BYTE	W06
	BYTE		        Cs4 
	BYTE	W06
	BYTE	PEND
// 011   ----------------------------------------
mus_route113_9_011:
	BYTE		N12     Gn3   v112
	BYTE	W15
	BYTE		N06     Fs3 
	BYTE	W12
	BYTE		N09     Dn3 
	BYTE	W09
	BYTE		N24     Fs3 
	BYTE	W24
	BYTE	W03
	BYTE		N09     Gn2 
	BYTE	W09
	BYTE	PEND
// 012   ----------------------------------------
mus_route113_9_012:
	BYTE		N12     Dn4   v112
	BYTE	W15
	BYTE		N09     Gn3 
	BYTE	W09
	BYTE		N12     Dn3 
	BYTE	W15
	BYTE		N09     Fs3 
	BYTE	W09
	BYTE		N12     Gn2 
	BYTE	W12
	BYTE		N06     Gn3 
	BYTE	W06
	BYTE		        An3 
	BYTE	W06
	BYTE	PEND
// 013   ----------------------------------------
	BYTE	PATT
	 POIN2	mus_route113_9_005
// 014   ----------------------------------------
	BYTE	PATT
	 POIN2	mus_route113_9_006
// 015   ----------------------------------------
	BYTE		TIE     En3   v112
	BYTE	W24
	BYTE		VOL     82*mus_route113_mvl/mxv
	BYTE	W02
	BYTE		        78*mus_route113_mvl/mxv
	BYTE	W03
	BYTE		        76*mus_route113_mvl/mxv
	BYTE	W03
	BYTE		        73*mus_route113_mvl/mxv
	BYTE	W04
	BYTE		        67*mus_route113_mvl/mxv
	BYTE	W05
	BYTE		        64*mus_route113_mvl/mxv
	BYTE	W03
	BYTE		        61*mus_route113_mvl/mxv
	BYTE	W06
	BYTE		        56*mus_route113_mvl/mxv
	BYTE	W03
	BYTE		        53*mus_route113_mvl/mxv
	BYTE	W07
	BYTE		        47*mus_route113_mvl/mxv
	BYTE	W02
	BYTE		        47*mus_route113_mvl/mxv
	BYTE	W03
	BYTE		        41*mus_route113_mvl/mxv
	BYTE	W03
	BYTE		        40*mus_route113_mvl/mxv
	BYTE	W04
// 016   ----------------------------------------
	BYTE		        37*mus_route113_mvl/mxv
	BYTE		MOD     7
	BYTE	W02
	BYTE		VOL     34*mus_route113_mvl/mxv
	BYTE	W03
	BYTE		        32*mus_route113_mvl/mxv
	BYTE	W03
	BYTE		        29*mus_route113_mvl/mxv
	BYTE	W04
	BYTE		        28*mus_route113_mvl/mxv
	BYTE	W02
	BYTE		        23*mus_route113_mvl/mxv
	BYTE	W03
	BYTE		        23*mus_route113_mvl/mxv
	BYTE	W03
	BYTE		        17*mus_route113_mvl/mxv
	BYTE	W04
	BYTE		        16*mus_route113_mvl/mxv
	BYTE	W02
	BYTE		        14*mus_route113_mvl/mxv
	BYTE	W03
	BYTE		        11*mus_route113_mvl/mxv
	BYTE	W03
	BYTE		        8*mus_route113_mvl/mxv
	BYTE	W06
	BYTE		        5*mus_route113_mvl/mxv
	BYTE	W06
	BYTE		        2*mus_route113_mvl/mxv
	BYTE	W04
	BYTE		EOT   
	BYTE		MOD     0
	BYTE	W12
	BYTE		VOL     103*mus_route113_mvl/mxv
	BYTE	W12
// 017   ----------------------------------------
	BYTE	W72
// 018   ----------------------------------------
	BYTE	W72
// 019   ----------------------------------------
	BYTE	W72
// 020   ----------------------------------------
	BYTE	W72
// 021   ----------------------------------------
	BYTE	W72
// 022   ----------------------------------------
	BYTE	W72
// 023   ----------------------------------------
	BYTE	W72
// 024   ----------------------------------------
	BYTE	W72
// 025   ----------------------------------------
	BYTE	W72
// 026   ----------------------------------------
	BYTE	W72
// 027   ----------------------------------------
	BYTE	W72
// 028   ----------------------------------------
	BYTE	W72
// 029   ----------------------------------------
	BYTE	W72
// 030   ----------------------------------------
	BYTE	W72
// 031   ----------------------------------------
	BYTE	W72
// 032   ----------------------------------------
	BYTE	W54
	BYTE		        55*mus_route113_mvl/mxv
	BYTE	W06
	BYTE		VOICE   60
	BYTE		N06     Bn2 
	BYTE	W06
	BYTE		        Dn3 
	BYTE	W06
// 033   ----------------------------------------
	BYTE	PATT
	 POIN2	mus_route113_9_009
// 034   ----------------------------------------
	BYTE	PATT
	 POIN2	mus_route113_9_002
// 035   ----------------------------------------
	BYTE	PATT
	 POIN2	mus_route113_9_003
// 036   ----------------------------------------
	BYTE	PATT
	 POIN2	mus_route113_9_004
// 037   ----------------------------------------
	BYTE	W03
	BYTE		N68     Dn3   v112
	BYTE	W21
	BYTE		MOD     6
	BYTE	W48
// 038   ----------------------------------------
	BYTE	PATT
	 POIN2	mus_route113_9_006
// 039   ----------------------------------------
	BYTE		N12     En3   v112
	BYTE	W12
	BYTE		N06     Gn2 
	BYTE	W12
	BYTE		VOL     82*mus_route113_mvl/mxv
	BYTE		N96     En3 
	BYTE	W02
	BYTE		VOL     78*mus_route113_mvl/mxv
	BYTE	W03
	BYTE		        76*mus_route113_mvl/mxv
	BYTE	W03
	BYTE		        73*mus_route113_mvl/mxv
	BYTE	W04
	BYTE		        67*mus_route113_mvl/mxv
	BYTE	W05
	BYTE		        64*mus_route113_mvl/mxv
	BYTE	W03
	BYTE		        61*mus_route113_mvl/mxv
	BYTE	W06
	BYTE		        56*mus_route113_mvl/mxv
	BYTE	W03
	BYTE		        53*mus_route113_mvl/mxv
	BYTE	W07
	BYTE		        47*mus_route113_mvl/mxv
	BYTE	W02
	BYTE		        47*mus_route113_mvl/mxv
	BYTE	W03
	BYTE		        41*mus_route113_mvl/mxv
	BYTE	W03
	BYTE		        40*mus_route113_mvl/mxv
	BYTE	W04
// 040   ----------------------------------------
	BYTE		        37*mus_route113_mvl/mxv
	BYTE		MOD     7
	BYTE	W02
	BYTE		VOL     34*mus_route113_mvl/mxv
	BYTE	W03
	BYTE		        32*mus_route113_mvl/mxv
	BYTE	W03
	BYTE		        29*mus_route113_mvl/mxv
	BYTE	W04
	BYTE		        28*mus_route113_mvl/mxv
	BYTE	W02
	BYTE		        23*mus_route113_mvl/mxv
	BYTE	W03
	BYTE		        23*mus_route113_mvl/mxv
	BYTE	W03
	BYTE		        17*mus_route113_mvl/mxv
	BYTE	W04
	BYTE		        16*mus_route113_mvl/mxv
	BYTE	W02
	BYTE		        14*mus_route113_mvl/mxv
	BYTE	W03
	BYTE		        11*mus_route113_mvl/mxv
	BYTE	W03
	BYTE		        8*mus_route113_mvl/mxv
	BYTE	W06
	BYTE		        5*mus_route113_mvl/mxv
	BYTE	W06
	BYTE		        2*mus_route113_mvl/mxv
	BYTE	W04
	BYTE		MOD     0
	BYTE	W12
	BYTE		VOICE   60
	BYTE		VOL     58*mus_route113_mvl/mxv
	BYTE		N06     An3 
	BYTE	W06
	BYTE		        Gs3 
	BYTE	W06
// 041   ----------------------------------------
	BYTE	PATT
	 POIN2	mus_route113_9_009
// 042   ----------------------------------------
	BYTE	PATT
	 POIN2	mus_route113_9_010
// 043   ----------------------------------------
	BYTE	PATT
	 POIN2	mus_route113_9_011
// 044   ----------------------------------------
	BYTE	PATT
	 POIN2	mus_route113_9_012
// 045   ----------------------------------------
	BYTE		N03     Ds3   v112
	BYTE	W03
	BYTE		N68     Dn3 
	BYTE	W21
	BYTE		MOD     7
	BYTE	W48
// 046   ----------------------------------------
	BYTE	PATT
	 POIN2	mus_route113_9_006
// 047   ----------------------------------------
	BYTE		N60     En3   v112
	BYTE	W24
	BYTE		VOL     82*mus_route113_mvl/mxv
	BYTE		MOD     5
	BYTE	W02
	BYTE		VOL     78*mus_route113_mvl/mxv
	BYTE	W03
	BYTE		        76*mus_route113_mvl/mxv
	BYTE	W03
	BYTE		        73*mus_route113_mvl/mxv
	BYTE	W04
	BYTE		        67*mus_route113_mvl/mxv
	BYTE	W05
	BYTE		        64*mus_route113_mvl/mxv
	BYTE	W03
	BYTE		        61*mus_route113_mvl/mxv
	BYTE	W06
	BYTE		        56*mus_route113_mvl/mxv
	BYTE	W03
	BYTE		        53*mus_route113_mvl/mxv
	BYTE	W07
	BYTE		        96*mus_route113_mvl/mxv
	BYTE		MOD     0
	BYTE		N06     Gn2 
	BYTE	W12
// 048   ----------------------------------------
	BYTE		N48     En3 
	BYTE	W21
	BYTE		VOL     90*mus_route113_mvl/mxv
	BYTE	W03
	BYTE		        76*mus_route113_mvl/mxv
	BYTE		MOD     6
	BYTE	W02
	BYTE		VOL     70*mus_route113_mvl/mxv
	BYTE	W03
	BYTE		        55*mus_route113_mvl/mxv
	BYTE	W03
	BYTE		        52*mus_route113_mvl/mxv
	BYTE	W04
	BYTE		        41*mus_route113_mvl/mxv
	BYTE	W02
	BYTE		        35*mus_route113_mvl/mxv
	BYTE	W03
	BYTE		        29*mus_route113_mvl/mxv
	BYTE	W03
	BYTE		        26*mus_route113_mvl/mxv
	BYTE	W04
	BYTE		        23*mus_route113_mvl/mxv
	BYTE		MOD     0
	BYTE	W05
	BYTE		VOL     20*mus_route113_mvl/mxv
	BYTE	W07
	BYTE		VOICE   24
	BYTE		VOL     103*mus_route113_mvl/mxv
	BYTE		N06     Bn2 
	BYTE	W06
	BYTE		        Dn3 
	BYTE	W06
	BYTE	GoTo
	 POIN2	mus_route113_9_B1
mus_route113_9_B2:
// 049   ----------------------------------------
	BYTE	FINE

//******************************************************//
	ALIGN 4

mus_route113:
	BYTE	9	// NumTrks
	BYTE	0	// NumBlks
	BYTE	mus_route113_pri	// Priority
	BYTE	mus_route113_rev	// Reverb.

	POIN2	mus_route113_grp

	POIN2	mus_route113_1
	POIN2	mus_route113_2
	POIN2	mus_route113_3
	POIN2	mus_route113_4
	POIN2	mus_route113_5
	POIN2	mus_route113_6
	POIN2	mus_route113_7
	POIN2	mus_route113_8
	POIN2	mus_route113_9

	
