//Event file generated from Sappy .s format.
	#include "MPlayDef.event"

	#define	mus_vs_rayquaza_grp  voicegroup114
	#define	mus_vs_rayquaza_pri  1
	#define	mus_vs_rayquaza_rev  reverb_set+50
	#define	mus_vs_rayquaza_mvl  80
	#define	mus_vs_rayquaza_key  0
	#define	mus_vs_rayquaza_tbs  1
	#define	mus_vs_rayquaza_exg  1
	#define	mus_vs_rayquaza_cmp  1

	// .rodata
	//	mus_vs_rayquaza
	ALIGN 4

//**************** Track 1 (Midi-Chn.1) ****************//

mus_vs_rayquaza_1:
	BYTE	KEYSH   mus_vs_rayquaza_key+0
// 000   ----------------------------------------
	BYTE	TEMPO   196*mus_vs_rayquaza_tbs/2
	BYTE		VOICE   14
	BYTE		LFOS    18
	BYTE		PAN     c_v+16
	BYTE		VOL     127*mus_vs_rayquaza_mvl/mxv
	BYTE		N48     Cn2   v112
	BYTE	W96
// 001   ----------------------------------------
	BYTE		N48   
	BYTE	W96
// 002   ----------------------------------------
	BYTE		N48   
	BYTE	W96
// 003   ----------------------------------------
	BYTE		N48   
	BYTE	W96
// 004   ----------------------------------------
mus_vs_rayquaza_1_004:
	BYTE		VOICE   47
	BYTE		PAN     c_v-32
	BYTE		N24     Gn1   v096
	BYTE	W24
	BYTE		N12   
	BYTE	W12
	BYTE		N24   
	BYTE	W24
	BYTE		N12   
	BYTE	W12
	BYTE		N24   
	BYTE	W24
	BYTE	PEND
// 005   ----------------------------------------
mus_vs_rayquaza_1_005:
	BYTE		N36     Gn1   v096
	BYTE	W36
	BYTE		N24   
	BYTE	W24
	BYTE		N24   
	BYTE	W24
	BYTE		N12   
	BYTE	W12
	BYTE	PEND
// 006   ----------------------------------------
mus_vs_rayquaza_1_006:
	BYTE		N12     Gn1   v096
	BYTE	W12
	BYTE		N24   
	BYTE	W24
	BYTE		N24   
	BYTE	W24
	BYTE		N12   
	BYTE	W12
	BYTE		N24   
	BYTE	W24
	BYTE	PEND
// 007   ----------------------------------------
mus_vs_rayquaza_1_007:
	BYTE		N24     Gn1   v096
	BYTE	W24
	BYTE		N12   
	BYTE	W12
	BYTE		N24   
	BYTE	W24
	BYTE		N12   
	BYTE	W12
	BYTE		N24   
	BYTE	W24
	BYTE	PEND
mus_vs_rayquaza_1_B1:
// 008   ----------------------------------------
	BYTE		VOICE   56
	BYTE		PAN     c_v+10
	BYTE		N12     Cn4   v100
	BYTE	W48
	BYTE		N24   
	BYTE	W24
	BYTE		N12     Cs4 
	BYTE	W24
// 009   ----------------------------------------
mus_vs_rayquaza_1_009:
	BYTE	W24
	BYTE		N72     Gn3   v100
	BYTE	W24
	BYTE		MOD     7
	BYTE	W48
	BYTE	PEND
// 010   ----------------------------------------
mus_vs_rayquaza_1_010:
	BYTE		MOD     0
	BYTE		N12     Cn4   v100
	BYTE	W48
	BYTE		N24   
	BYTE	W24
	BYTE		N12     Cs4 
	BYTE	W24
	BYTE	PEND
// 011   ----------------------------------------
	BYTE	W24
	BYTE		N72     Ds4 
	BYTE	W24
	BYTE		MOD     7
	BYTE	W48
// 012   ----------------------------------------
	BYTE	PATT
	 POIN2	mus_vs_rayquaza_1_010
// 013   ----------------------------------------
	BYTE	PATT
	 POIN2	mus_vs_rayquaza_1_009
// 014   ----------------------------------------
	BYTE	PATT
	 POIN2	mus_vs_rayquaza_1_010
// 015   ----------------------------------------
	BYTE	W24
	BYTE		N72     En4   v100
	BYTE	W24
	BYTE		MOD     7
	BYTE	W48
// 016   ----------------------------------------
	BYTE		VOICE   48
	BYTE		MOD     0
	BYTE		N12     Fn4   v096
	BYTE	W48
	BYTE		N24   
	BYTE	W24
	BYTE		N12     Fs4 
	BYTE	W24
// 017   ----------------------------------------
	BYTE	W24
	BYTE		N72     Cn4 
	BYTE	W72
// 018   ----------------------------------------
	BYTE		N12     Fn4 
	BYTE	W48
	BYTE		N24   
	BYTE	W24
	BYTE		N12     Fs4 
	BYTE	W24
// 019   ----------------------------------------
	BYTE	W24
	BYTE		N72     Gs4 
	BYTE	W72
// 020   ----------------------------------------
mus_vs_rayquaza_1_020:
	BYTE		N48     Gn3   v096
	BYTE	W48
	BYTE		        Cn4 
	BYTE	W48
	BYTE	PEND
// 021   ----------------------------------------
	BYTE		N96     Gs3 
	BYTE	W96
// 022   ----------------------------------------
	BYTE	PATT
	 POIN2	mus_vs_rayquaza_1_020
// 023   ----------------------------------------
	BYTE		N96     Gs4   v096
	BYTE	W96
// 024   ----------------------------------------
	BYTE	PATT
	 POIN2	mus_vs_rayquaza_1_020
// 025   ----------------------------------------
	BYTE		N96     Gs3   v096
	BYTE	W96
// 026   ----------------------------------------
	BYTE	PATT
	 POIN2	mus_vs_rayquaza_1_020
// 027   ----------------------------------------
	BYTE		N96     Gs4   v096
	BYTE	W96
// 028   ----------------------------------------
	BYTE		VOICE   60
	BYTE		N48     Ds4 
	BYTE	W48
	BYTE		        As3 
	BYTE	W48
// 029   ----------------------------------------
	BYTE		N96     Bn3 
	BYTE	W96
// 030   ----------------------------------------
	BYTE		N48     As3 
	BYTE	W48
	BYTE		        Ds4 
	BYTE	W48
// 031   ----------------------------------------
	BYTE		N96     Bn4 
	BYTE	W96
// 032   ----------------------------------------
	BYTE	PATT
	 POIN2	mus_vs_rayquaza_1_004
// 033   ----------------------------------------
	BYTE	PATT
	 POIN2	mus_vs_rayquaza_1_005
// 034   ----------------------------------------
	BYTE	PATT
	 POIN2	mus_vs_rayquaza_1_006
// 035   ----------------------------------------
	BYTE	PATT
	 POIN2	mus_vs_rayquaza_1_007
// 036   ----------------------------------------
	BYTE	PATT
	 POIN2	mus_vs_rayquaza_1_007
// 037   ----------------------------------------
	BYTE	PATT
	 POIN2	mus_vs_rayquaza_1_005
// 038   ----------------------------------------
	BYTE	PATT
	 POIN2	mus_vs_rayquaza_1_006
// 039   ----------------------------------------
	BYTE	PATT
	 POIN2	mus_vs_rayquaza_1_007
	BYTE	GoTo
	 POIN2	mus_vs_rayquaza_1_B1
mus_vs_rayquaza_1_B2:
// 040   ----------------------------------------
	BYTE	FINE

//**************** Track 2 (Midi-Chn.2) ****************//

mus_vs_rayquaza_2:
	BYTE	KEYSH   mus_vs_rayquaza_key+0
// 000   ----------------------------------------
	BYTE		VOICE   14
	BYTE		LFOS    18
	BYTE		PAN     c_v-16
	BYTE		VOL     127*mus_vs_rayquaza_mvl/mxv
	BYTE		N48     Cn3   v108
	BYTE	W96
// 001   ----------------------------------------
	BYTE		N48   
	BYTE	W96
// 002   ----------------------------------------
	BYTE		N48   
	BYTE	W96
// 003   ----------------------------------------
	BYTE		N48   
	BYTE	W96
// 004   ----------------------------------------
	BYTE	W96
// 005   ----------------------------------------
	BYTE	W96
// 006   ----------------------------------------
	BYTE	W96
// 007   ----------------------------------------
	BYTE	W96
mus_vs_rayquaza_2_B1:
// 008   ----------------------------------------
	BYTE		VOICE   56
	BYTE		PAN     c_v-10
	BYTE		N12     Gn4   v100
	BYTE	W48
	BYTE		N24   
	BYTE	W24
	BYTE		N12     Gs4 
	BYTE	W24
// 009   ----------------------------------------
mus_vs_rayquaza_2_009:
	BYTE	W24
	BYTE		N72     Dn4   v100
	BYTE	W24
	BYTE		MOD     7
	BYTE	W48
	BYTE	PEND
// 010   ----------------------------------------
mus_vs_rayquaza_2_010:
	BYTE		MOD     0
	BYTE		N12     Gn4   v100
	BYTE	W48
	BYTE		N24   
	BYTE	W24
	BYTE		N12     Gs4 
	BYTE	W24
	BYTE	PEND
// 011   ----------------------------------------
	BYTE	W24
	BYTE		N72     As4 
	BYTE	W24
	BYTE		MOD     7
	BYTE	W48
// 012   ----------------------------------------
	BYTE	PATT
	 POIN2	mus_vs_rayquaza_2_010
// 013   ----------------------------------------
	BYTE	PATT
	 POIN2	mus_vs_rayquaza_2_009
// 014   ----------------------------------------
	BYTE	PATT
	 POIN2	mus_vs_rayquaza_2_010
// 015   ----------------------------------------
	BYTE	W24
	BYTE		N72     Bn4   v100
	BYTE	W24
	BYTE		MOD     7
	BYTE	W48
// 016   ----------------------------------------
	BYTE		VOICE   48
	BYTE		MOD     0
	BYTE		N12     Cn5   v096
	BYTE	W48
	BYTE		N24   
	BYTE	W24
	BYTE		N12     Cs5 
	BYTE	W24
// 017   ----------------------------------------
	BYTE	W24
	BYTE		N72     Gn4 
	BYTE	W72
// 018   ----------------------------------------
	BYTE		N12     Cn5 
	BYTE	W48
	BYTE		N24   
	BYTE	W24
	BYTE		N12     Cs5 
	BYTE	W24
// 019   ----------------------------------------
	BYTE	W24
	BYTE		N72     Ds5 
	BYTE	W72
// 020   ----------------------------------------
	BYTE		VOICE   73
	BYTE		N36     Cn5   v108
	BYTE	W18
	BYTE		MOD     7
	BYTE	W18
	BYTE		        0
	BYTE		N36     Gn4 
	BYTE	W21
	BYTE		MOD     7
	BYTE	W15
	BYTE		        0
	BYTE		N24     Fs4 
	BYTE	W24
// 021   ----------------------------------------
mus_vs_rayquaza_2_021:
	BYTE		N96     Cs4   v108
	BYTE	W36
	BYTE		MOD     8
	BYTE	W60
	BYTE	PEND
// 022   ----------------------------------------
mus_vs_rayquaza_2_022:
	BYTE		MOD     0
	BYTE		N36     Cn5   v108
	BYTE	W18
	BYTE		MOD     7
	BYTE	W18
	BYTE		        0
	BYTE		N36     Gn4 
	BYTE	W21
	BYTE		MOD     7
	BYTE	W15
	BYTE		        0
	BYTE		N24     Fn4 
	BYTE	W24
	BYTE	PEND
// 023   ----------------------------------------
mus_vs_rayquaza_2_023:
	BYTE		N96     Cs5   v108
	BYTE	W36
	BYTE		MOD     8
	BYTE	W60
	BYTE	PEND
// 024   ----------------------------------------
	BYTE		VOICE   56
	BYTE		MOD     0
	BYTE		N36     Cn5 
	BYTE	W18
	BYTE		MOD     7
	BYTE	W18
	BYTE		        0
	BYTE		N36     Gn4 
	BYTE	W21
	BYTE		MOD     7
	BYTE	W15
	BYTE		        0
	BYTE		N24     Fs4 
	BYTE	W24
// 025   ----------------------------------------
	BYTE	PATT
	 POIN2	mus_vs_rayquaza_2_021
// 026   ----------------------------------------
	BYTE	PATT
	 POIN2	mus_vs_rayquaza_2_022
// 027   ----------------------------------------
	BYTE	PATT
	 POIN2	mus_vs_rayquaza_2_023
// 028   ----------------------------------------
	BYTE		VOICE   48
	BYTE		MOD     0
	BYTE		N36     Gn4   v108
	BYTE	W36
	BYTE		        As4 
	BYTE	W36
	BYTE		N24     Ds5 
	BYTE	W24
// 029   ----------------------------------------
	BYTE		N96     En5 
	BYTE	W96
// 030   ----------------------------------------
	BYTE		N36     Ds5 
	BYTE	W36
	BYTE		        As4 
	BYTE	W36
	BYTE		N24     Gs4 
	BYTE	W24
// 031   ----------------------------------------
	BYTE		N96     En5 
	BYTE	W96
// 032   ----------------------------------------
	BYTE		VOICE   14
	BYTE		PAN     c_v+0
	BYTE		N24     Cn4 
	BYTE	W48
	BYTE		VOICE   47
	BYTE		N48     En1   v100
	BYTE	W48
// 033   ----------------------------------------
mus_vs_rayquaza_2_033:
	BYTE		VOICE   14
	BYTE		N24     Cn4   v108
	BYTE	W48
	BYTE		VOICE   47
	BYTE		N48     Cn1   v100
	BYTE	W48
	BYTE	PEND
// 034   ----------------------------------------
	BYTE		VOICE   14
	BYTE		N24     Cn4   v108
	BYTE	W48
	BYTE		VOICE   47
	BYTE		N48     En1   v100
	BYTE	W48
// 035   ----------------------------------------
	BYTE	PATT
	 POIN2	mus_vs_rayquaza_2_033
// 036   ----------------------------------------
	BYTE		N24     En1   v100
	BYTE	W24
	BYTE		        An1 
	BYTE	W24
	BYTE		        En1 
	BYTE	W24
	BYTE		        An1 
	BYTE	W24
// 037   ----------------------------------------
	BYTE		N12     En1 
	BYTE	W12
	BYTE		N24   
	BYTE	W24
	BYTE		N12     An1 
	BYTE	W12
	BYTE		N24     En1 
	BYTE	W24
	BYTE		N12     An1 
	BYTE	W12
	BYTE		N12   
	BYTE	W12
// 038   ----------------------------------------
	BYTE		N24     En1 
	BYTE	W24
	BYTE		N12     An1 
	BYTE	W12
	BYTE		N24     En1 
	BYTE	W24
	BYTE		N12   
	BYTE	W12
	BYTE		        An1 
	BYTE	W12
	BYTE		N12   
	BYTE	W12
// 039   ----------------------------------------
	BYTE		N24     En1 
	BYTE	W24
	BYTE		        An1 
	BYTE	W24
	BYTE		N12     En1 
	BYTE	W12
	BYTE		N12   
	BYTE	W12
	BYTE		        An1 
	BYTE	W12
	BYTE		N12   
	BYTE	W12
	BYTE	GoTo
	 POIN2	mus_vs_rayquaza_2_B1
mus_vs_rayquaza_2_B2:
// 040   ----------------------------------------
	BYTE	FINE

//**************** Track 3 (Midi-Chn.3) ****************//

mus_vs_rayquaza_3:
	BYTE	KEYSH   mus_vs_rayquaza_key+0
// 000   ----------------------------------------
	BYTE		VOICE   33
	BYTE		VOL     127*mus_vs_rayquaza_mvl/mxv
	BYTE	W96
// 001   ----------------------------------------
	BYTE	W96
// 002   ----------------------------------------
	BYTE	W96
// 003   ----------------------------------------
	BYTE	W96
// 004   ----------------------------------------
	BYTE	W96
// 005   ----------------------------------------
	BYTE	W96
// 006   ----------------------------------------
	BYTE	W96
// 007   ----------------------------------------
	BYTE	W96
mus_vs_rayquaza_3_B1:
// 008   ----------------------------------------
mus_vs_rayquaza_3_008:
	BYTE		N12     Gn0   v112
	BYTE	W48
	BYTE		N12   
	BYTE	W48
	BYTE	PEND
// 009   ----------------------------------------
mus_vs_rayquaza_3_009:
	BYTE		N12     Gn0   v112
	BYTE	W48
	BYTE		N12   
	BYTE	W24
	BYTE		N24     Fs0 
	BYTE	W24
	BYTE	PEND
// 010   ----------------------------------------
	BYTE	PATT
	 POIN2	mus_vs_rayquaza_3_008
// 011   ----------------------------------------
	BYTE	PATT
	 POIN2	mus_vs_rayquaza_3_008
// 012   ----------------------------------------
	BYTE	PATT
	 POIN2	mus_vs_rayquaza_3_008
// 013   ----------------------------------------
	BYTE	PATT
	 POIN2	mus_vs_rayquaza_3_009
// 014   ----------------------------------------
	BYTE	PATT
	 POIN2	mus_vs_rayquaza_3_008
// 015   ----------------------------------------
	BYTE		N12     Gn0   v112
	BYTE	W48
	BYTE		N12   
	BYTE	W24
	BYTE		N24     Bn0 
	BYTE	W24
// 016   ----------------------------------------
mus_vs_rayquaza_3_016:
	BYTE		N12     Cn1   v112
	BYTE	W48
	BYTE		N12   
	BYTE	W48
	BYTE	PEND
// 017   ----------------------------------------
	BYTE		N12   
	BYTE	W48
	BYTE		N12   
	BYTE	W24
	BYTE		N24     Bn0 
	BYTE	W24
// 018   ----------------------------------------
	BYTE	PATT
	 POIN2	mus_vs_rayquaza_3_016
// 019   ----------------------------------------
	BYTE		N12     Cn1   v112
	BYTE	W48
	BYTE		N12   
	BYTE	W24
	BYTE		N24     Cs1 
	BYTE	W24
// 020   ----------------------------------------
	BYTE	PATT
	 POIN2	mus_vs_rayquaza_3_016
// 021   ----------------------------------------
	BYTE		N12     Cs1   v112
	BYTE	W48
	BYTE		N12   
	BYTE	W48
// 022   ----------------------------------------
	BYTE	PATT
	 POIN2	mus_vs_rayquaza_3_016
// 023   ----------------------------------------
	BYTE		N12     Cs1   v112
	BYTE	W48
	BYTE		N12   
	BYTE	W24
	BYTE		N24     Bn0 
	BYTE	W24
// 024   ----------------------------------------
mus_vs_rayquaza_3_024:
	BYTE		N12     Cn1   v112
	BYTE	W12
	BYTE		        Gn1 
	BYTE	W12
	BYTE		        Cn1 
	BYTE	W12
	BYTE		        Gn1 
	BYTE	W12
	BYTE		        Cn1 
	BYTE	W12
	BYTE		        Gn1 
	BYTE	W12
	BYTE		        Cn1 
	BYTE	W12
	BYTE		        Gn1 
	BYTE	W12
	BYTE	PEND
// 025   ----------------------------------------
mus_vs_rayquaza_3_025:
	BYTE		N12     Cs1   v112
	BYTE	W12
	BYTE		        Gs1 
	BYTE	W12
	BYTE		        Cs1 
	BYTE	W12
	BYTE		        Gs1 
	BYTE	W12
	BYTE		        Cs1 
	BYTE	W12
	BYTE		        Gs1 
	BYTE	W12
	BYTE		        Cs1 
	BYTE	W12
	BYTE		        Gs1 
	BYTE	W12
	BYTE	PEND
// 026   ----------------------------------------
	BYTE	PATT
	 POIN2	mus_vs_rayquaza_3_024
// 027   ----------------------------------------
	BYTE	PATT
	 POIN2	mus_vs_rayquaza_3_025
// 028   ----------------------------------------
mus_vs_rayquaza_3_028:
	BYTE		N12     Ds1   v112
	BYTE	W12
	BYTE		        As1 
	BYTE	W12
	BYTE		        Ds1 
	BYTE	W12
	BYTE		        As1 
	BYTE	W12
	BYTE		        Ds1 
	BYTE	W12
	BYTE		        As1 
	BYTE	W12
	BYTE		        Ds1 
	BYTE	W12
	BYTE		        As1 
	BYTE	W12
	BYTE	PEND
// 029   ----------------------------------------
mus_vs_rayquaza_3_029:
	BYTE		N12     En1   v112
	BYTE	W12
	BYTE		        Bn1 
	BYTE	W12
	BYTE		        En1 
	BYTE	W12
	BYTE		        Bn1 
	BYTE	W12
	BYTE		        En1 
	BYTE	W12
	BYTE		        Bn1 
	BYTE	W12
	BYTE		        En1 
	BYTE	W12
	BYTE		        Bn1 
	BYTE	W12
	BYTE	PEND
// 030   ----------------------------------------
	BYTE	PATT
	 POIN2	mus_vs_rayquaza_3_028
// 031   ----------------------------------------
	BYTE	PATT
	 POIN2	mus_vs_rayquaza_3_029
// 032   ----------------------------------------
	BYTE	PATT
	 POIN2	mus_vs_rayquaza_3_016
// 033   ----------------------------------------
mus_vs_rayquaza_3_033:
	BYTE		N12     Cn1   v112
	BYTE	W48
	BYTE		N48     Bn0 
	BYTE	W48
	BYTE	PEND
// 034   ----------------------------------------
	BYTE	PATT
	 POIN2	mus_vs_rayquaza_3_016
// 035   ----------------------------------------
	BYTE		N12     Cn1   v112
	BYTE	W48
	BYTE		N36     Gs1 
	BYTE	W36
	BYTE		N06     Gn1 
	BYTE	W06
	BYTE		        Fn1 
	BYTE	W06
// 036   ----------------------------------------
	BYTE	PATT
	 POIN2	mus_vs_rayquaza_3_016
// 037   ----------------------------------------
	BYTE	PATT
	 POIN2	mus_vs_rayquaza_3_033
// 038   ----------------------------------------
	BYTE	PATT
	 POIN2	mus_vs_rayquaza_3_016
// 039   ----------------------------------------
	BYTE		N12     Cn1   v112
	BYTE	W48
	BYTE		        Gn0 
	BYTE	W12
	BYTE		        Gs0 
	BYTE	W12
	BYTE		        Gn0 
	BYTE	W12
	BYTE		        Fn0 
	BYTE	W12
	BYTE	GoTo
	 POIN2	mus_vs_rayquaza_3_B1
mus_vs_rayquaza_3_B2:
// 040   ----------------------------------------
	BYTE	FINE

//**************** Track 4 (Midi-Chn.4) ****************//

mus_vs_rayquaza_4:
	BYTE	KEYSH   mus_vs_rayquaza_key+0
// 000   ----------------------------------------
	BYTE		VOICE   127
	BYTE		LFOS    18
	BYTE		PAN     c_v+4
	BYTE		VOL     127*mus_vs_rayquaza_mvl/mxv
	BYTE		N96     An2   v096
	BYTE	W96
// 001   ----------------------------------------
	BYTE		N96   
	BYTE	W96
// 002   ----------------------------------------
	BYTE		N96   
	BYTE	W96
// 003   ----------------------------------------
	BYTE		N96   
	BYTE	W96
// 004   ----------------------------------------
	BYTE	W96
// 005   ----------------------------------------
	BYTE	W96
// 006   ----------------------------------------
	BYTE	W96
// 007   ----------------------------------------
	BYTE	W96
mus_vs_rayquaza_4_B1:
// 008   ----------------------------------------
	BYTE		VOICE   80
	BYTE		PAN     c_v-48
	BYTE		XCMD    xIECV   10
	BYTE		        xIECL   8
	BYTE		N12     Gn3   v052
	BYTE	W48
	BYTE		N24   
	BYTE	W24
	BYTE		N12     Gs3 
	BYTE	W24
// 009   ----------------------------------------
mus_vs_rayquaza_4_009:
	BYTE	W24
	BYTE		N72     Dn3   v052
	BYTE	W24
	BYTE		MOD     7
	BYTE	W48
	BYTE	PEND
// 010   ----------------------------------------
mus_vs_rayquaza_4_010:
	BYTE		MOD     0
	BYTE		N12     Gn3   v052
	BYTE	W48
	BYTE		N24   
	BYTE	W24
	BYTE		N12     Gs3 
	BYTE	W24
	BYTE	PEND
// 011   ----------------------------------------
	BYTE	W24
	BYTE		N72     As3 
	BYTE	W24
	BYTE		MOD     7
	BYTE	W48
// 012   ----------------------------------------
	BYTE	PATT
	 POIN2	mus_vs_rayquaza_4_010
// 013   ----------------------------------------
	BYTE	PATT
	 POIN2	mus_vs_rayquaza_4_009
// 014   ----------------------------------------
	BYTE	PATT
	 POIN2	mus_vs_rayquaza_4_010
// 015   ----------------------------------------
	BYTE	W24
	BYTE		N72     Bn3   v052
	BYTE	W24
	BYTE		MOD     7
	BYTE	W48
// 016   ----------------------------------------
mus_vs_rayquaza_4_016:
	BYTE		MOD     0
	BYTE		N12     Cn4   v052
	BYTE	W48
	BYTE		N24   
	BYTE	W24
	BYTE		N12     Cs4 
	BYTE	W24
	BYTE	PEND
// 017   ----------------------------------------
	BYTE	W24
	BYTE		N72     Gn3 
	BYTE	W24
	BYTE		MOD     7
	BYTE	W48
// 018   ----------------------------------------
	BYTE	PATT
	 POIN2	mus_vs_rayquaza_4_016
// 019   ----------------------------------------
	BYTE	W24
	BYTE		N72     Ds4   v052
	BYTE	W24
	BYTE		MOD     7
	BYTE	W48
// 020   ----------------------------------------
	BYTE		        0
	BYTE	W96
// 021   ----------------------------------------
	BYTE	W96
// 022   ----------------------------------------
	BYTE		        0
	BYTE	W96
// 023   ----------------------------------------
	BYTE		PAN     c_v+0
	BYTE		N96     Cs4   v060
	BYTE	W96
// 024   ----------------------------------------
	BYTE		MOD     0
	BYTE	W96
// 025   ----------------------------------------
	BYTE	W96
// 026   ----------------------------------------
	BYTE		        0
	BYTE	W96
// 027   ----------------------------------------
	BYTE		N96   
	BYTE	W96
// 028   ----------------------------------------
	BYTE		N48     As3 
	BYTE	W48
	BYTE		N24     Ds4 
	BYTE	W24
	BYTE		        As4 
	BYTE	W24
// 029   ----------------------------------------
	BYTE		N96     Gs4 
	BYTE	W96
// 030   ----------------------------------------
	BYTE		N36     Gn4 
	BYTE	W36
	BYTE		N12     Ds4 
	BYTE	W12
	BYTE		N48     As3 
	BYTE	W48
// 031   ----------------------------------------
	BYTE		N96     En4 
	BYTE	W96
// 032   ----------------------------------------
	BYTE	W96
// 033   ----------------------------------------
	BYTE	W96
// 034   ----------------------------------------
	BYTE	W96
// 035   ----------------------------------------
	BYTE	W96
// 036   ----------------------------------------
	BYTE	W96
// 037   ----------------------------------------
	BYTE	W96
// 038   ----------------------------------------
	BYTE	W96
// 039   ----------------------------------------
	BYTE	W96
	BYTE	GoTo
	 POIN2	mus_vs_rayquaza_4_B1
mus_vs_rayquaza_4_B2:
// 040   ----------------------------------------
	BYTE	FINE

//**************** Track 5 (Midi-Chn.5) ****************//

mus_vs_rayquaza_5:
	BYTE	KEYSH   mus_vs_rayquaza_key+0
// 000   ----------------------------------------
	BYTE		LFOS    18
	BYTE		VOL     127*mus_vs_rayquaza_mvl/mxv
	BYTE	W96
// 001   ----------------------------------------
	BYTE	W96
// 002   ----------------------------------------
	BYTE	W96
// 003   ----------------------------------------
	BYTE	W96
// 004   ----------------------------------------
	BYTE	W96
// 005   ----------------------------------------
	BYTE	W96
// 006   ----------------------------------------
	BYTE	W96
// 007   ----------------------------------------
	BYTE	W96
mus_vs_rayquaza_5_B1:
// 008   ----------------------------------------
	BYTE		VOICE   82
	BYTE		XCMD    xIECV   10
	BYTE		        xIECL   8
	BYTE		PAN     c_v+48
	BYTE		N12     Cn3   v052
	BYTE	W48
	BYTE		N24   
	BYTE	W24
	BYTE		N12     Cs3 
	BYTE	W24
// 009   ----------------------------------------
mus_vs_rayquaza_5_009:
	BYTE	W24
	BYTE		N12     Gn2   v052
	BYTE	W12
	BYTE		VOICE   83
	BYTE		N12   
	BYTE	W12
	BYTE		MOD     7
	BYTE		N12   
	BYTE	W12
	BYTE		N12   
	BYTE	W12
	BYTE		N12   
	BYTE	W12
	BYTE		N12   
	BYTE	W12
	BYTE	PEND
// 010   ----------------------------------------
mus_vs_rayquaza_5_010:
	BYTE		VOICE   82
	BYTE		MOD     0
	BYTE		N12     Cn3   v052
	BYTE	W48
	BYTE		N24   
	BYTE	W24
	BYTE		N12     Cs3 
	BYTE	W24
	BYTE	PEND
// 011   ----------------------------------------
	BYTE	W24
	BYTE		        Ds3 
	BYTE	W12
	BYTE		VOICE   83
	BYTE		N12   
	BYTE	W12
	BYTE		MOD     7
	BYTE		N12   
	BYTE	W12
	BYTE		N12   
	BYTE	W12
	BYTE		N12   
	BYTE	W12
	BYTE		N12   
	BYTE	W12
// 012   ----------------------------------------
	BYTE	PATT
	 POIN2	mus_vs_rayquaza_5_010
// 013   ----------------------------------------
	BYTE	PATT
	 POIN2	mus_vs_rayquaza_5_009
// 014   ----------------------------------------
	BYTE	PATT
	 POIN2	mus_vs_rayquaza_5_010
// 015   ----------------------------------------
	BYTE	W24
	BYTE		N12     En3   v052
	BYTE	W12
	BYTE		VOICE   83
	BYTE		N12   
	BYTE	W12
	BYTE		MOD     7
	BYTE		N12   
	BYTE	W12
	BYTE		N12   
	BYTE	W12
	BYTE		N12   
	BYTE	W12
	BYTE		N12   
	BYTE	W12
// 016   ----------------------------------------
mus_vs_rayquaza_5_016:
	BYTE		VOICE   82
	BYTE		MOD     0
	BYTE		N12     Fn3   v052
	BYTE	W48
	BYTE		N24   
	BYTE	W24
	BYTE		N12     Fs3 
	BYTE	W24
	BYTE	PEND
// 017   ----------------------------------------
	BYTE	W24
	BYTE		        Cn3 
	BYTE	W12
	BYTE		VOICE   83
	BYTE		N12   
	BYTE	W12
	BYTE		MOD     7
	BYTE		N12   
	BYTE	W12
	BYTE		N12   
	BYTE	W12
	BYTE		N12   
	BYTE	W12
	BYTE		N12   
	BYTE	W12
// 018   ----------------------------------------
	BYTE	PATT
	 POIN2	mus_vs_rayquaza_5_016
// 019   ----------------------------------------
	BYTE	W24
	BYTE		N12     Gs3   v052
	BYTE	W12
	BYTE		VOICE   83
	BYTE		N12   
	BYTE	W12
	BYTE		MOD     7
	BYTE		N12   
	BYTE	W12
	BYTE		N12   
	BYTE	W12
	BYTE		N12   
	BYTE	W12
	BYTE		N12   
	BYTE	W12
// 020   ----------------------------------------
	BYTE		MOD     0
	BYTE	W96
// 021   ----------------------------------------
	BYTE	W96
// 022   ----------------------------------------
	BYTE		        0
	BYTE	W96
// 023   ----------------------------------------
	BYTE	W96
// 024   ----------------------------------------
	BYTE		        0
	BYTE	W96
// 025   ----------------------------------------
	BYTE	W96
// 026   ----------------------------------------
	BYTE		        0
	BYTE	W96
// 027   ----------------------------------------
	BYTE	W96
// 028   ----------------------------------------
	BYTE	W96
// 029   ----------------------------------------
	BYTE	W96
// 030   ----------------------------------------
	BYTE	W96
// 031   ----------------------------------------
	BYTE		VOICE   82
	BYTE		PAN     c_v+0
	BYTE		N12     Bn3   v060
	BYTE	W12
	BYTE		        Bn3   v052
	BYTE	W12
	BYTE		N12   
	BYTE	W12
	BYTE		VOICE   83
	BYTE		N12   
	BYTE	W12
	BYTE		N12   
	BYTE	W12
	BYTE		N12   
	BYTE	W12
	BYTE		N12   
	BYTE	W12
	BYTE		N12   
	BYTE	W12
// 032   ----------------------------------------
	BYTE	W96
// 033   ----------------------------------------
	BYTE	W96
// 034   ----------------------------------------
	BYTE	W96
// 035   ----------------------------------------
	BYTE	W96
// 036   ----------------------------------------
	BYTE	W96
// 037   ----------------------------------------
	BYTE	W96
// 038   ----------------------------------------
	BYTE	W96
// 039   ----------------------------------------
	BYTE	W96
	BYTE	GoTo
	 POIN2	mus_vs_rayquaza_5_B1
mus_vs_rayquaza_5_B2:
// 040   ----------------------------------------
	BYTE	FINE

//**************** Track 6 (Midi-Chn.6) ****************//

mus_vs_rayquaza_6:
	BYTE	KEYSH   mus_vs_rayquaza_key+0
// 000   ----------------------------------------
	BYTE		VOICE   47
	BYTE		PAN     c_v-4
	BYTE		VOL     127*mus_vs_rayquaza_mvl/mxv
	BYTE		N96     Gn1   v112
	BYTE	W96
// 001   ----------------------------------------
	BYTE		N96   
	BYTE	W96
// 002   ----------------------------------------
	BYTE		N96   
	BYTE	W96
// 003   ----------------------------------------
	BYTE		        Cn1 
	BYTE	W96
// 004   ----------------------------------------
mus_vs_rayquaza_6_004:
	BYTE		PAN     c_v+32
	BYTE	W12
	BYTE		N36     Cn2   v096
	BYTE	W36
	BYTE		N36   
	BYTE	W36
	BYTE		N24   
	BYTE	W12
	BYTE	PEND
// 005   ----------------------------------------
mus_vs_rayquaza_6_005:
	BYTE	W12
	BYTE		N12     Cn2   v096
	BYTE	W12
	BYTE		N24   
	BYTE	W24
	BYTE		N24   
	BYTE	W24
	BYTE		N48   
	BYTE	W24
	BYTE	PEND
// 006   ----------------------------------------
mus_vs_rayquaza_6_006:
	BYTE	W24
	BYTE		N24     Cn2   v096
	BYTE	W24
	BYTE		N36   
	BYTE	W36
	BYTE		N24   
	BYTE	W12
	BYTE	PEND
// 007   ----------------------------------------
mus_vs_rayquaza_6_007:
	BYTE	W12
	BYTE		N36     Cn2   v096
	BYTE	W36
	BYTE		N36   
	BYTE	W36
	BYTE		N12   
	BYTE	W12
	BYTE	PEND
mus_vs_rayquaza_6_B1:
// 008   ----------------------------------------
mus_vs_rayquaza_6_008:
	BYTE		PAN     c_v-16
	BYTE		N12     Gn1   v112
	BYTE	W12
	BYTE		PAN     c_v+16
	BYTE		N12     Cn2 
	BYTE	W12
	BYTE		PAN     c_v-16
	BYTE		N12     Gn1 
	BYTE	W12
	BYTE		PAN     c_v+16
	BYTE		N12   
	BYTE	W12
	BYTE		PAN     c_v-16
	BYTE		N12     Cn2 
	BYTE	W12
	BYTE		PAN     c_v+16
	BYTE		N12     Gn1 
	BYTE	W12
	BYTE		PAN     c_v-16
	BYTE		N12   
	BYTE	W12
	BYTE		PAN     c_v+16
	BYTE		N12     Cn2 
	BYTE	W12
	BYTE	PEND
// 009   ----------------------------------------
mus_vs_rayquaza_6_009:
	BYTE		PAN     c_v-16
	BYTE		N12     Gn1   v112
	BYTE	W12
	BYTE		PAN     c_v+16
	BYTE		N12     Cn2 
	BYTE	W12
	BYTE		PAN     c_v-16
	BYTE		N12   
	BYTE	W12
	BYTE		PAN     c_v+16
	BYTE		N12     Gn1 
	BYTE	W12
	BYTE		PAN     c_v-16
	BYTE		N12     Cn2 
	BYTE	W12
	BYTE		PAN     c_v+16
	BYTE		N12     Gn1 
	BYTE	W12
	BYTE		PAN     c_v-16
	BYTE		N12     Cn2 
	BYTE	W12
	BYTE		PAN     c_v+16
	BYTE		N12     Gn1 
	BYTE	W12
	BYTE	PEND
// 010   ----------------------------------------
mus_vs_rayquaza_6_010:
	BYTE		PAN     c_v-16
	BYTE		N12     Gn1   v112
	BYTE	W12
	BYTE		PAN     c_v+16
	BYTE		N12   
	BYTE	W12
	BYTE		PAN     c_v-16
	BYTE		N12     Cn2 
	BYTE	W12
	BYTE		PAN     c_v+16
	BYTE		N12     Gn1 
	BYTE	W12
	BYTE		PAN     c_v-16
	BYTE		N12     Cn2 
	BYTE	W12
	BYTE		PAN     c_v+16
	BYTE		N12     Gn1 
	BYTE	W12
	BYTE		PAN     c_v-16
	BYTE		N12   
	BYTE	W12
	BYTE		PAN     c_v+16
	BYTE		N12     Cn2 
	BYTE	W12
	BYTE	PEND
// 011   ----------------------------------------
	BYTE	PATT
	 POIN2	mus_vs_rayquaza_6_008
// 012   ----------------------------------------
	BYTE	PATT
	 POIN2	mus_vs_rayquaza_6_008
// 013   ----------------------------------------
	BYTE	PATT
	 POIN2	mus_vs_rayquaza_6_009
// 014   ----------------------------------------
	BYTE	PATT
	 POIN2	mus_vs_rayquaza_6_010
// 015   ----------------------------------------
	BYTE	PATT
	 POIN2	mus_vs_rayquaza_6_008
// 016   ----------------------------------------
	BYTE	PATT
	 POIN2	mus_vs_rayquaza_6_008
// 017   ----------------------------------------
	BYTE	PATT
	 POIN2	mus_vs_rayquaza_6_009
// 018   ----------------------------------------
	BYTE	PATT
	 POIN2	mus_vs_rayquaza_6_010
// 019   ----------------------------------------
	BYTE	PATT
	 POIN2	mus_vs_rayquaza_6_008
// 020   ----------------------------------------
	BYTE	PATT
	 POIN2	mus_vs_rayquaza_6_008
// 021   ----------------------------------------
	BYTE	PATT
	 POIN2	mus_vs_rayquaza_6_009
// 022   ----------------------------------------
	BYTE	PATT
	 POIN2	mus_vs_rayquaza_6_010
// 023   ----------------------------------------
	BYTE	PATT
	 POIN2	mus_vs_rayquaza_6_008
// 024   ----------------------------------------
	BYTE	PATT
	 POIN2	mus_vs_rayquaza_6_008
// 025   ----------------------------------------
	BYTE	PATT
	 POIN2	mus_vs_rayquaza_6_009
// 026   ----------------------------------------
	BYTE	PATT
	 POIN2	mus_vs_rayquaza_6_010
// 027   ----------------------------------------
	BYTE	PATT
	 POIN2	mus_vs_rayquaza_6_008
// 028   ----------------------------------------
mus_vs_rayquaza_6_028:
	BYTE		PAN     c_v-16
	BYTE		N12     As1   v112
	BYTE	W12
	BYTE		PAN     c_v+16
	BYTE		N12     Ds2 
	BYTE	W12
	BYTE		PAN     c_v-16
	BYTE		N12     As1 
	BYTE	W12
	BYTE		PAN     c_v+16
	BYTE		N12   
	BYTE	W12
	BYTE		PAN     c_v-16
	BYTE		N12     Ds2 
	BYTE	W12
	BYTE		PAN     c_v+16
	BYTE		N12     As1 
	BYTE	W12
	BYTE		PAN     c_v-16
	BYTE		N12   
	BYTE	W12
	BYTE		PAN     c_v+16
	BYTE		N12     Ds2 
	BYTE	W12
	BYTE	PEND
// 029   ----------------------------------------
	BYTE		PAN     c_v-16
	BYTE		N12     As1 
	BYTE	W12
	BYTE		PAN     c_v+16
	BYTE		N12     Ds2 
	BYTE	W12
	BYTE		PAN     c_v-16
	BYTE		N12   
	BYTE	W12
	BYTE		PAN     c_v+16
	BYTE		N12     As1 
	BYTE	W12
	BYTE		PAN     c_v-16
	BYTE		N12     Ds2 
	BYTE	W12
	BYTE		PAN     c_v+16
	BYTE		N12     As1 
	BYTE	W12
	BYTE		PAN     c_v-16
	BYTE		N12     Ds2 
	BYTE	W12
	BYTE		PAN     c_v+16
	BYTE		N12     As1 
	BYTE	W12
// 030   ----------------------------------------
	BYTE		PAN     c_v-16
	BYTE		N12   
	BYTE	W12
	BYTE		PAN     c_v+16
	BYTE		N12   
	BYTE	W12
	BYTE		PAN     c_v-16
	BYTE		N12     Ds2 
	BYTE	W12
	BYTE		PAN     c_v+16
	BYTE		N12     As1 
	BYTE	W12
	BYTE		PAN     c_v-16
	BYTE		N12     Ds2 
	BYTE	W12
	BYTE		PAN     c_v+16
	BYTE		N12     As1 
	BYTE	W12
	BYTE		PAN     c_v-16
	BYTE		N12   
	BYTE	W12
	BYTE		PAN     c_v+16
	BYTE		N12     Ds2 
	BYTE	W12
// 031   ----------------------------------------
	BYTE	PATT
	 POIN2	mus_vs_rayquaza_6_028
// 032   ----------------------------------------
	BYTE	PATT
	 POIN2	mus_vs_rayquaza_6_004
// 033   ----------------------------------------
	BYTE	PATT
	 POIN2	mus_vs_rayquaza_6_005
// 034   ----------------------------------------
	BYTE	PATT
	 POIN2	mus_vs_rayquaza_6_006
// 035   ----------------------------------------
mus_vs_rayquaza_6_035:
	BYTE	W12
	BYTE		N36     Cn2   v096
	BYTE	W36
	BYTE		N36   
	BYTE	W36
	BYTE		N24   
	BYTE	W12
	BYTE	PEND
// 036   ----------------------------------------
	BYTE	PATT
	 POIN2	mus_vs_rayquaza_6_035
// 037   ----------------------------------------
	BYTE	PATT
	 POIN2	mus_vs_rayquaza_6_005
// 038   ----------------------------------------
	BYTE	PATT
	 POIN2	mus_vs_rayquaza_6_006
// 039   ----------------------------------------
	BYTE	PATT
	 POIN2	mus_vs_rayquaza_6_007
	BYTE	GoTo
	 POIN2	mus_vs_rayquaza_6_B1
mus_vs_rayquaza_6_B2:
// 040   ----------------------------------------
	BYTE	FINE

//******************************************************//
	ALIGN 4

mus_vs_rayquaza:
	BYTE	6	// NumTrks
	BYTE	0	// NumBlks
	BYTE	mus_vs_rayquaza_pri	// Priority
	BYTE	mus_vs_rayquaza_rev	// Reverb.

	POIN2	mus_vs_rayquaza_grp

	POIN2	mus_vs_rayquaza_1
	POIN2	mus_vs_rayquaza_2
	POIN2	mus_vs_rayquaza_3
	POIN2	mus_vs_rayquaza_4
	POIN2	mus_vs_rayquaza_5
	POIN2	mus_vs_rayquaza_6

	
