//Event file generated from Sappy .s format.
	#include "MPlayDef.event"

	#define	mus_route119_grp  voicegroup048
	#define	mus_route119_pri  0
	#define	mus_route119_rev  reverb_set+50
	#define	mus_route119_mvl  96
	#define	mus_route119_key  0
	#define	mus_route119_tbs  1
	#define	mus_route119_exg  1
	#define	mus_route119_cmp  1

	// .rodata
	//	mus_route119
	ALIGN 4

//**************** Track 1 (Midi-Chn.1) ****************//

mus_route119_1:
	BYTE	KEYSH   mus_route119_key+0
// 000   ----------------------------------------
	BYTE	TEMPO   136*mus_route119_tbs/2
	BYTE		VOICE   58
	BYTE		LFOS    44
	BYTE		VOL     110*mus_route119_mvl/mxv
	BYTE		PAN     c_v+4
	BYTE		LFOS    44
	BYTE		BENDR   12
	BYTE		VOL     122*mus_route119_mvl/mxv
	BYTE		PAN     c_v+0
	BYTE		VOL     106*mus_route119_mvl/mxv
	BYTE		XCMD    xIECV   12
	BYTE		        xIECL   8
	BYTE		PAN     c_v+0
	BYTE		VOL     98*mus_route119_mvl/mxv
	BYTE	W24
	BYTE		N24     En1   v127
	BYTE	W24
// 001   ----------------------------------------
	BYTE	W96
// 002   ----------------------------------------
	BYTE	W96
// 003   ----------------------------------------
	BYTE	W12
	BYTE		VOICE   56
	BYTE		PAN     c_v+32
	BYTE	W04
	BYTE		N04     Fs4   v096
	BYTE	W08
	BYTE		PAN     c_v+32
	BYTE		N72     An4 
	BYTE	W03
	BYTE		VOL     112*mus_route119_mvl/mxv
	BYTE	W02
	BYTE		        100*mus_route119_mvl/mxv
	BYTE	W03
	BYTE		        96*mus_route119_mvl/mxv
	BYTE	W07
	BYTE		        80*mus_route119_mvl/mxv
	BYTE	W02
	BYTE		        86*mus_route119_mvl/mxv
	BYTE	W03
	BYTE		        92*mus_route119_mvl/mxv
	BYTE	W04
	BYTE		        96*mus_route119_mvl/mxv
	BYTE		MOD     10
	BYTE	W02
	BYTE		VOL     106*mus_route119_mvl/mxv
	BYTE	W03
	BYTE		        112*mus_route119_mvl/mxv
	BYTE	W03
	BYTE		        120*mus_route119_mvl/mxv
	BYTE	W04
	BYTE		        127*mus_route119_mvl/mxv
	BYTE	W12
	BYTE		        125*mus_route119_mvl/mxv
	BYTE	W04
	BYTE		        121*mus_route119_mvl/mxv
	BYTE	W04
	BYTE		        114*mus_route119_mvl/mxv
	BYTE	W04
	BYTE		        110*mus_route119_mvl/mxv
	BYTE	W04
	BYTE		        104*mus_route119_mvl/mxv
	BYTE	W04
	BYTE		        98*mus_route119_mvl/mxv
	BYTE	W04
// 004   ----------------------------------------
	BYTE		MOD     0
	BYTE		VOL     92*mus_route119_mvl/mxv
	BYTE	W96
// 005   ----------------------------------------
	BYTE	W96
// 006   ----------------------------------------
	BYTE	W96
// 007   ----------------------------------------
	BYTE	W12
	BYTE		VOICE   56
	BYTE	W04
	BYTE		VOL     112*mus_route119_mvl/mxv
	BYTE		N04     Fs4 
	BYTE	W08
	BYTE		N72     An4 
	BYTE	W03
	BYTE		VOL     112*mus_route119_mvl/mxv
	BYTE	W02
	BYTE		        100*mus_route119_mvl/mxv
	BYTE	W03
	BYTE		        96*mus_route119_mvl/mxv
	BYTE	W07
	BYTE		        80*mus_route119_mvl/mxv
	BYTE	W02
	BYTE		        86*mus_route119_mvl/mxv
	BYTE	W03
	BYTE		        92*mus_route119_mvl/mxv
	BYTE	W04
	BYTE		        96*mus_route119_mvl/mxv
	BYTE		MOD     10
	BYTE	W02
	BYTE		VOL     106*mus_route119_mvl/mxv
	BYTE	W03
	BYTE		        112*mus_route119_mvl/mxv
	BYTE	W03
	BYTE		        120*mus_route119_mvl/mxv
	BYTE	W04
	BYTE		        127*mus_route119_mvl/mxv
	BYTE	W12
	BYTE		        125*mus_route119_mvl/mxv
	BYTE	W04
	BYTE		        121*mus_route119_mvl/mxv
	BYTE	W04
	BYTE		        114*mus_route119_mvl/mxv
	BYTE	W04
	BYTE		        110*mus_route119_mvl/mxv
	BYTE	W04
	BYTE		        104*mus_route119_mvl/mxv
	BYTE	W04
	BYTE		        98*mus_route119_mvl/mxv
	BYTE	W04
// 008   ----------------------------------------
	BYTE		MOD     0
	BYTE		VOL     64*mus_route119_mvl/mxv
	BYTE	W96
// 009   ----------------------------------------
	BYTE	W96
mus_route119_1_B1:
// 010   ----------------------------------------
	BYTE	W96
// 011   ----------------------------------------
	BYTE	W96
// 012   ----------------------------------------
	BYTE		VOICE   46
	BYTE		PAN     c_v-63
	BYTE		VOL     86*mus_route119_mvl/mxv
	BYTE		N04     En3   v092
	BYTE	W04
	BYTE		        En3   v032
	BYTE	W04
	BYTE		        An3   v076
	BYTE	W04
	BYTE		PAN     c_v-32
	BYTE		N04     An3   v032
	BYTE	W04
	BYTE		        Cs4   v080
	BYTE	W04
	BYTE		        Cs4   v032
	BYTE	W04
	BYTE		PAN     c_v+0
	BYTE		N04     En4   v084
	BYTE	W04
	BYTE		        En4   v032
	BYTE	W04
	BYTE		        Gs4   v080
	BYTE	W04
	BYTE		PAN     c_v+32
	BYTE		N04     Gs4   v032
	BYTE	W04
	BYTE		        An4   v076
	BYTE	W04
	BYTE		        An4   v032
	BYTE	W04
	BYTE		PAN     c_v+63
	BYTE		N04     Bn4   v064
	BYTE	W04
	BYTE		        Bn4   v032
	BYTE	W04
	BYTE		        An4   v060
	BYTE	W04
	BYTE		PAN     c_v+47
	BYTE		N04     An4   v032
	BYTE	W04
	BYTE		        Gs4   v064
	BYTE	W04
	BYTE		        Gs4   v032
	BYTE	W04
	BYTE		PAN     c_v+28
	BYTE		N04     Fs4   v080
	BYTE	W04
	BYTE		        Fs4   v032
	BYTE	W04
	BYTE		        En4   v088
	BYTE	W04
	BYTE		PAN     c_v+13
	BYTE		N04     En4   v032
	BYTE	W04
	BYTE		        Dn4   v092
	BYTE	W04
	BYTE		        Dn4   v032
	BYTE	W04
// 013   ----------------------------------------
	BYTE		PAN     c_v+0
	BYTE		VOL     64*mus_route119_mvl/mxv
	BYTE		N04     Cs4   v084
	BYTE	W04
	BYTE		N20     Cs4   v032
	BYTE	W92
// 014   ----------------------------------------
	BYTE	W96
// 015   ----------------------------------------
	BYTE	W96
// 016   ----------------------------------------
	BYTE	W96
// 017   ----------------------------------------
	BYTE		VOICE   9
	BYTE		PAN     c_v+0
	BYTE		VOL     44*mus_route119_mvl/mxv
	BYTE		N48     En5   v112
	BYTE	W24
	BYTE		PAN     c_v+63
	BYTE	W24
	BYTE		        c_v+0
	BYTE		N48     An4 
	BYTE	W24
	BYTE		PAN     c_v-61
	BYTE	W24
// 018   ----------------------------------------
	BYTE		        c_v+0
	BYTE		N48     Dn5 
	BYTE	W24
	BYTE		PAN     c_v+63
	BYTE	W24
	BYTE		        c_v+0
	BYTE		N24     An4 
	BYTE	W24
	BYTE		        Bn4 
	BYTE	W24
// 019   ----------------------------------------
	BYTE		N48     Dn5 
	BYTE	W24
	BYTE		PAN     c_v+63
	BYTE	W24
	BYTE		        c_v+0
	BYTE		N48     En4 
	BYTE	W24
	BYTE		PAN     c_v-61
	BYTE	W24
// 020   ----------------------------------------
	BYTE		        c_v+0
	BYTE		N48     Cs5 
	BYTE	W24
	BYTE		PAN     c_v+63
	BYTE	W24
	BYTE		        c_v+0
	BYTE		N24     An4 
	BYTE	W24
	BYTE		VOL     44*mus_route119_mvl/mxv
	BYTE		N72     Bn4 
	BYTE	W24
// 021   ----------------------------------------
	BYTE		PAN     c_v-64
	BYTE		VOL     40*mus_route119_mvl/mxv
	BYTE	W04
	BYTE		        38*mus_route119_mvl/mxv
	BYTE	W04
	BYTE		        36*mus_route119_mvl/mxv
	BYTE	W04
	BYTE		        32*mus_route119_mvl/mxv
	BYTE	W04
	BYTE		        31*mus_route119_mvl/mxv
	BYTE	W04
	BYTE		        28*mus_route119_mvl/mxv
	BYTE	W04
	BYTE		PAN     c_v+63
	BYTE		VOL     27*mus_route119_mvl/mxv
	BYTE	W04
	BYTE		        26*mus_route119_mvl/mxv
	BYTE	W04
	BYTE		        23*mus_route119_mvl/mxv
	BYTE	W04
	BYTE		        22*mus_route119_mvl/mxv
	BYTE	W04
	BYTE		        20*mus_route119_mvl/mxv
	BYTE	W04
	BYTE		        19*mus_route119_mvl/mxv
	BYTE	W04
	BYTE		PAN     c_v+0
	BYTE		VOL     16*mus_route119_mvl/mxv
	BYTE	W08
	BYTE		        12*mus_route119_mvl/mxv
	BYTE	W04
	BYTE		        11*mus_route119_mvl/mxv
	BYTE	W04
	BYTE		        10*mus_route119_mvl/mxv
	BYTE	W04
	BYTE		        8*mus_route119_mvl/mxv
	BYTE	W04
	BYTE		        56*mus_route119_mvl/mxv
	BYTE	W24
// 022   ----------------------------------------
	BYTE	W96
// 023   ----------------------------------------
	BYTE	W96
// 024   ----------------------------------------
	BYTE	W96
// 025   ----------------------------------------
	BYTE	W96
// 026   ----------------------------------------
	BYTE		VOICE   46
	BYTE		PAN     c_v-63
	BYTE		N04     An3   v060
	BYTE	W04
	BYTE		        Dn4   v064
	BYTE	W04
	BYTE		        En4   v080
	BYTE	W04
	BYTE		        Dn4 
	BYTE	W04
	BYTE		        En4 
	BYTE	W04
	BYTE		        Bn4 
	BYTE	W04
	BYTE		PAN     c_v-16
	BYTE		N04     En4   v084
	BYTE	W04
	BYTE		        Bn4   v088
	BYTE	W04
	BYTE		        Dn5   v084
	BYTE	W04
	BYTE		PAN     c_v+17
	BYTE		N04     An4   v080
	BYTE	W04
	BYTE		        Bn4 
	BYTE	W04
	BYTE		        En5 
	BYTE	W04
	BYTE		PAN     c_v+63
	BYTE		N04     Bn5   v056
	BYTE	W04
	BYTE		        En5   v068
	BYTE	W04
	BYTE		        Dn5   v080
	BYTE	W04
	BYTE		PAN     c_v+32
	BYTE		N04     An4 
	BYTE	W04
	BYTE		        En5   v088
	BYTE	W04
	BYTE		        Dn5   v092
	BYTE	W04
	BYTE		PAN     c_v+0
	BYTE		N04     An4   v088
	BYTE	W04
	BYTE		        Dn5   v092
	BYTE	W04
	BYTE		        Gs4   v076
	BYTE	W04
	BYTE		PAN     c_v-32
	BYTE		N04     En4   v080
	BYTE	W04
	BYTE		        Gs4 
	BYTE	W04
	BYTE		        Dn4   v072
	BYTE	W04
// 027   ----------------------------------------
	BYTE		PAN     c_v+0
	BYTE	W96
// 028   ----------------------------------------
	BYTE	W96
// 029   ----------------------------------------
	BYTE	W96
// 030   ----------------------------------------
	BYTE	W96
// 031   ----------------------------------------
	BYTE	W96
// 032   ----------------------------------------
	BYTE	W96
// 033   ----------------------------------------
	BYTE		VOICE   56
	BYTE		VOL     110*mus_route119_mvl/mxv
	BYTE		N08     En3   v112
	BYTE	W08
	BYTE		N04     An3 
	BYTE	W08
	BYTE		        Cs4 
	BYTE	W08
	BYTE		N08     En4 
	BYTE	W16
	BYTE		N04     Dn4 
	BYTE	W08
	BYTE		        Cs4 
	BYTE	W16
	BYTE		        Bn3 
	BYTE	W08
	BYTE		        An3 
	BYTE	W16
	BYTE		N08     Cs4 
	BYTE	W08
// 034   ----------------------------------------
	BYTE		        Gn3 
	BYTE	W08
	BYTE		        Bn3 
	BYTE	W08
	BYTE		        Dn4 
	BYTE	W08
	BYTE		        Gn4 
	BYTE	W16
	BYTE		N04     Fs4 
	BYTE	W08
	BYTE		        En4 
	BYTE	W16
	BYTE		        Dn4 
	BYTE	W08
	BYTE		        Cs4 
	BYTE	W16
	BYTE		        En4 
	BYTE	W08
// 035   ----------------------------------------
	BYTE		        Fs3 
	BYTE	W08
	BYTE		        An3 
	BYTE	W08
	BYTE		        Fs4 
	BYTE	W08
	BYTE		N72     An4 
	BYTE	W03
	BYTE		VOL     112*mus_route119_mvl/mxv
	BYTE	W02
	BYTE		        100*mus_route119_mvl/mxv
	BYTE	W03
	BYTE		        96*mus_route119_mvl/mxv
	BYTE	W07
	BYTE		        80*mus_route119_mvl/mxv
	BYTE	W02
	BYTE		        86*mus_route119_mvl/mxv
	BYTE	W03
	BYTE		        92*mus_route119_mvl/mxv
	BYTE	W04
	BYTE		        96*mus_route119_mvl/mxv
	BYTE	W02
	BYTE		        106*mus_route119_mvl/mxv
	BYTE	W03
	BYTE		        112*mus_route119_mvl/mxv
	BYTE	W03
	BYTE		MOD     9
	BYTE		VOL     120*mus_route119_mvl/mxv
	BYTE	W04
	BYTE		        127*mus_route119_mvl/mxv
	BYTE	W36
// 036   ----------------------------------------
	BYTE		MOD     0
	BYTE	W96
// 037   ----------------------------------------
	BYTE	W96
// 038   ----------------------------------------
	BYTE	W96
// 039   ----------------------------------------
	BYTE	W96
// 040   ----------------------------------------
	BYTE	W96
// 041   ----------------------------------------
	BYTE	W96
	BYTE	GoTo
	 POIN2	mus_route119_1_B1
mus_route119_1_B2:
// 042   ----------------------------------------
	BYTE	FINE

//**************** Track 2 (Midi-Chn.2) ****************//

mus_route119_2:
	BYTE	KEYSH   mus_route119_key+0
// 000   ----------------------------------------
	BYTE		VOICE   48
	BYTE		LFOS    44
	BYTE		BENDR   12
	BYTE		LFOS    44
	BYTE		MOD     2
	BYTE		PAN     c_v+0
	BYTE		VOL     118*mus_route119_mvl/mxv
	BYTE		N04     Ds3   v068
	BYTE	W04
	BYTE		        En3   v072
	BYTE	W04
	BYTE		        Fs3   v076
	BYTE	W04
	BYTE		        En3 
	BYTE	W04
	BYTE		        Fs3   v080
	BYTE	W04
	BYTE		        Gs3   v084
	BYTE	W04
	BYTE		        Fs3   v088
	BYTE	W04
	BYTE		        Gs3   v092
	BYTE	W04
	BYTE		        An3   v096
	BYTE	W04
	BYTE		        Gs3   v100
	BYTE	W04
	BYTE		        An3   v104
	BYTE	W04
	BYTE		        Bn3   v108
	BYTE	W04
// 001   ----------------------------------------
	BYTE		VOICE   60
	BYTE		N32     Cs4   v112
	BYTE	W24
	BYTE		MOD     9
	BYTE	W08
	BYTE		        2
	BYTE		N04     En3 
	BYTE	W08
	BYTE		N04   
	BYTE	W08
	BYTE		N04   
	BYTE	W04
	BYTE		N08     En3   v032
	BYTE	W12
	BYTE		N24     Cs4   v112
	BYTE	W24
	BYTE		N08     Cs4   v032
	BYTE	W08
// 002   ----------------------------------------
mus_route119_2_002:
	BYTE		N24     En4   v112
	BYTE	W24
	BYTE		        Dn4 
	BYTE	W24
	BYTE		        Cs4 
	BYTE	W24
	BYTE		        En4 
	BYTE	W24
	BYTE	PEND
// 003   ----------------------------------------
	BYTE		N32     Dn4 
	BYTE	W24
	BYTE		MOD     8
	BYTE	W08
	BYTE		N08     Dn4   v032
	BYTE	W04
	BYTE		MOD     2
	BYTE	W04
	BYTE		N04     An3   v112
	BYTE	W08
	BYTE		N48   
	BYTE	W24
	BYTE		MOD     9
	BYTE	W24
// 004   ----------------------------------------
	BYTE		        2
	BYTE		N04     Fn3 
	BYTE	W04
	BYTE		N08     Fn3   v032
	BYTE	W12
	BYTE		N04     Gn3   v112
	BYTE	W04
	BYTE		        Gn3   v032
	BYTE	W04
	BYTE		N24     An3   v112
	BYTE	W24
	BYTE		N04     Gn3 
	BYTE	W04
	BYTE		N08     Gn3   v032
	BYTE	W12
	BYTE		N04     An3   v112
	BYTE	W04
	BYTE		        An3   v032
	BYTE	W04
	BYTE		N24     Bn3   v112
	BYTE	W24
// 005   ----------------------------------------
	BYTE		N08     Cs4 
	BYTE	W08
	BYTE		N02     En3 
	BYTE	W08
	BYTE		N02   
	BYTE	W08
	BYTE		N02   
	BYTE	W16
	BYTE		N02   
	BYTE	W08
	BYTE		N02   
	BYTE	W08
	BYTE		N02   
	BYTE	W04
	BYTE		N02   
	BYTE	W04
	BYTE		N24     Cs4 
	BYTE	W24
	BYTE		N08     Cs4   v032
	BYTE	W08
// 006   ----------------------------------------
	BYTE		N24     En4   v112
	BYTE	W24
	BYTE		        Dn4 
	BYTE	W24
	BYTE		N04     Cs4   v116
	BYTE	W16
	BYTE		N32     En4   v112
	BYTE	W32
// 007   ----------------------------------------
	BYTE		N24     Dn4 
	BYTE	W24
	BYTE		N08     Dn4   v032
	BYTE	W16
	BYTE		N04     An3   v112
	BYTE	W04
	BYTE		        An3   v032
	BYTE	W04
	BYTE		N48     An3   v112
	BYTE	W24
	BYTE		MOD     7
	BYTE	W24
// 008   ----------------------------------------
	BYTE		VOICE   60
	BYTE		MOD     2
	BYTE		N04     Fn3 
	BYTE	W04
	BYTE		        Fn3   v032
	BYTE	W04
	BYTE		        Fn3   v112
	BYTE	W04
	BYTE		        Fn3   v032
	BYTE	W04
	BYTE		        Gn3   v112
	BYTE	W04
	BYTE		        Gn3   v032
	BYTE	W04
	BYTE		N24     An3   v112
	BYTE	W24
	BYTE		N04     Gn3 
	BYTE	W04
	BYTE		        Gn3   v032
	BYTE	W04
	BYTE		        Gn3   v112
	BYTE	W04
	BYTE		        Gn3   v032
	BYTE	W04
	BYTE		        An3   v112
	BYTE	W04
	BYTE		        An3   v032
	BYTE	W04
	BYTE		VOL     24*mus_route119_mvl/mxv
	BYTE		N88     Bn3   v072
	BYTE	W02
	BYTE		VOL     26*mus_route119_mvl/mxv
	BYTE	W03
	BYTE		        27*mus_route119_mvl/mxv
	BYTE	W09
	BYTE		        28*mus_route119_mvl/mxv
	BYTE	W03
	BYTE		        30*mus_route119_mvl/mxv
	BYTE	W07
// 009   ----------------------------------------
	BYTE		        31*mus_route119_mvl/mxv
	BYTE	W02
	BYTE		        32*mus_route119_mvl/mxv
	BYTE	W03
	BYTE		        34*mus_route119_mvl/mxv
	BYTE	W03
	BYTE		        35*mus_route119_mvl/mxv
	BYTE	W06
	BYTE		        36*mus_route119_mvl/mxv
	BYTE	W03
	BYTE		        38*mus_route119_mvl/mxv
	BYTE	W03
	BYTE		        39*mus_route119_mvl/mxv
	BYTE	W04
	BYTE		MOD     7
	BYTE		VOL     40*mus_route119_mvl/mxv
	BYTE	W05
	BYTE		        43*mus_route119_mvl/mxv
	BYTE	W09
	BYTE		        44*mus_route119_mvl/mxv
	BYTE	W03
	BYTE		        45*mus_route119_mvl/mxv
	BYTE	W03
	BYTE		        47*mus_route119_mvl/mxv
	BYTE	W20
	BYTE		N04     An3 
	BYTE	W04
	BYTE		        An3   v032
	BYTE	W04
	BYTE		MOD     2
	BYTE		N04     Fs3   v072
	BYTE	W04
	BYTE		N08     Fs3   v032
	BYTE	W12
	BYTE		N04     An3   v072
	BYTE	W04
	BYTE		        An3   v032
	BYTE	W04
mus_route119_2_B1:
// 010   ----------------------------------------
	BYTE		VOL     30*mus_route119_mvl/mxv
	BYTE		N48     An3   v072
	BYTE	W02
	BYTE		VOL     32*mus_route119_mvl/mxv
	BYTE	W03
	BYTE		        34*mus_route119_mvl/mxv
	BYTE	W03
	BYTE		        38*mus_route119_mvl/mxv
	BYTE	W04
	BYTE		        39*mus_route119_mvl/mxv
	BYTE	W02
	BYTE		        40*mus_route119_mvl/mxv
	BYTE	W03
	BYTE		        42*mus_route119_mvl/mxv
	BYTE	W03
	BYTE		        43*mus_route119_mvl/mxv
	BYTE	W04
	BYTE		        44*mus_route119_mvl/mxv
	BYTE	W24
	BYTE		N24     Fs3 
	BYTE	W24
	BYTE		N08     An3 
	BYTE	W08
	BYTE		        Gs3 
	BYTE	W08
	BYTE		        Fs3 
	BYTE	W08
// 011   ----------------------------------------
	BYTE		VOL     22*mus_route119_mvl/mxv
	BYTE		N64     An3 
	BYTE	W02
	BYTE		VOL     23*mus_route119_mvl/mxv
	BYTE	W03
	BYTE		        26*mus_route119_mvl/mxv
	BYTE	W03
	BYTE		        28*mus_route119_mvl/mxv
	BYTE	W06
	BYTE		        30*mus_route119_mvl/mxv
	BYTE	W03
	BYTE		        31*mus_route119_mvl/mxv
	BYTE	W07
	BYTE		        32*mus_route119_mvl/mxv
	BYTE	W02
	BYTE		        35*mus_route119_mvl/mxv
	BYTE	W03
	BYTE		        36*mus_route119_mvl/mxv
	BYTE	W03
	BYTE		        38*mus_route119_mvl/mxv
	BYTE	W04
	BYTE		MOD     6
	BYTE		VOL     40*mus_route119_mvl/mxv
	BYTE	W02
	BYTE		        43*mus_route119_mvl/mxv
	BYTE	W03
	BYTE		        45*mus_route119_mvl/mxv
	BYTE	W23
	BYTE		MOD     0
	BYTE		N04     Fs3 
	BYTE	W04
	BYTE		        Fs3   v032
	BYTE	W04
	BYTE		        Dn3   v072
	BYTE	W04
	BYTE		        Dn3   v032
	BYTE	W12
	BYTE		        An3   v072
	BYTE	W04
	BYTE		        An3   v032
	BYTE	W04
// 012   ----------------------------------------
	BYTE		VOL     26*mus_route119_mvl/mxv
	BYTE		N48     Gs3   v072
	BYTE	W02
	BYTE		VOL     30*mus_route119_mvl/mxv
	BYTE	W03
	BYTE		        31*mus_route119_mvl/mxv
	BYTE	W03
	BYTE		        32*mus_route119_mvl/mxv
	BYTE	W04
	BYTE		        34*mus_route119_mvl/mxv
	BYTE	W02
	BYTE		        35*mus_route119_mvl/mxv
	BYTE	W03
	BYTE		        36*mus_route119_mvl/mxv
	BYTE	W03
	BYTE		        38*mus_route119_mvl/mxv
	BYTE	W04
	BYTE		MOD     6
	BYTE		VOL     39*mus_route119_mvl/mxv
	BYTE	W02
	BYTE		        40*mus_route119_mvl/mxv
	BYTE	W03
	BYTE		        42*mus_route119_mvl/mxv
	BYTE	W03
	BYTE		        43*mus_route119_mvl/mxv
	BYTE	W06
	BYTE		        44*mus_route119_mvl/mxv
	BYTE	W10
	BYTE		MOD     0
	BYTE		N48   
	BYTE	W24
	BYTE		MOD     6
	BYTE	W24
// 013   ----------------------------------------
	BYTE		        0
	BYTE		VOL     24*mus_route119_mvl/mxv
	BYTE		N64     An3 
	BYTE	W02
	BYTE		VOL     26*mus_route119_mvl/mxv
	BYTE	W03
	BYTE		        27*mus_route119_mvl/mxv
	BYTE	W03
	BYTE		        30*mus_route119_mvl/mxv
	BYTE	W04
	BYTE		        31*mus_route119_mvl/mxv
	BYTE	W02
	BYTE		        34*mus_route119_mvl/mxv
	BYTE	W03
	BYTE		        36*mus_route119_mvl/mxv
	BYTE	W03
	BYTE		        38*mus_route119_mvl/mxv
	BYTE	W04
	BYTE		MOD     6
	BYTE		VOL     39*mus_route119_mvl/mxv
	BYTE	W08
	BYTE		        42*mus_route119_mvl/mxv
	BYTE	W04
	BYTE		        43*mus_route119_mvl/mxv
	BYTE	W02
	BYTE		        44*mus_route119_mvl/mxv
	BYTE	W24
	BYTE	W02
	BYTE		MOD     0
	BYTE		N04     Fs3 
	BYTE	W04
	BYTE		        Fs3   v032
	BYTE	W04
	BYTE		        En3   v072
	BYTE	W04
	BYTE		N08     En3   v032
	BYTE	W12
	BYTE		N04     An3   v072
	BYTE	W04
	BYTE		        An3   v032
	BYTE	W04
// 014   ----------------------------------------
	BYTE		VOL     28*mus_route119_mvl/mxv
	BYTE		N48     Fs3   v072
	BYTE	W02
	BYTE		VOL     31*mus_route119_mvl/mxv
	BYTE	W03
	BYTE		        34*mus_route119_mvl/mxv
	BYTE	W03
	BYTE		        35*mus_route119_mvl/mxv
	BYTE	W04
	BYTE		        38*mus_route119_mvl/mxv
	BYTE	W02
	BYTE		        42*mus_route119_mvl/mxv
	BYTE	W03
	BYTE		        43*mus_route119_mvl/mxv
	BYTE	W03
	BYTE		        47*mus_route119_mvl/mxv
	BYTE	W04
	BYTE		MOD     6
	BYTE	W24
	BYTE		        0
	BYTE		N24     Dn3 
	BYTE	W24
	BYTE		        Bn2 
	BYTE	W24
// 015   ----------------------------------------
	BYTE		N08     Bn2   v032
	BYTE	W08
	BYTE		N04     Fs3   v080
	BYTE	W04
	BYTE		N08     Fs3   v032
	BYTE	W12
	BYTE		N04     Fs3   v080
	BYTE	W04
	BYTE		N08     Fs3   v032
	BYTE	W12
	BYTE		N04     Fs3   v080
	BYTE	W04
	BYTE		N08     Fs3   v032
	BYTE	W12
	BYTE		N04     Fs3   v080
	BYTE	W04
	BYTE		N08     Fs3   v032
	BYTE	W36
// 016   ----------------------------------------
	BYTE		N48     Gs3   v088
	BYTE	W24
	BYTE		MOD     6
	BYTE	W24
	BYTE		        0
	BYTE		N48     Bn3 
	BYTE	W24
	BYTE		MOD     6
	BYTE	W24
// 017   ----------------------------------------
	BYTE		        0
	BYTE	W96
// 018   ----------------------------------------
	BYTE	W96
// 019   ----------------------------------------
	BYTE	W96
// 020   ----------------------------------------
	BYTE	W96
// 021   ----------------------------------------
	BYTE	W96
// 022   ----------------------------------------
	BYTE	W96
// 023   ----------------------------------------
	BYTE	W08
	BYTE		N04     Fs3   v080
	BYTE	W04
	BYTE		N08     Fs3   v032
	BYTE	W12
	BYTE		N04     Fs3   v080
	BYTE	W04
	BYTE		N08     Fs3   v032
	BYTE	W12
	BYTE		N04     Fs3   v080
	BYTE	W04
	BYTE		N08     Fs3   v032
	BYTE	W12
	BYTE		N04     Fs3   v084
	BYTE	W04
	BYTE		        Fs3   v032
	BYTE	W04
	BYTE		N08     Dn3   v084
	BYTE	W08
	BYTE		N16     En3 
	BYTE	W16
	BYTE		N04     Fs3 
	BYTE	W04
	BYTE		        Fs3   v032
	BYTE	W04
// 024   ----------------------------------------
	BYTE		N48     Gs3   v112
	BYTE	W24
	BYTE		MOD     6
	BYTE	W24
	BYTE		        0
	BYTE		N48     An3 
	BYTE	W24
	BYTE		MOD     6
	BYTE	W24
// 025   ----------------------------------------
	BYTE		        0
	BYTE		N08     An3   v032
	BYTE	W96
// 026   ----------------------------------------
	BYTE	W48
	BYTE		N04     Ds3   v112
	BYTE	W04
	BYTE		        En3 
	BYTE	W04
	BYTE		        Fs3 
	BYTE	W04
	BYTE		        En3 
	BYTE	W04
	BYTE		        Fs3 
	BYTE	W04
	BYTE		        Gs3 
	BYTE	W04
	BYTE		        Fs3 
	BYTE	W04
	BYTE		        Gs3 
	BYTE	W04
	BYTE		        An3 
	BYTE	W04
	BYTE		        Gs3 
	BYTE	W04
	BYTE		        An3 
	BYTE	W04
	BYTE		        Bn3 
	BYTE	W04
// 027   ----------------------------------------
	BYTE		VOICE   60
	BYTE		VOL     61*mus_route119_mvl/mxv
	BYTE		N32     Cn4 
	BYTE	W24
	BYTE		MOD     6
	BYTE	W08
	BYTE		        0
	BYTE		N04     Ds3 
	BYTE	W08
	BYTE		N04   
	BYTE	W08
	BYTE		N04   
	BYTE	W04
	BYTE		N08     Ds3   v032
	BYTE	W12
	BYTE		N24     Cn4   v112
	BYTE	W24
	BYTE		N08     Cn4   v032
	BYTE	W08
// 028   ----------------------------------------
	BYTE		N24     Ds4   v112
	BYTE	W24
	BYTE		        Cs4 
	BYTE	W24
	BYTE		        Cn4 
	BYTE	W24
	BYTE		        Ds4 
	BYTE	W24
// 029   ----------------------------------------
	BYTE		N32     Fn4 
	BYTE	W24
	BYTE		MOD     6
	BYTE	W08
	BYTE		        0
	BYTE		N08     Fn4   v032
	BYTE	W08
	BYTE		N04     Gs3   v112
	BYTE	W08
	BYTE		N20   
	BYTE	W20
	BYTE		N04     Gs3   v032
	BYTE	W04
	BYTE		        Fn3   v112
	BYTE	W04
	BYTE		N08     Fn3   v032
	BYTE	W12
	BYTE		N04     Gs3   v112
	BYTE	W04
	BYTE		        Gs3   v032
	BYTE	W04
// 030   ----------------------------------------
	BYTE		N24     Fs3   v112
	BYTE	W24
	BYTE		        Fn3 
	BYTE	W24
	BYTE		        Ds3 
	BYTE	W24
	BYTE		        Cs3 
	BYTE	W24
// 031   ----------------------------------------
	BYTE		N04     Cn3 
	BYTE	W04
	BYTE		N08     Cn3   v032
	BYTE	W12
	BYTE		N04     Cs3   v112
	BYTE	W04
	BYTE		        Cs3   v032
	BYTE	W04
	BYTE		N48     Ds3   v112
	BYTE	W24
	BYTE		MOD     6
	BYTE	W24
	BYTE		        0
	BYTE		N04   
	BYTE	W04
	BYTE		N08     Ds3   v032
	BYTE	W12
	BYTE		N04     Fn3   v112
	BYTE	W04
	BYTE		        Fn3   v032
	BYTE	W04
// 032   ----------------------------------------
	BYTE		N48     Fs3   v112
	BYTE	W24
	BYTE		MOD     6
	BYTE	W24
	BYTE		        0
	BYTE		N04     Gs3 
	BYTE	W04
	BYTE		        Gs3   v032
	BYTE	W04
	BYTE		        As3   v112
	BYTE	W04
	BYTE		        As3   v032
	BYTE	W04
	BYTE		N32     Cn4   v112
	BYTE	W32
// 033   ----------------------------------------
	BYTE		PAN     c_v+29
	BYTE		N32     Cs4 
	BYTE	W24
	BYTE		MOD     6
	BYTE	W08
	BYTE		        0
	BYTE		N04     En3 
	BYTE	W04
	BYTE		        En3   v032
	BYTE	W04
	BYTE		        En3   v112
	BYTE	W04
	BYTE		        En3   v032
	BYTE	W04
	BYTE		        En3   v112
	BYTE	W04
	BYTE		N08     En3   v032
	BYTE	W12
	BYTE		N24     Cs4   v112
	BYTE	W24
	BYTE		N08     Cs4   v032
	BYTE	W08
// 034   ----------------------------------------
	BYTE	PATT
	 POIN2	mus_route119_2_002
// 035   ----------------------------------------
	BYTE		N32     Dn4   v112
	BYTE	W24
	BYTE		MOD     6
	BYTE	W08
	BYTE		N08     Dn4   v032
	BYTE	W04
	BYTE		MOD     0
	BYTE	W04
	BYTE		N04     An3   v112
	BYTE	W04
	BYTE		        An3   v032
	BYTE	W04
	BYTE		N48     An3   v112
	BYTE	W24
	BYTE		MOD     6
	BYTE	W24
// 036   ----------------------------------------
	BYTE		        0
	BYTE		PAN     c_v+0
	BYTE		N24     Gn3 
	BYTE	W24
	BYTE		        Fs3 
	BYTE	W24
	BYTE		        En3 
	BYTE	W24
	BYTE		        Gn3 
	BYTE	W24
// 037   ----------------------------------------
	BYTE		N36     Fn4 
	BYTE	W36
	BYTE		N04     Fn4   v032
	BYTE	W04
	BYTE		N02     Gs3   v112
	BYTE	W08
	BYTE		N02   
	BYTE	W08
	BYTE		N02   
	BYTE	W04
	BYTE		N02   
	BYTE	W04
	BYTE		N24     Fn4 
	BYTE	W24
	BYTE		N08     Fn4   v032
	BYTE	W08
// 038   ----------------------------------------
	BYTE		N24     En4   v112
	BYTE	W24
	BYTE		        Dn4 
	BYTE	W24
	BYTE		        Cs4 
	BYTE	W24
	BYTE		        An3 
	BYTE	W24
// 039   ----------------------------------------
	BYTE		VOL     68*mus_route119_mvl/mxv
	BYTE		N04     Fs3 
	BYTE	W04
	BYTE		N08     Fs3   v032
	BYTE	W12
	BYTE		N04     Gn3   v112
	BYTE	W04
	BYTE		        Gn3   v032
	BYTE	W04
	BYTE		N48     An3   v112
	BYTE	W48
	BYTE		N08     An3   v032
	BYTE	W24
// 040   ----------------------------------------
	BYTE		N04     Fn3   v112
	BYTE	W04
	BYTE		        Fn3   v032
	BYTE	W04
	BYTE		        Fn3   v112
	BYTE	W04
	BYTE		        Fn3   v032
	BYTE	W04
	BYTE		        Gn3   v112
	BYTE	W04
	BYTE		        Gn3   v032
	BYTE	W04
	BYTE		N24     An3   v112
	BYTE	W24
	BYTE		N04     Gn3 
	BYTE	W04
	BYTE		        Gn3   v032
	BYTE	W04
	BYTE		        Gn3   v112
	BYTE	W04
	BYTE		        Gn3   v032
	BYTE	W04
	BYTE		        An3   v112
	BYTE	W04
	BYTE		        An3   v032
	BYTE	W04
	BYTE		VOL     22*mus_route119_mvl/mxv
	BYTE		N88     Bn3   v112
	BYTE	W02
	BYTE		VOL     23*mus_route119_mvl/mxv
	BYTE	W03
	BYTE		        24*mus_route119_mvl/mxv
	BYTE	W03
	BYTE		        30*mus_route119_mvl/mxv
	BYTE	W04
	BYTE		        32*mus_route119_mvl/mxv
	BYTE	W02
	BYTE		        35*mus_route119_mvl/mxv
	BYTE	W03
	BYTE		        36*mus_route119_mvl/mxv
	BYTE	W03
	BYTE		        36*mus_route119_mvl/mxv
	BYTE	W04
// 041   ----------------------------------------
	BYTE		        39*mus_route119_mvl/mxv
	BYTE	W02
	BYTE		        40*mus_route119_mvl/mxv
	BYTE	W03
	BYTE		        40*mus_route119_mvl/mxv
	BYTE	W07
	BYTE		        43*mus_route119_mvl/mxv
	BYTE	W02
	BYTE		        44*mus_route119_mvl/mxv
	BYTE	W03
	BYTE		        45*mus_route119_mvl/mxv
	BYTE	W03
	BYTE		        47*mus_route119_mvl/mxv
	BYTE	W04
	BYTE		        48*mus_route119_mvl/mxv
	BYTE	W40
	BYTE		N04     An3   v088
	BYTE	W04
	BYTE		        An3   v032
	BYTE	W04
	BYTE		        Fs3   v088
	BYTE	W04
	BYTE		        Fs3   v032
	BYTE	W04
	BYTE		        Gs3   v112
	BYTE	W04
	BYTE		        Gs3   v032
	BYTE	W04
	BYTE		        An3   v088
	BYTE	W04
	BYTE		        An3   v032
	BYTE	W04
	BYTE	GoTo
	 POIN2	mus_route119_2_B1
mus_route119_2_B2:
// 042   ----------------------------------------
	BYTE	FINE

//**************** Track 3 (Midi-Chn.3) ****************//

mus_route119_3:
	BYTE	KEYSH   mus_route119_key+0
// 000   ----------------------------------------
	BYTE		VOICE   58
	BYTE		LFOS    44
	BYTE		BENDR   12
	BYTE		PAN     c_v+0
	BYTE		VOL     106*mus_route119_mvl/mxv
	BYTE		LFOS    44
	BYTE		MOD     2
	BYTE	W48
// 001   ----------------------------------------
	BYTE	W96
// 002   ----------------------------------------
	BYTE	W96
// 003   ----------------------------------------
	BYTE	W96
// 004   ----------------------------------------
	BYTE	W96
// 005   ----------------------------------------
	BYTE	W96
// 006   ----------------------------------------
	BYTE	W96
// 007   ----------------------------------------
	BYTE	W96
// 008   ----------------------------------------
	BYTE	W72
	BYTE		VOL     40*mus_route119_mvl/mxv
	BYTE		N16     Gn4   v120
	BYTE	W16
	BYTE		N04     Fs4 
	BYTE	W04
	BYTE		        Fn4 
	BYTE	W04
// 009   ----------------------------------------
	BYTE		VOL     15*mus_route119_mvl/mxv
	BYTE		N64     En4   v124
	BYTE	W05
	BYTE		VOL     16*mus_route119_mvl/mxv
	BYTE	W03
	BYTE		        19*mus_route119_mvl/mxv
	BYTE	W04
	BYTE		        22*mus_route119_mvl/mxv
	BYTE	W02
	BYTE		        24*mus_route119_mvl/mxv
	BYTE	W03
	BYTE		        27*mus_route119_mvl/mxv
	BYTE	W03
	BYTE		        30*mus_route119_mvl/mxv
	BYTE	W04
	BYTE		        31*mus_route119_mvl/mxv
	BYTE	W02
	BYTE		        35*mus_route119_mvl/mxv
	BYTE	W03
	BYTE		        38*mus_route119_mvl/mxv
	BYTE	W03
	BYTE		        39*mus_route119_mvl/mxv
	BYTE	W16
	BYTE		MOD     9
	BYTE	W16
	BYTE		        2
	BYTE		N04     Dn4   v120
	BYTE	W04
	BYTE		        Dn4   v032
	BYTE	W04
	BYTE		        Cs4   v120
	BYTE	W04
	BYTE		N08     Cs4   v032
	BYTE	W12
	BYTE		N04     En4   v120
	BYTE	W04
	BYTE		        En4   v032
	BYTE	W04
mus_route119_3_B1:
// 010   ----------------------------------------
	BYTE		VOL     16*mus_route119_mvl/mxv
	BYTE		N48     Dn4   v124
	BYTE	W02
	BYTE		VOL     19*mus_route119_mvl/mxv
	BYTE	W03
	BYTE		        24*mus_route119_mvl/mxv
	BYTE	W03
	BYTE		        28*mus_route119_mvl/mxv
	BYTE	W04
	BYTE		        30*mus_route119_mvl/mxv
	BYTE	W02
	BYTE		        34*mus_route119_mvl/mxv
	BYTE	W03
	BYTE		        36*mus_route119_mvl/mxv
	BYTE	W03
	BYTE		        38*mus_route119_mvl/mxv
	BYTE	W12
	BYTE		MOD     8
	BYTE	W16
	BYTE		        2
	BYTE		N24     An3   v120
	BYTE	W24
	BYTE		N08     Dn4 
	BYTE	W08
	BYTE		        Cs4 
	BYTE	W08
	BYTE		        Bn3 
	BYTE	W08
// 011   ----------------------------------------
	BYTE		VOL     16*mus_route119_mvl/mxv
	BYTE		N64     Dn4   v124
	BYTE	W02
	BYTE		VOL     18*mus_route119_mvl/mxv
	BYTE	W03
	BYTE		        20*mus_route119_mvl/mxv
	BYTE	W03
	BYTE		        24*mus_route119_mvl/mxv
	BYTE	W04
	BYTE		        27*mus_route119_mvl/mxv
	BYTE	W02
	BYTE		        30*mus_route119_mvl/mxv
	BYTE	W03
	BYTE		        32*mus_route119_mvl/mxv
	BYTE	W03
	BYTE		        34*mus_route119_mvl/mxv
	BYTE	W06
	BYTE		        35*mus_route119_mvl/mxv
	BYTE	W03
	BYTE		        38*mus_route119_mvl/mxv
	BYTE	W11
	BYTE		MOD     9
	BYTE	W24
	BYTE		        2
	BYTE		N04     Cs4   v120
	BYTE	W08
	BYTE		N08     Bn3 
	BYTE	W08
	BYTE		        Gs3 
	BYTE	W08
	BYTE		N04     Bn3 
	BYTE	W08
// 012   ----------------------------------------
	BYTE		VOL     16*mus_route119_mvl/mxv
	BYTE		N48     Cs4   v124
	BYTE	W02
	BYTE		VOL     22*mus_route119_mvl/mxv
	BYTE	W03
	BYTE		        24*mus_route119_mvl/mxv
	BYTE	W03
	BYTE		        26*mus_route119_mvl/mxv
	BYTE	W04
	BYTE		        27*mus_route119_mvl/mxv
	BYTE	W02
	BYTE		        28*mus_route119_mvl/mxv
	BYTE	W03
	BYTE		        31*mus_route119_mvl/mxv
	BYTE	W03
	BYTE		        34*mus_route119_mvl/mxv
	BYTE	W06
	BYTE		        35*mus_route119_mvl/mxv
	BYTE	W03
	BYTE		        36*mus_route119_mvl/mxv
	BYTE	W03
	BYTE		MOD     8
	BYTE		VOL     39*mus_route119_mvl/mxv
	BYTE	W16
	BYTE		MOD     2
	BYTE		N16     En4   v120
	BYTE	W16
	BYTE		N08     En4   v032
	BYTE	W08
	BYTE		        An3   v120
	BYTE	W08
	BYTE		        Bn3 
	BYTE	W08
	BYTE		        Cn4 
	BYTE	W08
// 013   ----------------------------------------
	BYTE		VOL     15*mus_route119_mvl/mxv
	BYTE		N64     Cs4   v124
	BYTE	W02
	BYTE		VOL     16*mus_route119_mvl/mxv
	BYTE	W03
	BYTE		        20*mus_route119_mvl/mxv
	BYTE	W03
	BYTE		        22*mus_route119_mvl/mxv
	BYTE	W06
	BYTE		        24*mus_route119_mvl/mxv
	BYTE	W06
	BYTE		        26*mus_route119_mvl/mxv
	BYTE	W04
	BYTE		        27*mus_route119_mvl/mxv
	BYTE	W02
	BYTE		        28*mus_route119_mvl/mxv
	BYTE	W03
	BYTE		        32*mus_route119_mvl/mxv
	BYTE	W03
	BYTE		        34*mus_route119_mvl/mxv
	BYTE	W04
	BYTE		        36*mus_route119_mvl/mxv
	BYTE	W02
	BYTE		        38*mus_route119_mvl/mxv
	BYTE	W10
	BYTE		MOD     9
	BYTE	W16
	BYTE		        2
	BYTE		N04     Bn3   v120
	BYTE	W04
	BYTE		        Bn3   v032
	BYTE	W04
	BYTE		        An3   v120
	BYTE	W04
	BYTE		N08     An3   v032
	BYTE	W12
	BYTE		N04     Cs4   v120
	BYTE	W04
	BYTE		        Cs4   v032
	BYTE	W04
// 014   ----------------------------------------
	BYTE		VOL     15*mus_route119_mvl/mxv
	BYTE		N48     Bn3   v120
	BYTE	W02
	BYTE		VOL     20*mus_route119_mvl/mxv
	BYTE	W03
	BYTE		        26*mus_route119_mvl/mxv
	BYTE	W03
	BYTE		        27*mus_route119_mvl/mxv
	BYTE	W06
	BYTE		        30*mus_route119_mvl/mxv
	BYTE	W03
	BYTE		        31*mus_route119_mvl/mxv
	BYTE	W03
	BYTE		        32*mus_route119_mvl/mxv
	BYTE	W04
	BYTE		MOD     9
	BYTE		VOL     34*mus_route119_mvl/mxv
	BYTE	W02
	BYTE		        35*mus_route119_mvl/mxv
	BYTE	W03
	BYTE		        36*mus_route119_mvl/mxv
	BYTE	W07
	BYTE		        38*mus_route119_mvl/mxv
	BYTE	W12
	BYTE		MOD     2
	BYTE		N24     Fs3 
	BYTE	W24
	BYTE		        Gs3 
	BYTE	W24
// 015   ----------------------------------------
	BYTE		VOL     45*mus_route119_mvl/mxv
	BYTE		N04     Gs3   v124
	BYTE	W08
	BYTE		        An3   v127
	BYTE	W04
	BYTE		N08     An3   v032
	BYTE	W12
	BYTE		N04     An3   v120
	BYTE	W04
	BYTE		N08     An3   v032
	BYTE	W12
	BYTE		N04     An3   v120
	BYTE	W04
	BYTE		N08     An3   v032
	BYTE	W12
	BYTE		N04     An3   v127
	BYTE	W04
	BYTE		N08     An3   v032
	BYTE	W04
	BYTE		        Fs3   v120
	BYTE	W08
	BYTE		N16     Gs3 
	BYTE	W16
	BYTE		N04     An3 
	BYTE	W04
	BYTE		        An3   v032
	BYTE	W04
// 016   ----------------------------------------
	BYTE		VOL     49*mus_route119_mvl/mxv
	BYTE		N72     En4   v120
	BYTE	W44
	BYTE		VOL     49*mus_route119_mvl/mxv
	BYTE	W04
	BYTE		MOD     9
	BYTE		VOL     53*mus_route119_mvl/mxv
	BYTE	W04
	BYTE		        53*mus_route119_mvl/mxv
	BYTE	W04
	BYTE		        57*mus_route119_mvl/mxv
	BYTE	W04
	BYTE		        63*mus_route119_mvl/mxv
	BYTE	W04
	BYTE		        71*mus_route119_mvl/mxv
	BYTE	W04
	BYTE		        77*mus_route119_mvl/mxv
	BYTE	W04
	BYTE		VOICE   56
	BYTE		VOL     127*mus_route119_mvl/mxv
	BYTE		MOD     2
	BYTE		N08   
	BYTE	W08
	BYTE		        Dn4 
	BYTE	W08
	BYTE		        Cs4 
	BYTE	W08
// 017   ----------------------------------------
	BYTE		        En4 
	BYTE	W08
	BYTE		        En4   v032
	BYTE	W56
	BYTE		N04     Dn4   v120
	BYTE	W04
	BYTE		        Dn4   v032
	BYTE	W04
	BYTE		        Cs4   v120
	BYTE	W04
	BYTE		N08     Cs4   v032
	BYTE	W12
	BYTE		N04     En4   v120
	BYTE	W04
	BYTE		        En4   v032
	BYTE	W04
// 018   ----------------------------------------
	BYTE		N48     Dn4   v120
	BYTE	W24
	BYTE		MOD     9
	BYTE	W24
	BYTE		        2
	BYTE		N24     An3 
	BYTE	W24
	BYTE		N08     En3 
	BYTE	W08
	BYTE		        An3 
	BYTE	W08
	BYTE		        Cs4 
	BYTE	W08
// 019   ----------------------------------------
	BYTE		        Dn4 
	BYTE	W08
	BYTE		        Dn4   v032
	BYTE	W56
	BYTE		N04     Cs4   v120
	BYTE	W04
	BYTE		        Cs4   v032
	BYTE	W04
	BYTE		        Bn3   v120
	BYTE	W04
	BYTE		        Bn3   v032
	BYTE	W12
	BYTE		        Dn4   v120
	BYTE	W04
	BYTE		        Dn4   v032
	BYTE	W04
// 020   ----------------------------------------
	BYTE		N48     Cs4   v120
	BYTE	W24
	BYTE		MOD     9
	BYTE	W24
	BYTE		        2
	BYTE		N08     En4 
	BYTE	W08
	BYTE		N04     En3 
	BYTE	W04
	BYTE		        En3   v032
	BYTE	W04
	BYTE		        An3   v120
	BYTE	W04
	BYTE		        An3   v032
	BYTE	W04
	BYTE		N16     Bn3   v120
	BYTE	W16
	BYTE		N08     Bn3   v032
	BYTE	W08
// 021   ----------------------------------------
	BYTE		N16     An3   v120
	BYTE	W16
	BYTE		        Bn3 
	BYTE	W16
	BYTE		        Cs4 
	BYTE	W16
	BYTE		N08     Dn4 
	BYTE	W08
	BYTE		        En4 
	BYTE	W08
	BYTE		        Fs4 
	BYTE	W08
	BYTE		N04     Gs4 
	BYTE	W08
	BYTE		        An4 
	BYTE	W08
	BYTE		        As4 
	BYTE	W08
// 022   ----------------------------------------
	BYTE		N32     Bn4 
	BYTE	W24
	BYTE		MOD     9
	BYTE	W08
	BYTE		        2
	BYTE		N04     As4 
	BYTE	W04
	BYTE		        An4 
	BYTE	W04
	BYTE		        Gs4 
	BYTE	W04
	BYTE		        Gn4 
	BYTE	W04
	BYTE		N24     Fs4 
	BYTE	W24
	BYTE		        Gs4 
	BYTE	W24
// 023   ----------------------------------------
	BYTE		N04     An4 
	BYTE	W04
	BYTE		        An4   v032
	BYTE	W04
	BYTE		        An4   v120
	BYTE	W04
	BYTE		N08     An4   v032
	BYTE	W12
	BYTE		N04     An4   v120
	BYTE	W04
	BYTE		N08     An4   v032
	BYTE	W12
	BYTE		N04     An4   v120
	BYTE	W04
	BYTE		N08     An4   v032
	BYTE	W12
	BYTE		N04     An4   v120
	BYTE	W04
	BYTE		        An4   v032
	BYTE	W04
	BYTE		N08     Fs4   v120
	BYTE	W08
	BYTE		N16     Gs4 
	BYTE	W16
	BYTE		N04     An4 
	BYTE	W04
	BYTE		        An4   v032
	BYTE	W04
// 024   ----------------------------------------
	BYTE		N48     Bn4   v120
	BYTE	W24
	BYTE		MOD     10
	BYTE	W24
	BYTE		        2
	BYTE		N48     Cn5 
	BYTE	W24
	BYTE		MOD     9
	BYTE	W24
// 025   ----------------------------------------
	BYTE		        2
	BYTE		N04     Cs5 
	BYTE	W04
	BYTE		        Cs5   v032
	BYTE	W04
	BYTE		        Cs5   v120
	BYTE	W04
	BYTE		N08     Cs5   v032
	BYTE	W12
	BYTE		N04     Cs5   v120
	BYTE	W04
	BYTE		N08     Cs5   v032
	BYTE	W12
	BYTE		N04     Cs5   v120
	BYTE	W04
	BYTE		        Cs5   v032
	BYTE	W04
	BYTE		        Dn5   v120
	BYTE	W04
	BYTE		        Dn5   v032
	BYTE	W04
	BYTE		        Dn5   v120
	BYTE	W04
	BYTE		N08     Dn5   v032
	BYTE	W12
	BYTE		N04     Dn5   v120
	BYTE	W04
	BYTE		N08     Dn5   v032
	BYTE	W12
	BYTE		N04     Dn5   v120
	BYTE	W04
	BYTE		        Dn5   v032
	BYTE	W04
// 026   ----------------------------------------
	BYTE		N96     En3   v120
	BYTE	W48
	BYTE		MOD     10
	BYTE	W48
// 027   ----------------------------------------
	BYTE		        2
	BYTE	W96
// 028   ----------------------------------------
	BYTE	W96
// 029   ----------------------------------------
	BYTE		N04     Cs4   v112
	BYTE	W16
	BYTE		        Fn4 
	BYTE	W08
	BYTE		N72     Gs4 
	BYTE	W03
	BYTE		VOL     112*mus_route119_mvl/mxv
	BYTE	W02
	BYTE		        100*mus_route119_mvl/mxv
	BYTE	W03
	BYTE		        96*mus_route119_mvl/mxv
	BYTE	W07
	BYTE		        80*mus_route119_mvl/mxv
	BYTE	W02
	BYTE		        86*mus_route119_mvl/mxv
	BYTE	W03
	BYTE		        92*mus_route119_mvl/mxv
	BYTE	W04
	BYTE		        96*mus_route119_mvl/mxv
	BYTE	W02
	BYTE		        106*mus_route119_mvl/mxv
	BYTE	W03
	BYTE		        112*mus_route119_mvl/mxv
	BYTE	W03
	BYTE		        120*mus_route119_mvl/mxv
	BYTE	W04
	BYTE		        127*mus_route119_mvl/mxv
	BYTE	W12
	BYTE		MOD     8
	BYTE	W24
// 030   ----------------------------------------
	BYTE		        0
	BYTE	W96
// 031   ----------------------------------------
	BYTE	W96
// 032   ----------------------------------------
	BYTE	W96
// 033   ----------------------------------------
	BYTE	W96
// 034   ----------------------------------------
	BYTE	W96
// 035   ----------------------------------------
	BYTE	W96
// 036   ----------------------------------------
	BYTE	W96
// 037   ----------------------------------------
	BYTE	W96
// 038   ----------------------------------------
	BYTE	W96
// 039   ----------------------------------------
	BYTE		VOICE   58
	BYTE		VOL     64*mus_route119_mvl/mxv
	BYTE	W48
	BYTE		N04     Bn3 
	BYTE	W16
	BYTE		        Dn4 
	BYTE	W08
	BYTE		TIE     Gn4 
	BYTE	W08
	BYTE		VOL     61*mus_route119_mvl/mxv
	BYTE	W04
	BYTE		        53*mus_route119_mvl/mxv
	BYTE	W04
	BYTE		        51*mus_route119_mvl/mxv
	BYTE	W04
	BYTE		        45*mus_route119_mvl/mxv
	BYTE	W04
// 040   ----------------------------------------
	BYTE		        43*mus_route119_mvl/mxv
	BYTE	W04
	BYTE		        35*mus_route119_mvl/mxv
	BYTE	W04
	BYTE		        32*mus_route119_mvl/mxv
	BYTE	W04
	BYTE		        30*mus_route119_mvl/mxv
	BYTE	W04
	BYTE		        28*mus_route119_mvl/mxv
	BYTE	W04
	BYTE		        24*mus_route119_mvl/mxv
	BYTE	W08
	BYTE		        23*mus_route119_mvl/mxv
	BYTE	W12
	BYTE		        18*mus_route119_mvl/mxv
	BYTE	W16
	BYTE		        20*mus_route119_mvl/mxv
	BYTE	W40
// 041   ----------------------------------------
	BYTE		        18*mus_route119_mvl/mxv
	BYTE	W12
	BYTE		        20*mus_route119_mvl/mxv
	BYTE	W04
	BYTE		        23*mus_route119_mvl/mxv
	BYTE	W04
	BYTE		        24*mus_route119_mvl/mxv
	BYTE	W04
	BYTE		        28*mus_route119_mvl/mxv
	BYTE	W04
	BYTE		        30*mus_route119_mvl/mxv
	BYTE	W04
	BYTE		        32*mus_route119_mvl/mxv
	BYTE	W04
	BYTE		        38*mus_route119_mvl/mxv
	BYTE	W04
	BYTE		        45*mus_route119_mvl/mxv
	BYTE	W04
	BYTE		        59*mus_route119_mvl/mxv
	BYTE	W04
	BYTE		        69*mus_route119_mvl/mxv
	BYTE	W16
	BYTE		EOT   
	BYTE		VOL     48*mus_route119_mvl/mxv
	BYTE		N04     Fs4 
	BYTE	W04
	BYTE		        Fn4 
	BYTE	W04
	BYTE		N08     En4 
	BYTE	W08
	BYTE		        Dn4 
	BYTE	W08
	BYTE		N04     Cs4 
	BYTE	W08
	BYTE	GoTo
	 POIN2	mus_route119_3_B1
mus_route119_3_B2:
// 042   ----------------------------------------
	BYTE	FINE

//**************** Track 4 (Midi-Chn.4) ****************//

mus_route119_4:
	BYTE	KEYSH   mus_route119_key+0
// 000   ----------------------------------------
	BYTE		VOICE   48
	BYTE		PAN     c_v-8
	BYTE		LFOS    44
	BYTE		BENDR   12
	BYTE		PAN     c_v-32
	BYTE		VOL     80*mus_route119_mvl/mxv
	BYTE		N04     Fs2   v068
	BYTE	W04
	BYTE		        Gs2   v072
	BYTE	W04
	BYTE		        An2   v076
	BYTE	W04
	BYTE		        Gs2 
	BYTE	W04
	BYTE		        An2   v080
	BYTE	W04
	BYTE		        Bn2   v084
	BYTE	W04
	BYTE		        An2   v088
	BYTE	W04
	BYTE		        Bn2   v092
	BYTE	W04
	BYTE		        Cs3   v096
	BYTE	W04
	BYTE		        Bn2   v100
	BYTE	W04
	BYTE		        Cs3   v104
	BYTE	W04
	BYTE		        Dn3   v108
	BYTE	W04
// 001   ----------------------------------------
	BYTE		PAN     c_v-25
	BYTE		N32     En3   v100
	BYTE	W32
	BYTE		N04     An2   v096
	BYTE	W04
	BYTE		        An2   v032
	BYTE	W04
	BYTE		        An2   v096
	BYTE	W04
	BYTE		        An2   v032
	BYTE	W04
	BYTE		        An2   v096
	BYTE	W04
	BYTE		N08     An2   v032
	BYTE	W12
	BYTE		N24     En3   v096
	BYTE	W24
	BYTE		N08     En3   v032
	BYTE	W08
// 002   ----------------------------------------
	BYTE		N24     Gn3   v096
	BYTE	W24
	BYTE		        Fs3 
	BYTE	W24
	BYTE		        En3 
	BYTE	W24
	BYTE		N08     Gn3 
	BYTE	W08
	BYTE		        Cs4   v100
	BYTE	W08
	BYTE		        An4   v127
	BYTE	W08
// 003   ----------------------------------------
	BYTE		VOL     64*mus_route119_mvl/mxv
	BYTE		N08     Dn4   v100
	BYTE	W08
	BYTE		N04     Cs4   v080
	BYTE	W04
	BYTE		        Cs4   v032
	BYTE	W04
	BYTE		        Cs4   v080
	BYTE	W04
	BYTE		        Cs4   v032
	BYTE	W04
	BYTE		VOL     80*mus_route119_mvl/mxv
	BYTE		N08     Dn4   v112
	BYTE	W08
	BYTE		N04     Cs4   v080
	BYTE	W04
	BYTE		        Cs4   v032
	BYTE	W04
	BYTE		        Cs4   v080
	BYTE	W04
	BYTE		        Cs4   v032
	BYTE	W04
	BYTE		VOL     96*mus_route119_mvl/mxv
	BYTE		N08     Dn4   v112
	BYTE	W08
	BYTE		N04     Cs4 
	BYTE	W04
	BYTE		        Cs4   v032
	BYTE	W04
	BYTE		        Cs4   v112
	BYTE	W04
	BYTE		        Cs4   v032
	BYTE	W04
	BYTE		VOL     122*mus_route119_mvl/mxv
	BYTE		N08     Dn4   v112
	BYTE	W08
	BYTE		N04     Cs4 
	BYTE	W04
	BYTE		        Cs4   v032
	BYTE	W04
	BYTE		        Cs4   v112
	BYTE	W04
	BYTE		        Cs4   v032
	BYTE	W04
// 004   ----------------------------------------
	BYTE		VOL     80*mus_route119_mvl/mxv
	BYTE		N04     An2   v092
	BYTE	W04
	BYTE		N08     An2   v032
	BYTE	W12
	BYTE		N04     Dn3   v104
	BYTE	W04
	BYTE		        Dn3   v032
	BYTE	W04
	BYTE		N24     Fn3   v104
	BYTE	W24
	BYTE		N04     Bn2   v100
	BYTE	W04
	BYTE		N08     Bn2   v032
	BYTE	W12
	BYTE		N04     Dn3   v096
	BYTE	W04
	BYTE		        Dn3   v032
	BYTE	W04
	BYTE		N24     Gn3   v096
	BYTE	W24
// 005   ----------------------------------------
	BYTE		N08     En3 
	BYTE	W08
	BYTE		N02     An2 
	BYTE	W08
	BYTE		        An2   v100
	BYTE	W08
	BYTE		        An2   v096
	BYTE	W16
	BYTE		        An2   v104
	BYTE	W08
	BYTE		N02   
	BYTE	W08
	BYTE		N02   
	BYTE	W04
	BYTE		N02   
	BYTE	W04
	BYTE		N24     En3   v112
	BYTE	W24
	BYTE		N08     En3   v032
	BYTE	W08
// 006   ----------------------------------------
	BYTE		N24     Gn3   v112
	BYTE	W24
	BYTE		        Fs3 
	BYTE	W24
	BYTE		N04     Cs3 
	BYTE	W04
	BYTE		        Bn2 
	BYTE	W04
	BYTE		        Cs3 
	BYTE	W04
	BYTE		        En3 
	BYTE	W04
	BYTE		        Cs3 
	BYTE	W04
	BYTE		        En3 
	BYTE	W04
	BYTE		N08     Gn3 
	BYTE	W08
	BYTE		        Cs4   v127
	BYTE	W08
	BYTE		        An4 
	BYTE	W08
// 007   ----------------------------------------
	BYTE		VOL     64*mus_route119_mvl/mxv
	BYTE		N08     Dn5   v112
	BYTE	W08
	BYTE		N04     Cs5   v080
	BYTE	W08
	BYTE		N04   
	BYTE	W08
	BYTE		VOL     80*mus_route119_mvl/mxv
	BYTE		N08     Dn5   v112
	BYTE	W08
	BYTE		N04     Cs5   v080
	BYTE	W08
	BYTE		N04   
	BYTE	W08
	BYTE		VOL     102*mus_route119_mvl/mxv
	BYTE		N04     Dn5   v112
	BYTE	W04
	BYTE		        Cs5   v080
	BYTE	W04
	BYTE		        Bn4 
	BYTE	W04
	BYTE		        An4   v112
	BYTE	W04
	BYTE		        Gn4   v104
	BYTE	W04
	BYTE		        Fn4 
	BYTE	W04
	BYTE		VOL     114*mus_route119_mvl/mxv
	BYTE		N04     En4   v100
	BYTE	W04
	BYTE		        Dn4   v096
	BYTE	W04
	BYTE		        Cs4 
	BYTE	W04
	BYTE		        Bn3 
	BYTE	W04
	BYTE		        An3   v092
	BYTE	W04
	BYTE		        Gn3   v088
	BYTE	W04
// 008   ----------------------------------------
	BYTE		VOL     64*mus_route119_mvl/mxv
	BYTE		N04     An2   v092
	BYTE	W04
	BYTE		        An2   v032
	BYTE	W04
	BYTE		        An2   v096
	BYTE	W04
	BYTE		        An2   v032
	BYTE	W04
	BYTE		        Dn3   v096
	BYTE	W04
	BYTE		        Dn3   v032
	BYTE	W04
	BYTE		N24     Fn3   v100
	BYTE	W24
	BYTE		N04     Bn2   v096
	BYTE	W04
	BYTE		        Bn2   v032
	BYTE	W04
	BYTE		        Bn2   v096
	BYTE	W04
	BYTE		        Bn2   v032
	BYTE	W04
	BYTE		        Dn3   v088
	BYTE	W04
	BYTE		        Dn3   v032
	BYTE	W04
	BYTE		VOL     32*mus_route119_mvl/mxv
	BYTE		N88     Gn3   v072
	BYTE	W02
	BYTE		VOL     35*mus_route119_mvl/mxv
	BYTE	W03
	BYTE		        39*mus_route119_mvl/mxv
	BYTE	W03
	BYTE		        42*mus_route119_mvl/mxv
	BYTE	W04
	BYTE		        43*mus_route119_mvl/mxv
	BYTE	W02
	BYTE		        47*mus_route119_mvl/mxv
	BYTE	W03
	BYTE		        49*mus_route119_mvl/mxv
	BYTE	W03
	BYTE		        51*mus_route119_mvl/mxv
	BYTE	W04
// 009   ----------------------------------------
	BYTE		        53*mus_route119_mvl/mxv
	BYTE	W02
	BYTE		        56*mus_route119_mvl/mxv
	BYTE	W03
	BYTE		        57*mus_route119_mvl/mxv
	BYTE	W03
	BYTE		        59*mus_route119_mvl/mxv
	BYTE	W04
	BYTE		        61*mus_route119_mvl/mxv
	BYTE	W02
	BYTE		        63*mus_route119_mvl/mxv
	BYTE	W48
	BYTE	W02
	BYTE		N08     Gn3   v032
	BYTE	W32
mus_route119_4_B1:
// 010   ----------------------------------------
	BYTE		VOL     32*mus_route119_mvl/mxv
	BYTE		N48     Fs3   v064
	BYTE	W02
	BYTE		VOL     35*mus_route119_mvl/mxv
	BYTE	W03
	BYTE		        38*mus_route119_mvl/mxv
	BYTE	W03
	BYTE		        40*mus_route119_mvl/mxv
	BYTE	W04
	BYTE		        42*mus_route119_mvl/mxv
	BYTE	W02
	BYTE		        43*mus_route119_mvl/mxv
	BYTE	W03
	BYTE		        45*mus_route119_mvl/mxv
	BYTE	W03
	BYTE		        48*mus_route119_mvl/mxv
	BYTE	W04
	BYTE		        51*mus_route119_mvl/mxv
	BYTE	W02
	BYTE		        52*mus_route119_mvl/mxv
	BYTE	W03
	BYTE		        55*mus_route119_mvl/mxv
	BYTE	W03
	BYTE		        60*mus_route119_mvl/mxv
	BYTE	W06
	BYTE		        63*mus_route119_mvl/mxv
	BYTE	W10
	BYTE		        38*mus_route119_mvl/mxv
	BYTE		N48     Dn3 
	BYTE	W02
	BYTE		VOL     42*mus_route119_mvl/mxv
	BYTE	W03
	BYTE		        47*mus_route119_mvl/mxv
	BYTE	W03
	BYTE		        51*mus_route119_mvl/mxv
	BYTE	W04
	BYTE		        53*mus_route119_mvl/mxv
	BYTE	W02
	BYTE		        57*mus_route119_mvl/mxv
	BYTE	W03
	BYTE		        61*mus_route119_mvl/mxv
	BYTE	W30
	BYTE	W01
// 011   ----------------------------------------
	BYTE		        40*mus_route119_mvl/mxv
	BYTE		N64     Fs3 
	BYTE	W02
	BYTE		VOL     43*mus_route119_mvl/mxv
	BYTE	W03
	BYTE		        48*mus_route119_mvl/mxv
	BYTE	W03
	BYTE		        49*mus_route119_mvl/mxv
	BYTE	W04
	BYTE		        51*mus_route119_mvl/mxv
	BYTE	W02
	BYTE		        52*mus_route119_mvl/mxv
	BYTE	W03
	BYTE		        55*mus_route119_mvl/mxv
	BYTE	W03
	BYTE		        56*mus_route119_mvl/mxv
	BYTE	W04
	BYTE		        57*mus_route119_mvl/mxv
	BYTE	W02
	BYTE		        59*mus_route119_mvl/mxv
	BYTE	W03
	BYTE		        60*mus_route119_mvl/mxv
	BYTE	W03
	BYTE		        61*mus_route119_mvl/mxv
	BYTE	W32
	BYTE		N08     Fs3   v032
	BYTE	W32
// 012   ----------------------------------------
	BYTE		VOL     44*mus_route119_mvl/mxv
	BYTE		N48     Cs3   v064
	BYTE	W02
	BYTE		VOL     47*mus_route119_mvl/mxv
	BYTE	W03
	BYTE		        49*mus_route119_mvl/mxv
	BYTE	W03
	BYTE		        53*mus_route119_mvl/mxv
	BYTE	W04
	BYTE		        57*mus_route119_mvl/mxv
	BYTE	W02
	BYTE		        61*mus_route119_mvl/mxv
	BYTE	W03
	BYTE		        63*mus_route119_mvl/mxv
	BYTE	W30
	BYTE	W01
	BYTE		        42*mus_route119_mvl/mxv
	BYTE		N48     En3   v072
	BYTE	W02
	BYTE		VOL     45*mus_route119_mvl/mxv
	BYTE	W06
	BYTE		        47*mus_route119_mvl/mxv
	BYTE	W04
	BYTE		        49*mus_route119_mvl/mxv
	BYTE	W05
	BYTE		        51*mus_route119_mvl/mxv
	BYTE	W07
	BYTE		        52*mus_route119_mvl/mxv
	BYTE	W02
	BYTE		        53*mus_route119_mvl/mxv
	BYTE	W03
	BYTE		        55*mus_route119_mvl/mxv
	BYTE	W03
	BYTE		        57*mus_route119_mvl/mxv
	BYTE	W04
	BYTE		        60*mus_route119_mvl/mxv
	BYTE	W02
	BYTE		        61*mus_route119_mvl/mxv
	BYTE	W01
	BYTE		        64*mus_route119_mvl/mxv
	BYTE	W09
// 013   ----------------------------------------
	BYTE		N68   
	BYTE	W96
// 014   ----------------------------------------
	BYTE		VOL     48*mus_route119_mvl/mxv
	BYTE		N48     Dn3 
	BYTE	W02
	BYTE		VOL     53*mus_route119_mvl/mxv
	BYTE	W03
	BYTE		        56*mus_route119_mvl/mxv
	BYTE	W03
	BYTE		        60*mus_route119_mvl/mxv
	BYTE	W04
	BYTE		        61*mus_route119_mvl/mxv
	BYTE	W02
	BYTE		        63*mus_route119_mvl/mxv
	BYTE	W32
	BYTE	W02
	BYTE		N24     An2   v064
	BYTE	W24
	BYTE		        Fs2 
	BYTE	W24
// 015   ----------------------------------------
	BYTE		N08     Fs2   v032
	BYTE	W08
	BYTE		N04     An2   v072
	BYTE	W04
	BYTE		N08     An2   v032
	BYTE	W12
	BYTE		N04     An2   v072
	BYTE	W04
	BYTE		        An2   v032
	BYTE	W12
	BYTE		        An2   v080
	BYTE	W04
	BYTE		        An2   v032
	BYTE	W12
	BYTE		        An2   v084
	BYTE	W04
	BYTE		        An2   v032
	BYTE	W04
	BYTE		N08     Dn3   v076
	BYTE	W08
	BYTE		N16     En3   v072
	BYTE	W16
	BYTE		N04     Fs3   v080
	BYTE	W08
// 016   ----------------------------------------
	BYTE		VOL     52*mus_route119_mvl/mxv
	BYTE		N08     Gs3   v112
	BYTE	W08
	BYTE		        Bn3 
	BYTE	W08
	BYTE		        Dn4 
	BYTE	W08
	BYTE		N04     Fs4 
	BYTE	W04
	BYTE		        Gs4 
	BYTE	W04
	BYTE		        Fs4 
	BYTE	W04
	BYTE		        Gs4 
	BYTE	W04
	BYTE		        Fs4 
	BYTE	W04
	BYTE		        En4 
	BYTE	W04
	BYTE		        Dn4 
	BYTE	W04
	BYTE		        En4 
	BYTE	W04
	BYTE		        Dn4 
	BYTE	W04
	BYTE		        En4 
	BYTE	W04
	BYTE		        Dn4 
	BYTE	W04
	BYTE		        Bn3 
	BYTE	W04
	BYTE		        Gs3 
	BYTE	W04
	BYTE		        Bn3 
	BYTE	W04
	BYTE		        Gs3 
	BYTE	W04
	BYTE		        Fs3 
	BYTE	W04
	BYTE		        En3 
	BYTE	W04
	BYTE		        Dn3 
	BYTE	W04
// 017   ----------------------------------------
	BYTE		N08     An3 
	BYTE	W08
	BYTE		N04     Bn3 
	BYTE	W08
	BYTE		        An3 
	BYTE	W08
	BYTE		N08     Gs3 
	BYTE	W08
	BYTE		N04     An3 
	BYTE	W08
	BYTE		        Gs3 
	BYTE	W08
	BYTE		N08     Fs3 
	BYTE	W08
	BYTE		N04     Gs3 
	BYTE	W08
	BYTE		        Fs3 
	BYTE	W08
	BYTE		N08     En3 
	BYTE	W08
	BYTE		N04     Fs3 
	BYTE	W08
	BYTE		        Gs3 
	BYTE	W08
// 018   ----------------------------------------
	BYTE		N08     An3 
	BYTE	W08
	BYTE		N04     Dn3 
	BYTE	W04
	BYTE		        Dn3   v032
	BYTE	W04
	BYTE		        Fs3   v112
	BYTE	W04
	BYTE		        Fs3   v032
	BYTE	W04
	BYTE		N08     An4   v112
	BYTE	W08
	BYTE		N04     Dn3 
	BYTE	W04
	BYTE		        Dn3   v032
	BYTE	W04
	BYTE		        Fs3   v112
	BYTE	W04
	BYTE		        Fs3   v032
	BYTE	W04
	BYTE		N08     An3   v112
	BYTE	W08
	BYTE		N04     Dn3 
	BYTE	W04
	BYTE		        Dn3   v032
	BYTE	W04
	BYTE		        Fs3   v112
	BYTE	W04
	BYTE		        Fs3   v032
	BYTE	W04
	BYTE		N08     An4   v112
	BYTE	W08
	BYTE		N04     Dn3 
	BYTE	W04
	BYTE		        Dn3   v032
	BYTE	W04
	BYTE		        An3   v112
	BYTE	W04
	BYTE		        An3   v032
	BYTE	W04
// 019   ----------------------------------------
	BYTE		N08     Dn4   v112
	BYTE	W08
	BYTE		N04     En4 
	BYTE	W04
	BYTE		        En4   v032
	BYTE	W04
	BYTE		        Dn4   v112
	BYTE	W04
	BYTE		        Dn4   v032
	BYTE	W04
	BYTE		N08     Cs4   v112
	BYTE	W08
	BYTE		N04     Dn4 
	BYTE	W04
	BYTE		        Dn4   v032
	BYTE	W04
	BYTE		        Cs4   v112
	BYTE	W04
	BYTE		        Cs4   v032
	BYTE	W04
	BYTE		N08     Bn3   v112
	BYTE	W08
	BYTE		N04     Cs4 
	BYTE	W04
	BYTE		        Cs4   v032
	BYTE	W04
	BYTE		        Bn3   v112
	BYTE	W04
	BYTE		        Bn3   v032
	BYTE	W04
	BYTE		N08     En3   v112
	BYTE	W08
	BYTE		N04     An3 
	BYTE	W04
	BYTE		        An3   v032
	BYTE	W04
	BYTE		        Bn3   v112
	BYTE	W04
	BYTE		        Bn3   v032
	BYTE	W04
// 020   ----------------------------------------
	BYTE		N08     Cs4   v112
	BYTE	W08
	BYTE		N04     En3 
	BYTE	W04
	BYTE		        En3   v032
	BYTE	W04
	BYTE		        An3   v112
	BYTE	W04
	BYTE		        An3   v032
	BYTE	W04
	BYTE		N08     An4   v112
	BYTE	W08
	BYTE		N04     En3 
	BYTE	W04
	BYTE		        En3   v032
	BYTE	W04
	BYTE		        An3   v112
	BYTE	W04
	BYTE		        An3   v032
	BYTE	W04
	BYTE		N08     En4   v112
	BYTE	W08
	BYTE		N04     En3 
	BYTE	W04
	BYTE		        En3   v032
	BYTE	W04
	BYTE		        An3   v112
	BYTE	W04
	BYTE		        An3   v032
	BYTE	W04
	BYTE		N08     An4   v112
	BYTE	W08
	BYTE		N04     En3 
	BYTE	W04
	BYTE		        En3   v032
	BYTE	W04
	BYTE		        An3   v112
	BYTE	W04
	BYTE		        An3   v032
	BYTE	W04
// 021   ----------------------------------------
	BYTE		N16     En3   v112
	BYTE	W16
	BYTE		        Fs3 
	BYTE	W16
	BYTE		        Gs3 
	BYTE	W16
	BYTE		N08     An3 
	BYTE	W08
	BYTE		        Bn3 
	BYTE	W08
	BYTE		        Cs4 
	BYTE	W08
	BYTE		        Dn4 
	BYTE	W08
	BYTE		N04     En4 
	BYTE	W08
	BYTE		        Fn4 
	BYTE	W08
// 022   ----------------------------------------
	BYTE		N32     Fs4 
	BYTE	W32
	BYTE		N04     Fn4 
	BYTE	W04
	BYTE		        En4 
	BYTE	W04
	BYTE		        Ds4 
	BYTE	W04
	BYTE		        Dn4 
	BYTE	W04
	BYTE		N24     Cs4 
	BYTE	W24
	BYTE		N08     Bn3 
	BYTE	W08
	BYTE		        Cs4 
	BYTE	W08
	BYTE		        Bn3 
	BYTE	W08
// 023   ----------------------------------------
	BYTE		N04   
	BYTE	W08
	BYTE		        En4 
	BYTE	W04
	BYTE		N08     En4   v032
	BYTE	W12
	BYTE		N04     En4   v112
	BYTE	W04
	BYTE		N08     En4   v032
	BYTE	W12
	BYTE		N04     En4   v112
	BYTE	W04
	BYTE		N08     En4   v032
	BYTE	W12
	BYTE		N04     En4   v112
	BYTE	W04
	BYTE		        En4   v032
	BYTE	W04
	BYTE		N08     Bn3   v112
	BYTE	W08
	BYTE		N16     Cs4 
	BYTE	W16
	BYTE		N04     Dn4 
	BYTE	W04
	BYTE		        Dn4   v032
	BYTE	W04
// 024   ----------------------------------------
	BYTE		N08     Gs4   v112
	BYTE	W08
	BYTE		        En4 
	BYTE	W08
	BYTE		        Bn3 
	BYTE	W08
	BYTE		        En4 
	BYTE	W08
	BYTE		        Gs4 
	BYTE	W08
	BYTE		        En4 
	BYTE	W08
	BYTE		        An4 
	BYTE	W08
	BYTE		        Fn4 
	BYTE	W08
	BYTE		        Cn4 
	BYTE	W08
	BYTE		        Fn4 
	BYTE	W08
	BYTE		        An4 
	BYTE	W08
	BYTE		        Fn4 
	BYTE	W08
// 025   ----------------------------------------
	BYTE		N04     As4 
	BYTE	W04
	BYTE		        Fs4 
	BYTE	W04
	BYTE		        Cs4 
	BYTE	W04
	BYTE		        Fs4 
	BYTE	W04
	BYTE		        As4 
	BYTE	W04
	BYTE		        Fs4 
	BYTE	W04
	BYTE		        Cs4 
	BYTE	W04
	BYTE		        Fs4 
	BYTE	W04
	BYTE		        As4 
	BYTE	W04
	BYTE		        Fs4 
	BYTE	W04
	BYTE		        Cs4 
	BYTE	W04
	BYTE		        Fs4 
	BYTE	W04
	BYTE		        Bn4 
	BYTE	W04
	BYTE		        Gn4 
	BYTE	W04
	BYTE		        Dn4 
	BYTE	W04
	BYTE		        Gn4 
	BYTE	W04
	BYTE		        Bn4 
	BYTE	W04
	BYTE		        Gn4 
	BYTE	W04
	BYTE		        Dn4 
	BYTE	W04
	BYTE		        Gn4 
	BYTE	W04
	BYTE		        Bn4 
	BYTE	W04
	BYTE		        Gn4 
	BYTE	W04
	BYTE		        Dn4 
	BYTE	W04
	BYTE		        Gn4 
	BYTE	W04
// 026   ----------------------------------------
	BYTE		VOL     63*mus_route119_mvl/mxv
	BYTE	W96
// 027   ----------------------------------------
	BYTE		N32     Ds3 
	BYTE	W32
	BYTE		N04     Gs2 
	BYTE	W08
	BYTE		N04   
	BYTE	W08
	BYTE		N04   
	BYTE	W16
	BYTE		N24     Ds3 
	BYTE	W32
// 028   ----------------------------------------
	BYTE		        Fs3 
	BYTE	W24
	BYTE		        Fn3 
	BYTE	W24
	BYTE		        Ds3 
	BYTE	W24
	BYTE		        Fs3 
	BYTE	W24
// 029   ----------------------------------------
	BYTE		N32     Gs3 
	BYTE	W40
	BYTE		N04     Cs3 
	BYTE	W08
	BYTE		N20   
	BYTE	W48
// 030   ----------------------------------------
	BYTE	W24
	BYTE		N04     Fn2 
	BYTE	W16
	BYTE		        Gs2 
	BYTE	W08
	BYTE		N24     Fs2 
	BYTE	W24
	BYTE		        As2 
	BYTE	W24
// 031   ----------------------------------------
	BYTE		N04     Gs2 
	BYTE	W16
	BYTE		        As2 
	BYTE	W08
	BYTE		N48     Cn3 
	BYTE	W48
	BYTE		N04   
	BYTE	W16
	BYTE		        Cs3 
	BYTE	W08
// 032   ----------------------------------------
	BYTE		N48     Ds3 
	BYTE	W48
	BYTE		N04   
	BYTE	W08
	BYTE		        Fn3 
	BYTE	W08
	BYTE		N32     Fs3 
	BYTE	W08
	BYTE		N04     Ds4 
	BYTE	W08
	BYTE		        Fn4 
	BYTE	W08
	BYTE		N08     Fs4 
	BYTE	W08
// 033   ----------------------------------------
	BYTE		        An4 
	BYTE	W08
	BYTE		N04     An3 
	BYTE	W16
	BYTE		        An4 
	BYTE	W16
	BYTE		N04   
	BYTE	W08
	BYTE		N08   
	BYTE	W08
	BYTE		N04     An3 
	BYTE	W16
	BYTE		        An4 
	BYTE	W16
	BYTE		N04   
	BYTE	W08
// 034   ----------------------------------------
	BYTE		N08     Cs5 
	BYTE	W08
	BYTE		N04     En4 
	BYTE	W16
	BYTE		        Cs5 
	BYTE	W16
	BYTE		N04   
	BYTE	W08
	BYTE		N04   
	BYTE	W08
	BYTE		        Dn5 
	BYTE	W08
	BYTE		N08     En5 
	BYTE	W08
	BYTE		N04   
	BYTE	W08
	BYTE		        Dn5 
	BYTE	W08
	BYTE		        Cs5 
	BYTE	W08
// 035   ----------------------------------------
	BYTE		N08     Dn5 
	BYTE	W08
	BYTE		N04     Fs4   v080
	BYTE	W08
	BYTE		        Dn5 
	BYTE	W08
	BYTE		        Dn5   v112
	BYTE	W16
	BYTE		        Dn5   v080
	BYTE	W08
	BYTE		N08     Dn5   v112
	BYTE	W08
	BYTE		N04     Fs4 
	BYTE	W16
	BYTE		        Dn5 
	BYTE	W16
	BYTE		N04   
	BYTE	W08
// 036   ----------------------------------------
	BYTE		N08     Gn4 
	BYTE	W08
	BYTE		N04     Dn4 
	BYTE	W08
	BYTE		        Bn3 
	BYTE	W08
	BYTE		N08     Fs4 
	BYTE	W08
	BYTE		N04     Dn4 
	BYTE	W08
	BYTE		        Bn3 
	BYTE	W08
	BYTE		N08     En4 
	BYTE	W08
	BYTE		N04     Cn4 
	BYTE	W08
	BYTE		        Gn3 
	BYTE	W08
	BYTE		N08     Gn4 
	BYTE	W08
	BYTE		N04     En4 
	BYTE	W08
	BYTE		        Cn4 
	BYTE	W08
// 037   ----------------------------------------
	BYTE		N36     Gs3 
	BYTE	W40
	BYTE		N02     Cs3 
	BYTE	W08
	BYTE		N02   
	BYTE	W08
	BYTE		N02   
	BYTE	W04
	BYTE		N02   
	BYTE	W04
	BYTE		N24     Gs3 
	BYTE	W32
// 038   ----------------------------------------
	BYTE		        Gn3 
	BYTE	W24
	BYTE		        Fs3 
	BYTE	W24
	BYTE		        En3 
	BYTE	W24
	BYTE		        Cs3 
	BYTE	W24
// 039   ----------------------------------------
	BYTE		N08     Dn5 
	BYTE	W08
	BYTE		N04     Cs5   v080
	BYTE	W08
	BYTE		N04   
	BYTE	W08
	BYTE		N08     Dn5   v112
	BYTE	W08
	BYTE		N04     Cs5   v080
	BYTE	W08
	BYTE		N04   
	BYTE	W08
	BYTE		        Dn5   v112
	BYTE	W04
	BYTE		        Cs5   v080
	BYTE	W04
	BYTE		        Bn4 
	BYTE	W04
	BYTE		        An4   v112
	BYTE	W04
	BYTE		        Gn4 
	BYTE	W04
	BYTE		        Fn4 
	BYTE	W04
	BYTE		        En4 
	BYTE	W04
	BYTE		        Dn4 
	BYTE	W04
	BYTE		        Cs4 
	BYTE	W04
	BYTE		        Bn3 
	BYTE	W04
	BYTE		        An3 
	BYTE	W04
	BYTE		        Gn3 
	BYTE	W04
// 040   ----------------------------------------
	BYTE		        An2 
	BYTE	W08
	BYTE		N04   
	BYTE	W08
	BYTE		        Dn3 
	BYTE	W08
	BYTE		N24     Fn3 
	BYTE	W24
	BYTE		N04     Bn2 
	BYTE	W08
	BYTE		N04   
	BYTE	W08
	BYTE		        Dn3 
	BYTE	W08
	BYTE		VOL     34*mus_route119_mvl/mxv
	BYTE		N88     Gn3 
	BYTE	W02
	BYTE		VOL     36*mus_route119_mvl/mxv
	BYTE	W03
	BYTE		        36*mus_route119_mvl/mxv
	BYTE	W03
	BYTE		        40*mus_route119_mvl/mxv
	BYTE	W06
	BYTE		        44*mus_route119_mvl/mxv
	BYTE	W03
	BYTE		        48*mus_route119_mvl/mxv
	BYTE	W07
// 041   ----------------------------------------
	BYTE		        49*mus_route119_mvl/mxv
	BYTE	W02
	BYTE		        53*mus_route119_mvl/mxv
	BYTE	W03
	BYTE		        57*mus_route119_mvl/mxv
	BYTE	W09
	BYTE		        61*mus_route119_mvl/mxv
	BYTE	W03
	BYTE		        63*mus_route119_mvl/mxv
	BYTE	W03
	BYTE		        64*mus_route119_mvl/mxv
	BYTE	W06
	BYTE		        68*mus_route119_mvl/mxv
	BYTE	W03
	BYTE		        71*mus_route119_mvl/mxv
	BYTE	W03
	BYTE		        73*mus_route119_mvl/mxv
	BYTE	W64
	BYTE	GoTo
	 POIN2	mus_route119_4_B1
mus_route119_4_B2:
// 042   ----------------------------------------
	BYTE	FINE

//**************** Track 5 (Midi-Chn.5) ****************//

mus_route119_5:
	BYTE	KEYSH   mus_route119_key+0
// 000   ----------------------------------------
	BYTE		VOICE   81
	BYTE		LFOS    44
	BYTE		XCMD    xIECV   12
	BYTE		        xIECV   8
	BYTE		BENDR   12
	BYTE		LFOS    44
	BYTE		MOD     2
	BYTE		XCMD    xIECV   8
	BYTE		PAN     c_v-61
	BYTE		VOL     48*mus_route119_mvl/mxv
	BYTE		BEND    c_v+0
	BYTE		N04     Fs1   v068
	BYTE	W04
	BYTE		        Gs1   v040
	BYTE	W04
	BYTE		        An1   v044
	BYTE	W04
	BYTE		        Gs1   v048
	BYTE	W04
	BYTE		        An1   v052
	BYTE	W04
	BYTE		        Bn1   v056
	BYTE	W04
	BYTE		        An1   v060
	BYTE	W04
	BYTE		        Bn1   v064
	BYTE	W04
	BYTE		        Cs2   v072
	BYTE	W04
	BYTE		        Bn1   v076
	BYTE	W04
	BYTE		        Cs2   v080
	BYTE	W04
	BYTE		        Dn2   v084
	BYTE	W04
// 001   ----------------------------------------
	BYTE		VOICE   81
	BYTE		N32     Cs3   v112
	BYTE	W12
	BYTE		MOD     12
	BYTE	W12
	BYTE		        0
	BYTE	W08
	BYTE		N02     An2 
	BYTE	W08
	BYTE		N02   
	BYTE	W08
	BYTE		N02   
	BYTE	W16
	BYTE		N32     Cs3 
	BYTE	W20
	BYTE		MOD     12
	BYTE	W12
// 002   ----------------------------------------
	BYTE		        0
	BYTE		N08     En2 
	BYTE	W08
	BYTE		        Ds2 
	BYTE	W08
	BYTE		N04     En2 
	BYTE	W08
	BYTE		N08     An2 
	BYTE	W08
	BYTE		        Gs2 
	BYTE	W08
	BYTE		N04     An2 
	BYTE	W08
	BYTE		N16     En3 
	BYTE	W16
	BYTE		N24     An3 
	BYTE	W08
	BYTE		MOD     12
	BYTE	W16
	BYTE		        0
	BYTE		N08     En3 
	BYTE	W08
// 003   ----------------------------------------
	BYTE		N24     An2 
	BYTE	W12
	BYTE		MOD     11
	BYTE	W12
	BYTE		        0
	BYTE		N08     Dn3 
	BYTE	W08
	BYTE		N04     Cs3 
	BYTE	W08
	BYTE		        Dn3 
	BYTE	W08
	BYTE		N08     Fs3 
	BYTE	W08
	BYTE		N04     Fn3 
	BYTE	W08
	BYTE		        Fs3 
	BYTE	W08
	BYTE		N08     An3 
	BYTE	W08
	BYTE		N02     Gs3   v104
	BYTE	W02
	BYTE		        Gn3 
	BYTE	W02
	BYTE		        Fs3   v108
	BYTE	W02
	BYTE		        Fn3 
	BYTE	W02
	BYTE		        En3 
	BYTE	W02
	BYTE		        Ds3 
	BYTE	W02
	BYTE		        Dn3   v104
	BYTE	W02
	BYTE		        Cs3   v088
	BYTE	W02
// 004   ----------------------------------------
	BYTE		MOD     2
	BYTE		N24     An3   v112
	BYTE	W24
	BYTE		N08     Dn4 
	BYTE	W08
	BYTE		N04     Cs4 
	BYTE	W08
	BYTE		        Bn3 
	BYTE	W08
	BYTE		N16     Fn3 
	BYTE	W16
	BYTE		N04     Gn3 
	BYTE	W08
	BYTE		N16     Dn3 
	BYTE	W16
	BYTE		N04     Gn2 
	BYTE	W08
// 005   ----------------------------------------
	BYTE		N08     Cs3 
	BYTE	W08
	BYTE		N02     An2 
	BYTE	W08
	BYTE		N02   
	BYTE	W08
	BYTE		N02   
	BYTE	W16
	BYTE		N02   
	BYTE	W08
	BYTE		N02   
	BYTE	W08
	BYTE		N02   
	BYTE	W04
	BYTE		N02   
	BYTE	W04
	BYTE		N24     Cs3 
	BYTE	W08
	BYTE		MOD     9
	BYTE	W16
	BYTE		N08     Dn3 
	BYTE	W08
// 006   ----------------------------------------
	BYTE		MOD     0
	BYTE		N08     En3   v096
	BYTE	W08
	BYTE		N02     An2 
	BYTE	W08
	BYTE		        An2   v100
	BYTE	W08
	BYTE		        An2   v096
	BYTE	W16
	BYTE		        An2   v104
	BYTE	W08
	BYTE		N04   
	BYTE	W16
	BYTE		N24     An3   v112
	BYTE	W08
	BYTE		MOD     11
	BYTE	W16
	BYTE		N08     En3 
	BYTE	W08
// 007   ----------------------------------------
	BYTE		MOD     0
	BYTE		N24     Fs3 
	BYTE	W40
	BYTE		N04     Dn3 
	BYTE	W08
	BYTE		N16   
	BYTE	W16
	BYTE		N32     Fs4 
	BYTE	W08
	BYTE		MOD     12
	BYTE	W24
// 008   ----------------------------------------
	BYTE		VOICE   83
	BYTE		MOD     0
	BYTE		N32     An2 
	BYTE	W32
	BYTE		N04     Fs2 
	BYTE	W08
	BYTE		        An2 
	BYTE	W08
	BYTE		        Dn2 
	BYTE	W16
	BYTE		        Gn2 
	BYTE	W08
	BYTE		N16     Bn2 
	BYTE	W16
	BYTE		N04     As2 
	BYTE	W04
	BYTE		        An2 
	BYTE	W04
// 009   ----------------------------------------
	BYTE		VOL     53*mus_route119_mvl/mxv
	BYTE		N08     An2   v084
	BYTE	W08
	BYTE		        Cs3 
	BYTE	W08
	BYTE		        An2   v048
	BYTE	W08
	BYTE		        Cs3   v052
	BYTE	W08
	BYTE		        An2   v056
	BYTE	W08
	BYTE		        Cs3   v060
	BYTE	W08
	BYTE		        An2   v064
	BYTE	W08
	BYTE		        Cs3   v068
	BYTE	W08
	BYTE		        An2 
	BYTE	W08
	BYTE		        Cs3   v072
	BYTE	W08
	BYTE		        Bn2   v076
	BYTE	W08
	BYTE		        Gs2   v080
	BYTE	W08
mus_route119_5_B1:
// 010   ----------------------------------------
	BYTE		VOICE   83
	BYTE		VOL     53*mus_route119_mvl/mxv
	BYTE		PAN     c_v-64
	BYTE		N08     Fs2   v084
	BYTE	W08
	BYTE		        An2 
	BYTE	W08
	BYTE		        Fs2   v052
	BYTE	W08
	BYTE		        An2   v056
	BYTE	W08
	BYTE		        Fs2 
	BYTE	W08
	BYTE		        An2   v060
	BYTE	W08
	BYTE		        Fs2   v064
	BYTE	W08
	BYTE		        An2   v068
	BYTE	W08
	BYTE		        Fs2   v072
	BYTE	W08
	BYTE		        Bn2   v076
	BYTE	W08
	BYTE		        An2 
	BYTE	W08
	BYTE		        Gs2   v080
	BYTE	W08
// 011   ----------------------------------------
	BYTE		        Fs2   v084
	BYTE	W08
	BYTE		        An2 
	BYTE	W08
	BYTE		        Fs2   v048
	BYTE	W08
	BYTE		        An2   v052
	BYTE	W08
	BYTE		        Fs2   v056
	BYTE	W08
	BYTE		        An2   v060
	BYTE	W08
	BYTE		        Fs2   v064
	BYTE	W08
	BYTE		        An2   v068
	BYTE	W08
	BYTE		        Fs2   v072
	BYTE	W08
	BYTE		        Bn2   v076
	BYTE	W08
	BYTE		        An2   v080
	BYTE	W08
	BYTE		        Gs2   v084
	BYTE	W08
// 012   ----------------------------------------
	BYTE		VOICE   5
	BYTE		MOD     0
	BYTE		PAN     c_v+0
	BYTE		VOL     60*mus_route119_mvl/mxv
	BYTE		BEND    c_v+1
	BYTE		N04     En3   v048
	BYTE	W04
	BYTE		        En3   v028
	BYTE	W04
	BYTE		        An3   v048
	BYTE	W04
	BYTE		        An3   v028
	BYTE	W04
	BYTE		        Cs4   v048
	BYTE	W04
	BYTE		        Cs4   v028
	BYTE	W04
	BYTE		        En4   v048
	BYTE	W04
	BYTE		        En4   v028
	BYTE	W04
	BYTE		        Gs4   v048
	BYTE	W04
	BYTE		        Gs4   v028
	BYTE	W04
	BYTE		        An4   v048
	BYTE	W04
	BYTE		        An4   v028
	BYTE	W04
	BYTE		        Bn4   v048
	BYTE	W04
	BYTE		        Bn4   v028
	BYTE	W04
	BYTE		        An4   v048
	BYTE	W04
	BYTE		        An4   v028
	BYTE	W04
	BYTE		        Gs4   v048
	BYTE	W04
	BYTE		        Gs4   v028
	BYTE	W04
	BYTE		        Fs4   v048
	BYTE	W04
	BYTE		        Fs4   v028
	BYTE	W04
	BYTE		        En4   v048
	BYTE	W04
	BYTE		        En4   v028
	BYTE	W04
	BYTE		        Dn4   v048
	BYTE	W04
	BYTE		        Dn4   v028
	BYTE	W04
// 013   ----------------------------------------
	BYTE		VOICE   83
	BYTE		VOL     55*mus_route119_mvl/mxv
	BYTE		PAN     c_v-62
	BYTE		BEND    c_v+0
	BYTE		N08     Cs2   v084
	BYTE	W08
	BYTE		        An2 
	BYTE	W08
	BYTE		        Cs2   v048
	BYTE	W08
	BYTE		        An2   v052
	BYTE	W08
	BYTE		        Cs2   v056
	BYTE	W08
	BYTE		        An2   v060
	BYTE	W08
	BYTE		        Cs2   v064
	BYTE	W08
	BYTE		        An2   v068
	BYTE	W08
	BYTE		        Cs2 
	BYTE	W08
	BYTE		        An2   v072
	BYTE	W08
	BYTE		        Gs2   v076
	BYTE	W08
	BYTE		        Fs2   v080
	BYTE	W08
// 014   ----------------------------------------
	BYTE		        En2   v084
	BYTE	W08
	BYTE		        Bn2 
	BYTE	W08
	BYTE		        En2   v048
	BYTE	W08
	BYTE		        Bn2   v052
	BYTE	W08
	BYTE		        En2   v056
	BYTE	W08
	BYTE		        Bn2   v060
	BYTE	W08
	BYTE		        En2   v064
	BYTE	W08
	BYTE		        Bn2   v068
	BYTE	W08
	BYTE		        En2   v072
	BYTE	W08
	BYTE		        Bn2 
	BYTE	W08
	BYTE		        An2   v076
	BYTE	W08
	BYTE		        Gs2   v084
	BYTE	W08
// 015   ----------------------------------------
	BYTE		        Dn2 
	BYTE	W08
	BYTE		        Bn2 
	BYTE	W08
	BYTE		        Dn2   v048
	BYTE	W08
	BYTE		        Bn2   v052
	BYTE	W08
	BYTE		        Dn2   v056
	BYTE	W08
	BYTE		        Bn2   v060
	BYTE	W08
	BYTE		        Dn2   v064
	BYTE	W08
	BYTE		        Bn2   v068
	BYTE	W08
	BYTE		        Dn2   v072
	BYTE	W08
	BYTE		        An2 
	BYTE	W08
	BYTE		        Gs2   v076
	BYTE	W08
	BYTE		        An2   v080
	BYTE	W08
// 016   ----------------------------------------
	BYTE		        En2   v084
	BYTE	W08
	BYTE		        Bn2 
	BYTE	W08
	BYTE		        En2   v048
	BYTE	W08
	BYTE		        Bn2   v052
	BYTE	W08
	BYTE		        En2   v056
	BYTE	W08
	BYTE		        Bn2   v060
	BYTE	W08
	BYTE		        Gs2   v064
	BYTE	W08
	BYTE		        En3   v068
	BYTE	W08
	BYTE		        Gs2 
	BYTE	W08
	BYTE		        En3   v072
	BYTE	W08
	BYTE		        Dn3   v076
	BYTE	W08
	BYTE		        Bn2   v080
	BYTE	W08
// 017   ----------------------------------------
	BYTE		VOICE   4
	BYTE		PAN     c_v+0
	BYTE		VOL     28*mus_route119_mvl/mxv
	BYTE		MOD     4
	BYTE		BEND    c_v+1
	BYTE		N48     En6   v112
	BYTE	W48
	BYTE		        An5 
	BYTE	W48
// 018   ----------------------------------------
	BYTE		        Dn6 
	BYTE	W48
	BYTE		N24     An5 
	BYTE	W24
	BYTE		        Bn5 
	BYTE	W24
// 019   ----------------------------------------
	BYTE		N48     Dn6 
	BYTE	W48
	BYTE		        En5 
	BYTE	W48
// 020   ----------------------------------------
	BYTE		        Cs6 
	BYTE	W48
	BYTE		N24     An5 
	BYTE	W24
	BYTE		        Bn5 
	BYTE	W24
// 021   ----------------------------------------
	BYTE		VOICE   81
	BYTE		MOD     0
	BYTE		PAN     c_v-61
	BYTE		VOL     48*mus_route119_mvl/mxv
	BYTE		N16     An2 
	BYTE	W16
	BYTE		N02     Gs2 
	BYTE	W08
	BYTE		N04     An2 
	BYTE	W16
	BYTE		N02   
	BYTE	W08
	BYTE		N02   
	BYTE	W08
	BYTE		N16   
	BYTE	W16
	BYTE		N04   
	BYTE	W16
	BYTE		N02   
	BYTE	W08
// 022   ----------------------------------------
	BYTE		MOD     0
	BYTE		N16     Gs2 
	BYTE	W16
	BYTE		N02     Gn2 
	BYTE	W08
	BYTE		N04     Gs2 
	BYTE	W16
	BYTE		N02   
	BYTE	W16
	BYTE		N16   
	BYTE	W16
	BYTE		N04   
	BYTE	W16
	BYTE		N02   
	BYTE	W08
// 023   ----------------------------------------
	BYTE		        Fs2 
	BYTE	W08
	BYTE		        Fn2 
	BYTE	W16
	BYTE		N04     Fs2 
	BYTE	W16
	BYTE		N04   
	BYTE	W16
	BYTE		N04   
	BYTE	W08
	BYTE		N08     Dn2 
	BYTE	W08
	BYTE		N16     En2 
	BYTE	W16
	BYTE		N08     Fs2 
	BYTE	W08
// 024   ----------------------------------------
	BYTE		N16     Gs2 
	BYTE	W16
	BYTE		N02     En2 
	BYTE	W08
	BYTE		N04     Gs2 
	BYTE	W16
	BYTE		N02   
	BYTE	W08
	BYTE		N16     An2 
	BYTE	W16
	BYTE		N02     Fn2 
	BYTE	W08
	BYTE		N04     An2 
	BYTE	W16
	BYTE		N02   
	BYTE	W08
// 025   ----------------------------------------
	BYTE		N16     As2 
	BYTE	W16
	BYTE		N02     Fs2 
	BYTE	W08
	BYTE		N04     As2 
	BYTE	W08
	BYTE		        Gs2 
	BYTE	W08
	BYTE		N02     As2 
	BYTE	W08
	BYTE		N16     Bn2 
	BYTE	W16
	BYTE		N02     Gn2 
	BYTE	W08
	BYTE		N04     Bn2 
	BYTE	W08
	BYTE		        Cs3 
	BYTE	W08
	BYTE		N02     Ds3 
	BYTE	W08
// 026   ----------------------------------------
	BYTE		VOICE   5
	BYTE		PAN     c_v+0
	BYTE		VOL     59*mus_route119_mvl/mxv
	BYTE		N04     An3   v064
	BYTE	W04
	BYTE		        Dn4 
	BYTE	W04
	BYTE		        En4 
	BYTE	W04
	BYTE		        Dn4 
	BYTE	W04
	BYTE		        En4 
	BYTE	W04
	BYTE		        Bn4 
	BYTE	W04
	BYTE		        En4 
	BYTE	W04
	BYTE		        Bn4 
	BYTE	W04
	BYTE		        Dn5 
	BYTE	W04
	BYTE		        An4 
	BYTE	W04
	BYTE		        Bn4 
	BYTE	W04
	BYTE		        En5 
	BYTE	W04
	BYTE		        Bn5 
	BYTE	W04
	BYTE		        En5 
	BYTE	W04
	BYTE		        Dn5 
	BYTE	W04
	BYTE		        An4 
	BYTE	W04
	BYTE		        En5 
	BYTE	W04
	BYTE		        Dn5 
	BYTE	W04
	BYTE		        An4 
	BYTE	W04
	BYTE		        Dn5 
	BYTE	W04
	BYTE		        Gs4 
	BYTE	W04
	BYTE		        En4 
	BYTE	W04
	BYTE		        Gs4 
	BYTE	W04
	BYTE		        Dn4 
	BYTE	W04
// 027   ----------------------------------------
	BYTE		VOICE   81
	BYTE		PAN     c_v+0
	BYTE		VOL     48*mus_route119_mvl/mxv
	BYTE		N32     Cn3   v112
	BYTE	W32
	BYTE		N02     Ds2 
	BYTE	W08
	BYTE		N02   
	BYTE	W08
	BYTE		N02   
	BYTE	W16
	BYTE		N24     Cn3 
	BYTE	W24
	BYTE		N04     Ds2 
	BYTE	W08
// 028   ----------------------------------------
	BYTE		N24     Fs3 
	BYTE	W32
	BYTE		N02     As2 
	BYTE	W08
	BYTE		N02   
	BYTE	W08
	BYTE		N02   
	BYTE	W16
	BYTE		N24     Fs3 
	BYTE	W24
	BYTE		N04     As2 
	BYTE	W08
// 029   ----------------------------------------
	BYTE		N32     Fn3 
	BYTE	W40
	BYTE		N04     Gs2 
	BYTE	W08
	BYTE		N20   
	BYTE	W48
// 030   ----------------------------------------
	BYTE	W96
// 031   ----------------------------------------
	BYTE	W96
// 032   ----------------------------------------
	BYTE	W72
	BYTE		VOICE   5
	BYTE		MOD     0
	BYTE		PAN     c_v+0
	BYTE		VOL     48*mus_route119_mvl/mxv
	BYTE		N04     Ds5 
	BYTE	W08
	BYTE		        Fn5 
	BYTE	W08
	BYTE		N08     Fs5 
	BYTE	W08
// 033   ----------------------------------------
	BYTE		N04     An5 
	BYTE	W08
	BYTE		        An4 
	BYTE	W16
	BYTE		        An5 
	BYTE	W16
	BYTE		N04   
	BYTE	W08
	BYTE		N04   
	BYTE	W08
	BYTE		        An4 
	BYTE	W16
	BYTE		        An5 
	BYTE	W16
	BYTE		N04   
	BYTE	W08
// 034   ----------------------------------------
	BYTE		        Gn5 
	BYTE	W08
	BYTE		        Cs5 
	BYTE	W16
	BYTE		        Gn5 
	BYTE	W16
	BYTE		N04   
	BYTE	W08
	BYTE		N04   
	BYTE	W08
	BYTE		        Cs5 
	BYTE	W16
	BYTE		        Gn5 
	BYTE	W16
	BYTE		N04   
	BYTE	W08
// 035   ----------------------------------------
	BYTE		        Fs5 
	BYTE	W08
	BYTE		        En5 
	BYTE	W08
	BYTE		        Ds5 
	BYTE	W08
	BYTE		N72     Dn5 
	BYTE	W72
// 036   ----------------------------------------
	BYTE		VOICE   81
	BYTE		MOD     2
	BYTE		PAN     c_v-62
	BYTE		VOL     48*mus_route119_mvl/mxv
	BYTE		N48     Fs3 
	BYTE	W48
	BYTE		        Gn3 
	BYTE	W48
// 037   ----------------------------------------
	BYTE		N36     Fn3 
	BYTE	W40
	BYTE		N02     Gs2 
	BYTE	W08
	BYTE		N02   
	BYTE	W08
	BYTE		N02   
	BYTE	W04
	BYTE		N02   
	BYTE	W04
	BYTE		N24     Fn3 
	BYTE	W24
	BYTE		N08     Ds3 
	BYTE	W08
// 038   ----------------------------------------
	BYTE		N24     En3 
	BYTE	W24
	BYTE		        Dn3 
	BYTE	W24
	BYTE		        Cs3 
	BYTE	W24
	BYTE		        An2 
	BYTE	W24
// 039   ----------------------------------------
	BYTE	W96
// 040   ----------------------------------------
	BYTE		VOICE   81
	BYTE		VOL     53*mus_route119_mvl/mxv
	BYTE		PAN     c_v-64
	BYTE		N08     Fs2   v084
	BYTE	W08
	BYTE		        An2 
	BYTE	W08
	BYTE		        Fs2   v052
	BYTE	W08
	BYTE		        An2   v056
	BYTE	W08
	BYTE		        Fs2 
	BYTE	W08
	BYTE		        An2   v060
	BYTE	W08
	BYTE		        Gs2   v064
	BYTE	W08
	BYTE		        Bn2   v068
	BYTE	W08
	BYTE		        Gs2   v072
	BYTE	W08
	BYTE		        Bn2   v076
	BYTE	W08
	BYTE		        Gs2 
	BYTE	W08
	BYTE		        En2   v080
	BYTE	W08
// 041   ----------------------------------------
	BYTE		        An2   v084
	BYTE	W08
	BYTE		        Cs3 
	BYTE	W08
	BYTE		        An2   v048
	BYTE	W08
	BYTE		        Cs3   v052
	BYTE	W08
	BYTE		        An2   v056
	BYTE	W08
	BYTE		        Cs3   v060
	BYTE	W08
	BYTE		        An2   v064
	BYTE	W08
	BYTE		        Cs3   v068
	BYTE	W08
	BYTE		        An2 
	BYTE	W08
	BYTE		        Cs3   v072
	BYTE	W08
	BYTE		        Bn2   v076
	BYTE	W08
	BYTE		        Gs2   v080
	BYTE	W08
	BYTE	GoTo
	 POIN2	mus_route119_5_B1
mus_route119_5_B2:
// 042   ----------------------------------------
	BYTE	FINE

//**************** Track 6 (Midi-Chn.6) ****************//

mus_route119_6:
	BYTE	KEYSH   mus_route119_key+0
// 000   ----------------------------------------
	BYTE		VOICE   80
	BYTE		LFOS    44
	BYTE		XCMD    xIECV   12
	BYTE		        xIECV   8
	BYTE		BENDR   12
	BYTE		PAN     c_v+63
	BYTE		VOL     48*mus_route119_mvl/mxv
	BYTE		BEND    c_v+0
	BYTE		N04     Ds2   v068
	BYTE	W04
	BYTE		        En2   v040
	BYTE	W04
	BYTE		        Fs2   v044
	BYTE	W04
	BYTE		        En2   v048
	BYTE	W04
	BYTE		        Fs2   v056
	BYTE	W04
	BYTE		        Gs2 
	BYTE	W04
	BYTE		        Fs2   v060
	BYTE	W04
	BYTE		        Gs2   v064
	BYTE	W04
	BYTE		        An2 
	BYTE	W04
	BYTE		        Gs2   v072
	BYTE	W04
	BYTE		        An2   v080
	BYTE	W04
	BYTE		        Bn2 
	BYTE	W04
// 001   ----------------------------------------
	BYTE		N32     An3   v112
	BYTE	W12
	BYTE		MOD     12
	BYTE	W12
	BYTE		        0
	BYTE	W08
	BYTE		N02     En3 
	BYTE	W08
	BYTE		N02   
	BYTE	W08
	BYTE		N02   
	BYTE	W16
	BYTE		N32     An3 
	BYTE	W20
	BYTE		MOD     12
	BYTE	W12
// 002   ----------------------------------------
	BYTE		        0
	BYTE		N08     An2 
	BYTE	W08
	BYTE		        Gs2 
	BYTE	W08
	BYTE		N04     An2 
	BYTE	W08
	BYTE		N08     Cs3 
	BYTE	W08
	BYTE		        Cn3 
	BYTE	W08
	BYTE		N04     Cs3 
	BYTE	W08
	BYTE		N16     Bn3 
	BYTE	W16
	BYTE		N24     Cs4 
	BYTE	W08
	BYTE		MOD     12
	BYTE	W16
	BYTE		        0
	BYTE		N08     An3 
	BYTE	W08
// 003   ----------------------------------------
	BYTE		N24     Fs3 
	BYTE	W12
	BYTE		MOD     11
	BYTE	W12
	BYTE		        0
	BYTE		N08     An3 
	BYTE	W08
	BYTE		N04     Gs3 
	BYTE	W08
	BYTE		        An3 
	BYTE	W08
	BYTE		N08     Dn4 
	BYTE	W08
	BYTE		N04     Cs4 
	BYTE	W08
	BYTE		        Dn4 
	BYTE	W08
	BYTE		N08     Fs4 
	BYTE	W08
	BYTE		N02     Fs4   v104
	BYTE	W02
	BYTE		        Fn4 
	BYTE	W02
	BYTE		        En4   v108
	BYTE	W02
	BYTE		        Ds4 
	BYTE	W02
	BYTE		        Dn4 
	BYTE	W02
	BYTE		        Cs4 
	BYTE	W02
	BYTE		        Cn4   v104
	BYTE	W02
	BYTE		        Bn3   v084
	BYTE	W02
// 004   ----------------------------------------
	BYTE		N24     Dn4   v112
	BYTE	W24
	BYTE		N08     Fn4 
	BYTE	W08
	BYTE		N04     En4 
	BYTE	W08
	BYTE		        Dn4 
	BYTE	W08
	BYTE		N16     An3 
	BYTE	W16
	BYTE		N04     Bn3 
	BYTE	W08
	BYTE		N16     Fn3 
	BYTE	W16
	BYTE		N04     Dn3 
	BYTE	W08
// 005   ----------------------------------------
	BYTE		N08     An3 
	BYTE	W08
	BYTE		N02     En3 
	BYTE	W08
	BYTE		N02   
	BYTE	W08
	BYTE		N02   
	BYTE	W16
	BYTE		N02   
	BYTE	W08
	BYTE		N02   
	BYTE	W08
	BYTE		N02   
	BYTE	W04
	BYTE		N02   
	BYTE	W04
	BYTE		N24     An3 
	BYTE	W08
	BYTE		MOD     9
	BYTE	W16
	BYTE		N08     Bn3 
	BYTE	W08
// 006   ----------------------------------------
	BYTE		MOD     0
	BYTE		N08     Cs4 
	BYTE	W08
	BYTE		N02     En3 
	BYTE	W08
	BYTE		N02   
	BYTE	W08
	BYTE		N02   
	BYTE	W16
	BYTE		N02   
	BYTE	W08
	BYTE		N04   
	BYTE	W16
	BYTE		N24     En4 
	BYTE	W08
	BYTE		MOD     11
	BYTE	W16
	BYTE		N08     Cs4 
	BYTE	W08
// 007   ----------------------------------------
	BYTE		MOD     0
	BYTE		N24     An3 
	BYTE	W40
	BYTE		N04     Fs3 
	BYTE	W08
	BYTE		N16   
	BYTE	W16
	BYTE		N32     Dn4 
	BYTE	W08
	BYTE		MOD     13
	BYTE	W24
// 008   ----------------------------------------
	BYTE		        0
	BYTE		N32     Dn3 
	BYTE	W32
	BYTE		N04     Bn2 
	BYTE	W08
	BYTE		        Dn3 
	BYTE	W08
	BYTE		        Gn2 
	BYTE	W16
	BYTE		        Bn2 
	BYTE	W08
	BYTE		N16     Gn3 
	BYTE	W16
	BYTE		N04     Fs3 
	BYTE	W04
	BYTE		        Fn3 
	BYTE	W04
// 009   ----------------------------------------
	BYTE		VOL     48*mus_route119_mvl/mxv
	BYTE		PAN     c_v+63
	BYTE		N08     Cs3   v084
	BYTE	W08
	BYTE		        En3 
	BYTE	W08
	BYTE		        Cs3   v048
	BYTE	W08
	BYTE		        En3   v052
	BYTE	W08
	BYTE		        Cs3   v056
	BYTE	W08
	BYTE		        En3   v060
	BYTE	W08
	BYTE		        Cs3   v064
	BYTE	W08
	BYTE		        En3   v068
	BYTE	W08
	BYTE		        Cs3 
	BYTE	W08
	BYTE		        En3   v072
	BYTE	W08
	BYTE		        Dn3   v076
	BYTE	W08
	BYTE		        Bn2   v080
	BYTE	W08
mus_route119_6_B1:
// 010   ----------------------------------------
	BYTE		VOICE   80
	BYTE		VOL     48*mus_route119_mvl/mxv
	BYTE		PAN     c_v+63
	BYTE		N08     An2   v084
	BYTE	W08
	BYTE		        Dn3 
	BYTE	W08
	BYTE		        An2   v052
	BYTE	W08
	BYTE		        Dn3   v056
	BYTE	W08
	BYTE		        An2 
	BYTE	W08
	BYTE		        Dn3   v060
	BYTE	W08
	BYTE		        An2   v064
	BYTE	W08
	BYTE		        Dn3   v068
	BYTE	W08
	BYTE		        An2   v072
	BYTE	W08
	BYTE		        Dn3   v076
	BYTE	W08
	BYTE		        Cs3 
	BYTE	W08
	BYTE		        Bn2   v080
	BYTE	W08
// 011   ----------------------------------------
	BYTE		        An2   v084
	BYTE	W08
	BYTE		        Dn3 
	BYTE	W08
	BYTE		        An2   v048
	BYTE	W08
	BYTE		        Dn3   v052
	BYTE	W08
	BYTE		        An2   v056
	BYTE	W08
	BYTE		        Dn3   v060
	BYTE	W08
	BYTE		        An2   v064
	BYTE	W08
	BYTE		        Dn3   v068
	BYTE	W08
	BYTE		        An2   v072
	BYTE	W08
	BYTE		        Dn3   v076
	BYTE	W08
	BYTE		        Cs3   v080
	BYTE	W08
	BYTE		        Bn2   v084
	BYTE	W08
// 012   ----------------------------------------
	BYTE		        An2 
	BYTE	W08
	BYTE		        En3 
	BYTE	W08
	BYTE		        An2   v048
	BYTE	W08
	BYTE		        En3   v052
	BYTE	W08
	BYTE		        An2   v056
	BYTE	W08
	BYTE		        En3   v060
	BYTE	W08
	BYTE		        An2   v064
	BYTE	W08
	BYTE		        En3   v068
	BYTE	W08
	BYTE		        An2 
	BYTE	W08
	BYTE		        En3   v072
	BYTE	W08
	BYTE		        Dn3   v076
	BYTE	W08
	BYTE		        Bn2   v080
	BYTE	W08
// 013   ----------------------------------------
	BYTE		        Fs2   v084
	BYTE	W08
	BYTE		        Cs3 
	BYTE	W08
	BYTE		        Fs2   v048
	BYTE	W08
	BYTE		        Cs3   v052
	BYTE	W08
	BYTE		        Fs2   v056
	BYTE	W08
	BYTE		        Cs3   v060
	BYTE	W08
	BYTE		        Fs2   v064
	BYTE	W08
	BYTE		        Cs3   v068
	BYTE	W08
	BYTE		        Fs2 
	BYTE	W08
	BYTE		        Cs3   v072
	BYTE	W08
	BYTE		        Bn2   v076
	BYTE	W08
	BYTE		        An2   v080
	BYTE	W08
// 014   ----------------------------------------
	BYTE		        Gs2   v084
	BYTE	W08
	BYTE		        En3 
	BYTE	W08
	BYTE		        Gs2   v048
	BYTE	W08
	BYTE		        En3   v052
	BYTE	W08
	BYTE		        Gs2   v056
	BYTE	W08
	BYTE		        En3   v060
	BYTE	W08
	BYTE		        Gs2   v064
	BYTE	W08
	BYTE		        En3   v068
	BYTE	W08
	BYTE		        Gs2   v072
	BYTE	W08
	BYTE		        En3 
	BYTE	W08
	BYTE		        Dn3   v076
	BYTE	W08
	BYTE		        Bn2   v084
	BYTE	W08
// 015   ----------------------------------------
	BYTE		        Fs2 
	BYTE	W08
	BYTE		        Dn3 
	BYTE	W08
	BYTE		        Fs2   v048
	BYTE	W08
	BYTE		        Dn3   v052
	BYTE	W08
	BYTE		        Fs2   v056
	BYTE	W08
	BYTE		        Dn3   v060
	BYTE	W08
	BYTE		        Fs2   v064
	BYTE	W08
	BYTE		        Dn3   v068
	BYTE	W08
	BYTE		        Fs2   v072
	BYTE	W08
	BYTE		        Dn3 
	BYTE	W08
	BYTE		        Cs3   v076
	BYTE	W08
	BYTE		        Dn3   v080
	BYTE	W08
// 016   ----------------------------------------
	BYTE		        Gs2   v084
	BYTE	W08
	BYTE		        En3 
	BYTE	W08
	BYTE		        Gs2   v048
	BYTE	W08
	BYTE		        En3   v052
	BYTE	W08
	BYTE		        Gs2   v056
	BYTE	W08
	BYTE		        En3   v060
	BYTE	W08
	BYTE		        Bn2   v064
	BYTE	W08
	BYTE		        Gs3   v068
	BYTE	W08
	BYTE		        Bn2 
	BYTE	W08
	BYTE		        Gs3   v072
	BYTE	W08
	BYTE		        Fs3   v076
	BYTE	W08
	BYTE		        En3   v080
	BYTE	W08
// 017   ----------------------------------------
	BYTE		VOICE   87
	BYTE		VOL     32*mus_route119_mvl/mxv
	BYTE		PAN     c_v-63
	BYTE		N72     Dn4   v120
	BYTE	W08
	BYTE		VOL     36*mus_route119_mvl/mxv
	BYTE	W04
	BYTE		        40*mus_route119_mvl/mxv
	BYTE	W04
	BYTE		        42*mus_route119_mvl/mxv
	BYTE	W04
	BYTE		        45*mus_route119_mvl/mxv
	BYTE	W04
	BYTE		        48*mus_route119_mvl/mxv
	BYTE		MOD     8
	BYTE	W04
	BYTE		VOL     49*mus_route119_mvl/mxv
	BYTE	W04
	BYTE		        53*mus_route119_mvl/mxv
	BYTE	W04
	BYTE		        57*mus_route119_mvl/mxv
	BYTE	W04
	BYTE		        61*mus_route119_mvl/mxv
	BYTE	W04
	BYTE		        64*mus_route119_mvl/mxv
	BYTE	W04
	BYTE		        68*mus_route119_mvl/mxv
	BYTE	W04
	BYTE		        73*mus_route119_mvl/mxv
	BYTE	W04
	BYTE		        75*mus_route119_mvl/mxv
	BYTE	W04
	BYTE		        77*mus_route119_mvl/mxv
	BYTE	W04
	BYTE		        80*mus_route119_mvl/mxv
	BYTE	W04
	BYTE		        85*mus_route119_mvl/mxv
	BYTE	W04
	BYTE		        48*mus_route119_mvl/mxv
	BYTE		PAN     c_v+63
	BYTE		MOD     0
	BYTE		N08     En4 
	BYTE	W08
	BYTE		        Dn4 
	BYTE	W08
	BYTE		        Bn3 
	BYTE	W08
// 018   ----------------------------------------
	BYTE		VOL     18*mus_route119_mvl/mxv
	BYTE		N48     Dn4 
	BYTE	W04
	BYTE		VOL     22*mus_route119_mvl/mxv
	BYTE	W04
	BYTE		        27*mus_route119_mvl/mxv
	BYTE	W04
	BYTE		        31*mus_route119_mvl/mxv
	BYTE	W04
	BYTE		        32*mus_route119_mvl/mxv
	BYTE	W04
	BYTE		        36*mus_route119_mvl/mxv
	BYTE	W04
	BYTE		        40*mus_route119_mvl/mxv
	BYTE		MOD     6
	BYTE	W04
	BYTE		VOL     45*mus_route119_mvl/mxv
	BYTE	W04
	BYTE		        52*mus_route119_mvl/mxv
	BYTE	W04
	BYTE		        61*mus_route119_mvl/mxv
	BYTE	W04
	BYTE		        65*mus_route119_mvl/mxv
	BYTE	W04
	BYTE		        73*mus_route119_mvl/mxv
	BYTE	W04
	BYTE		        48*mus_route119_mvl/mxv
	BYTE		MOD     0
	BYTE		N24     Fs4 
	BYTE	W12
	BYTE		MOD     6
	BYTE	W12
	BYTE		        0
	BYTE		N24     En4 
	BYTE	W12
	BYTE		MOD     6
	BYTE	W12
// 019   ----------------------------------------
	BYTE		VOL     32*mus_route119_mvl/mxv
	BYTE		PAN     c_v+63
	BYTE		MOD     0
	BYTE		N72     Dn4 
	BYTE	W04
	BYTE		VOL     34*mus_route119_mvl/mxv
	BYTE	W04
	BYTE		        36*mus_route119_mvl/mxv
	BYTE	W04
	BYTE		        38*mus_route119_mvl/mxv
	BYTE	W04
	BYTE		        40*mus_route119_mvl/mxv
	BYTE	W04
	BYTE		        42*mus_route119_mvl/mxv
	BYTE	W04
	BYTE		        48*mus_route119_mvl/mxv
	BYTE		MOD     8
	BYTE	W04
	BYTE		VOL     49*mus_route119_mvl/mxv
	BYTE	W04
	BYTE		        55*mus_route119_mvl/mxv
	BYTE	W04
	BYTE		        60*mus_route119_mvl/mxv
	BYTE	W04
	BYTE		        64*mus_route119_mvl/mxv
	BYTE	W04
	BYTE		        65*mus_route119_mvl/mxv
	BYTE	W04
	BYTE		        69*mus_route119_mvl/mxv
	BYTE	W04
	BYTE		        73*mus_route119_mvl/mxv
	BYTE	W04
	BYTE		        77*mus_route119_mvl/mxv
	BYTE	W04
	BYTE		        80*mus_route119_mvl/mxv
	BYTE	W04
	BYTE		        81*mus_route119_mvl/mxv
	BYTE	W04
	BYTE		        85*mus_route119_mvl/mxv
	BYTE	W04
	BYTE		        48*mus_route119_mvl/mxv
	BYTE		PAN     c_v-63
	BYTE		MOD     0
	BYTE		N08     En4 
	BYTE	W08
	BYTE		        Dn4 
	BYTE	W08
	BYTE		        Bn3 
	BYTE	W08
// 020   ----------------------------------------
	BYTE		VOL     32*mus_route119_mvl/mxv
	BYTE		N48     Cs4 
	BYTE	W04
	BYTE		VOL     36*mus_route119_mvl/mxv
	BYTE	W04
	BYTE		        40*mus_route119_mvl/mxv
	BYTE	W04
	BYTE		        40*mus_route119_mvl/mxv
	BYTE	W04
	BYTE		        44*mus_route119_mvl/mxv
	BYTE	W04
	BYTE		        49*mus_route119_mvl/mxv
	BYTE	W04
	BYTE		        53*mus_route119_mvl/mxv
	BYTE		MOD     6
	BYTE	W04
	BYTE		VOL     60*mus_route119_mvl/mxv
	BYTE	W04
	BYTE		        64*mus_route119_mvl/mxv
	BYTE	W04
	BYTE		        68*mus_route119_mvl/mxv
	BYTE	W04
	BYTE		        76*mus_route119_mvl/mxv
	BYTE	W04
	BYTE		        81*mus_route119_mvl/mxv
	BYTE	W04
	BYTE		        48*mus_route119_mvl/mxv
	BYTE		MOD     0
	BYTE		N24     En4 
	BYTE	W12
	BYTE		MOD     6
	BYTE	W12
	BYTE		        0
	BYTE		N24     Dn4 
	BYTE	W12
	BYTE		MOD     6
	BYTE	W12
// 021   ----------------------------------------
	BYTE		VOICE   80
	BYTE		PAN     c_v+63
	BYTE		MOD     0
	BYTE		VOL     43*mus_route119_mvl/mxv
	BYTE		N16     Cs3   v112
	BYTE	W16
	BYTE		N02     Cn3 
	BYTE	W08
	BYTE		N04     Cs3 
	BYTE	W16
	BYTE		N02   
	BYTE	W08
	BYTE		N02   
	BYTE	W08
	BYTE		N16   
	BYTE	W16
	BYTE		N04   
	BYTE	W16
	BYTE		N02   
	BYTE	W08
// 022   ----------------------------------------
	BYTE		N16     Bn2 
	BYTE	W16
	BYTE		N02     As2 
	BYTE	W08
	BYTE		N04     Bn2 
	BYTE	W16
	BYTE		N02   
	BYTE	W16
	BYTE		N16   
	BYTE	W16
	BYTE		N04   
	BYTE	W16
	BYTE		N02   
	BYTE	W08
// 023   ----------------------------------------
	BYTE		        An2 
	BYTE	W08
	BYTE		        Gs2 
	BYTE	W16
	BYTE		N04     An2 
	BYTE	W16
	BYTE		N04   
	BYTE	W16
	BYTE		N04   
	BYTE	W08
	BYTE		N08     Fs2 
	BYTE	W08
	BYTE		N16     Gs2 
	BYTE	W16
	BYTE		N08     An2 
	BYTE	W08
// 024   ----------------------------------------
	BYTE		N16     Bn2 
	BYTE	W16
	BYTE		N02     Gs2 
	BYTE	W08
	BYTE		N04     Bn2 
	BYTE	W16
	BYTE		N02   
	BYTE	W08
	BYTE		N16     Cn3 
	BYTE	W16
	BYTE		N02     An2 
	BYTE	W08
	BYTE		N04     Cn3 
	BYTE	W16
	BYTE		N02   
	BYTE	W08
// 025   ----------------------------------------
	BYTE		N16     Cs3 
	BYTE	W16
	BYTE		N02     As2 
	BYTE	W08
	BYTE		N04     Cs3 
	BYTE	W08
	BYTE		        Cn3 
	BYTE	W08
	BYTE		N02     Cs3 
	BYTE	W08
	BYTE		N16     Dn3 
	BYTE	W16
	BYTE		N02     Bn2 
	BYTE	W08
	BYTE		N04     Dn3 
	BYTE	W08
	BYTE		        En3 
	BYTE	W08
	BYTE		N02     Fs3 
	BYTE	W08
// 026   ----------------------------------------
	BYTE		VOICE   85
	BYTE		PAN     c_v+0
	BYTE		VOL     94*mus_route119_mvl/mxv
	BYTE		N96     En1 
	BYTE	W24
	BYTE		MOD     8
	BYTE	W72
// 027   ----------------------------------------
	BYTE		        0
	BYTE		PAN     c_v+63
	BYTE		VOL     48*mus_route119_mvl/mxv
	BYTE		N32     Gs3 
	BYTE	W32
	BYTE		N02     Cn3 
	BYTE	W08
	BYTE		N02   
	BYTE	W08
	BYTE		N02   
	BYTE	W16
	BYTE		N24     Gs3 
	BYTE	W24
	BYTE		N04     Ds3 
	BYTE	W08
// 028   ----------------------------------------
	BYTE		N24     Cn4 
	BYTE	W32
	BYTE		N02     Ds3 
	BYTE	W08
	BYTE		N02   
	BYTE	W08
	BYTE		N02   
	BYTE	W16
	BYTE		N24     Cn4 
	BYTE	W24
	BYTE		N04     Ds3 
	BYTE	W08
// 029   ----------------------------------------
	BYTE		N32     Cs4 
	BYTE	W40
	BYTE		N04     Fn3 
	BYTE	W08
	BYTE		N20   
	BYTE	W48
// 030   ----------------------------------------
	BYTE		PAN     c_v+0
	BYTE		VOL     48*mus_route119_mvl/mxv
	BYTE	W96
// 031   ----------------------------------------
	BYTE	W96
// 032   ----------------------------------------
	BYTE	W96
// 033   ----------------------------------------
	BYTE		PAN     c_v+63
	BYTE		N32     En3 
	BYTE	W32
	BYTE		N02     An2 
	BYTE	W08
	BYTE		N02   
	BYTE	W08
	BYTE		N02   
	BYTE	W16
	BYTE		N24     En3 
	BYTE	W24
	BYTE		N04     Fs3 
	BYTE	W08
// 034   ----------------------------------------
	BYTE		N24     Gn3 
	BYTE	W24
	BYTE		        Fs3 
	BYTE	W24
	BYTE		        En3 
	BYTE	W24
	BYTE		        Gn3 
	BYTE	W24
// 035   ----------------------------------------
	BYTE		N32     Fs3 
	BYTE	W40
	BYTE		N04     Dn3 
	BYTE	W08
	BYTE		N48   
	BYTE	W48
// 036   ----------------------------------------
	BYTE		        Bn3 
	BYTE	W48
	BYTE		        Cn4 
	BYTE	W48
// 037   ----------------------------------------
	BYTE		N36     Cs4 
	BYTE	W40
	BYTE		N02     Fn3 
	BYTE	W08
	BYTE		N02   
	BYTE	W08
	BYTE		N02   
	BYTE	W04
	BYTE		N02   
	BYTE	W04
	BYTE		N24     Cs4 
	BYTE	W24
	BYTE		N08     Bn3 
	BYTE	W08
// 038   ----------------------------------------
	BYTE		N24     Cn4 
	BYTE	W24
	BYTE		        Bn3 
	BYTE	W24
	BYTE		        An3 
	BYTE	W24
	BYTE		        En3 
	BYTE	W24
// 039   ----------------------------------------
	BYTE	W96
// 040   ----------------------------------------
	BYTE		VOL     48*mus_route119_mvl/mxv
	BYTE		PAN     c_v+63
	BYTE		N08     An2   v084
	BYTE	W08
	BYTE		        Dn3 
	BYTE	W08
	BYTE		        An2   v052
	BYTE	W08
	BYTE		        Dn3   v056
	BYTE	W08
	BYTE		        An2 
	BYTE	W08
	BYTE		        Dn3   v060
	BYTE	W08
	BYTE		        Bn2   v064
	BYTE	W08
	BYTE		        En3   v068
	BYTE	W08
	BYTE		        Bn2   v072
	BYTE	W08
	BYTE		        En3   v076
	BYTE	W08
	BYTE		        Dn3 
	BYTE	W08
	BYTE		        Bn2   v080
	BYTE	W08
// 041   ----------------------------------------
	BYTE		        Cs3   v084
	BYTE	W08
	BYTE		        En3 
	BYTE	W08
	BYTE		        Cs3   v048
	BYTE	W08
	BYTE		        En3   v052
	BYTE	W08
	BYTE		        Cs3   v056
	BYTE	W08
	BYTE		        En3   v060
	BYTE	W08
	BYTE		        Cs3   v064
	BYTE	W08
	BYTE		        En3   v068
	BYTE	W08
	BYTE		        Cs3 
	BYTE	W08
	BYTE		        En3   v072
	BYTE	W08
	BYTE		        Dn3   v076
	BYTE	W08
	BYTE		        Bn2   v080
	BYTE	W08
	BYTE	GoTo
	 POIN2	mus_route119_6_B1
mus_route119_6_B2:
// 042   ----------------------------------------
	BYTE	FINE

//**************** Track 7 (Midi-Chn.7) ****************//

mus_route119_7:
	BYTE	KEYSH   mus_route119_key+0
// 000   ----------------------------------------
	BYTE		VOICE   0
	BYTE		VOL     112*mus_route119_mvl/mxv
	BYTE		PAN     c_v+0
	BYTE		VOL     94*mus_route119_mvl/mxv
	BYTE	W48
// 001   ----------------------------------------
	BYTE		N24     An2   v092
	BYTE	W24
	BYTE		N04     En1   v088
	BYTE	W04
	BYTE		        En1   v044
	BYTE	W04
	BYTE		N04   
	BYTE	W04
	BYTE		N04   
	BYTE	W04
	BYTE		N04   
	BYTE	W04
	BYTE		N08   
	BYTE	W20
	BYTE		N04     En1   v127
	BYTE	W08
	BYTE		        En1   v088
	BYTE	W04
	BYTE		        En1   v044
	BYTE	W04
	BYTE		N04   
	BYTE	W04
	BYTE		N04   
	BYTE	W04
	BYTE		N04   
	BYTE	W04
	BYTE		N04   
	BYTE	W04
// 002   ----------------------------------------
mus_route119_7_002:
	BYTE		N04     En1   v112
	BYTE	W16
	BYTE		N04   
	BYTE	W08
	BYTE		N04   
	BYTE	W08
	BYTE		N04   
	BYTE	W08
	BYTE		N04   
	BYTE	W08
	BYTE		N04   
	BYTE	W08
	BYTE		N04   
	BYTE	W08
	BYTE		N04   
	BYTE	W08
	BYTE		N04   
	BYTE	W16
	BYTE		N04   
	BYTE	W08
	BYTE	PEND
// 003   ----------------------------------------
	BYTE		N04   
	BYTE	W16
	BYTE		        En1   v127
	BYTE	W08
	BYTE		        En1   v088
	BYTE	W04
	BYTE		        En1   v044
	BYTE	W04
	BYTE		N04   
	BYTE	W04
	BYTE		N04   
	BYTE	W04
	BYTE		N04   
	BYTE	W04
	BYTE		N04   
	BYTE	W52
// 004   ----------------------------------------
	BYTE		N32     An2   v096
	BYTE	W32
	BYTE		N16     An2   v064
	BYTE	W16
	BYTE		N48     An2   v088
	BYTE	W48
// 005   ----------------------------------------
	BYTE		N24     An2   v084
	BYTE	W24
	BYTE		N04     En1   v088
	BYTE	W04
	BYTE		        En1   v044
	BYTE	W04
	BYTE		N04   
	BYTE	W04
	BYTE		N04   
	BYTE	W04
	BYTE		N04   
	BYTE	W04
	BYTE		N04   
	BYTE	W20
	BYTE		N24     An2   v092
	BYTE	W28
	BYTE		N04     En1   v044
	BYTE	W04
// 006   ----------------------------------------
mus_route119_7_006:
	BYTE		N04     En1   v112
	BYTE	W16
	BYTE		N04   
	BYTE	W08
	BYTE		N04   
	BYTE	W08
	BYTE		N16     An2   v084
	BYTE	W16
	BYTE		N40     An2   v096
	BYTE	W40
	BYTE		N04     En1   v112
	BYTE	W08
	BYTE	PEND
// 007   ----------------------------------------
	BYTE		N40     An2   v088
	BYTE	W96
// 008   ----------------------------------------
	BYTE		N48     An2   v112
	BYTE	W48
	BYTE		N24     An2   v080
	BYTE	W48
// 009   ----------------------------------------
	BYTE	W96
mus_route119_7_B1:
// 010   ----------------------------------------
	BYTE	W96
// 011   ----------------------------------------
	BYTE	W96
// 012   ----------------------------------------
	BYTE	W96
// 013   ----------------------------------------
	BYTE	W96
// 014   ----------------------------------------
	BYTE	W96
// 015   ----------------------------------------
mus_route119_7_015:
	BYTE		N04     En1   v112
	BYTE	W08
	BYTE		N04   
	BYTE	W16
	BYTE		N04   
	BYTE	W16
	BYTE		N04   
	BYTE	W16
	BYTE		N04   
	BYTE	W08
	BYTE		N04   
	BYTE	W08
	BYTE		N04   
	BYTE	W08
	BYTE		N04   
	BYTE	W08
	BYTE		N04   
	BYTE	W08
	BYTE	PEND
// 016   ----------------------------------------
	BYTE		N04   
	BYTE	W16
	BYTE		N04   
	BYTE	W08
	BYTE		N04   
	BYTE	W08
	BYTE		N04   
	BYTE	W08
	BYTE		N04   
	BYTE	W08
	BYTE		N04   
	BYTE	W16
	BYTE		N04   
	BYTE	W08
	BYTE		        En1   v108
	BYTE	W04
	BYTE		        En1   v084
	BYTE	W04
	BYTE		N04   
	BYTE	W04
	BYTE		N04   
	BYTE	W04
	BYTE		N04   
	BYTE	W04
	BYTE		N04   
	BYTE	W04
// 017   ----------------------------------------
	BYTE	PATT
	 POIN2	mus_route119_7_015
// 018   ----------------------------------------
mus_route119_7_018:
	BYTE		N04     En1   v112
	BYTE	W16
	BYTE		N04   
	BYTE	W24
	BYTE		N04   
	BYTE	W08
	BYTE		N04   
	BYTE	W16
	BYTE		N04   
	BYTE	W24
	BYTE		        En1   v084
	BYTE	W04
	BYTE		N04   
	BYTE	W04
	BYTE	PEND
// 019   ----------------------------------------
	BYTE	PATT
	 POIN2	mus_route119_7_015
// 020   ----------------------------------------
	BYTE	PATT
	 POIN2	mus_route119_7_018
// 021   ----------------------------------------
	BYTE		N04     En1   v112
	BYTE	W16
	BYTE		N04   
	BYTE	W08
	BYTE		        En1   v108
	BYTE	W04
	BYTE		        En1   v084
	BYTE	W04
	BYTE		N04   
	BYTE	W04
	BYTE		N04   
	BYTE	W04
	BYTE		N04   
	BYTE	W04
	BYTE		N04   
	BYTE	W04
	BYTE		        En1   v112
	BYTE	W08
	BYTE		N04   
	BYTE	W08
	BYTE		N04   
	BYTE	W08
	BYTE		N04   
	BYTE	W16
	BYTE		N04   
	BYTE	W08
// 022   ----------------------------------------
	BYTE		N04   
	BYTE	W16
	BYTE		N04   
	BYTE	W08
	BYTE		        En1   v108
	BYTE	W04
	BYTE		        En1   v084
	BYTE	W04
	BYTE		N04   
	BYTE	W04
	BYTE		N04   
	BYTE	W04
	BYTE		N04   
	BYTE	W04
	BYTE		N04   
	BYTE	W04
	BYTE		        En1   v112
	BYTE	W16
	BYTE		N04   
	BYTE	W08
	BYTE		        En1   v108
	BYTE	W04
	BYTE		        En1   v084
	BYTE	W04
	BYTE		N04   
	BYTE	W04
	BYTE		N04   
	BYTE	W04
	BYTE		N04   
	BYTE	W04
	BYTE		N04   
	BYTE	W04
// 023   ----------------------------------------
	BYTE	PATT
	 POIN2	mus_route119_7_015
// 024   ----------------------------------------
	BYTE	W96
// 025   ----------------------------------------
	BYTE	W96
// 026   ----------------------------------------
	BYTE	W96
// 027   ----------------------------------------
	BYTE		N24     An2   v092
	BYTE	W24
	BYTE		N04     En1   v088
	BYTE	W04
	BYTE		        En1   v044
	BYTE	W04
	BYTE		N04   
	BYTE	W04
	BYTE		N04   
	BYTE	W04
	BYTE		N04   
	BYTE	W04
	BYTE		N08   
	BYTE	W20
	BYTE		N04     En1   v127
	BYTE	W08
	BYTE		        En1   v088
	BYTE	W04
	BYTE		N08     En1   v044
	BYTE	W08
	BYTE		N04   
	BYTE	W04
	BYTE		N04   
	BYTE	W04
	BYTE		N04   
	BYTE	W04
// 028   ----------------------------------------
	BYTE	PATT
	 POIN2	mus_route119_7_002
// 029   ----------------------------------------
	BYTE		N04     En1   v112
	BYTE	W16
	BYTE		        En1   v127
	BYTE	W08
	BYTE		        En1   v088
	BYTE	W04
	BYTE		        En1   v044
	BYTE	W04
	BYTE		N04   
	BYTE	W04
	BYTE		N04   
	BYTE	W04
	BYTE		N04   
	BYTE	W04
	BYTE		N08   
	BYTE	W20
	BYTE		N04     En1   v127
	BYTE	W32
// 030   ----------------------------------------
	BYTE		N32     An2   v092
	BYTE	W32
	BYTE		N16     An2   v072
	BYTE	W16
	BYTE		N48     An2   v096
	BYTE	W48
// 031   ----------------------------------------
	BYTE		N24     An2   v092
	BYTE	W24
	BYTE		N04     En1   v088
	BYTE	W04
	BYTE		        En1   v044
	BYTE	W04
	BYTE		N04   
	BYTE	W04
	BYTE		N04   
	BYTE	W04
	BYTE		N04   
	BYTE	W04
	BYTE		N04   
	BYTE	W04
	BYTE		        En1   v112
	BYTE	W16
	BYTE		N04   
	BYTE	W08
	BYTE		N04   
	BYTE	W20
	BYTE		        En1   v044
	BYTE	W04
// 032   ----------------------------------------
	BYTE		        En1   v112
	BYTE	W16
	BYTE		N04   
	BYTE	W08
	BYTE		N04   
	BYTE	W04
	BYTE		        En1   v044
	BYTE	W04
	BYTE		N04   
	BYTE	W04
	BYTE		N04   
	BYTE	W04
	BYTE		N04   
	BYTE	W04
	BYTE		N04   
	BYTE	W04
	BYTE		        En1   v112
	BYTE	W08
	BYTE		N04   
	BYTE	W08
	BYTE		N04   
	BYTE	W08
	BYTE		N04   
	BYTE	W16
	BYTE		N04   
	BYTE	W08
// 033   ----------------------------------------
	BYTE	W96
// 034   ----------------------------------------
	BYTE	W96
// 035   ----------------------------------------
	BYTE	W96
// 036   ----------------------------------------
	BYTE		N32     An2   v064
	BYTE	W32
	BYTE		N16     An2   v096
	BYTE	W16
	BYTE		N32     An2   v064
	BYTE	W32
	BYTE		N16     An2   v096
	BYTE	W16
// 037   ----------------------------------------
	BYTE		N24     An2   v112
	BYTE	W24
	BYTE		N04     En1   v088
	BYTE	W04
	BYTE		        En1   v044
	BYTE	W04
	BYTE		N04   
	BYTE	W04
	BYTE		N04   
	BYTE	W04
	BYTE		N04   
	BYTE	W04
	BYTE		N08   
	BYTE	W20
	BYTE		N28     An2   v092
	BYTE	W28
	BYTE		N04     En1   v044
	BYTE	W04
// 038   ----------------------------------------
	BYTE	PATT
	 POIN2	mus_route119_7_006
// 039   ----------------------------------------
	BYTE		N40     An2   v088
	BYTE	W96
// 040   ----------------------------------------
	BYTE	W96
// 041   ----------------------------------------
	BYTE	W96
	BYTE	GoTo
	 POIN2	mus_route119_7_B1
mus_route119_7_B2:
// 042   ----------------------------------------
	BYTE	FINE

//**************** Track 8 (Midi-Chn.8) ****************//

mus_route119_8:
	BYTE	KEYSH   mus_route119_key+0
// 000   ----------------------------------------
	BYTE		VOICE   84
	BYTE		LFOS    44
	BYTE		XCMD    xIECV   21
	BYTE		        xIECV   16
	BYTE		BENDR   12
	BYTE		PAN     c_v+0
	BYTE		XCMD    xIECV   12
	BYTE		        xIECL   8
	BYTE		VOL     80*mus_route119_mvl/mxv
	BYTE	W24
	BYTE		N16     En1   v112
	BYTE	W16
	BYTE		N08     Gs1 
	BYTE	W08
// 001   ----------------------------------------
mus_route119_8_001:
	BYTE		N24     An1   v112
	BYTE	W64
	BYTE		N32   
	BYTE	W32
	BYTE	PEND
// 002   ----------------------------------------
mus_route119_8_002:
	BYTE		N24     Gn1   v112
	BYTE	W64
	BYTE		N32   
	BYTE	W32
	BYTE	PEND
// 003   ----------------------------------------
	BYTE		N24     Fs1 
	BYTE	W72
	BYTE		N24   
	BYTE	W24
// 004   ----------------------------------------
	BYTE		        Fn1 
	BYTE	W32
	BYTE		N08   
	BYTE	W08
	BYTE		        Fs1 
	BYTE	W08
	BYTE		N24     Gn1 
	BYTE	W32
	BYTE		N08   
	BYTE	W08
	BYTE		        Gs1 
	BYTE	W08
// 005   ----------------------------------------
	BYTE	PATT
	 POIN2	mus_route119_8_001
// 006   ----------------------------------------
	BYTE	PATT
	 POIN2	mus_route119_8_002
// 007   ----------------------------------------
	BYTE		N24     Fs1   v112
	BYTE	W64
	BYTE		N32   
	BYTE	W32
// 008   ----------------------------------------
mus_route119_8_008:
	BYTE		N04     Fn1   v112
	BYTE	W08
	BYTE		N04   
	BYTE	W08
	BYTE		N04   
	BYTE	W08
	BYTE		N12   
	BYTE	W16
	BYTE		N04   
	BYTE	W08
	BYTE		N08     Gn1 
	BYTE	W32
	BYTE		N08   
	BYTE	W16
	BYTE	PEND
// 009   ----------------------------------------
mus_route119_8_009:
	BYTE		N08     Dn2   v112
	BYTE	W16
	BYTE		N04   
	BYTE	W08
	BYTE		N08     Dn3 
	BYTE	W16
	BYTE		N04     Dn2 
	BYTE	W08
	BYTE		N08   
	BYTE	W16
	BYTE		N04   
	BYTE	W08
	BYTE		        Dn3 
	BYTE	W08
	BYTE		N16     Dn2 
	BYTE	W16
	BYTE	PEND
mus_route119_8_B1:
// 010   ----------------------------------------
	BYTE		VOICE   84
	BYTE		VOL     80*mus_route119_mvl/mxv
	BYTE		N08     Dn2   v112
	BYTE	W16
	BYTE		N04   
	BYTE	W08
	BYTE		N08     Dn3 
	BYTE	W16
	BYTE		N04     Dn2 
	BYTE	W08
	BYTE		N08   
	BYTE	W08
	BYTE		N04     Dn3 
	BYTE	W08
	BYTE		        Dn2 
	BYTE	W08
	BYTE		        Dn3 
	BYTE	W08
	BYTE		N16     Dn2 
	BYTE	W16
// 011   ----------------------------------------
	BYTE		N08     Bn1 
	BYTE	W16
	BYTE		N04   
	BYTE	W08
	BYTE		N08     Bn2 
	BYTE	W16
	BYTE		N04     Bn1 
	BYTE	W08
	BYTE		N08   
	BYTE	W16
	BYTE		N04   
	BYTE	W08
	BYTE		        Bn2 
	BYTE	W08
	BYTE		N16     Bn1 
	BYTE	W16
// 012   ----------------------------------------
	BYTE		N08     An1 
	BYTE	W16
	BYTE		N04   
	BYTE	W08
	BYTE		N08     An2 
	BYTE	W16
	BYTE		N04     An1 
	BYTE	W08
	BYTE		N08   
	BYTE	W16
	BYTE		N04   
	BYTE	W08
	BYTE		        An2 
	BYTE	W08
	BYTE		N16     An1 
	BYTE	W16
// 013   ----------------------------------------
	BYTE		N08     Fs1 
	BYTE	W16
	BYTE		N04   
	BYTE	W08
	BYTE		N08     Fs2 
	BYTE	W16
	BYTE		N04     Fs1 
	BYTE	W08
	BYTE		N08   
	BYTE	W16
	BYTE		N04   
	BYTE	W08
	BYTE		        Fs2 
	BYTE	W08
	BYTE		N16     Fs1 
	BYTE	W16
// 014   ----------------------------------------
	BYTE		N08     En1 
	BYTE	W16
	BYTE		N04   
	BYTE	W08
	BYTE		N08     En2 
	BYTE	W16
	BYTE		N04     En1 
	BYTE	W08
	BYTE		N08   
	BYTE	W08
	BYTE		N04     En2 
	BYTE	W08
	BYTE		        En1 
	BYTE	W08
	BYTE		        En2 
	BYTE	W08
	BYTE		N16     En1 
	BYTE	W16
// 015   ----------------------------------------
	BYTE		N08     Dn2 
	BYTE	W16
	BYTE		N04   
	BYTE	W08
	BYTE		N08     Dn3 
	BYTE	W16
	BYTE		N04   
	BYTE	W08
	BYTE		N08     Dn2 
	BYTE	W16
	BYTE		N04   
	BYTE	W08
	BYTE		        Dn3 
	BYTE	W08
	BYTE		N16     Dn2 
	BYTE	W16
// 016   ----------------------------------------
	BYTE		N08     En2 
	BYTE	W08
	BYTE		N04     En3 
	BYTE	W08
	BYTE		N08     En2 
	BYTE	W08
	BYTE		N04     En3 
	BYTE	W08
	BYTE		N08     En2 
	BYTE	W16
	BYTE		N08   
	BYTE	W16
	BYTE		N04   
	BYTE	W08
	BYTE		        En3 
	BYTE	W08
	BYTE		        Dn3 
	BYTE	W08
	BYTE		N08     En2 
	BYTE	W08
// 017   ----------------------------------------
	BYTE		N04     Dn3 
	BYTE	W08
	BYTE		N08     Dn2 
	BYTE	W16
	BYTE		N08   
	BYTE	W24
	BYTE		N04     Dn3 
	BYTE	W08
	BYTE		N08     Dn2 
	BYTE	W16
	BYTE		N08   
	BYTE	W16
	BYTE		N04   
	BYTE	W08
// 018   ----------------------------------------
	BYTE		N08   
	BYTE	W16
	BYTE		N04   
	BYTE	W08
	BYTE		        Dn3 
	BYTE	W08
	BYTE		        Dn2 
	BYTE	W08
	BYTE		N04   
	BYTE	W08
	BYTE		        Dn3 
	BYTE	W08
	BYTE		N12     Dn2 
	BYTE	W16
	BYTE		N08   
	BYTE	W16
	BYTE		N04   
	BYTE	W08
// 019   ----------------------------------------
	BYTE		        Bn2 
	BYTE	W08
	BYTE		N08     Bn1 
	BYTE	W16
	BYTE		N08   
	BYTE	W16
	BYTE		N04   
	BYTE	W08
	BYTE		        Bn2 
	BYTE	W08
	BYTE		N08     Bn1 
	BYTE	W16
	BYTE		N08   
	BYTE	W16
	BYTE		N04     Bn2 
	BYTE	W08
// 020   ----------------------------------------
	BYTE		N08     An1 
	BYTE	W16
	BYTE		N04   
	BYTE	W08
	BYTE		        An2 
	BYTE	W08
	BYTE		N12     An1 
	BYTE	W16
	BYTE		N04     An2 
	BYTE	W08
	BYTE		N12     An1 
	BYTE	W16
	BYTE		N04   
	BYTE	W16
	BYTE		N04   
	BYTE	W08
// 021   ----------------------------------------
	BYTE		N08     Fs1 
	BYTE	W16
	BYTE		N04   
	BYTE	W08
	BYTE		        Fs2 
	BYTE	W16
	BYTE		        Fs1 
	BYTE	W08
	BYTE		        Fs2 
	BYTE	W08
	BYTE		N08     Fs1 
	BYTE	W16
	BYTE		N08   
	BYTE	W16
	BYTE		N04   
	BYTE	W08
// 022   ----------------------------------------
	BYTE		N08     En1 
	BYTE	W16
	BYTE		N04   
	BYTE	W08
	BYTE		        En2 
	BYTE	W16
	BYTE		        En1 
	BYTE	W08
	BYTE		N08   
	BYTE	W16
	BYTE		N04   
	BYTE	W08
	BYTE		        En2 
	BYTE	W08
	BYTE		N16     En1 
	BYTE	W16
// 023   ----------------------------------------
	BYTE	PATT
	 POIN2	mus_route119_8_009
// 024   ----------------------------------------
	BYTE		N08     En2   v112
	BYTE	W08
	BYTE		N04     En3 
	BYTE	W08
	BYTE		N08     En2 
	BYTE	W08
	BYTE		N04     En3 
	BYTE	W08
	BYTE		N08     En2 
	BYTE	W16
	BYTE		        Fn2 
	BYTE	W16
	BYTE		N04   
	BYTE	W08
	BYTE		        Fn3 
	BYTE	W08
	BYTE		        Ds3 
	BYTE	W08
	BYTE		N08     Fn2 
	BYTE	W08
// 025   ----------------------------------------
	BYTE		N04     Fs2 
	BYTE	W08
	BYTE		N04   
	BYTE	W16
	BYTE		        Fs3 
	BYTE	W08
	BYTE		        En3 
	BYTE	W08
	BYTE		        Fs2 
	BYTE	W08
	BYTE		        Gn2 
	BYTE	W08
	BYTE		N04   
	BYTE	W16
	BYTE		        Gn3 
	BYTE	W08
	BYTE		        Fn3 
	BYTE	W08
	BYTE		        Gn2 
	BYTE	W04
	BYTE		        En1 
	BYTE	W04
// 026   ----------------------------------------
	BYTE		N96     Bn2 
	BYTE	W96
// 027   ----------------------------------------
	BYTE		N24     Gs1 
	BYTE	W64
	BYTE		N24   
	BYTE	W24
	BYTE		N08     Gn1 
	BYTE	W08
// 028   ----------------------------------------
	BYTE		N24     Fs1 
	BYTE	W64
	BYTE		N24   
	BYTE	W24
	BYTE		N08     Cn2 
	BYTE	W08
// 029   ----------------------------------------
	BYTE		N24     Cs2 
	BYTE	W96
// 030   ----------------------------------------
	BYTE	W96
// 031   ----------------------------------------
	BYTE	W96
// 032   ----------------------------------------
	BYTE	W96
// 033   ----------------------------------------
	BYTE	W96
// 034   ----------------------------------------
	BYTE	W96
// 035   ----------------------------------------
	BYTE	W96
// 036   ----------------------------------------
	BYTE		N04     Bn2 
	BYTE	W08
	BYTE		N04   
	BYTE	W08
	BYTE		N04   
	BYTE	W32
	BYTE		        Cn3 
	BYTE	W08
	BYTE		N04   
	BYTE	W08
	BYTE		N04   
	BYTE	W08
	BYTE		N24     Cn2 
	BYTE	W24
// 037   ----------------------------------------
	BYTE		        Cs2 
	BYTE	W64
	BYTE		N24   
	BYTE	W32
// 038   ----------------------------------------
	BYTE		        Gn1 
	BYTE	W64
	BYTE		N24   
	BYTE	W24
	BYTE		N08     Fs1 
	BYTE	W08
// 039   ----------------------------------------
	BYTE		N24   
	BYTE	W96
// 040   ----------------------------------------
	BYTE	PATT
	 POIN2	mus_route119_8_008
// 041   ----------------------------------------
	BYTE	PATT
	 POIN2	mus_route119_8_009
	BYTE	GoTo
	 POIN2	mus_route119_8_B1
mus_route119_8_B2:
// 042   ----------------------------------------
	BYTE	FINE

//**************** Track 9 (Midi-Chn.9) ****************//

mus_route119_9:
	BYTE	KEYSH   mus_route119_key+0
// 000   ----------------------------------------
	BYTE		VOICE   48
	BYTE		LFOS    44
	BYTE		BENDR   12
	BYTE		VOL     120*mus_route119_mvl/mxv
	BYTE		PAN     c_v+0
	BYTE	W40
	BYTE		N04     En1   v127
	BYTE	W04
	BYTE		N04   
	BYTE	W04
// 001   ----------------------------------------
	BYTE		VOICE   47
	BYTE		N12     An1 
	BYTE	W32
	BYTE		N04     En2 
	BYTE	W08
	BYTE		N04   
	BYTE	W08
	BYTE		N04   
	BYTE	W16
	BYTE		N24     An1 
	BYTE	W32
// 002   ----------------------------------------
mus_route119_9_002:
	BYTE		N16     Gn1   v127
	BYTE	W32
	BYTE		N08     En2 
	BYTE	W16
	BYTE		N08   
	BYTE	W16
	BYTE		N24     Gn1 
	BYTE	W32
	BYTE	PEND
// 003   ----------------------------------------
	BYTE		N12     Fs1 
	BYTE	W40
	BYTE		N08     Fs2 
	BYTE	W08
	BYTE		N08   
	BYTE	W16
	BYTE		        Fs1 
	BYTE	W08
	BYTE		N04     An1   v064
	BYTE	W04
	BYTE		        An1   v072
	BYTE	W04
	BYTE		        An1   v084
	BYTE	W04
	BYTE		        An1   v092
	BYTE	W04
	BYTE		        An2   v100
	BYTE	W04
	BYTE		        An2   v127
	BYTE	W04
// 004   ----------------------------------------
	BYTE		N16     Fn2 
	BYTE	W32
	BYTE		N08   
	BYTE	W08
	BYTE		N04     Cn3   v112
	BYTE	W04
	BYTE		N04   
	BYTE	W04
	BYTE		N16     Gn2   v127
	BYTE	W32
	BYTE		N16   
	BYTE	W16
// 005   ----------------------------------------
	BYTE		N08     An1 
	BYTE	W08
	BYTE		N04     En2 
	BYTE	W08
	BYTE		N04   
	BYTE	W08
	BYTE		N04   
	BYTE	W16
	BYTE		N04   
	BYTE	W08
	BYTE		N04   
	BYTE	W08
	BYTE		N04   
	BYTE	W04
	BYTE		N04   
	BYTE	W04
	BYTE		N32     An1 
	BYTE	W32
// 006   ----------------------------------------
	BYTE	PATT
	 POIN2	mus_route119_9_002
// 007   ----------------------------------------
	BYTE		N16     Fs1   v127
	BYTE	W40
	BYTE		N04     Fs2 
	BYTE	W08
	BYTE		N04   
	BYTE	W16
	BYTE		N08     Fs1 
	BYTE	W08
	BYTE		N04     An1   v064
	BYTE	W04
	BYTE		        An1   v072
	BYTE	W04
	BYTE		        An1   v084
	BYTE	W04
	BYTE		        An1   v092
	BYTE	W04
	BYTE		        An2   v127
	BYTE	W04
	BYTE		N04   
	BYTE	W04
// 008   ----------------------------------------
mus_route119_9_008:
	BYTE		N04     Fn2   v127
	BYTE	W08
	BYTE		N04   
	BYTE	W08
	BYTE		N04   
	BYTE	W08
	BYTE		N12     An1 
	BYTE	W16
	BYTE		N04   
	BYTE	W08
	BYTE		        Gn2 
	BYTE	W08
	BYTE		N04   
	BYTE	W08
	BYTE		N04   
	BYTE	W08
	BYTE		N08     Bn1 
	BYTE	W16
	BYTE		N08   
	BYTE	W08
	BYTE	PEND
// 009   ----------------------------------------
	BYTE		N64     Dn1   v064
	BYTE	W96
mus_route119_9_B1:
// 010   ----------------------------------------
	BYTE	W96
// 011   ----------------------------------------
	BYTE	W96
// 012   ----------------------------------------
	BYTE	W96
// 013   ----------------------------------------
	BYTE	W96
// 014   ----------------------------------------
	BYTE	W96
// 015   ----------------------------------------
	BYTE	W96
// 016   ----------------------------------------
	BYTE	W96
// 017   ----------------------------------------
	BYTE	W24
	BYTE		N04     En2   v088
	BYTE	W08
	BYTE		N04   
	BYTE	W04
	BYTE		N04   
	BYTE	W04
	BYTE		N04   
	BYTE	W08
	BYTE		N24     An1 
	BYTE	W48
// 018   ----------------------------------------
mus_route119_9_018:
	BYTE	W24
	BYTE		N16     An2   v088
	BYTE	W48
	BYTE		N16   
	BYTE	W24
	BYTE	PEND
// 019   ----------------------------------------
	BYTE	W24
	BYTE		N04     Fs2 
	BYTE	W08
	BYTE		N04   
	BYTE	W04
	BYTE		N04   
	BYTE	W04
	BYTE		N04   
	BYTE	W08
	BYTE		N24     Bn1 
	BYTE	W48
// 020   ----------------------------------------
	BYTE	PATT
	 POIN2	mus_route119_9_018
// 021   ----------------------------------------
	BYTE	W96
// 022   ----------------------------------------
	BYTE	W96
// 023   ----------------------------------------
	BYTE	W96
// 024   ----------------------------------------
	BYTE	W08
	BYTE		N16     En2   v127
	BYTE	W16
	BYTE		N24     En1 
	BYTE	W32
	BYTE		N16     Fn2 
	BYTE	W16
	BYTE		N24     Fn1 
	BYTE	W24
// 025   ----------------------------------------
	BYTE		        Fs1 
	BYTE	W40
	BYTE		N04   
	BYTE	W08
	BYTE		N24     Gn1 
	BYTE	W40
	BYTE		N04     Fn3 
	BYTE	W04
	BYTE		N04   
	BYTE	W04
// 026   ----------------------------------------
	BYTE		N96     En2 
	BYTE	W96
// 027   ----------------------------------------
	BYTE		N12     Gs1 
	BYTE	W32
	BYTE		N04     Ds2 
	BYTE	W08
	BYTE		N04   
	BYTE	W08
	BYTE		N04   
	BYTE	W16
	BYTE		N32     Gs1 
	BYTE	W32
// 028   ----------------------------------------
	BYTE		N16     Fs1 
	BYTE	W32
	BYTE		N08     Ds2 
	BYTE	W16
	BYTE		N08   
	BYTE	W16
	BYTE		N32     Fs1 
	BYTE	W32
// 029   ----------------------------------------
	BYTE		N12     Cs2 
	BYTE	W40
	BYTE		N04     Gs2 
	BYTE	W08
	BYTE		N20   
	BYTE	W48
// 030   ----------------------------------------
	BYTE	W96
// 031   ----------------------------------------
	BYTE	W96
// 032   ----------------------------------------
	BYTE	W96
// 033   ----------------------------------------
	BYTE		N12     An1 
	BYTE	W32
	BYTE		N16     En2 
	BYTE	W16
	BYTE		N08   
	BYTE	W16
	BYTE		N32     An1 
	BYTE	W32
// 034   ----------------------------------------
	BYTE		N16     Gn1 
	BYTE	W32
	BYTE		N04     En2 
	BYTE	W08
	BYTE		N04   
	BYTE	W08
	BYTE		N04   
	BYTE	W16
	BYTE		N32     Gn1 
	BYTE	W32
// 035   ----------------------------------------
	BYTE		N12     Fs1 
	BYTE	W40
	BYTE		N08     Fs2 
	BYTE	W08
	BYTE		N08   
	BYTE	W16
	BYTE		        Fs1 
	BYTE	W08
	BYTE		N04     An1   v072
	BYTE	W04
	BYTE		        An1   v080
	BYTE	W04
	BYTE		        An1   v092
	BYTE	W04
	BYTE		        An1   v104
	BYTE	W04
	BYTE		        An2   v116
	BYTE	W04
	BYTE		        An2   v127
	BYTE	W04
// 036   ----------------------------------------
	BYTE		        Bn2 
	BYTE	W08
	BYTE		N04   
	BYTE	W08
	BYTE		N04   
	BYTE	W08
	BYTE		N24     Bn1 
	BYTE	W24
	BYTE		N04     Cn3 
	BYTE	W08
	BYTE		N04   
	BYTE	W08
	BYTE		N04   
	BYTE	W08
	BYTE		N24     Cn2 
	BYTE	W24
// 037   ----------------------------------------
	BYTE		N36     Cs2 
	BYTE	W40
	BYTE		N04     Gs2 
	BYTE	W08
	BYTE		N04   
	BYTE	W08
	BYTE		N04   
	BYTE	W04
	BYTE		N04   
	BYTE	W04
	BYTE		N32     Cs2 
	BYTE	W32
// 038   ----------------------------------------
	BYTE		N16     Gn1 
	BYTE	W32
	BYTE		N08     En2 
	BYTE	W16
	BYTE		N08   
	BYTE	W16
	BYTE		N32     Gn1 
	BYTE	W32
// 039   ----------------------------------------
	BYTE		N16     Fs1 
	BYTE	W40
	BYTE		N04     Fs2 
	BYTE	W08
	BYTE		N04   
	BYTE	W16
	BYTE		N32     Fs1 
	BYTE	W24
	BYTE		N04     An2 
	BYTE	W04
	BYTE		N04   
	BYTE	W04
// 040   ----------------------------------------
	BYTE	PATT
	 POIN2	mus_route119_9_008
// 041   ----------------------------------------
	BYTE		N64     Dn1   v064
	BYTE	W96
	BYTE	GoTo
	 POIN2	mus_route119_9_B1
mus_route119_9_B2:
// 042   ----------------------------------------
	BYTE	FINE

//******************************************************//
	ALIGN 4

mus_route119:
	BYTE	9	// NumTrks
	BYTE	0	// NumBlks
	BYTE	mus_route119_pri	// Priority
	BYTE	mus_route119_rev	// Reverb.

	POIN2	mus_route119_grp

	POIN2	mus_route119_1
	POIN2	mus_route119_2
	POIN2	mus_route119_3
	POIN2	mus_route119_4
	POIN2	mus_route119_5
	POIN2	mus_route119_6
	POIN2	mus_route119_7
	POIN2	mus_route119_8
	POIN2	mus_route119_9

	
