//Event file generated from Sappy .s format.
	#include "MPlayDef.event"

	#define	mus_b_pyramid_grp  voicegroup106
	#define	mus_b_pyramid_pri  0
	#define	mus_b_pyramid_rev  reverb_set+50
	#define	mus_b_pyramid_mvl  79
	#define	mus_b_pyramid_key  0
	#define	mus_b_pyramid_tbs  1
	#define	mus_b_pyramid_exg  1
	#define	mus_b_pyramid_cmp  1

	// .rodata
	//	mus_b_pyramid
	ALIGN 4

//**************** Track 1 (Midi-Chn.1) ****************//

mus_b_pyramid_1:
	BYTE	KEYSH   mus_b_pyramid_key+0
// 000   ----------------------------------------
	BYTE	TEMPO   106*mus_b_pyramid_tbs/2
	BYTE		VOICE   46
	BYTE		LFOS    44
	BYTE		PAN     c_v+4
	BYTE		LFOS    44
	BYTE		BENDR   12
	BYTE		VOL     63*mus_b_pyramid_mvl/mxv
	BYTE	W24
// 001   ----------------------------------------
	BYTE	W96
// 002   ----------------------------------------
	BYTE	W48
	BYTE		N03     Fn4   v112
	BYTE	W03
	BYTE		        Fs4 
	BYTE	W03
	BYTE		        An4 
	BYTE	W03
	BYTE		        Cn5 
	BYTE	W03
	BYTE		        Ds5 
	BYTE	W03
	BYTE		        Fn5 
	BYTE	W03
	BYTE		        Fs5 
	BYTE	W03
	BYTE		        An5 
	BYTE	W03
	BYTE		        Fn5 
	BYTE	W03
	BYTE		        Ds5 
	BYTE	W03
	BYTE		        Cs5 
	BYTE	W03
	BYTE		        Bn4 
	BYTE	W03
	BYTE		        An4 
	BYTE	W03
	BYTE		        Gn4 
	BYTE	W03
	BYTE		        Fn4 
	BYTE	W03
	BYTE		        Ds4 
	BYTE	W03
// 003   ----------------------------------------
	BYTE	W96
// 004   ----------------------------------------
	BYTE		VOL     89*mus_b_pyramid_mvl/mxv
	BYTE		N03     An3   v084
	BYTE	W03
	BYTE		        Cn4 
	BYTE	W03
	BYTE		        Ds4 
	BYTE	W03
	BYTE		        Fn4 
	BYTE	W03
	BYTE		        Fs4 
	BYTE	W03
	BYTE		        An4 
	BYTE	W03
	BYTE		        Cn5 
	BYTE	W03
	BYTE		        Ds5 
	BYTE	W03
	BYTE		        Fn5 
	BYTE	W03
	BYTE		        Ds5 
	BYTE	W03
	BYTE		        Cn5 
	BYTE	W03
	BYTE		        An4 
	BYTE	W03
	BYTE		        Fs4 
	BYTE	W03
	BYTE		        Fn4 
	BYTE	W03
	BYTE		        Ds4 
	BYTE	W03
	BYTE		        Cn4 
	BYTE	W03
	BYTE		        Ds5 
	BYTE	W03
	BYTE		        Cn5 
	BYTE	W03
	BYTE		        An4 
	BYTE	W03
	BYTE		        Fs4 
	BYTE	W03
	BYTE		        Fn4 
	BYTE	W03
	BYTE		        Ds4 
	BYTE	W03
	BYTE		        Cn4 
	BYTE	W03
	BYTE		        An3 
	BYTE	W03
	BYTE		        Cn5 
	BYTE	W03
	BYTE		        An4 
	BYTE	W03
	BYTE		        Fs4 
	BYTE	W03
	BYTE		        Fn4 
	BYTE	W03
	BYTE		        Ds4 
	BYTE	W03
	BYTE		        Cn4 
	BYTE	W03
	BYTE		        An3 
	BYTE	W03
	BYTE		        Fs3 
	BYTE	W03
// 005   ----------------------------------------
mus_b_pyramid_1_005:
	BYTE		N03     Ds3   v084
	BYTE	W03
	BYTE		        Cn3 
	BYTE	W03
	BYTE		        Ds3 
	BYTE	W03
	BYTE		        Fn3 
	BYTE	W03
	BYTE		        Fs3 
	BYTE	W03
	BYTE		        An3 
	BYTE	W03
	BYTE		        Cn4 
	BYTE	W03
	BYTE		        Ds4 
	BYTE	W03
	BYTE		        Fn4 
	BYTE	W03
	BYTE		        Fs4 
	BYTE	W03
	BYTE		        An4 
	BYTE	W03
	BYTE		        Cn5 
	BYTE	W03
	BYTE		        An4 
	BYTE	W03
	BYTE		        Fs4 
	BYTE	W03
	BYTE		        Fn4 
	BYTE	W03
	BYTE		        Ds4 
	BYTE	W03
	BYTE		        Cn4 
	BYTE	W03
	BYTE		        An3 
	BYTE	W03
	BYTE		        Fs3 
	BYTE	W03
	BYTE		        Fn3 
	BYTE	W03
	BYTE		        Ds5   v112
	BYTE	W03
	BYTE		        Cn5 
	BYTE	W03
	BYTE		        An4 
	BYTE	W03
	BYTE		        Fs4 
	BYTE	W03
	BYTE		        Fn4 
	BYTE	W03
	BYTE		        Ds4 
	BYTE	W03
	BYTE		        Cn4 
	BYTE	W03
	BYTE		        An3 
	BYTE	W03
	BYTE		        Fs3 
	BYTE	W03
	BYTE		        Fn3 
	BYTE	W03
	BYTE		        Ds3 
	BYTE	W03
	BYTE		        Cn3 
	BYTE	W03
	BYTE	PEND
mus_b_pyramid_1_B1:
// 006   ----------------------------------------
	BYTE	W96
// 007   ----------------------------------------
	BYTE	W96
// 008   ----------------------------------------
	BYTE	W96
// 009   ----------------------------------------
	BYTE	W96
// 010   ----------------------------------------
	BYTE	W96
// 011   ----------------------------------------
	BYTE	W96
// 012   ----------------------------------------
	BYTE	W96
// 013   ----------------------------------------
	BYTE	W96
// 014   ----------------------------------------
	BYTE	W96
// 015   ----------------------------------------
	BYTE	W96
// 016   ----------------------------------------
	BYTE	W96
// 017   ----------------------------------------
	BYTE	W96
// 018   ----------------------------------------
	BYTE	W96
// 019   ----------------------------------------
	BYTE	W96
// 020   ----------------------------------------
	BYTE	W96
// 021   ----------------------------------------
	BYTE	W96
// 022   ----------------------------------------
	BYTE	W96
// 023   ----------------------------------------
	BYTE	W96
// 024   ----------------------------------------
	BYTE	W96
// 025   ----------------------------------------
	BYTE	W96
// 026   ----------------------------------------
	BYTE	W96
// 027   ----------------------------------------
	BYTE	W96
// 028   ----------------------------------------
	BYTE	W96
// 029   ----------------------------------------
	BYTE	W96
// 030   ----------------------------------------
	BYTE	W96
// 031   ----------------------------------------
	BYTE		VOL     54*mus_b_pyramid_mvl/mxv
	BYTE		N03     An4   v084
	BYTE	W03
	BYTE		        Cn5 
	BYTE	W03
	BYTE		        Ds5 
	BYTE	W03
	BYTE		        Fn5 
	BYTE	W03
	BYTE		        Fs5 
	BYTE	W03
	BYTE		        An5 
	BYTE	W03
	BYTE		        Cn6 
	BYTE	W03
	BYTE		        Ds6 
	BYTE	W03
	BYTE		        Fn6 
	BYTE	W03
	BYTE		        Ds6 
	BYTE	W03
	BYTE		        Cn6 
	BYTE	W03
	BYTE		        An5 
	BYTE	W03
	BYTE		        Fs5 
	BYTE	W03
	BYTE		        Fn5 
	BYTE	W03
	BYTE		        Ds5 
	BYTE	W03
	BYTE		        Cn5 
	BYTE	W03
	BYTE		        Ds6 
	BYTE	W03
	BYTE		        Cn6 
	BYTE	W03
	BYTE		        An5 
	BYTE	W03
	BYTE		        Fs5 
	BYTE	W03
	BYTE		        Fn5 
	BYTE	W03
	BYTE		        Ds5 
	BYTE	W03
	BYTE		        Cn5 
	BYTE	W03
	BYTE		        An4 
	BYTE	W03
	BYTE		        Cn6 
	BYTE	W03
	BYTE		        An5 
	BYTE	W03
	BYTE		        Fs5 
	BYTE	W03
	BYTE		        Fn5 
	BYTE	W03
	BYTE		        Ds5 
	BYTE	W03
	BYTE		        Cn5 
	BYTE	W03
	BYTE		        An4 
	BYTE	W03
	BYTE		        Fs4 
	BYTE	W03
// 032   ----------------------------------------
	BYTE		        Ds4 
	BYTE	W03
	BYTE		        Cn4 
	BYTE	W03
	BYTE		        Ds4 
	BYTE	W03
	BYTE		        Fn4 
	BYTE	W03
	BYTE		        Fs4 
	BYTE	W03
	BYTE		        An4 
	BYTE	W03
	BYTE		        Cn5 
	BYTE	W03
	BYTE		        Ds5 
	BYTE	W03
	BYTE		        Fn5 
	BYTE	W03
	BYTE		        Fs5 
	BYTE	W03
	BYTE		        An5 
	BYTE	W03
	BYTE		        Cn6 
	BYTE	W03
	BYTE		        An5 
	BYTE	W03
	BYTE		        Fs5 
	BYTE	W03
	BYTE		        Fn5 
	BYTE	W03
	BYTE		        Ds5 
	BYTE	W03
	BYTE		        Cn5 
	BYTE	W03
	BYTE		        An4 
	BYTE	W03
	BYTE		        Fs4 
	BYTE	W03
	BYTE		        Fn4 
	BYTE	W03
	BYTE		        Ds6   v112
	BYTE	W03
	BYTE		        Cn6 
	BYTE	W03
	BYTE		        An5 
	BYTE	W03
	BYTE		        Fs5 
	BYTE	W03
	BYTE		        Fn5 
	BYTE	W03
	BYTE		        Ds5 
	BYTE	W03
	BYTE		        Cn5 
	BYTE	W03
	BYTE		        An4 
	BYTE	W03
	BYTE		        Fs4 
	BYTE	W03
	BYTE		        Fn4 
	BYTE	W03
	BYTE		        Ds4 
	BYTE	W03
	BYTE		        Cn4 
	BYTE	W03
// 033   ----------------------------------------
	BYTE		VOL     81*mus_b_pyramid_mvl/mxv
	BYTE		N03     An3   v084
	BYTE	W03
	BYTE		        Cn4 
	BYTE	W03
	BYTE		        Ds4 
	BYTE	W03
	BYTE		        Fn4 
	BYTE	W03
	BYTE		        Fs4 
	BYTE	W03
	BYTE		        An4 
	BYTE	W03
	BYTE		        Cn5 
	BYTE	W03
	BYTE		        Ds5 
	BYTE	W03
	BYTE		        Fn5 
	BYTE	W03
	BYTE		        Ds5 
	BYTE	W03
	BYTE		        Cn5 
	BYTE	W03
	BYTE		        An4 
	BYTE	W03
	BYTE		        Fs4 
	BYTE	W03
	BYTE		        Fn4 
	BYTE	W03
	BYTE		        Ds4 
	BYTE	W03
	BYTE		        Cn4 
	BYTE	W03
	BYTE		        Ds5 
	BYTE	W03
	BYTE		        Cn5 
	BYTE	W03
	BYTE		        An4 
	BYTE	W03
	BYTE		        Fs4 
	BYTE	W03
	BYTE		        Fn4 
	BYTE	W03
	BYTE		        Ds4 
	BYTE	W03
	BYTE		        Cn4 
	BYTE	W03
	BYTE		        An3 
	BYTE	W03
	BYTE		        Cn5 
	BYTE	W03
	BYTE		        An4 
	BYTE	W03
	BYTE		        Fs4 
	BYTE	W03
	BYTE		        Fn4 
	BYTE	W03
	BYTE		        Ds4 
	BYTE	W03
	BYTE		        Cn4 
	BYTE	W03
	BYTE		        An3 
	BYTE	W03
	BYTE		        Fs3 
	BYTE	W03
// 034   ----------------------------------------
	BYTE	PATT
	 POIN2	mus_b_pyramid_1_005
	BYTE	GoTo
	 POIN2	mus_b_pyramid_1_B1
mus_b_pyramid_1_B2:
// 035   ----------------------------------------
	BYTE	FINE

//**************** Track 2 (Midi-Chn.2) ****************//

mus_b_pyramid_2:
	BYTE	KEYSH   mus_b_pyramid_key+0
// 000   ----------------------------------------
	BYTE		VOICE   48
	BYTE		LFOS    44
	BYTE		BENDR   12
	BYTE		PAN     c_v-32
	BYTE		VOL     68*mus_b_pyramid_mvl/mxv
	BYTE		N06     Cn3   v112
	BYTE	W06
	BYTE		N06   
	BYTE	W06
	BYTE		N12     As2 
	BYTE	W12
// 001   ----------------------------------------
	BYTE		N24     Fs2 
	BYTE	W24
	BYTE		N06     Cn3 
	BYTE	W12
	BYTE		N48     Fs3 
	BYTE	W48
	BYTE		N06     Ds3 
	BYTE	W06
	BYTE		        Bn2 
	BYTE	W06
// 002   ----------------------------------------
	BYTE		N48     As2 
	BYTE	W48
	BYTE		N24     Bn2 
	BYTE	W24
	BYTE		        Cn3 
	BYTE	W24
// 003   ----------------------------------------
	BYTE		N03     Fn4 
	BYTE	W06
	BYTE		N03   
	BYTE	W18
	BYTE		N03   
	BYTE	W06
	BYTE		N03   
	BYTE	W30
	BYTE		VOL     34*mus_b_pyramid_mvl/mxv
	BYTE		N12     Fn3 
	BYTE	W03
	BYTE		VOL     47*mus_b_pyramid_mvl/mxv
	BYTE	W03
	BYTE		        63*mus_b_pyramid_mvl/mxv
	BYTE	W02
	BYTE		        65*mus_b_pyramid_mvl/mxv
	BYTE	W01
	BYTE		        74*mus_b_pyramid_mvl/mxv
	BYTE	W03
	BYTE		        68*mus_b_pyramid_mvl/mxv
	BYTE		N24     Fn4 
	BYTE	W03
	BYTE		VOL     36*mus_b_pyramid_mvl/mxv
	BYTE	W01
	BYTE		        39*mus_b_pyramid_mvl/mxv
	BYTE	W02
	BYTE		        46*mus_b_pyramid_mvl/mxv
	BYTE	W01
	BYTE		        49*mus_b_pyramid_mvl/mxv
	BYTE	W01
	BYTE		        57*mus_b_pyramid_mvl/mxv
	BYTE	W01
	BYTE		        68*mus_b_pyramid_mvl/mxv
	BYTE	W01
	BYTE		        73*mus_b_pyramid_mvl/mxv
	BYTE	W02
	BYTE		        79*mus_b_pyramid_mvl/mxv
	BYTE	W01
	BYTE		        86*mus_b_pyramid_mvl/mxv
	BYTE	W01
	BYTE		        91*mus_b_pyramid_mvl/mxv
	BYTE	W01
	BYTE		        95*mus_b_pyramid_mvl/mxv
	BYTE	W01
	BYTE		        103*mus_b_pyramid_mvl/mxv
	BYTE	W02
	BYTE		        111*mus_b_pyramid_mvl/mxv
	BYTE	W01
	BYTE		        113*mus_b_pyramid_mvl/mxv
	BYTE	W05
// 004   ----------------------------------------
	BYTE		        68*mus_b_pyramid_mvl/mxv
	BYTE		PAN     c_v-32
	BYTE	W96
// 005   ----------------------------------------
	BYTE	W96
mus_b_pyramid_2_B1:
// 006   ----------------------------------------
	BYTE		VOL     54*mus_b_pyramid_mvl/mxv
	BYTE		PAN     c_v-32
	BYTE		N24     Cn3   v112
	BYTE	W12
	BYTE		VOL     34*mus_b_pyramid_mvl/mxv
	BYTE	W12
	BYTE		        54*mus_b_pyramid_mvl/mxv
	BYTE		N24     Ds3 
	BYTE	W12
	BYTE		VOL     34*mus_b_pyramid_mvl/mxv
	BYTE	W12
	BYTE		        54*mus_b_pyramid_mvl/mxv
	BYTE		N24     Fn3 
	BYTE	W12
	BYTE		VOL     34*mus_b_pyramid_mvl/mxv
	BYTE	W12
	BYTE		        54*mus_b_pyramid_mvl/mxv
	BYTE		N24     Fs3 
	BYTE	W12
	BYTE		VOL     34*mus_b_pyramid_mvl/mxv
	BYTE	W12
// 007   ----------------------------------------
	BYTE		N12     Fn3 
	BYTE	W12
	BYTE		VOL     54*mus_b_pyramid_mvl/mxv
	BYTE		N24     An3 
	BYTE	W12
	BYTE		VOL     34*mus_b_pyramid_mvl/mxv
	BYTE	W12
	BYTE		        54*mus_b_pyramid_mvl/mxv
	BYTE		N03     Fs3 
	BYTE	W03
	BYTE		        An3 
	BYTE	W03
	BYTE		N06     Fs3 
	BYTE	W06
	BYTE		N12     Fn3 
	BYTE	W12
	BYTE		N03     Ds3 
	BYTE	W03
	BYTE		        Fn3 
	BYTE	W03
	BYTE		N06     Ds3 
	BYTE	W06
	BYTE		N12     Cs3 
	BYTE	W12
	BYTE		        Cn3 
	BYTE	W12
// 008   ----------------------------------------
	BYTE		        An2 
	BYTE	W12
	BYTE		N36     Fn3 
	BYTE	W12
	BYTE		VOL     39*mus_b_pyramid_mvl/mxv
	BYTE	W24
	BYTE		        54*mus_b_pyramid_mvl/mxv
	BYTE		N12     Cn3 
	BYTE	W12
	BYTE		N24     An3 
	BYTE	W12
	BYTE		VOL     37*mus_b_pyramid_mvl/mxv
	BYTE	W12
	BYTE		        54*mus_b_pyramid_mvl/mxv
	BYTE		N03     En3 
	BYTE	W03
	BYTE		        Fs3 
	BYTE	W03
	BYTE		N06     En3 
	BYTE	W06
// 009   ----------------------------------------
	BYTE		N12     Fn3 
	BYTE	W12
	BYTE		N32     Cn4 
	BYTE	W12
	BYTE		VOL     37*mus_b_pyramid_mvl/mxv
	BYTE	W24
	BYTE		        54*mus_b_pyramid_mvl/mxv
	BYTE		N12     Ds4 
	BYTE	W12
	BYTE		N03     Cs4 
	BYTE	W03
	BYTE		        Ds4 
	BYTE	W03
	BYTE		N06     Cs4 
	BYTE	W06
	BYTE		        Cn4 
	BYTE	W06
	BYTE		        An3 
	BYTE	W06
	BYTE		        Fs3 
	BYTE	W06
	BYTE		        Ds3 
	BYTE	W06
// 010   ----------------------------------------
mus_b_pyramid_2_010:
	BYTE		VOL     54*mus_b_pyramid_mvl/mxv
	BYTE		N24     Cn3   v112
	BYTE	W12
	BYTE		VOL     34*mus_b_pyramid_mvl/mxv
	BYTE	W12
	BYTE		        54*mus_b_pyramid_mvl/mxv
	BYTE		N24     Ds3 
	BYTE	W12
	BYTE		VOL     34*mus_b_pyramid_mvl/mxv
	BYTE	W12
	BYTE		        54*mus_b_pyramid_mvl/mxv
	BYTE		N24     Fn3 
	BYTE	W12
	BYTE		VOL     34*mus_b_pyramid_mvl/mxv
	BYTE	W12
	BYTE		        54*mus_b_pyramid_mvl/mxv
	BYTE		N24     Fs3 
	BYTE	W12
	BYTE		VOL     34*mus_b_pyramid_mvl/mxv
	BYTE	W12
	BYTE	PEND
// 011   ----------------------------------------
	BYTE		        54*mus_b_pyramid_mvl/mxv
	BYTE		N24     An3 
	BYTE	W12
	BYTE		VOL     34*mus_b_pyramid_mvl/mxv
	BYTE	W12
	BYTE		        54*mus_b_pyramid_mvl/mxv
	BYTE		N24     Fs3 
	BYTE	W12
	BYTE		VOL     34*mus_b_pyramid_mvl/mxv
	BYTE	W12
	BYTE		        54*mus_b_pyramid_mvl/mxv
	BYTE		N24     Fn3 
	BYTE	W12
	BYTE		VOL     34*mus_b_pyramid_mvl/mxv
	BYTE	W12
	BYTE		        54*mus_b_pyramid_mvl/mxv
	BYTE		N24     Ds3 
	BYTE	W12
	BYTE		VOL     34*mus_b_pyramid_mvl/mxv
	BYTE	W12
// 012   ----------------------------------------
	BYTE	PATT
	 POIN2	mus_b_pyramid_2_010
// 013   ----------------------------------------
	BYTE		VOL     54*mus_b_pyramid_mvl/mxv
	BYTE		N24     Fn3   v112
	BYTE	W12
	BYTE		VOL     34*mus_b_pyramid_mvl/mxv
	BYTE	W12
	BYTE		        54*mus_b_pyramid_mvl/mxv
	BYTE		N22     Ds3 
	BYTE	W12
	BYTE		VOL     34*mus_b_pyramid_mvl/mxv
	BYTE	W12
	BYTE		        54*mus_b_pyramid_mvl/mxv
	BYTE		N24     Cn3 
	BYTE	W12
	BYTE		VOL     34*mus_b_pyramid_mvl/mxv
	BYTE	W12
	BYTE		        54*mus_b_pyramid_mvl/mxv
	BYTE		N24     An2 
	BYTE	W12
	BYTE		VOL     34*mus_b_pyramid_mvl/mxv
	BYTE	W12
// 014   ----------------------------------------
	BYTE		        21*mus_b_pyramid_mvl/mxv
	BYTE		N96     Gn2   v108
	BYTE	W12
	BYTE		VOL     23*mus_b_pyramid_mvl/mxv
	BYTE	W02
	BYTE		        31*mus_b_pyramid_mvl/mxv
	BYTE	W03
	BYTE		        34*mus_b_pyramid_mvl/mxv
	BYTE	W03
	BYTE		        39*mus_b_pyramid_mvl/mxv
	BYTE	W01
	BYTE		PAN     c_v-46
	BYTE	W02
	BYTE		VOL     42*mus_b_pyramid_mvl/mxv
	BYTE	W03
	BYTE		        47*mus_b_pyramid_mvl/mxv
	BYTE	W03
	BYTE		        50*mus_b_pyramid_mvl/mxv
	BYTE		PAN     c_v-43
	BYTE	W03
	BYTE		VOL     57*mus_b_pyramid_mvl/mxv
	BYTE		PAN     c_v-36
	BYTE	W03
	BYTE		VOL     60*mus_b_pyramid_mvl/mxv
	BYTE		PAN     c_v-33
	BYTE	W03
	BYTE		VOL     63*mus_b_pyramid_mvl/mxv
	BYTE		PAN     c_v-29
	BYTE	W03
	BYTE		VOL     65*mus_b_pyramid_mvl/mxv
	BYTE		PAN     c_v-20
	BYTE	W03
	BYTE		VOL     74*mus_b_pyramid_mvl/mxv
	BYTE		PAN     c_v-13
	BYTE	W03
	BYTE		VOL     79*mus_b_pyramid_mvl/mxv
	BYTE		PAN     c_v-10
	BYTE	W03
	BYTE		VOL     84*mus_b_pyramid_mvl/mxv
	BYTE		PAN     c_v+3
	BYTE	W03
	BYTE		VOL     89*mus_b_pyramid_mvl/mxv
	BYTE		PAN     c_v+10
	BYTE	W03
	BYTE		VOL     95*mus_b_pyramid_mvl/mxv
	BYTE		PAN     c_v+19
	BYTE	W03
	BYTE		VOL     102*mus_b_pyramid_mvl/mxv
	BYTE		PAN     c_v+34
	BYTE	W03
	BYTE		VOL     108*mus_b_pyramid_mvl/mxv
	BYTE		PAN     c_v+41
	BYTE	W03
	BYTE		VOL     119*mus_b_pyramid_mvl/mxv
	BYTE		PAN     c_v+43
	BYTE	W03
	BYTE		VOL     124*mus_b_pyramid_mvl/mxv
	BYTE	W03
	BYTE		        127*mus_b_pyramid_mvl/mxv
	BYTE	W24
	BYTE	W01
// 015   ----------------------------------------
	BYTE		        34*mus_b_pyramid_mvl/mxv
	BYTE		PAN     c_v+50
	BYTE		N48     Cn3   v064
	BYTE	W02
	BYTE		VOL     41*mus_b_pyramid_mvl/mxv
	BYTE	W01
	BYTE		PAN     c_v+44
	BYTE	W02
	BYTE		VOL     46*mus_b_pyramid_mvl/mxv
	BYTE		PAN     c_v+34
	BYTE	W03
	BYTE		VOL     52*mus_b_pyramid_mvl/mxv
	BYTE		PAN     c_v+28
	BYTE	W03
	BYTE		VOL     58*mus_b_pyramid_mvl/mxv
	BYTE		PAN     c_v+25
	BYTE	W03
	BYTE		VOL     66*mus_b_pyramid_mvl/mxv
	BYTE		PAN     c_v+21
	BYTE	W03
	BYTE		VOL     76*mus_b_pyramid_mvl/mxv
	BYTE		PAN     c_v+12
	BYTE	W03
	BYTE		VOL     87*mus_b_pyramid_mvl/mxv
	BYTE		PAN     c_v+4
	BYTE	W03
	BYTE		VOL     92*mus_b_pyramid_mvl/mxv
	BYTE		PAN     c_v-4
	BYTE	W03
	BYTE		VOL     103*mus_b_pyramid_mvl/mxv
	BYTE		PAN     c_v-16
	BYTE	W03
	BYTE		VOL     108*mus_b_pyramid_mvl/mxv
	BYTE		PAN     c_v-26
	BYTE	W03
	BYTE		VOL     119*mus_b_pyramid_mvl/mxv
	BYTE		PAN     c_v-36
	BYTE	W03
	BYTE		VOL     127*mus_b_pyramid_mvl/mxv
	BYTE		PAN     c_v-39
	BYTE	W13
	BYTE		VOL     34*mus_b_pyramid_mvl/mxv
	BYTE		PAN     c_v-37
	BYTE		N48     Fn3 
	BYTE	W02
	BYTE		VOL     41*mus_b_pyramid_mvl/mxv
	BYTE		PAN     c_v-29
	BYTE	W03
	BYTE		VOL     46*mus_b_pyramid_mvl/mxv
	BYTE		PAN     c_v-23
	BYTE	W03
	BYTE		VOL     52*mus_b_pyramid_mvl/mxv
	BYTE		PAN     c_v-10
	BYTE	W03
	BYTE		VOL     58*mus_b_pyramid_mvl/mxv
	BYTE		PAN     c_v-7
	BYTE	W03
	BYTE		VOL     66*mus_b_pyramid_mvl/mxv
	BYTE		PAN     c_v+3
	BYTE	W03
	BYTE		VOL     76*mus_b_pyramid_mvl/mxv
	BYTE		PAN     c_v+12
	BYTE	W03
	BYTE		VOL     87*mus_b_pyramid_mvl/mxv
	BYTE		PAN     c_v+21
	BYTE	W03
	BYTE		VOL     92*mus_b_pyramid_mvl/mxv
	BYTE		PAN     c_v+35
	BYTE	W03
	BYTE		VOL     103*mus_b_pyramid_mvl/mxv
	BYTE		PAN     c_v+47
	BYTE	W03
	BYTE		VOL     108*mus_b_pyramid_mvl/mxv
	BYTE	W03
	BYTE		        119*mus_b_pyramid_mvl/mxv
	BYTE	W03
	BYTE		        127*mus_b_pyramid_mvl/mxv
	BYTE	W13
// 016   ----------------------------------------
	BYTE		VOICE   60
	BYTE		VOL     66*mus_b_pyramid_mvl/mxv
	BYTE		PAN     c_v-32
	BYTE	W48
	BYTE		N06     Ds3   v112
	BYTE	W12
	BYTE		        As2 
	BYTE	W12
	BYTE		N24     As3 
	BYTE	W12
	BYTE		MOD     8
	BYTE		VOL     44*mus_b_pyramid_mvl/mxv
	BYTE	W12
// 017   ----------------------------------------
	BYTE		MOD     0
	BYTE		VOL     65*mus_b_pyramid_mvl/mxv
	BYTE		N06     Gn3 
	BYTE	W12
	BYTE		N36     An3 
	BYTE	W12
	BYTE		MOD     7
	BYTE		VOL     44*mus_b_pyramid_mvl/mxv
	BYTE	W24
	BYTE		VOICE   48
	BYTE		VOL     54*mus_b_pyramid_mvl/mxv
	BYTE		MOD     0
	BYTE		PAN     c_v-40
	BYTE		N06     Cn4 
	BYTE	W06
	BYTE		        Dn4 
	BYTE	W06
	BYTE		PAN     c_v-23
	BYTE		N06     En4 
	BYTE	W06
	BYTE		        Fn4 
	BYTE	W06
	BYTE		PAN     c_v-7
	BYTE		N06     Gn4 
	BYTE	W06
	BYTE		PAN     c_v+0
	BYTE		N06     An4 
	BYTE	W06
	BYTE		PAN     c_v+16
	BYTE		N06     As4 
	BYTE	W06
	BYTE		PAN     c_v+28
	BYTE		N06     Cn5 
	BYTE	W06
// 018   ----------------------------------------
	BYTE		PAN     c_v-32
	BYTE	W96
// 019   ----------------------------------------
	BYTE	W96
// 020   ----------------------------------------
	BYTE	W96
// 021   ----------------------------------------
	BYTE	W96
// 022   ----------------------------------------
	BYTE	W96
// 023   ----------------------------------------
	BYTE	W96
// 024   ----------------------------------------
	BYTE	W96
// 025   ----------------------------------------
	BYTE		VOICE   48
	BYTE		N24     Fn4 
	BYTE	W12
	BYTE		VOL     31*mus_b_pyramid_mvl/mxv
	BYTE	W12
	BYTE		        54*mus_b_pyramid_mvl/mxv
	BYTE		N24     En4 
	BYTE	W12
	BYTE		VOL     31*mus_b_pyramid_mvl/mxv
	BYTE	W12
	BYTE		        54*mus_b_pyramid_mvl/mxv
	BYTE		N24     Cs4 
	BYTE	W12
	BYTE		VOL     31*mus_b_pyramid_mvl/mxv
	BYTE	W12
	BYTE		        54*mus_b_pyramid_mvl/mxv
	BYTE		N24     As3 
	BYTE	W12
	BYTE		VOL     31*mus_b_pyramid_mvl/mxv
	BYTE	W12
// 026   ----------------------------------------
	BYTE		        62*mus_b_pyramid_mvl/mxv
	BYTE		N03     Fn5   v084
	BYTE	W03
	BYTE		        Fn5   v016
	BYTE	W03
	BYTE		        Ds5   v080
	BYTE	W03
	BYTE		        Ds5   v016
	BYTE	W03
	BYTE		        Cn5   v076
	BYTE	W03
	BYTE		        Cn5   v016
	BYTE	W03
	BYTE		        An4   v072
	BYTE	W03
	BYTE		        An4   v016
	BYTE	W03
	BYTE		        Bn4   v068
	BYTE	W03
	BYTE		        Bn4   v016
	BYTE	W03
	BYTE		        An4   v040
	BYTE	W03
	BYTE		        An4   v016
	BYTE	W03
	BYTE		        Fn4   v040
	BYTE	W03
	BYTE		        Fn4   v016
	BYTE	W03
	BYTE		        Ds4   v040
	BYTE	W03
	BYTE		        Ds4   v016
	BYTE	W03
	BYTE		        Fn4   v040
	BYTE	W03
	BYTE		        Fn4   v016
	BYTE	W03
	BYTE		        Bn4   v044
	BYTE	W03
	BYTE		        Bn4   v016
	BYTE	W03
	BYTE		        An4   v044
	BYTE	W03
	BYTE		        An4   v016
	BYTE	W03
	BYTE		        Ds5   v044
	BYTE	W03
	BYTE		        Ds5   v016
	BYTE	W03
	BYTE		        Bn4   v044
	BYTE	W03
	BYTE		        Bn4   v016
	BYTE	W03
	BYTE		        Fn5   v064
	BYTE	W03
	BYTE		        Fn5   v016
	BYTE	W03
	BYTE		        Ds5   v088
	BYTE	W03
	BYTE		        Ds5   v016
	BYTE	W03
	BYTE		        An5   v112
	BYTE	W03
	BYTE		        An5   v016
	BYTE	W03
// 027   ----------------------------------------
	BYTE		        Gs5   v088
	BYTE	W03
	BYTE		        Gs5   v016
	BYTE	W03
	BYTE		        Fn5   v080
	BYTE	W03
	BYTE		        Fn5   v016
	BYTE	W03
	BYTE		        Dn5   v072
	BYTE	W03
	BYTE		        Dn5   v016
	BYTE	W03
	BYTE		        Bn4   v064
	BYTE	W03
	BYTE		        Bn4   v016
	BYTE	W03
	BYTE		        Dn5   v056
	BYTE	W03
	BYTE		        Dn5   v016
	BYTE	W03
	BYTE		        Bn4   v048
	BYTE	W03
	BYTE		        Bn4   v016
	BYTE	W03
	BYTE		        Gs4   v052
	BYTE	W03
	BYTE		        Gs4   v016
	BYTE	W03
	BYTE		        Fn4   v052
	BYTE	W03
	BYTE		        Fn4   v016
	BYTE	W03
	BYTE		        Gs4   v052
	BYTE	W03
	BYTE		        Gs4   v016
	BYTE	W03
	BYTE		        Dn5   v056
	BYTE	W03
	BYTE		        Dn5   v016
	BYTE	W03
	BYTE		        Bn4   v056
	BYTE	W03
	BYTE		        Bn4   v016
	BYTE	W03
	BYTE		        Fn5   v056
	BYTE	W03
	BYTE		        Fn5   v016
	BYTE	W03
	BYTE		        Dn5   v060
	BYTE	W03
	BYTE		        Dn5   v016
	BYTE	W03
	BYTE		        Gs5   v072
	BYTE	W03
	BYTE		        Gs5   v016
	BYTE	W03
	BYTE		        Fn5   v088
	BYTE	W03
	BYTE		        Fn5   v016
	BYTE	W03
	BYTE		        Bn5   v104
	BYTE	W03
	BYTE		        Bn5   v016
	BYTE	W03
// 028   ----------------------------------------
	BYTE		        An5   v088
	BYTE	W03
	BYTE		        An5   v016
	BYTE	W03
	BYTE		        Fs5   v084
	BYTE	W03
	BYTE		        Fs5   v016
	BYTE	W03
	BYTE		        Ds5   v080
	BYTE	W03
	BYTE		        Ds5   v016
	BYTE	W03
	BYTE		        Cn5   v072
	BYTE	W03
	BYTE		        Cn5   v016
	BYTE	W03
	BYTE		        Ds5   v068
	BYTE	W03
	BYTE		        Ds5   v016
	BYTE	W03
	BYTE		        Cn5   v044
	BYTE	W03
	BYTE		        Cn5   v016
	BYTE	W03
	BYTE		        An4   v044
	BYTE	W03
	BYTE		        An4   v016
	BYTE	W03
	BYTE		        Fs4   v048
	BYTE	W03
	BYTE		        Fs4   v016
	BYTE	W03
	BYTE		        An4   v048
	BYTE	W03
	BYTE		        An4   v016
	BYTE	W03
	BYTE		        Ds5   v048
	BYTE	W03
	BYTE		        Ds5   v016
	BYTE	W03
	BYTE		        Cn5   v048
	BYTE	W03
	BYTE		        Cn5   v016
	BYTE	W03
	BYTE		        Fs5   v048
	BYTE	W03
	BYTE		        Fs5   v016
	BYTE	W03
	BYTE		        Ds5   v052
	BYTE	W03
	BYTE		        Ds5   v016
	BYTE	W03
	BYTE		        An5   v076
	BYTE	W03
	BYTE		        An5   v016
	BYTE	W03
	BYTE		        Fs5   v088
	BYTE	W03
	BYTE		        Fs5   v016
	BYTE	W03
	BYTE		        Cn6   v096
	BYTE	W03
	BYTE		        Cn6   v016
	BYTE	W03
// 029   ----------------------------------------
	BYTE		        Bn5   v076
	BYTE	W03
	BYTE		        Bn5   v016
	BYTE	W03
	BYTE		        Gs5   v068
	BYTE	W03
	BYTE		        Gs5   v016
	BYTE	W03
	BYTE		        Fn5   v056
	BYTE	W03
	BYTE		        Fn5   v016
	BYTE	W03
	BYTE		        Dn5   v048
	BYTE	W03
	BYTE		        Dn5   v016
	BYTE	W03
	BYTE		        Fn5   v044
	BYTE	W03
	BYTE		        Fn5   v016
	BYTE	W03
	BYTE		        Dn5   v048
	BYTE	W03
	BYTE		        Dn5   v016
	BYTE	W03
	BYTE		        Bn4   v052
	BYTE	W03
	BYTE		        Bn4   v016
	BYTE	W03
	BYTE		        Gs4   v052
	BYTE	W03
	BYTE		        Gs4   v016
	BYTE	W03
	BYTE		        Bn4   v056
	BYTE	W03
	BYTE		        Bn4   v016
	BYTE	W03
	BYTE		        Fn5   v060
	BYTE	W03
	BYTE		        Fn5   v016
	BYTE	W03
	BYTE		        Dn5   v060
	BYTE	W03
	BYTE		        Dn5   v016
	BYTE	W03
	BYTE		        Gs5   v064
	BYTE	W03
	BYTE		        Gs5   v016
	BYTE	W03
	BYTE		        Fn5   v076
	BYTE	W03
	BYTE		        Fn5   v016
	BYTE	W03
	BYTE		        Bn5   v088
	BYTE	W03
	BYTE		        Bn5   v016
	BYTE	W03
	BYTE		        Gs5   v096
	BYTE	W03
	BYTE		        Gs5   v016
	BYTE	W03
	BYTE		        Dn6   v108
	BYTE	W03
	BYTE		        Dn6   v016
	BYTE	W03
// 030   ----------------------------------------
	BYTE		N24     Fn4   v064
	BYTE	W24
	BYTE		PAN     c_v+16
	BYTE		N24     Ds4   v080
	BYTE	W24
	BYTE		PAN     c_v-32
	BYTE		N24     Bn3   v112
	BYTE	W24
	BYTE		VOL     21*mus_b_pyramid_mvl/mxv
	BYTE		PAN     c_v-48
	BYTE		N24     An3 
	BYTE	W01
	BYTE		VOL     23*mus_b_pyramid_mvl/mxv
	BYTE	W01
	BYTE		        31*mus_b_pyramid_mvl/mxv
	BYTE	W01
	BYTE		        36*mus_b_pyramid_mvl/mxv
	BYTE	W01
	BYTE		        46*mus_b_pyramid_mvl/mxv
	BYTE	W02
	BYTE		        54*mus_b_pyramid_mvl/mxv
	BYTE	W01
	BYTE		        57*mus_b_pyramid_mvl/mxv
	BYTE	W01
	BYTE		        63*mus_b_pyramid_mvl/mxv
	BYTE	W01
	BYTE		        71*mus_b_pyramid_mvl/mxv
	BYTE	W01
	BYTE		        79*mus_b_pyramid_mvl/mxv
	BYTE	W02
	BYTE		        84*mus_b_pyramid_mvl/mxv
	BYTE	W01
	BYTE		        91*mus_b_pyramid_mvl/mxv
	BYTE	W02
	BYTE		        99*mus_b_pyramid_mvl/mxv
	BYTE	W09
// 031   ----------------------------------------
	BYTE		PAN     c_v-32
	BYTE		VOL     91*mus_b_pyramid_mvl/mxv
	BYTE	W96
// 032   ----------------------------------------
	BYTE	W96
// 033   ----------------------------------------
	BYTE	W96
// 034   ----------------------------------------
	BYTE	W96
	BYTE	GoTo
	 POIN2	mus_b_pyramid_2_B1
mus_b_pyramid_2_B2:
// 035   ----------------------------------------
	BYTE	FINE

//**************** Track 3 (Midi-Chn.3) ****************//

mus_b_pyramid_3:
	BYTE	KEYSH   mus_b_pyramid_key+0
// 000   ----------------------------------------
	BYTE		VOICE   87
	BYTE		BENDR   12
	BYTE		LFOS    44
	BYTE		PAN     c_v+2
	BYTE		VOL     91*mus_b_pyramid_mvl/mxv
	BYTE		N03     Fn2   v112
	BYTE	W06
	BYTE		N03   
	BYTE	W06
	BYTE		N12     Cn2 
	BYTE	W12
// 001   ----------------------------------------
	BYTE		N24     As1 
	BYTE	W24
	BYTE		N12   
	BYTE	W24
	BYTE		N12   
	BYTE	W24
	BYTE		N12   
	BYTE	W12
	BYTE		        Bn1 
	BYTE	W12
// 002   ----------------------------------------
	BYTE		        Cn2 
	BYTE	W24
	BYTE		N12   
	BYTE	W24
	BYTE		        Bn1 
	BYTE	W24
	BYTE		        As1 
	BYTE	W24
// 003   ----------------------------------------
	BYTE		MOD     0
	BYTE		N03     An1 
	BYTE	W06
	BYTE		N03   
	BYTE	W06
	BYTE		N12     Fn1 
	BYTE	W06
	BYTE		MOD     8
	BYTE	W06
	BYTE		        0
	BYTE		N03     An1 
	BYTE	W06
	BYTE		N03   
	BYTE	W06
	BYTE		N12     Bn1 
	BYTE	W06
	BYTE		MOD     8
	BYTE	W06
	BYTE		        0
	BYTE		N06     An1 
	BYTE	W12
	BYTE		N12     Fn2 
	BYTE	W06
	BYTE		MOD     8
	BYTE	W06
	BYTE		        0
	BYTE		VOL     113*mus_b_pyramid_mvl/mxv
	BYTE		N12     An1 
	BYTE	W12
	BYTE		        An2 
	BYTE	W06
	BYTE		MOD     8
	BYTE	W06
// 004   ----------------------------------------
	BYTE		        0
	BYTE		VOL     91*mus_b_pyramid_mvl/mxv
	BYTE		N06     Fn1 
	BYTE	W24
	BYTE		N06   
	BYTE	W24
	BYTE		N06   
	BYTE	W24
	BYTE		N06   
	BYTE	W12
	BYTE		N12     Fs1 
	BYTE	W12
// 005   ----------------------------------------
mus_b_pyramid_3_005:
	BYTE		N06     Fn1   v112
	BYTE	W24
	BYTE		N06   
	BYTE	W24
	BYTE		N03   
	BYTE	W06
	BYTE		N06   
	BYTE	W06
	BYTE		N12     Cn1 
	BYTE	W12
	BYTE		N06     Fn1 
	BYTE	W12
	BYTE		N12     Fs1 
	BYTE	W12
	BYTE	PEND
mus_b_pyramid_3_B1:
// 006   ----------------------------------------
mus_b_pyramid_3_006:
	BYTE		N06     Fn1   v112
	BYTE	W24
	BYTE		N06   
	BYTE	W24
	BYTE		N06   
	BYTE	W24
	BYTE		N06   
	BYTE	W12
	BYTE		N12     Fs1 
	BYTE	W12
	BYTE	PEND
// 007   ----------------------------------------
	BYTE	PATT
	 POIN2	mus_b_pyramid_3_005
// 008   ----------------------------------------
	BYTE		N06     Fn1   v112
	BYTE	W24
	BYTE		N06   
	BYTE	W12
	BYTE		        Fn2 
	BYTE	W06
	BYTE		        Cn2 
	BYTE	W06
	BYTE		        Fn1 
	BYTE	W24
	BYTE		N06   
	BYTE	W12
	BYTE		        Fs2 
	BYTE	W06
	BYTE		        Cn2 
	BYTE	W06
// 009   ----------------------------------------
	BYTE		        Fn1 
	BYTE	W24
	BYTE		N06   
	BYTE	W12
	BYTE		        An2 
	BYTE	W06
	BYTE		        Fn2 
	BYTE	W06
	BYTE		        Fn1 
	BYTE	W06
	BYTE		        Fn2 
	BYTE	W06
	BYTE		N12     Cn2 
	BYTE	W06
	BYTE		MOD     8
	BYTE	W06
	BYTE		        0
	BYTE		N06     Fs2 
	BYTE	W06
	BYTE		        En2 
	BYTE	W06
	BYTE		        Fn2 
	BYTE	W06
	BYTE		        Cn3 
	BYTE	W06
// 010   ----------------------------------------
	BYTE		        An2 
	BYTE	W12
	BYTE		        Fn2 
	BYTE	W06
	BYTE		        Cn2 
	BYTE	W06
	BYTE		        Fn1 
	BYTE	W12
	BYTE		        Cn3 
	BYTE	W06
	BYTE		        Fn2 
	BYTE	W06
	BYTE		        Fn1 
	BYTE	W12
	BYTE		N12     Ds2 
	BYTE	W06
	BYTE		MOD     8
	BYTE	W06
	BYTE		        0
	BYTE		N06     Fn1 
	BYTE	W12
	BYTE		N12     Fs2 
	BYTE	W06
	BYTE		MOD     8
	BYTE	W06
// 011   ----------------------------------------
	BYTE		        0
	BYTE		N06     Fn2 
	BYTE	W12
	BYTE		        Ds2 
	BYTE	W06
	BYTE		        Fs1 
	BYTE	W06
	BYTE		        Fn1 
	BYTE	W12
	BYTE		        An2 
	BYTE	W06
	BYTE		        Fs2 
	BYTE	W06
	BYTE		N03     Ds2 
	BYTE	W06
	BYTE		N06   
	BYTE	W06
	BYTE		N12     Cn2 
	BYTE	W06
	BYTE		MOD     8
	BYTE	W06
	BYTE		        0
	BYTE		N06     Fs2 
	BYTE	W06
	BYTE		N03     An2 
	BYTE	W03
	BYTE		        Fs2 
	BYTE	W03
	BYTE		N12     Ds2 
	BYTE	W06
	BYTE		MOD     8
	BYTE	W06
// 012   ----------------------------------------
	BYTE		        0
	BYTE		N06     Fn1 
	BYTE	W12
	BYTE		        Fs2 
	BYTE	W06
	BYTE		        Ds2 
	BYTE	W06
	BYTE		        Fn1 
	BYTE	W12
	BYTE		        An2 
	BYTE	W06
	BYTE		        Fn2 
	BYTE	W06
	BYTE		N03     Cn3 
	BYTE	W06
	BYTE		N06   
	BYTE	W06
	BYTE		N12     Fn1 
	BYTE	W12
	BYTE		N06     Fs1 
	BYTE	W12
	BYTE		N12     An1 
	BYTE	W12
// 013   ----------------------------------------
	BYTE		N06     Fn1 
	BYTE	W12
	BYTE		N12     Fn2 
	BYTE	W06
	BYTE		MOD     8
	BYTE	W06
	BYTE		        0
	BYTE		N03   
	BYTE	W02
	BYTE		        An2 
	BYTE	W02
	BYTE		N06     Fn2 
	BYTE	W08
	BYTE		N12     Cn2 
	BYTE	W12
	BYTE		N06     Fn2 
	BYTE	W12
	BYTE		N21     An2 
	BYTE	W06
	BYTE		MOD     8
	BYTE	W06
	BYTE		        0
	BYTE	W12
	BYTE		N06     Ds2 
	BYTE	W06
	BYTE		N06   
	BYTE	W06
// 014   ----------------------------------------
mus_b_pyramid_3_014:
	BYTE		N12     Ds2   v112
	BYTE	W12
	BYTE		N84     Ds1 
	BYTE	W48
	BYTE		MOD     6
	BYTE	W36
	BYTE	PEND
// 015   ----------------------------------------
	BYTE		        0
	BYTE	W84
	BYTE		N12     Fs1 
	BYTE		N06     Ds2 
	BYTE	W06
	BYTE		N06   
	BYTE	W06
// 016   ----------------------------------------
	BYTE	PATT
	 POIN2	mus_b_pyramid_3_014
// 017   ----------------------------------------
	BYTE		MOD     0
	BYTE	W48
	BYTE		N24     Cn2   v112
	BYTE	W12
	BYTE		MOD     7
	BYTE	W12
	BYTE		        0
	BYTE		N18     Fn1 
	BYTE	W09
	BYTE		MOD     10
	BYTE	W09
	BYTE		        0
	BYTE		N06     An1 
	BYTE	W06
// 018   ----------------------------------------
mus_b_pyramid_3_018:
	BYTE		N06     As1   v112
	BYTE	W24
	BYTE		N06   
	BYTE	W24
	BYTE		N06   
	BYTE	W24
	BYTE		N03   
	BYTE	W06
	BYTE		N03   
	BYTE	W06
	BYTE		N06     Fn2 
	BYTE	W06
	BYTE		        Dn2 
	BYTE	W06
	BYTE	PEND
// 019   ----------------------------------------
	BYTE		        Fn1 
	BYTE	W06
	BYTE		N03     Cn2 
	BYTE	W12
	BYTE		N06     Fn1 
	BYTE	W12
	BYTE		        Fn2 
	BYTE	W18
	BYTE		        En2 
	BYTE	W06
	BYTE		        Fn2 
	BYTE	W06
	BYTE		        Bn1 
	BYTE	W06
	BYTE		        Cn2 
	BYTE	W06
	BYTE		N03     Fn1 
	BYTE	W06
	BYTE		N03   
	BYTE	W06
	BYTE		N06     Fn2 
	BYTE	W06
	BYTE		        Cn2 
	BYTE	W06
// 020   ----------------------------------------
	BYTE	PATT
	 POIN2	mus_b_pyramid_3_018
// 021   ----------------------------------------
	BYTE		N06     Fn1   v112
	BYTE	W06
	BYTE		N03     Fn2 
	BYTE	W06
	BYTE		N06     Cn2 
	BYTE	W18
	BYTE		        Gn2 
	BYTE	W12
	BYTE		        Cn2 
	BYTE	W06
	BYTE		        An2 
	BYTE	W06
	BYTE		N03     As2 
	BYTE	W06
	BYTE		N06     Fn2 
	BYTE	W06
	BYTE		N03     Gn2 
	BYTE	W06
	BYTE		        Cn2 
	BYTE	W06
	BYTE		N03   
	BYTE	W06
	BYTE		N06     Fn2 
	BYTE	W06
	BYTE		        Cn2 
	BYTE	W06
// 022   ----------------------------------------
	BYTE	PATT
	 POIN2	mus_b_pyramid_3_018
// 023   ----------------------------------------
	BYTE		N03     Fn1   v112
	BYTE	W06
	BYTE		N06   
	BYTE	W12
	BYTE		N06   
	BYTE	W12
	BYTE		        Ds2 
	BYTE	W18
	BYTE		        En2 
	BYTE	W06
	BYTE		        Fn2 
	BYTE	W06
	BYTE		        Bn1 
	BYTE	W06
	BYTE		        Cn2 
	BYTE	W06
	BYTE		N03     Fn1 
	BYTE	W06
	BYTE		N03   
	BYTE	W06
	BYTE		N06     Fn2 
	BYTE	W06
	BYTE		        Cn2 
	BYTE	W06
// 024   ----------------------------------------
	BYTE		        As1 
	BYTE	W24
	BYTE		N06   
	BYTE	W24
	BYTE		N06   
	BYTE	W24
	BYTE		N03   
	BYTE	W06
	BYTE		N03   
	BYTE	W06
	BYTE		N06     Fn2 
	BYTE	W06
	BYTE		        Cs2 
	BYTE	W06
// 025   ----------------------------------------
	BYTE		N24     Fn1 
	BYTE	W12
	BYTE		MOD     7
	BYTE	W12
	BYTE		        0
	BYTE		N24     En1 
	BYTE	W12
	BYTE		MOD     7
	BYTE	W12
	BYTE		        0
	BYTE		N06     As1 
	BYTE	W06
	BYTE		        Cs2 
	BYTE	W06
	BYTE		N24     En2 
	BYTE	W12
	BYTE		MOD     7
	BYTE	W12
	BYTE		        0
	BYTE		N12     Gn2 
	BYTE	W12
// 026   ----------------------------------------
	BYTE		VOICE   84
	BYTE		VOL     113*mus_b_pyramid_mvl/mxv
	BYTE		N06     Fn1   v084
	BYTE	W06
	BYTE		        An1   v080
	BYTE	W06
	BYTE		        Gs1   v076
	BYTE	W06
	BYTE		        Gn1   v072
	BYTE	W06
	BYTE		        Cn2   v068
	BYTE	W06
	BYTE		        Bn1   v052
	BYTE	W06
	BYTE		        As1 
	BYTE	W06
	BYTE		        En2   v056
	BYTE	W06
	BYTE		        Ds2 
	BYTE	W06
	BYTE		        Dn2 
	BYTE	W06
	BYTE		        Gn2 
	BYTE	W06
	BYTE		        Fs2   v060
	BYTE	W06
	BYTE		        Fn2 
	BYTE	W06
	BYTE		        En2   v076
	BYTE	W06
	BYTE		        Ds2   v084
	BYTE	W06
	BYTE		        En2   v092
	BYTE	W06
// 027   ----------------------------------------
	BYTE		        Fn1   v088
	BYTE	W06
	BYTE		        An1   v080
	BYTE	W06
	BYTE		        Gs1   v072
	BYTE	W06
	BYTE		        Gn1   v064
	BYTE	W06
	BYTE		        Cn2   v056
	BYTE	W06
	BYTE		        Bn1 
	BYTE	W06
	BYTE		        As1 
	BYTE	W06
	BYTE		        En2   v060
	BYTE	W06
	BYTE		        Ds2 
	BYTE	W06
	BYTE		        Dn2 
	BYTE	W06
	BYTE		        Gn2 
	BYTE	W06
	BYTE		        Fs2 
	BYTE	W06
	BYTE		        Fn2   v072
	BYTE	W06
	BYTE		        En2   v076
	BYTE	W06
	BYTE		        Ds2   v084
	BYTE	W06
	BYTE		        En2   v096
	BYTE	W06
// 028   ----------------------------------------
	BYTE		        Fn1   v088
	BYTE	W06
	BYTE		        An1   v084
	BYTE	W06
	BYTE		        Gs1   v080
	BYTE	W06
	BYTE		        Gn1   v072
	BYTE	W06
	BYTE		        Cn2   v068
	BYTE	W06
	BYTE		        Bn1   v044
	BYTE	W06
	BYTE		        As1 
	BYTE	W06
	BYTE		        En2   v048
	BYTE	W06
	BYTE		        Ds2 
	BYTE	W06
	BYTE		        Dn2 
	BYTE	W06
	BYTE		        Gn2 
	BYTE	W06
	BYTE		        Fs2 
	BYTE	W06
	BYTE		        Fn2   v052
	BYTE	W06
	BYTE		        Gs2   v072
	BYTE	W06
	BYTE		        Gn2   v084
	BYTE	W06
	BYTE		        Fs2   v092
	BYTE	W06
// 029   ----------------------------------------
	BYTE		        Fn1   v076
	BYTE	W06
	BYTE		        An1   v068
	BYTE	W06
	BYTE		        Gs1   v056
	BYTE	W06
	BYTE		        Gn1   v048
	BYTE	W06
	BYTE		        Cn2   v044
	BYTE	W06
	BYTE		        Bn1   v048
	BYTE	W06
	BYTE		        As1   v052
	BYTE	W06
	BYTE		        En2 
	BYTE	W06
	BYTE		        Ds2   v056
	BYTE	W06
	BYTE		        Dn2   v060
	BYTE	W06
	BYTE		        Gn2 
	BYTE	W06
	BYTE		        Fs2   v064
	BYTE	W06
	BYTE		        Fn2   v076
	BYTE	W06
	BYTE		        En2   v088
	BYTE	W06
	BYTE		        Cs2   v096
	BYTE	W06
	BYTE		        As1   v108
	BYTE	W06
// 030   ----------------------------------------
	BYTE		VOICE   87
	BYTE		MOD     0
	BYTE		VOL     91*mus_b_pyramid_mvl/mxv
	BYTE		N06     An1   v112
	BYTE	W12
	BYTE		N12     Fn1 
	BYTE	W06
	BYTE		MOD     8
	BYTE	W06
	BYTE		        0
	BYTE		N06     Ds1 
	BYTE	W12
	BYTE		N12     Bn1 
	BYTE	W06
	BYTE		MOD     8
	BYTE	W06
	BYTE		        0
	BYTE		N02     An1 
	BYTE	W06
	BYTE		N02   
	BYTE	W06
	BYTE		N12     Fn2 
	BYTE	W06
	BYTE		MOD     8
	BYTE	W06
	BYTE		        0
	BYTE		N24     An2 
	BYTE	W18
	BYTE		MOD     8
	BYTE	W06
// 031   ----------------------------------------
	BYTE		VOICE   87
	BYTE		MOD     0
	BYTE		VOL     91*mus_b_pyramid_mvl/mxv
	BYTE		N06     Fn1 
	BYTE	W24
	BYTE		N06   
	BYTE	W24
	BYTE		N06   
	BYTE	W24
	BYTE		N06   
	BYTE	W12
	BYTE		N12     Fs1 
	BYTE	W12
// 032   ----------------------------------------
	BYTE	PATT
	 POIN2	mus_b_pyramid_3_005
// 033   ----------------------------------------
	BYTE	PATT
	 POIN2	mus_b_pyramid_3_006
// 034   ----------------------------------------
	BYTE		N06     Fn1   v112
	BYTE	W24
	BYTE		        Ds2 
	BYTE	W06
	BYTE		        Fn2 
	BYTE	W06
	BYTE		        Cn2 
	BYTE	W06
	BYTE		        Fs1 
	BYTE	W06
	BYTE		N03     Fn1 
	BYTE	W06
	BYTE		N06   
	BYTE	W06
	BYTE		N12     Cn1 
	BYTE	W12
	BYTE		N06     Fn1 
	BYTE	W12
	BYTE		N12     Fs1 
	BYTE	W12
	BYTE	GoTo
	 POIN2	mus_b_pyramid_3_B1
mus_b_pyramid_3_B2:
// 035   ----------------------------------------
	BYTE	FINE

//**************** Track 4 (Midi-Chn.4) ****************//

mus_b_pyramid_4:
	BYTE	KEYSH   mus_b_pyramid_key+0
// 000   ----------------------------------------
	BYTE		VOICE   60
	BYTE		LFOS    44
	BYTE		BENDR   12
	BYTE		VOL     68*mus_b_pyramid_mvl/mxv
	BYTE		PAN     c_v+21
	BYTE		N06     Fn3   v112
	BYTE	W06
	BYTE		N06   
	BYTE	W06
	BYTE		N12     Cn3 
	BYTE	W12
// 001   ----------------------------------------
	BYTE		N24     As2 
	BYTE	W12
	BYTE		VOL     46*mus_b_pyramid_mvl/mxv
	BYTE		MOD     6
	BYTE	W12
	BYTE		VOL     68*mus_b_pyramid_mvl/mxv
	BYTE		MOD     0
	BYTE		N06     Fs3 
	BYTE	W12
	BYTE		N60     As3 
	BYTE	W12
	BYTE		VOL     46*mus_b_pyramid_mvl/mxv
	BYTE		MOD     6
	BYTE	W48
// 002   ----------------------------------------
	BYTE		VOL     68*mus_b_pyramid_mvl/mxv
	BYTE		MOD     0
	BYTE		N48     Fs3 
	BYTE	W12
	BYTE		VOL     46*mus_b_pyramid_mvl/mxv
	BYTE		MOD     6
	BYTE	W36
	BYTE		VOL     68*mus_b_pyramid_mvl/mxv
	BYTE		MOD     0
	BYTE		N03     Cs3 
	BYTE	W03
	BYTE		        En3 
	BYTE	W03
	BYTE		        Fn3 
	BYTE	W03
	BYTE		        Fs3 
	BYTE	W03
	BYTE		        An3 
	BYTE	W03
	BYTE		        Cn4 
	BYTE	W03
	BYTE		        Cs4 
	BYTE	W03
	BYTE		        En4 
	BYTE	W03
	BYTE		        Bn4 
	BYTE	W03
	BYTE		        An4 
	BYTE	W03
	BYTE		        Gn4 
	BYTE	W03
	BYTE		        Fn4 
	BYTE	W03
	BYTE		        Ds4 
	BYTE	W03
	BYTE		        Cs4 
	BYTE	W03
	BYTE		        Bn3 
	BYTE	W03
	BYTE		        An3 
	BYTE	W03
// 003   ----------------------------------------
	BYTE		        Bn3 
	BYTE	W06
	BYTE		N03   
	BYTE	W18
	BYTE		N03   
	BYTE	W06
	BYTE		N03   
	BYTE	W30
	BYTE		VOL     29*mus_b_pyramid_mvl/mxv
	BYTE		N12     Bn2 
	BYTE	W03
	BYTE		VOL     47*mus_b_pyramid_mvl/mxv
	BYTE	W03
	BYTE		        60*mus_b_pyramid_mvl/mxv
	BYTE	W03
	BYTE		        84*mus_b_pyramid_mvl/mxv
	BYTE	W03
	BYTE		        68*mus_b_pyramid_mvl/mxv
	BYTE		N24     Bn3 
	BYTE	W03
	BYTE		VOL     23*mus_b_pyramid_mvl/mxv
	BYTE	W01
	BYTE		        28*mus_b_pyramid_mvl/mxv
	BYTE	W02
	BYTE		        31*mus_b_pyramid_mvl/mxv
	BYTE	W01
	BYTE		        36*mus_b_pyramid_mvl/mxv
	BYTE	W01
	BYTE		        39*mus_b_pyramid_mvl/mxv
	BYTE	W01
	BYTE		        46*mus_b_pyramid_mvl/mxv
	BYTE	W01
	BYTE		        47*mus_b_pyramid_mvl/mxv
	BYTE	W02
	BYTE		        52*mus_b_pyramid_mvl/mxv
	BYTE	W01
	BYTE		        60*mus_b_pyramid_mvl/mxv
	BYTE	W01
	BYTE		        74*mus_b_pyramid_mvl/mxv
	BYTE	W01
	BYTE		        86*mus_b_pyramid_mvl/mxv
	BYTE	W01
	BYTE		        95*mus_b_pyramid_mvl/mxv
	BYTE	W08
// 004   ----------------------------------------
	BYTE		        68*mus_b_pyramid_mvl/mxv
	BYTE		PAN     c_v+32
	BYTE	W96
// 005   ----------------------------------------
	BYTE	W96
mus_b_pyramid_4_B1:
// 006   ----------------------------------------
	BYTE	W96
// 007   ----------------------------------------
	BYTE	W96
// 008   ----------------------------------------
	BYTE	W96
// 009   ----------------------------------------
	BYTE	W72
	BYTE		VOICE   17
	BYTE	W24
// 010   ----------------------------------------
	BYTE		PAN     c_v+17
	BYTE		N36     Cn6   v112
	BYTE	W12
	BYTE		MOD     7
	BYTE		VOL     46*mus_b_pyramid_mvl/mxv
	BYTE	W24
	BYTE		MOD     0
	BYTE		VOL     68*mus_b_pyramid_mvl/mxv
	BYTE		N01     As5 
	BYTE	W01
	BYTE		        An5 
	BYTE	W01
	BYTE		        Gn5 
	BYTE	W01
	BYTE		        Fn5 
	BYTE	W01
	BYTE		        En5 
	BYTE	W02
	BYTE		N06     Ds5 
	BYTE	W06
	BYTE		N09     Cn5 
	BYTE	W09
	BYTE		N01     Cs5 
	BYTE	W01
	BYTE		        Dn5 
	BYTE	W02
	BYTE		N12     Ds5 
	BYTE	W12
	BYTE		N08     As5 
	BYTE	W08
	BYTE		N01     Gs5 
	BYTE	W01
	BYTE		        Gn5 
	BYTE	W01
	BYTE		        Fs5 
	BYTE	W02
	BYTE		N12     Fn5 
	BYTE	W12
// 011   ----------------------------------------
	BYTE		N06     Fn4 
	BYTE		N12     Cn5 
	BYTE	W06
	BYTE		N06     Fn4 
	BYTE	W06
	BYTE		N06   
	BYTE		N01     Cs5 
	BYTE	W01
	BYTE		        Dn5 
	BYTE	W01
	BYTE		N19     Ds5 
	BYTE	W01
	BYTE		N06     Gs4 
	BYTE	W03
	BYTE		        Fn4 
	BYTE	W06
	BYTE		MOD     7
	BYTE		VOL     46*mus_b_pyramid_mvl/mxv
	BYTE	W09
	BYTE		N01     En5 
	BYTE	W01
	BYTE		        Fn5 
	BYTE	W02
	BYTE		MOD     0
	BYTE		VOL     68*mus_b_pyramid_mvl/mxv
	BYTE		N12     Fs5 
	BYTE	W12
	BYTE		N03     Ds5 
	BYTE	W03
	BYTE		N01     Fn5 
	BYTE		N01     Fs5 
	BYTE	W01
	BYTE		        En5 
	BYTE	W02
	BYTE		N06     Ds5 
	BYTE	W06
	BYTE		N12     Cn5 
	BYTE	W12
	BYTE		N06     Ds5 
	BYTE	W06
	BYTE		N03     Fs5 
	BYTE	W03
	BYTE		N01     Fn5 
	BYTE	W01
	BYTE		        En5 
	BYTE	W02
	BYTE		        Dn5 
	BYTE	W01
	BYTE		        Cs5 
	BYTE	W01
	BYTE		N09     Cn5 
	BYTE	W10
// 012   ----------------------------------------
	BYTE		N12     As4 
	BYTE	W06
	BYTE		MOD     6
	BYTE	W06
	BYTE		        0
	BYTE		N12     Cn5 
	BYTE	W06
	BYTE		MOD     6
	BYTE	W06
	BYTE		        0
	BYTE		N12     Ds5 
	BYTE	W06
	BYTE		MOD     6
	BYTE	W06
	BYTE		        0
	BYTE		N12     Cn5 
	BYTE	W06
	BYTE		MOD     6
	BYTE	W04
	BYTE		N08     Fs5 
	BYTE	W02
	BYTE		MOD     0
	BYTE	W07
	BYTE		N01     Fn5 
	BYTE	W01
	BYTE		        Ds5 
	BYTE	W04
	BYTE		N12     Cn5 
	BYTE	W06
	BYTE		MOD     6
	BYTE	W06
	BYTE		        0
	BYTE		N12     Ds5 
	BYTE	W06
	BYTE		MOD     6
	BYTE	W06
	BYTE		        0
	BYTE		N12     Fs5 
	BYTE	W06
	BYTE		MOD     6
	BYTE	W06
// 013   ----------------------------------------
	BYTE		        0
	BYTE		N24     Ds5 
	BYTE	W12
	BYTE		MOD     6
	BYTE		VOL     46*mus_b_pyramid_mvl/mxv
	BYTE	W12
	BYTE		MOD     0
	BYTE		VOL     68*mus_b_pyramid_mvl/mxv
	BYTE		N24     Cn5 
	BYTE	W12
	BYTE		MOD     6
	BYTE		VOL     46*mus_b_pyramid_mvl/mxv
	BYTE	W12
	BYTE		MOD     0
	BYTE		VOL     68*mus_b_pyramid_mvl/mxv
	BYTE		N12     An4 
	BYTE	W06
	BYTE		MOD     6
	BYTE	W06
	BYTE		        0
	BYTE		N12     Cn5 
	BYTE	W06
	BYTE		MOD     6
	BYTE	W06
	BYTE		        0
	BYTE		N02     Fs4 
	BYTE	W02
	BYTE		        Gs4 
	BYTE	W02
	BYTE		N07     Fs4 
	BYTE	W08
	BYTE		N12     Ds4 
	BYTE	W12
// 014   ----------------------------------------
	BYTE		VOICE   24
	BYTE		PAN     c_v+32
	BYTE	W24
	BYTE		N06     Gn3 
	BYTE	W12
	BYTE		        As3 
	BYTE	W12
	BYTE		N24     Gn4 
	BYTE	W06
	BYTE		MOD     7
	BYTE	W06
	BYTE		VOL     46*mus_b_pyramid_mvl/mxv
	BYTE	W12
	BYTE		MOD     0
	BYTE		VOL     68*mus_b_pyramid_mvl/mxv
	BYTE		N18     Ds4 
	BYTE	W06
	BYTE		MOD     7
	BYTE	W03
	BYTE		VOL     46*mus_b_pyramid_mvl/mxv
	BYTE	W09
	BYTE		MOD     0
	BYTE		VOL     68*mus_b_pyramid_mvl/mxv
	BYTE		N06     Gn4 
	BYTE	W06
// 015   ----------------------------------------
	BYTE		        Fn4 
	BYTE	W12
	BYTE		N36     An4 
	BYTE	W12
	BYTE		MOD     7
	BYTE		VOL     46*mus_b_pyramid_mvl/mxv
	BYTE	W24
	BYTE		MOD     0
	BYTE		VOL     68*mus_b_pyramid_mvl/mxv
	BYTE		N06     Fn4 
	BYTE	W12
	BYTE		N36     Ds5 
	BYTE	W12
	BYTE		MOD     7
	BYTE		VOL     46*mus_b_pyramid_mvl/mxv
	BYTE	W24
// 016   ----------------------------------------
	BYTE		MOD     0
	BYTE		VOL     68*mus_b_pyramid_mvl/mxv
	BYTE	W24
	BYTE		N06     Gn3 
	BYTE	W12
	BYTE		        As3 
	BYTE	W12
	BYTE		N18     Gn4 
	BYTE	W06
	BYTE		MOD     7
	BYTE		VOL     46*mus_b_pyramid_mvl/mxv
	BYTE	W12
	BYTE		MOD     0
	BYTE		VOL     68*mus_b_pyramid_mvl/mxv
	BYTE		N06     Ds4 
	BYTE	W06
	BYTE		N12     Cs4 
	BYTE	W06
	BYTE		MOD     8
	BYTE	W06
	BYTE		        0
	BYTE		N12     Ds4 
	BYTE	W06
	BYTE		MOD     8
	BYTE	W06
// 017   ----------------------------------------
	BYTE		        0
	BYTE		N06     An3 
	BYTE	W12
	BYTE		N36     Cn4 
	BYTE	W12
	BYTE		VOL     46*mus_b_pyramid_mvl/mxv
	BYTE		MOD     7
	BYTE	W24
	BYTE		VOL     68*mus_b_pyramid_mvl/mxv
	BYTE		MOD     0
	BYTE		N06     Fn4 
	BYTE	W12
	BYTE		N36     An4 
	BYTE	W12
	BYTE		VOL     46*mus_b_pyramid_mvl/mxv
	BYTE	W24
// 018   ----------------------------------------
	BYTE		MOD     0
	BYTE		VOL     99*mus_b_pyramid_mvl/mxv
	BYTE		N06     Fn3   v096
	BYTE	W18
	BYTE		N03     Dn3 
	BYTE	W06
	BYTE		N36   
	BYTE	W12
	BYTE		MOD     8
	BYTE		VOL     68*mus_b_pyramid_mvl/mxv
	BYTE	W24
	BYTE		MOD     0
	BYTE		VOL     99*mus_b_pyramid_mvl/mxv
	BYTE	W12
	BYTE		N24     Fn3 
	BYTE	W12
	BYTE		MOD     7
	BYTE		VOL     68*mus_b_pyramid_mvl/mxv
	BYTE	W12
// 019   ----------------------------------------
	BYTE		MOD     0
	BYTE		VOL     99*mus_b_pyramid_mvl/mxv
	BYTE		N06     Fn3   v080
	BYTE	W06
	BYTE		        Gn3 
	BYTE	W12
	BYTE		N18     An3 
	BYTE	W06
	BYTE		MOD     7
	BYTE		VOL     68*mus_b_pyramid_mvl/mxv
	BYTE	W12
	BYTE		MOD     0
	BYTE		N06     An2 
	BYTE	W03
	BYTE		VOL     99*mus_b_pyramid_mvl/mxv
	BYTE	W03
	BYTE		N06     As2 
	BYTE	W06
	BYTE		N12     Cn3 
	BYTE	W12
	BYTE		N06     Fn3 
	BYTE	W06
	BYTE		        Gn3 
	BYTE	W06
	BYTE		N12     An3 
	BYTE	W12
	BYTE		        Cn4 
	BYTE	W12
// 020   ----------------------------------------
	BYTE		N06     Fn3 
	BYTE	W18
	BYTE		N03     Dn3 
	BYTE	W06
	BYTE		N36     As3 
	BYTE	W12
	BYTE		MOD     7
	BYTE		VOL     68*mus_b_pyramid_mvl/mxv
	BYTE	W24
	BYTE		MOD     0
	BYTE		VOL     99*mus_b_pyramid_mvl/mxv
	BYTE	W12
	BYTE		N24     Cn4 
	BYTE	W12
	BYTE		MOD     7
	BYTE		VOL     68*mus_b_pyramid_mvl/mxv
	BYTE	W12
// 021   ----------------------------------------
	BYTE		MOD     0
	BYTE		VOL     99*mus_b_pyramid_mvl/mxv
	BYTE		N06   
	BYTE	W06
	BYTE		        Dn4 
	BYTE	W06
	BYTE		        Cn4 
	BYTE	W06
	BYTE		        An3 
	BYTE	W06
	BYTE		N24     Fn3 
	BYTE	W12
	BYTE		MOD     7
	BYTE		VOL     68*mus_b_pyramid_mvl/mxv
	BYTE	W12
	BYTE		MOD     0
	BYTE		VOL     99*mus_b_pyramid_mvl/mxv
	BYTE		N06     An3 
	BYTE	W06
	BYTE		        Cn4 
	BYTE	W06
	BYTE		        An3 
	BYTE	W06
	BYTE		        Cn4 
	BYTE	W06
	BYTE		N12     Ds4 
	BYTE	W12
	BYTE		        Cn4 
	BYTE	W12
// 022   ----------------------------------------
	BYTE		N06     Gs3 
	BYTE	W18
	BYTE		N03     Fn3 
	BYTE	W06
	BYTE		N36     Gs3 
	BYTE	W12
	BYTE		MOD     7
	BYTE		VOL     68*mus_b_pyramid_mvl/mxv
	BYTE	W24
	BYTE		MOD     0
	BYTE		VOL     99*mus_b_pyramid_mvl/mxv
	BYTE	W12
	BYTE		N24     Fn3 
	BYTE	W12
	BYTE		MOD     7
	BYTE		VOL     68*mus_b_pyramid_mvl/mxv
	BYTE	W12
// 023   ----------------------------------------
	BYTE		MOD     0
	BYTE		VOL     99*mus_b_pyramid_mvl/mxv
	BYTE		N06   
	BYTE	W06
	BYTE		        Gn3 
	BYTE	W12
	BYTE		N18     Gs3 
	BYTE	W06
	BYTE		MOD     7
	BYTE	W12
	BYTE		        0
	BYTE		N06     Gs2 
	BYTE	W06
	BYTE		        As2 
	BYTE	W06
	BYTE		N12     Cn3 
	BYTE	W12
	BYTE		N06     Fn3 
	BYTE	W06
	BYTE		        Gn3 
	BYTE	W06
	BYTE		N12     Gs3 
	BYTE	W12
	BYTE		        Cn4 
	BYTE	W12
// 024   ----------------------------------------
	BYTE		N06     Fn3 
	BYTE	W18
	BYTE		N03     Cs3 
	BYTE	W06
	BYTE		N36   
	BYTE	W12
	BYTE		MOD     7
	BYTE		VOL     68*mus_b_pyramid_mvl/mxv
	BYTE	W24
	BYTE		MOD     0
	BYTE		VOL     99*mus_b_pyramid_mvl/mxv
	BYTE	W12
	BYTE		N24     Fn3 
	BYTE	W12
	BYTE		MOD     7
	BYTE		VOL     68*mus_b_pyramid_mvl/mxv
	BYTE	W12
// 025   ----------------------------------------
	BYTE		MOD     0
	BYTE		VOL     99*mus_b_pyramid_mvl/mxv
	BYTE		N24   
	BYTE	W12
	BYTE		MOD     7
	BYTE		VOL     68*mus_b_pyramid_mvl/mxv
	BYTE	W12
	BYTE		MOD     0
	BYTE		VOL     99*mus_b_pyramid_mvl/mxv
	BYTE		N24     Cs3 
	BYTE	W12
	BYTE		MOD     8
	BYTE		VOL     68*mus_b_pyramid_mvl/mxv
	BYTE	W12
	BYTE		MOD     0
	BYTE		VOL     99*mus_b_pyramid_mvl/mxv
	BYTE		N24     As2 
	BYTE	W12
	BYTE		MOD     7
	BYTE		VOL     68*mus_b_pyramid_mvl/mxv
	BYTE	W12
	BYTE		MOD     0
	BYTE		VOL     99*mus_b_pyramid_mvl/mxv
	BYTE		N24     En2 
	BYTE	W12
	BYTE		MOD     7
	BYTE		VOL     68*mus_b_pyramid_mvl/mxv
	BYTE	W12
// 026   ----------------------------------------
	BYTE		VOICE   24
	BYTE		MOD     0
	BYTE		VOL     99*mus_b_pyramid_mvl/mxv
	BYTE		N03     An4   v084
	BYTE	W03
	BYTE		        An4   v016
	BYTE	W03
	BYTE		        Ds4   v080
	BYTE	W03
	BYTE		        Ds4   v016
	BYTE	W03
	BYTE		        Fn4   v076
	BYTE	W03
	BYTE		        Fn4   v016
	BYTE	W03
	BYTE		        Bn3   v072
	BYTE	W03
	BYTE		        Bn3   v016
	BYTE	W03
	BYTE		        Ds4   v068
	BYTE	W03
	BYTE		        Ds4   v016
	BYTE	W03
	BYTE		        An3   v040
	BYTE	W03
	BYTE		        An3   v016
	BYTE	W03
	BYTE		        Bn3   v040
	BYTE	W03
	BYTE		        Bn3   v016
	BYTE	W03
	BYTE		        Fn3   v040
	BYTE	W03
	BYTE		        Fn3   v016
	BYTE	W03
	BYTE		        Ds3   v040
	BYTE	W03
	BYTE		        Ds3   v016
	BYTE	W03
	BYTE		        Bn3   v044
	BYTE	W03
	BYTE		        Bn3   v016
	BYTE	W03
	BYTE		        An3   v044
	BYTE	W03
	BYTE		        An3   v016
	BYTE	W03
	BYTE		        Fn3   v044
	BYTE	W03
	BYTE		        Fn3   v016
	BYTE	W03
	BYTE		        Ds4   v044
	BYTE	W03
	BYTE		        Ds4   v016
	BYTE	W03
	BYTE		        An3   v064
	BYTE	W03
	BYTE		        An3   v016
	BYTE	W03
	BYTE		        Fn4   v088
	BYTE	W03
	BYTE		        Fn4   v016
	BYTE	W03
	BYTE		        Ds4   v112
	BYTE	W03
	BYTE		        Ds4   v016
	BYTE	W03
// 027   ----------------------------------------
	BYTE		        Bn4   v088
	BYTE	W03
	BYTE		        Bn4   v016
	BYTE	W03
	BYTE		        Fn4   v080
	BYTE	W03
	BYTE		        Fn4   v016
	BYTE	W03
	BYTE		        Gs4   v072
	BYTE	W03
	BYTE		        Gs4   v016
	BYTE	W03
	BYTE		        Dn4   v064
	BYTE	W03
	BYTE		        Dn4   v016
	BYTE	W03
	BYTE		        Fn4   v056
	BYTE	W03
	BYTE		        Fn4   v016
	BYTE	W03
	BYTE		        Bn3   v048
	BYTE	W03
	BYTE		        Bn3   v016
	BYTE	W03
	BYTE		        Dn4   v052
	BYTE	W03
	BYTE		        Dn4   v016
	BYTE	W03
	BYTE		        Gs3   v052
	BYTE	W03
	BYTE		        Gs3   v016
	BYTE	W03
	BYTE		        Fn3   v052
	BYTE	W03
	BYTE		        Fn3   v016
	BYTE	W03
	BYTE		        Dn4   v056
	BYTE	W03
	BYTE		        Dn4   v016
	BYTE	W03
	BYTE		        Gs3   v056
	BYTE	W03
	BYTE		        Gs3   v016
	BYTE	W03
	BYTE		        Fn3   v056
	BYTE	W03
	BYTE		        Fn3   v016
	BYTE	W03
	BYTE		        Fn4   v060
	BYTE	W03
	BYTE		        Fn4   v016
	BYTE	W03
	BYTE		        Bn3   v072
	BYTE	W03
	BYTE		        Bn3   v016
	BYTE	W03
	BYTE		        Gs4   v088
	BYTE	W03
	BYTE		        Gs4   v016
	BYTE	W03
	BYTE		        Dn4   v104
	BYTE	W03
	BYTE		        Dn4   v016
	BYTE	W03
// 028   ----------------------------------------
	BYTE		        Cn5   v088
	BYTE	W03
	BYTE		        Cn5   v016
	BYTE	W03
	BYTE		        Fs4   v084
	BYTE	W03
	BYTE		        Fs4   v016
	BYTE	W03
	BYTE		        An4   v080
	BYTE	W03
	BYTE		        An4   v016
	BYTE	W03
	BYTE		        Ds4   v072
	BYTE	W03
	BYTE		        Ds4   v016
	BYTE	W03
	BYTE		        Fs4   v068
	BYTE	W03
	BYTE		        Fs4   v016
	BYTE	W03
	BYTE		        Cn4   v044
	BYTE	W03
	BYTE		        Cn4   v016
	BYTE	W03
	BYTE		        Ds4   v044
	BYTE	W03
	BYTE		        Ds4   v016
	BYTE	W03
	BYTE		        An3   v048
	BYTE	W03
	BYTE		        An3   v016
	BYTE	W03
	BYTE		        Fs3   v048
	BYTE	W03
	BYTE		        Fs3   v016
	BYTE	W03
	BYTE		        Ds4   v048
	BYTE	W03
	BYTE		        Ds4   v016
	BYTE	W03
	BYTE		        An3   v048
	BYTE	W03
	BYTE		        An3   v016
	BYTE	W03
	BYTE		        Fs3   v048
	BYTE	W03
	BYTE		        Fs3   v016
	BYTE	W03
	BYTE		        Fs4   v052
	BYTE	W03
	BYTE		        Fs4   v016
	BYTE	W03
	BYTE		        Cn4   v076
	BYTE	W03
	BYTE		        Cn4   v016
	BYTE	W03
	BYTE		        An4   v088
	BYTE	W03
	BYTE		        An4   v016
	BYTE	W03
	BYTE		        Ds4   v096
	BYTE	W03
	BYTE		        Ds4   v016
	BYTE	W03
// 029   ----------------------------------------
	BYTE		        Dn5   v076
	BYTE	W03
	BYTE		        Dn5   v016
	BYTE	W03
	BYTE		        Gs4   v068
	BYTE	W03
	BYTE		        Gs4   v016
	BYTE	W03
	BYTE		        Bn4   v056
	BYTE	W03
	BYTE		        Bn4   v016
	BYTE	W03
	BYTE		        Fn4   v048
	BYTE	W03
	BYTE		        Fn4   v016
	BYTE	W03
	BYTE		        Gs4   v044
	BYTE	W03
	BYTE		        Gs4   v016
	BYTE	W03
	BYTE		        Dn4   v048
	BYTE	W03
	BYTE		        Dn4   v016
	BYTE	W03
	BYTE		        Fn4   v052
	BYTE	W03
	BYTE		        Fn4   v016
	BYTE	W03
	BYTE		        Bn3   v052
	BYTE	W03
	BYTE		        Bn3   v016
	BYTE	W03
	BYTE		        Gs3   v056
	BYTE	W03
	BYTE		        Gs3   v016
	BYTE	W03
	BYTE		        Fn4   v060
	BYTE	W03
	BYTE		        Fn4   v016
	BYTE	W03
	BYTE		        Bn3   v060
	BYTE	W03
	BYTE		        Bn3   v016
	BYTE	W03
	BYTE		        Gs3   v064
	BYTE	W03
	BYTE		        Gs3   v016
	BYTE	W03
	BYTE		        Gs4   v076
	BYTE	W03
	BYTE		        Gs4   v016
	BYTE	W03
	BYTE		        Dn4   v088
	BYTE	W03
	BYTE		        Dn4   v016
	BYTE	W03
	BYTE		        Bn4   v096
	BYTE	W03
	BYTE		        Bn4   v016
	BYTE	W03
	BYTE		        Fn4   v108
	BYTE	W03
	BYTE		        Fn4   v016
	BYTE	W03
// 030   ----------------------------------------
	BYTE		VOICE   60
	BYTE		PAN     c_v-16
	BYTE		N24     Bn3   v064
	BYTE	W24
	BYTE		PAN     c_v+32
	BYTE		N24     An3   v080
	BYTE	W24
	BYTE		PAN     c_v-16
	BYTE		N24     Fn3   v112
	BYTE	W24
	BYTE		VOL     21*mus_b_pyramid_mvl/mxv
	BYTE		PAN     c_v+21
	BYTE		N24     Ds3 
	BYTE	W01
	BYTE		VOL     23*mus_b_pyramid_mvl/mxv
	BYTE	W01
	BYTE		        31*mus_b_pyramid_mvl/mxv
	BYTE	W01
	BYTE		        36*mus_b_pyramid_mvl/mxv
	BYTE	W01
	BYTE		        46*mus_b_pyramid_mvl/mxv
	BYTE	W02
	BYTE		        54*mus_b_pyramid_mvl/mxv
	BYTE	W01
	BYTE		        57*mus_b_pyramid_mvl/mxv
	BYTE	W01
	BYTE		        63*mus_b_pyramid_mvl/mxv
	BYTE	W01
	BYTE		        71*mus_b_pyramid_mvl/mxv
	BYTE	W01
	BYTE		        79*mus_b_pyramid_mvl/mxv
	BYTE	W02
	BYTE		        84*mus_b_pyramid_mvl/mxv
	BYTE	W01
	BYTE		        91*mus_b_pyramid_mvl/mxv
	BYTE	W11
// 031   ----------------------------------------
	BYTE		VOICE   24
	BYTE		PAN     c_v+32
	BYTE		N48     Gs3   v080
	BYTE	W12
	BYTE		MOD     7
	BYTE	W12
	BYTE		VOL     68*mus_b_pyramid_mvl/mxv
	BYTE	W24
	BYTE		        99*mus_b_pyramid_mvl/mxv
	BYTE		MOD     0
	BYTE	W48
// 032   ----------------------------------------
	BYTE		BEND    c_v+0
	BYTE		N48   
	BYTE	W06
	BYTE		BEND    c_v-6
	BYTE	W06
	BYTE		MOD     7
	BYTE		BEND    c_v+0
	BYTE	W12
	BYTE		VOL     68*mus_b_pyramid_mvl/mxv
	BYTE	W24
	BYTE		        99*mus_b_pyramid_mvl/mxv
	BYTE		MOD     0
	BYTE	W48
// 033   ----------------------------------------
	BYTE	W96
// 034   ----------------------------------------
	BYTE	W96
	BYTE	GoTo
	 POIN2	mus_b_pyramid_4_B1
mus_b_pyramid_4_B2:
// 035   ----------------------------------------
	BYTE	FINE

//**************** Track 5 (Midi-Chn.5) ****************//

mus_b_pyramid_5:
	BYTE	KEYSH   mus_b_pyramid_key+0
// 000   ----------------------------------------
	BYTE		VOICE   14
	BYTE		VOL     91*mus_b_pyramid_mvl/mxv
	BYTE		LFOS    44
	BYTE		BENDR   12
	BYTE		PAN     c_v-15
	BYTE	W24
// 001   ----------------------------------------
	BYTE	W96
// 002   ----------------------------------------
	BYTE	W96
// 003   ----------------------------------------
	BYTE	W84
	BYTE		N12     An3   v112
	BYTE	W12
// 004   ----------------------------------------
	BYTE		N48     Fn4 
	BYTE	W12
	BYTE		VOL     68*mus_b_pyramid_mvl/mxv
	BYTE	W24
	BYTE		        46*mus_b_pyramid_mvl/mxv
	BYTE	W12
	BYTE		        91*mus_b_pyramid_mvl/mxv
	BYTE	W36
	BYTE		N12     Cn4 
	BYTE	W12
// 005   ----------------------------------------
	BYTE		N48     Fn4 
	BYTE	W12
	BYTE		VOL     68*mus_b_pyramid_mvl/mxv
	BYTE	W24
	BYTE		        46*mus_b_pyramid_mvl/mxv
	BYTE	W12
	BYTE		        91*mus_b_pyramid_mvl/mxv
	BYTE	W48
mus_b_pyramid_5_B1:
// 006   ----------------------------------------
	BYTE		VOICE   14
	BYTE	W24
	BYTE		N24     As4   v112
	BYTE	W12
	BYTE		VOL     68*mus_b_pyramid_mvl/mxv
	BYTE	W12
	BYTE		        91*mus_b_pyramid_mvl/mxv
	BYTE		N24     An4 
	BYTE	W12
	BYTE		VOL     68*mus_b_pyramid_mvl/mxv
	BYTE	W12
	BYTE		        91*mus_b_pyramid_mvl/mxv
	BYTE		N24     Fs4 
	BYTE	W12
	BYTE		VOL     68*mus_b_pyramid_mvl/mxv
	BYTE	W12
// 007   ----------------------------------------
	BYTE		        91*mus_b_pyramid_mvl/mxv
	BYTE		N12     Fn4 
	BYTE	W12
	BYTE		N36     An4 
	BYTE	W12
	BYTE		VOL     68*mus_b_pyramid_mvl/mxv
	BYTE	W12
	BYTE		        46*mus_b_pyramid_mvl/mxv
	BYTE	W12
	BYTE		        91*mus_b_pyramid_mvl/mxv
	BYTE		N13     Fn4 
	BYTE	W12
	BYTE		N36     Cn5 
	BYTE	W12
	BYTE		VOL     68*mus_b_pyramid_mvl/mxv
	BYTE	W12
	BYTE		        46*mus_b_pyramid_mvl/mxv
	BYTE	W12
// 008   ----------------------------------------
	BYTE		        91*mus_b_pyramid_mvl/mxv
	BYTE		N48     Cn4 
	BYTE	W12
	BYTE		VOL     68*mus_b_pyramid_mvl/mxv
	BYTE	W24
	BYTE		        46*mus_b_pyramid_mvl/mxv
	BYTE	W12
	BYTE		        91*mus_b_pyramid_mvl/mxv
	BYTE		N48     An3 
	BYTE	W12
	BYTE		VOL     68*mus_b_pyramid_mvl/mxv
	BYTE	W24
	BYTE		        46*mus_b_pyramid_mvl/mxv
	BYTE	W12
// 009   ----------------------------------------
	BYTE		        91*mus_b_pyramid_mvl/mxv
	BYTE		N48     Fn4 
	BYTE	W12
	BYTE		VOL     68*mus_b_pyramid_mvl/mxv
	BYTE	W24
	BYTE		        46*mus_b_pyramid_mvl/mxv
	BYTE	W12
	BYTE		        91*mus_b_pyramid_mvl/mxv
	BYTE		N12     An4 
	BYTE	W12
	BYTE		N36     Fn5 
	BYTE	W12
	BYTE		VOL     68*mus_b_pyramid_mvl/mxv
	BYTE	W12
	BYTE		        46*mus_b_pyramid_mvl/mxv
	BYTE	W12
// 010   ----------------------------------------
	BYTE		        91*mus_b_pyramid_mvl/mxv
	BYTE	W96
// 011   ----------------------------------------
	BYTE	W96
// 012   ----------------------------------------
	BYTE	W96
// 013   ----------------------------------------
	BYTE	W96
// 014   ----------------------------------------
	BYTE		VOICE   24
	BYTE	W96
// 015   ----------------------------------------
	BYTE		VOL     68*mus_b_pyramid_mvl/mxv
	BYTE		PAN     c_v-41
	BYTE		N12     Cn5 
	BYTE	W06
	BYTE		MOD     8
	BYTE		VOL     46*mus_b_pyramid_mvl/mxv
	BYTE	W06
	BYTE		MOD     0
	BYTE		VOL     68*mus_b_pyramid_mvl/mxv
	BYTE		N03     As4 
	BYTE	W03
	BYTE		        Cn5 
	BYTE	W03
	BYTE		        As4 
	BYTE	W06
	BYTE		PAN     c_v-23
	BYTE		N12     An4 
	BYTE	W06
	BYTE		MOD     8
	BYTE		VOL     46*mus_b_pyramid_mvl/mxv
	BYTE	W06
	BYTE		MOD     0
	BYTE		VOL     68*mus_b_pyramid_mvl/mxv
	BYTE		N12     Fs4 
	BYTE	W06
	BYTE		MOD     8
	BYTE		VOL     46*mus_b_pyramid_mvl/mxv
	BYTE	W06
	BYTE		MOD     0
	BYTE		VOL     68*mus_b_pyramid_mvl/mxv
	BYTE		PAN     c_v+13
	BYTE		N12     Fn4 
	BYTE	W06
	BYTE		MOD     8
	BYTE		VOL     46*mus_b_pyramid_mvl/mxv
	BYTE	W06
	BYTE		MOD     0
	BYTE		VOL     68*mus_b_pyramid_mvl/mxv
	BYTE		N12     Ds4 
	BYTE	W06
	BYTE		MOD     8
	BYTE		VOL     46*mus_b_pyramid_mvl/mxv
	BYTE	W06
	BYTE		MOD     0
	BYTE		VOL     68*mus_b_pyramid_mvl/mxv
	BYTE		PAN     c_v+33
	BYTE		N06     As3 
	BYTE	W06
	BYTE		        Fs3 
	BYTE	W06
	BYTE		        Ds4 
	BYTE	W06
	BYTE		        Fs4 
	BYTE	W06
// 016   ----------------------------------------
	BYTE		VOL     91*mus_b_pyramid_mvl/mxv
	BYTE		PAN     c_v-14
	BYTE	W96
// 017   ----------------------------------------
	BYTE	W96
// 018   ----------------------------------------
	BYTE	W96
// 019   ----------------------------------------
	BYTE	W96
// 020   ----------------------------------------
	BYTE	W96
// 021   ----------------------------------------
	BYTE	W96
// 022   ----------------------------------------
	BYTE	W96
// 023   ----------------------------------------
	BYTE	W96
// 024   ----------------------------------------
	BYTE	W96
// 025   ----------------------------------------
	BYTE	W96
// 026   ----------------------------------------
	BYTE	W96
// 027   ----------------------------------------
	BYTE	W96
// 028   ----------------------------------------
	BYTE	W96
// 029   ----------------------------------------
	BYTE	W96
// 030   ----------------------------------------
	BYTE	W96
// 031   ----------------------------------------
	BYTE		VOICE   24
	BYTE		PAN     c_v-7
	BYTE		N48     Fn4 
	BYTE	W12
	BYTE		MOD     7
	BYTE	W12
	BYTE		VOL     68*mus_b_pyramid_mvl/mxv
	BYTE	W24
	BYTE		        91*mus_b_pyramid_mvl/mxv
	BYTE		MOD     0
	BYTE	W48
// 032   ----------------------------------------
	BYTE		BEND    c_v+0
	BYTE		N48   
	BYTE	W06
	BYTE		BEND    c_v-6
	BYTE	W06
	BYTE		MOD     7
	BYTE		BEND    c_v+0
	BYTE	W12
	BYTE		VOL     68*mus_b_pyramid_mvl/mxv
	BYTE	W24
	BYTE		        91*mus_b_pyramid_mvl/mxv
	BYTE		MOD     0
	BYTE	W36
	BYTE		N12     Cn3 
	BYTE	W12
// 033   ----------------------------------------
	BYTE		VOICE   14
	BYTE		N48     Fn3 
	BYTE	W24
	BYTE		VOL     68*mus_b_pyramid_mvl/mxv
	BYTE	W24
	BYTE		        91*mus_b_pyramid_mvl/mxv
	BYTE	W36
	BYTE		N12     Fn4 
	BYTE	W12
// 034   ----------------------------------------
	BYTE		        Fn3 
	BYTE	W12
	BYTE		        Cn3 
	BYTE	W12
	BYTE		N24     Cn4 
	BYTE	W24
	BYTE		N48     Fn3 
	BYTE	W24
	BYTE		VOL     68*mus_b_pyramid_mvl/mxv
	BYTE	W24
	BYTE	GoTo
	 POIN2	mus_b_pyramid_5_B1
mus_b_pyramid_5_B2:
// 035   ----------------------------------------
	BYTE		VOL     91*mus_b_pyramid_mvl/mxv
	BYTE	FINE

//**************** Track 6 (Midi-Chn.6) ****************//

mus_b_pyramid_6:
	BYTE	KEYSH   mus_b_pyramid_key+0
// 000   ----------------------------------------
	BYTE		VOICE   47
	BYTE		LFOS    44
	BYTE		BENDR   12
	BYTE		VOL     91*mus_b_pyramid_mvl/mxv
	BYTE		PAN     c_v+32
	BYTE		N06     Fn2   v112
	BYTE	W06
	BYTE		N06   
	BYTE	W06
	BYTE		N03     Cn2   v064
	BYTE	W03
	BYTE		        Cn2   v092
	BYTE	W03
	BYTE		        Cn2   v112
	BYTE	W03
	BYTE		        Cn2   v127
	BYTE	W03
// 001   ----------------------------------------
	BYTE		N24     As1 
	BYTE	W12
	BYTE		VOL     68*mus_b_pyramid_mvl/mxv
	BYTE	W12
	BYTE		        91*mus_b_pyramid_mvl/mxv
	BYTE		N24   
	BYTE	W12
	BYTE		VOL     68*mus_b_pyramid_mvl/mxv
	BYTE	W12
	BYTE		        91*mus_b_pyramid_mvl/mxv
	BYTE		N24   
	BYTE	W12
	BYTE		VOL     68*mus_b_pyramid_mvl/mxv
	BYTE	W12
	BYTE		        91*mus_b_pyramid_mvl/mxv
	BYTE		N12     As2 
	BYTE	W12
	BYTE		        Fs2   v112
	BYTE	W12
// 002   ----------------------------------------
	BYTE		N24     Cn2   v127
	BYTE	W12
	BYTE		VOL     68*mus_b_pyramid_mvl/mxv
	BYTE	W12
	BYTE		        91*mus_b_pyramid_mvl/mxv
	BYTE		N24   
	BYTE	W12
	BYTE		VOL     68*mus_b_pyramid_mvl/mxv
	BYTE	W12
	BYTE		        91*mus_b_pyramid_mvl/mxv
	BYTE		N24     Bn1 
	BYTE	W12
	BYTE		VOL     68*mus_b_pyramid_mvl/mxv
	BYTE	W12
	BYTE		        91*mus_b_pyramid_mvl/mxv
	BYTE		N24     As1 
	BYTE	W24
// 003   ----------------------------------------
	BYTE		N06     Fn3   v112
	BYTE	W06
	BYTE		N06   
	BYTE	W06
	BYTE		N12     Bn1 
	BYTE	W12
	BYTE		N06     Fn3 
	BYTE	W06
	BYTE		N06   
	BYTE	W06
	BYTE		N12     Bn2 
	BYTE	W12
	BYTE		N06     An2 
	BYTE	W06
	BYTE		N06   
	BYTE	W06
	BYTE		N12     Bn1 
	BYTE	W12
	BYTE		        Fn2 
	BYTE	W12
	BYTE		        Bn1 
	BYTE	W12
// 004   ----------------------------------------
mus_b_pyramid_6_004:
	BYTE		N12     Fn2   v112
	BYTE	W24
	BYTE		N12   
	BYTE	W24
	BYTE		N12   
	BYTE	W24
	BYTE		N12   
	BYTE	W12
	BYTE		        Fs2 
	BYTE	W12
	BYTE	PEND
// 005   ----------------------------------------
mus_b_pyramid_6_005:
	BYTE		N12     Fn2   v112
	BYTE	W24
	BYTE		N12   
	BYTE	W24
	BYTE		N06   
	BYTE	W06
	BYTE		N06   
	BYTE	W06
	BYTE		N12     Cn2 
	BYTE	W12
	BYTE		N12   
	BYTE	W12
	BYTE		        Fn2 
	BYTE	W12
	BYTE	PEND
mus_b_pyramid_6_B1:
// 006   ----------------------------------------
	BYTE	PATT
	 POIN2	mus_b_pyramid_6_004
// 007   ----------------------------------------
	BYTE		N12     Fn2   v112
	BYTE	W24
	BYTE		N12   
	BYTE	W24
	BYTE		N06   
	BYTE	W06
	BYTE		N06   
	BYTE	W06
	BYTE		N12     Cn2 
	BYTE	W12
	BYTE		        Fn2 
	BYTE	W12
	BYTE		        Cn2 
	BYTE	W12
// 008   ----------------------------------------
	BYTE	PATT
	 POIN2	mus_b_pyramid_6_004
// 009   ----------------------------------------
	BYTE		N12     Fn2   v112
	BYTE	W24
	BYTE		N12   
	BYTE	W24
	BYTE		N06   
	BYTE	W06
	BYTE		N06   
	BYTE	W06
	BYTE		N12     Cn2 
	BYTE	W12
	BYTE		N12   
	BYTE	W12
	BYTE		        Fn1 
	BYTE	W12
// 010   ----------------------------------------
	BYTE	PATT
	 POIN2	mus_b_pyramid_6_004
// 011   ----------------------------------------
	BYTE	PATT
	 POIN2	mus_b_pyramid_6_005
// 012   ----------------------------------------
	BYTE	PATT
	 POIN2	mus_b_pyramid_6_004
// 013   ----------------------------------------
	BYTE		N12     Fn2   v112
	BYTE	W24
	BYTE		N12   
	BYTE	W24
	BYTE		N06   
	BYTE	W06
	BYTE		N06   
	BYTE	W06
	BYTE		N12     Cn2 
	BYTE	W24
	BYTE		N06     Ds2 
	BYTE	W06
	BYTE		N06   
	BYTE	W06
// 014   ----------------------------------------
	BYTE		N06   
	BYTE	W06
	BYTE		N06   
	BYTE	W06
	BYTE		N84     Gn1 
	BYTE	W12
	BYTE		VOL     68*mus_b_pyramid_mvl/mxv
	BYTE	W24
	BYTE		        57*mus_b_pyramid_mvl/mxv
	BYTE	W12
	BYTE		        46*mus_b_pyramid_mvl/mxv
	BYTE	W12
	BYTE		        34*mus_b_pyramid_mvl/mxv
	BYTE	W12
	BYTE		        23*mus_b_pyramid_mvl/mxv
	BYTE	W12
// 015   ----------------------------------------
	BYTE		        91*mus_b_pyramid_mvl/mxv
	BYTE	W84
	BYTE		N06     Ds2 
	BYTE	W06
	BYTE		N06   
	BYTE	W06
// 016   ----------------------------------------
	BYTE		N12   
	BYTE	W12
	BYTE		N84     Gn1 
	BYTE	W12
	BYTE		VOL     68*mus_b_pyramid_mvl/mxv
	BYTE	W24
	BYTE		        54*mus_b_pyramid_mvl/mxv
	BYTE	W12
	BYTE		        46*mus_b_pyramid_mvl/mxv
	BYTE	W12
	BYTE		        36*mus_b_pyramid_mvl/mxv
	BYTE	W12
	BYTE		        23*mus_b_pyramid_mvl/mxv
	BYTE	W12
// 017   ----------------------------------------
	BYTE		        91*mus_b_pyramid_mvl/mxv
	BYTE	W96
// 018   ----------------------------------------
	BYTE		VOICE   30
	BYTE		PAN     c_v-24
	BYTE		VOL     81*mus_b_pyramid_mvl/mxv
	BYTE		N06     As2   v064
	BYTE	W06
	BYTE		N12     As2   v020
	BYTE	W18
	BYTE		N06     As2   v064
	BYTE	W06
	BYTE		N12     As2   v020
	BYTE	W18
	BYTE		N06     As2   v064
	BYTE	W06
	BYTE		N12     As2   v024
	BYTE	W18
	BYTE		N03     As2   v064
	BYTE	W03
	BYTE		        As2   v024
	BYTE	W03
	BYTE		        As2   v064
	BYTE	W03
	BYTE		N03   
	BYTE	W03
	BYTE		N06     Fn3   v020
	BYTE	W06
	BYTE		        Dn3   v064
	BYTE	W06
// 019   ----------------------------------------
	BYTE		        Fn2 
	BYTE	W06
	BYTE		N03     Cn3 
	BYTE	W03
	BYTE		N06     Cn3   v020
	BYTE	W09
	BYTE		        Fn2   v064
	BYTE	W06
	BYTE		        Fn2   v024
	BYTE	W06
	BYTE		        Fn3   v064
	BYTE	W06
	BYTE		N12     Fn3   v020
	BYTE	W12
	BYTE		N06     En3   v064
	BYTE	W06
	BYTE		        Fn3 
	BYTE	W06
	BYTE		        Bn2 
	BYTE	W06
	BYTE		        Cn3 
	BYTE	W06
	BYTE		N03     Fn2 
	BYTE	W03
	BYTE		        Fn2   v020
	BYTE	W03
	BYTE		        Fn2   v064
	BYTE	W03
	BYTE		        Fn2   v020
	BYTE	W03
	BYTE		N06     Fn3   v064
	BYTE	W06
	BYTE		        Cn3 
	BYTE	W06
// 020   ----------------------------------------
	BYTE		        As2 
	BYTE	W06
	BYTE		N12     As2   v020
	BYTE	W18
	BYTE		N06     As2   v064
	BYTE	W06
	BYTE		N12     As2   v020
	BYTE	W18
	BYTE		N06     As2   v064
	BYTE	W06
	BYTE		N12     As2   v020
	BYTE	W18
	BYTE		N03     As2   v064
	BYTE	W03
	BYTE		        As2   v024
	BYTE	W03
	BYTE		        As2   v064
	BYTE	W03
	BYTE		        As2   v024
	BYTE	W03
	BYTE		N06     Fn3   v064
	BYTE	W06
	BYTE		        Dn3 
	BYTE	W06
// 021   ----------------------------------------
	BYTE		        Fn2 
	BYTE	W06
	BYTE		N03     Fn3 
	BYTE	W06
	BYTE		N06     Cn3 
	BYTE	W06
	BYTE		N12     Cn3   v024
	BYTE	W12
	BYTE		N06     Gn3   v064
	BYTE	W06
	BYTE		        Gn3   v024
	BYTE	W06
	BYTE		        Cn3   v064
	BYTE	W06
	BYTE		        An3 
	BYTE	W06
	BYTE		N03     As3 
	BYTE	W06
	BYTE		N06     Fn3 
	BYTE	W06
	BYTE		N03     Gn3 
	BYTE	W06
	BYTE		        Cn3 
	BYTE	W06
	BYTE		N03   
	BYTE	W06
	BYTE		N06     Fn3 
	BYTE	W06
	BYTE		        Cn3 
	BYTE	W06
// 022   ----------------------------------------
	BYTE		        As2 
	BYTE	W06
	BYTE		N12     As2   v024
	BYTE	W18
	BYTE		N06     As2   v064
	BYTE	W06
	BYTE		N12     As2   v024
	BYTE	W18
	BYTE		N06     As2   v064
	BYTE	W06
	BYTE		N12     As2   v024
	BYTE	W18
	BYTE		N03     As2   v064
	BYTE	W03
	BYTE		        As2   v020
	BYTE	W03
	BYTE		        As2   v064
	BYTE	W03
	BYTE		        As2   v020
	BYTE	W03
	BYTE		N06     Fn3   v064
	BYTE	W06
	BYTE		        Dn3 
	BYTE	W06
// 023   ----------------------------------------
	BYTE		N03     Fn2 
	BYTE	W06
	BYTE		N06   
	BYTE	W06
	BYTE		        Fn2   v028
	BYTE	W06
	BYTE		        Fn2   v064
	BYTE	W06
	BYTE		        Fn2   v020
	BYTE	W06
	BYTE		        Ds3   v064
	BYTE	W06
	BYTE		N12     Ds3   v020
	BYTE	W12
	BYTE		N06     En3   v064
	BYTE	W06
	BYTE		        Fn3 
	BYTE	W06
	BYTE		        Bn2 
	BYTE	W06
	BYTE		        Cn3 
	BYTE	W06
	BYTE		N03     Fn2 
	BYTE	W03
	BYTE		        Fn2   v020
	BYTE	W03
	BYTE		        Fn2   v064
	BYTE	W03
	BYTE		        Fn2   v020
	BYTE	W03
	BYTE		N06     Fn3   v064
	BYTE	W06
	BYTE		        Cn3 
	BYTE	W06
// 024   ----------------------------------------
	BYTE		        As2 
	BYTE	W06
	BYTE		N12     As2   v024
	BYTE	W18
	BYTE		N06     As2   v064
	BYTE	W06
	BYTE		N12     As2   v024
	BYTE	W18
	BYTE		N06     As2   v064
	BYTE	W06
	BYTE		N12     As2   v020
	BYTE	W18
	BYTE		N03     As2   v064
	BYTE	W06
	BYTE		N03   
	BYTE	W06
	BYTE		N06     Fn3 
	BYTE	W06
	BYTE		        Cs3 
	BYTE	W06
// 025   ----------------------------------------
	BYTE		N24     Fn1 
	BYTE	W12
	BYTE		MOD     7
	BYTE	W12
	BYTE		        0
	BYTE		N24     En1 
	BYTE	W12
	BYTE		MOD     6
	BYTE	W12
	BYTE		        0
	BYTE		N06     As1   v048
	BYTE	W06
	BYTE		        Cs2 
	BYTE	W06
	BYTE		N24     En2 
	BYTE	W12
	BYTE		PAN     c_v-33
	BYTE		MOD     6
	BYTE	W12
	BYTE		PAN     c_v-23
	BYTE		MOD     0
	BYTE		N12     Gn2 
	BYTE	W12
// 026   ----------------------------------------
	BYTE		VOICE   47
	BYTE		PAN     c_v+32
	BYTE		VOL     89*mus_b_pyramid_mvl/mxv
	BYTE	W96
// 027   ----------------------------------------
	BYTE	W96
// 028   ----------------------------------------
	BYTE	W96
// 029   ----------------------------------------
	BYTE	W96
// 030   ----------------------------------------
	BYTE		N12     An2   v112
	BYTE	W12
	BYTE		        Bn1 
	BYTE	W12
	BYTE		N06     Fn3 
	BYTE	W06
	BYTE		N06   
	BYTE	W06
	BYTE		N12     Bn2 
	BYTE	W12
	BYTE		N06     An2 
	BYTE	W06
	BYTE		N06   
	BYTE	W06
	BYTE		N12     Bn1 
	BYTE	W12
	BYTE		N06     Bn2 
	BYTE	W06
	BYTE		N18     Fn2 
	BYTE	W18
// 031   ----------------------------------------
	BYTE	W96
// 032   ----------------------------------------
	BYTE	W96
// 033   ----------------------------------------
	BYTE		N12   
	BYTE	W24
	BYTE		N12   
	BYTE	W24
	BYTE		N12   
	BYTE	W36
	BYTE		N06     Fn3 
	BYTE	W06
	BYTE		        Cn3 
	BYTE	W06
// 034   ----------------------------------------
	BYTE		N12     Fn2 
	BYTE	W12
	BYTE		        Cn2 
	BYTE	W12
	BYTE		        Cn3 
	BYTE	W24
	BYTE		N06     Fn2 
	BYTE	W06
	BYTE		N06   
	BYTE	W06
	BYTE		N12     Cn2 
	BYTE	W12
	BYTE		N12   
	BYTE	W12
	BYTE		        Fn2 
	BYTE	W12
	BYTE	GoTo
	 POIN2	mus_b_pyramid_6_B1
mus_b_pyramid_6_B2:
// 035   ----------------------------------------
	BYTE	FINE

//**************** Track 7 (Midi-Chn.7) ****************//

mus_b_pyramid_7:
	BYTE	KEYSH   mus_b_pyramid_key+0
// 000   ----------------------------------------
	BYTE		VOICE   85
	BYTE		LFOS    51
	BYTE		XCMD    xIECV   18
	BYTE		        xIECV   16
	BYTE		BENDR   12
	BYTE		VOL     91*mus_b_pyramid_mvl/mxv
	BYTE		PAN     c_v+0
	BYTE		BEND    c_v+1
	BYTE	W24
// 001   ----------------------------------------
	BYTE		        c_v+1
	BYTE	W24
	BYTE		N06     As3   v112
	BYTE	W12
	BYTE		N48     Ds4 
	BYTE	W12
	BYTE		VOL     46*mus_b_pyramid_mvl/mxv
	BYTE		MOD     11
	BYTE	W36
	BYTE		        0
	BYTE		VOL     91*mus_b_pyramid_mvl/mxv
	BYTE		N06     En4 
	BYTE	W06
	BYTE		        Fn4 
	BYTE	W06
// 002   ----------------------------------------
	BYTE		N48     Fs4 
	BYTE	W12
	BYTE		VOL     46*mus_b_pyramid_mvl/mxv
	BYTE		MOD     11
	BYTE	W36
	BYTE		        0
	BYTE		VOL     91*mus_b_pyramid_mvl/mxv
	BYTE		N24     Gn4 
	BYTE	W12
	BYTE		VOL     46*mus_b_pyramid_mvl/mxv
	BYTE		MOD     8
	BYTE	W12
	BYTE		        0
	BYTE		VOL     91*mus_b_pyramid_mvl/mxv
	BYTE		N24     Gs4 
	BYTE	W12
	BYTE		VOL     46*mus_b_pyramid_mvl/mxv
	BYTE		MOD     8
	BYTE	W12
// 003   ----------------------------------------
	BYTE		        0
	BYTE		VOL     68*mus_b_pyramid_mvl/mxv
	BYTE		N03     An4 
	BYTE	W06
	BYTE		N03   
	BYTE	W06
	BYTE		N12     Fn1 
	BYTE	W12
	BYTE		N03     An4 
	BYTE	W06
	BYTE		N03   
	BYTE	W06
	BYTE		N12     Bn1 
	BYTE	W12
	BYTE		N06     An1 
	BYTE	W12
	BYTE		VOL     37*mus_b_pyramid_mvl/mxv
	BYTE		N12     An3 
	BYTE	W02
	BYTE		VOL     55*mus_b_pyramid_mvl/mxv
	BYTE	W04
	BYTE		        68*mus_b_pyramid_mvl/mxv
	BYTE	W06
	BYTE		N24     An4 
	BYTE	W03
	BYTE		VOL     26*mus_b_pyramid_mvl/mxv
	BYTE	W01
	BYTE		        29*mus_b_pyramid_mvl/mxv
	BYTE	W02
	BYTE		        36*mus_b_pyramid_mvl/mxv
	BYTE	W01
	BYTE		        37*mus_b_pyramid_mvl/mxv
	BYTE	W01
	BYTE		        44*mus_b_pyramid_mvl/mxv
	BYTE	W01
	BYTE		        47*mus_b_pyramid_mvl/mxv
	BYTE	W01
	BYTE		        52*mus_b_pyramid_mvl/mxv
	BYTE	W02
	BYTE		        58*mus_b_pyramid_mvl/mxv
	BYTE	W01
	BYTE		        63*mus_b_pyramid_mvl/mxv
	BYTE	W01
	BYTE		        68*mus_b_pyramid_mvl/mxv
	BYTE	W01
	BYTE		        91*mus_b_pyramid_mvl/mxv
	BYTE	W09
// 004   ----------------------------------------
	BYTE		        68*mus_b_pyramid_mvl/mxv
	BYTE		N06     Fn2 
	BYTE	W96
// 005   ----------------------------------------
	BYTE	W72
	BYTE		VOICE   85
	BYTE		N06     Ds3 
	BYTE	W06
	BYTE		        Fn3 
	BYTE	W06
	BYTE		        Fs3 
	BYTE	W06
	BYTE		        Cn4 
	BYTE	W06
mus_b_pyramid_7_B1:
// 006   ----------------------------------------
	BYTE		N60     Ds4   v112
	BYTE	W12
	BYTE		MOD     6
	BYTE		VOL     46*mus_b_pyramid_mvl/mxv
	BYTE	W48
	BYTE		MOD     0
	BYTE		VOL     68*mus_b_pyramid_mvl/mxv
	BYTE		N03     Cs4 
	BYTE	W03
	BYTE		        Ds4 
	BYTE	W03
	BYTE		N06     Cs4 
	BYTE	W06
	BYTE		N10     Cn4 
	BYTE	W10
	BYTE		N01     Bn3   v080
	BYTE	W02
	BYTE		N12     As3   v112
	BYTE	W12
// 007   ----------------------------------------
	BYTE		N32     An3 
	BYTE	W12
	BYTE		MOD     6
	BYTE		VOL     46*mus_b_pyramid_mvl/mxv
	BYTE	W21
	BYTE		MOD     0
	BYTE		VOL     68*mus_b_pyramid_mvl/mxv
	BYTE		N01     As3   v080
	BYTE	W01
	BYTE		        Bn3 
	BYTE	W02
	BYTE		N12     Cn4   v112
	BYTE	W12
	BYTE		N03     Fs3 
	BYTE	W03
	BYTE		N01     Gs3   v080
	BYTE		N01     An3 
	BYTE	W01
	BYTE		        Gn3 
	BYTE	W02
	BYTE		N06     Fs3   v112
	BYTE	W06
	BYTE		N36     Fn3 
	BYTE	W12
	BYTE		MOD     6
	BYTE		VOL     46*mus_b_pyramid_mvl/mxv
	BYTE	W24
// 008   ----------------------------------------
	BYTE		MOD     0
	BYTE		VOL     68*mus_b_pyramid_mvl/mxv
	BYTE		N12     Ds3 
	BYTE	W12
	BYTE		        Fn3 
	BYTE	W12
	BYTE		        Fs3 
	BYTE	W12
	BYTE		        Fn3 
	BYTE	W12
	BYTE		N08     An3 
	BYTE	W08
	BYTE		N01     Gs3   v080
	BYTE	W01
	BYTE		        Gn3 
	BYTE	W01
	BYTE		        Fs3 
	BYTE	W02
	BYTE		N12     Fn3   v112
	BYTE	W12
	BYTE		N08     Cn4 
	BYTE	W08
	BYTE		N01     As3   v080
	BYTE	W01
	BYTE		        An3 
	BYTE	W01
	BYTE		        Fs3 
	BYTE	W02
	BYTE		N12     Fn3   v112
	BYTE	W12
// 009   ----------------------------------------
	BYTE		N03     Fs3 
	BYTE	W03
	BYTE		N01     Gs3   v080
	BYTE		N01     An3 
	BYTE	W01
	BYTE		        Gn3 
	BYTE	W02
	BYTE		N06     Fs3   v112
	BYTE	W06
	BYTE		N36     Fn3 
	BYTE	W12
	BYTE		MOD     6
	BYTE		VOL     46*mus_b_pyramid_mvl/mxv
	BYTE	W24
	BYTE		MOD     0
	BYTE		VOL     68*mus_b_pyramid_mvl/mxv
	BYTE		N03     Cn4 
	BYTE	W03
	BYTE		N01     Gs3   v080
	BYTE		N01     An3 
	BYTE	W01
	BYTE		        Gn3 
	BYTE	W02
	BYTE		N06     Fs3   v112
	BYTE	W06
	BYTE		N24     Fn3 
	BYTE	W12
	BYTE		MOD     6
	BYTE		VOL     46*mus_b_pyramid_mvl/mxv
	BYTE	W09
	BYTE		BEND    c_v+1
	BYTE	W01
	BYTE		        c_v+1
	BYTE	W02
	BYTE		VOICE   80
	BYTE		MOD     0
	BYTE		VOL     68*mus_b_pyramid_mvl/mxv
	BYTE		N03     Ds4 
	BYTE	W03
	BYTE		        Fs4 
	BYTE	W03
	BYTE		        An4 
	BYTE	W03
	BYTE		        Cs5 
	BYTE	W03
// 010   ----------------------------------------
	BYTE		N54     Ds5 
	BYTE	W12
	BYTE		MOD     6
	BYTE		VOL     46*mus_b_pyramid_mvl/mxv
	BYTE	W24
	BYTE	W01
	BYTE		        23*mus_b_pyramid_mvl/mxv
	BYTE	W17
	BYTE		MOD     0
	BYTE		VOL     68*mus_b_pyramid_mvl/mxv
	BYTE		N01     Cs5   v080
	BYTE	W01
	BYTE		        Cn5 
	BYTE	W01
	BYTE		        As4 
	BYTE	W01
	BYTE		        Gs4 
	BYTE	W01
	BYTE		        Gn4 
	BYTE	W02
	BYTE		N12     Fs4   v112
	BYTE	W12
	BYTE		N08     Ds5 
	BYTE	W08
	BYTE		N01     Cs5   v080
	BYTE	W01
	BYTE		        Cn5 
	BYTE	W01
	BYTE		        Bn4 
	BYTE	W02
	BYTE		N12     As4   v112
	BYTE	W12
// 011   ----------------------------------------
	BYTE		N32     An4 
	BYTE	W10
	BYTE		MOD     6
	BYTE	W02
	BYTE		VOL     46*mus_b_pyramid_mvl/mxv
	BYTE	W12
	BYTE		        23*mus_b_pyramid_mvl/mxv
	BYTE	W09
	BYTE		MOD     0
	BYTE		VOL     68*mus_b_pyramid_mvl/mxv
	BYTE		N01     As4   v080
	BYTE	W01
	BYTE		        Bn4 
	BYTE	W02
	BYTE		N12     Cn5   v112
	BYTE	W12
	BYTE		N03     Fs4 
	BYTE	W03
	BYTE		N01     Gs4   v080
	BYTE		N01     An4 
	BYTE	W01
	BYTE		        Gn4 
	BYTE	W02
	BYTE		N06     Fs4   v112
	BYTE	W06
	BYTE		N36     Fn4 
	BYTE	W12
	BYTE		MOD     6
	BYTE		VOL     46*mus_b_pyramid_mvl/mxv
	BYTE	W13
	BYTE		        23*mus_b_pyramid_mvl/mxv
	BYTE	W11
// 012   ----------------------------------------
	BYTE		MOD     0
	BYTE		VOL     68*mus_b_pyramid_mvl/mxv
	BYTE		N12     Ds4 
	BYTE	W12
	BYTE		        Fn4 
	BYTE	W12
	BYTE		        Fs4 
	BYTE	W12
	BYTE		        Ds4 
	BYTE	W12
	BYTE		N07     Cn5 
	BYTE	W07
	BYTE		N01     As4   v080
	BYTE	W01
	BYTE		        An4 
	BYTE	W01
	BYTE		        Gn4 
	BYTE	W01
	BYTE		        Fs4 
	BYTE	W02
	BYTE		N12     Fn4   v112
	BYTE	W12
	BYTE		        Fs4 
	BYTE	W12
	BYTE		        Gs4 
	BYTE	W12
// 013   ----------------------------------------
	BYTE		N03     Fs4 
	BYTE	W03
	BYTE		N01     Gs4   v080
	BYTE		N01     An4 
	BYTE	W01
	BYTE		        Gn4 
	BYTE	W02
	BYTE		N06     Fs4   v112
	BYTE	W06
	BYTE		N36     Fn4 
	BYTE	W12
	BYTE		MOD     6
	BYTE		VOL     46*mus_b_pyramid_mvl/mxv
	BYTE	W12
	BYTE		        23*mus_b_pyramid_mvl/mxv
	BYTE	W12
	BYTE		MOD     0
	BYTE		VOL     68*mus_b_pyramid_mvl/mxv
	BYTE		N03     Cn5 
	BYTE	W03
	BYTE		N01     Gs4   v080
	BYTE		N01     An4 
	BYTE	W01
	BYTE		        Gn4 
	BYTE	W02
	BYTE		N06     Fs4   v112
	BYTE	W06
	BYTE		N36     Fn4 
	BYTE	W12
	BYTE		MOD     6
	BYTE		VOL     46*mus_b_pyramid_mvl/mxv
	BYTE	W13
	BYTE		        23*mus_b_pyramid_mvl/mxv
	BYTE	W11
// 014   ----------------------------------------
	BYTE		VOICE   80
	BYTE		MOD     0
	BYTE		VOL     68*mus_b_pyramid_mvl/mxv
	BYTE		BEND    c_v+1
	BYTE	W24
	BYTE		N06     Ds3 
	BYTE	W12
	BYTE		        Gn3 
	BYTE	W12
	BYTE		N24     Ds4 
	BYTE	W12
	BYTE		MOD     6
	BYTE		VOL     46*mus_b_pyramid_mvl/mxv
	BYTE	W12
	BYTE		MOD     0
	BYTE		VOL     68*mus_b_pyramid_mvl/mxv
	BYTE		N18     Cs4 
	BYTE	W12
	BYTE		VOL     46*mus_b_pyramid_mvl/mxv
	BYTE	W06
	BYTE		        68*mus_b_pyramid_mvl/mxv
	BYTE		N06     Ds4 
	BYTE	W06
// 015   ----------------------------------------
	BYTE		        Cs4 
	BYTE	W12
	BYTE		N03   
	BYTE	W03
	BYTE		N24     Cn4 
	BYTE	W09
	BYTE		MOD     6
	BYTE		VOL     46*mus_b_pyramid_mvl/mxv
	BYTE	W09
	BYTE		        23*mus_b_pyramid_mvl/mxv
	BYTE	W09
	BYTE		MOD     0
	BYTE		VOL     68*mus_b_pyramid_mvl/mxv
	BYTE		N03     Ds4 
	BYTE	W03
	BYTE		        Cs4 
	BYTE	W03
	BYTE		N48     Cn4 
	BYTE	W12
	BYTE		MOD     6
	BYTE		VOL     46*mus_b_pyramid_mvl/mxv
	BYTE	W12
	BYTE		        23*mus_b_pyramid_mvl/mxv
	BYTE	W24
// 016   ----------------------------------------
	BYTE		VOICE   85
	BYTE		MOD     0
	BYTE		VOL     68*mus_b_pyramid_mvl/mxv
	BYTE	W24
	BYTE		N06     Ds3 
	BYTE	W12
	BYTE		        Gn3 
	BYTE	W12
	BYTE		N18     Ds4 
	BYTE	W12
	BYTE		MOD     6
	BYTE		VOL     46*mus_b_pyramid_mvl/mxv
	BYTE	W06
	BYTE		MOD     0
	BYTE		VOL     68*mus_b_pyramid_mvl/mxv
	BYTE		N06     Cs4 
	BYTE	W06
	BYTE		N12     Cn4 
	BYTE	W12
	BYTE		        Cs4 
	BYTE	W12
// 017   ----------------------------------------
	BYTE		N06     Cn4 
	BYTE	W12
	BYTE		N84     Fn4 
	BYTE	W12
	BYTE		MOD     6
	BYTE		VOL     46*mus_b_pyramid_mvl/mxv
	BYTE	W48
	BYTE		        23*mus_b_pyramid_mvl/mxv
	BYTE	W12
	BYTE		        15*mus_b_pyramid_mvl/mxv
	BYTE	W12
// 018   ----------------------------------------
	BYTE		VOICE   80
	BYTE		MOD     0
	BYTE		VOL     68*mus_b_pyramid_mvl/mxv
	BYTE		N06     Dn4 
	BYTE	W18
	BYTE		N03     Fn3 
	BYTE	W06
	BYTE		N36   
	BYTE	W12
	BYTE		MOD     6
	BYTE		VOL     46*mus_b_pyramid_mvl/mxv
	BYTE	W12
	BYTE		MOD     0
	BYTE	W12
	BYTE		VOL     68*mus_b_pyramid_mvl/mxv
	BYTE	W12
	BYTE		N24     Gn3 
	BYTE	W12
	BYTE		MOD     6
	BYTE		VOL     46*mus_b_pyramid_mvl/mxv
	BYTE	W12
// 019   ----------------------------------------
	BYTE		MOD     0
	BYTE		VOL     68*mus_b_pyramid_mvl/mxv
	BYTE		N06     An3 
	BYTE	W06
	BYTE		        As3 
	BYTE	W12
	BYTE		N54     Cn4 
	BYTE	W18
	BYTE		VOL     46*mus_b_pyramid_mvl/mxv
	BYTE	W24
	BYTE	W01
	BYTE		        23*mus_b_pyramid_mvl/mxv
	BYTE	W11
	BYTE		        68*mus_b_pyramid_mvl/mxv
	BYTE		N24     Ds4 
	BYTE	W12
	BYTE		VOL     46*mus_b_pyramid_mvl/mxv
	BYTE	W12
// 020   ----------------------------------------
	BYTE		        68*mus_b_pyramid_mvl/mxv
	BYTE		N06     Dn4 
	BYTE	W18
	BYTE		N03     Fn3 
	BYTE	W06
	BYTE		N36     Dn4 
	BYTE	W12
	BYTE		MOD     6
	BYTE		VOL     46*mus_b_pyramid_mvl/mxv
	BYTE	W12
	BYTE		        23*mus_b_pyramid_mvl/mxv
	BYTE	W12
	BYTE		MOD     0
	BYTE		VOL     68*mus_b_pyramid_mvl/mxv
	BYTE	W12
	BYTE		N24     En4 
	BYTE	W12
	BYTE		MOD     6
	BYTE		VOL     46*mus_b_pyramid_mvl/mxv
	BYTE	W12
// 021   ----------------------------------------
	BYTE		MOD     0
	BYTE		VOL     68*mus_b_pyramid_mvl/mxv
	BYTE		N06     Fn4 
	BYTE	W06
	BYTE		        Gn4 
	BYTE	W06
	BYTE		        Fn4 
	BYTE	W12
	BYTE		N48     Cn4 
	BYTE	W12
	BYTE		MOD     6
	BYTE		VOL     46*mus_b_pyramid_mvl/mxv
	BYTE	W36
	BYTE		MOD     0
	BYTE		VOL     68*mus_b_pyramid_mvl/mxv
	BYTE		N24     Fn4 
	BYTE	W12
	BYTE		MOD     6
	BYTE		VOL     46*mus_b_pyramid_mvl/mxv
	BYTE	W12
// 022   ----------------------------------------
	BYTE		VOICE   83
	BYTE		MOD     0
	BYTE		VOL     68*mus_b_pyramid_mvl/mxv
	BYTE		N06     Cs4 
	BYTE	W18
	BYTE		N03     As3 
	BYTE	W06
	BYTE		N36     Cs4 
	BYTE	W12
	BYTE		MOD     6
	BYTE		VOL     46*mus_b_pyramid_mvl/mxv
	BYTE	W24
	BYTE		MOD     0
	BYTE		VOL     68*mus_b_pyramid_mvl/mxv
	BYTE	W12
	BYTE		N24     Gn3 
	BYTE	W12
	BYTE		MOD     6
	BYTE		VOL     46*mus_b_pyramid_mvl/mxv
	BYTE	W12
// 023   ----------------------------------------
	BYTE		MOD     0
	BYTE		VOL     68*mus_b_pyramid_mvl/mxv
	BYTE		N06     Gs3 
	BYTE	W06
	BYTE		        As3 
	BYTE	W12
	BYTE		N54     Cn4 
	BYTE	W18
	BYTE		MOD     6
	BYTE		VOL     46*mus_b_pyramid_mvl/mxv
	BYTE	W12
	BYTE		        23*mus_b_pyramid_mvl/mxv
	BYTE	W24
	BYTE		MOD     0
	BYTE		VOL     68*mus_b_pyramid_mvl/mxv
	BYTE		N24     Ds4 
	BYTE	W12
	BYTE		MOD     6
	BYTE		VOL     46*mus_b_pyramid_mvl/mxv
	BYTE	W12
// 024   ----------------------------------------
	BYTE		MOD     0
	BYTE		VOL     68*mus_b_pyramid_mvl/mxv
	BYTE		N06     Cs4 
	BYTE	W18
	BYTE		N03     Fn3 
	BYTE	W06
	BYTE		N36   
	BYTE	W12
	BYTE		MOD     6
	BYTE		VOL     46*mus_b_pyramid_mvl/mxv
	BYTE	W12
	BYTE		        23*mus_b_pyramid_mvl/mxv
	BYTE	W12
	BYTE		MOD     0
	BYTE		VOL     68*mus_b_pyramid_mvl/mxv
	BYTE	W12
	BYTE		N24     Gn3 
	BYTE	W12
	BYTE		MOD     6
	BYTE		VOL     46*mus_b_pyramid_mvl/mxv
	BYTE	W12
// 025   ----------------------------------------
	BYTE		VOICE   80
	BYTE		MOD     0
	BYTE		VOL     68*mus_b_pyramid_mvl/mxv
	BYTE		N36     Gs3 
	BYTE	W12
	BYTE		MOD     6
	BYTE		VOL     46*mus_b_pyramid_mvl/mxv
	BYTE	W12
	BYTE		        23*mus_b_pyramid_mvl/mxv
	BYTE	W12
	BYTE		MOD     0
	BYTE		VOL     68*mus_b_pyramid_mvl/mxv
	BYTE		N06     As3 
	BYTE	W06
	BYTE		        Gs3 
	BYTE	W06
	BYTE		N48     Gn3 
	BYTE	W12
	BYTE		MOD     6
	BYTE		VOL     46*mus_b_pyramid_mvl/mxv
	BYTE	W12
	BYTE		        23*mus_b_pyramid_mvl/mxv
	BYTE	W24
// 026   ----------------------------------------
	BYTE		VOICE   83
	BYTE		MOD     0
	BYTE		VOL     68*mus_b_pyramid_mvl/mxv
	BYTE	W96
// 027   ----------------------------------------
	BYTE		BEND    c_v+63
	BYTE		N96     Dn4   v048
	BYTE	W02
	BYTE		BEND    c_v+58
	BYTE	W03
	BYTE		        c_v+56
	BYTE	W03
	BYTE		        c_v+51
	BYTE	W03
	BYTE		        c_v+47
	BYTE	W03
	BYTE		        c_v+42
	BYTE	W03
	BYTE		        c_v+39
	BYTE	W03
	BYTE		        c_v+35
	BYTE	W03
	BYTE		        c_v+31
	BYTE	W03
	BYTE		        c_v+23
	BYTE	W03
	BYTE		        c_v+18
	BYTE	W03
	BYTE		        c_v+13
	BYTE	W03
	BYTE		        c_v+9
	BYTE	W03
	BYTE		        c_v+4
	BYTE	W03
	BYTE		        c_v+1
	BYTE	W03
	BYTE		        c_v-1
	BYTE	W01
	BYTE		        c_v+0
	BYTE	W02
	BYTE		        c_v-2
	BYTE	W04
	BYTE		        c_v-4
	BYTE	W03
	BYTE		        c_v-8
	BYTE	W03
	BYTE		        c_v-14
	BYTE	W03
	BYTE		        c_v-16
	BYTE	W03
	BYTE		        c_v-20
	BYTE	W03
	BYTE		        c_v-24
	BYTE	W03
	BYTE		        c_v-29
	BYTE	W03
	BYTE		        c_v-33
	BYTE	W03
	BYTE		        c_v-37
	BYTE	W03
	BYTE		        c_v-41
	BYTE	W03
	BYTE		        c_v-45
	BYTE	W03
	BYTE		        c_v-48
	BYTE	W03
	BYTE		        c_v-52
	BYTE	W03
	BYTE		        c_v-56
	BYTE	W03
	BYTE		        c_v-59
	BYTE	W03
// 028   ----------------------------------------
	BYTE		VOICE   80
	BYTE		BEND    c_v+63
	BYTE		N96     Cs3 
	BYTE	W02
	BYTE		BEND    c_v+58
	BYTE	W03
	BYTE		        c_v+56
	BYTE	W03
	BYTE		        c_v+51
	BYTE	W03
	BYTE		        c_v+47
	BYTE	W03
	BYTE		        c_v+42
	BYTE	W03
	BYTE		        c_v+39
	BYTE	W03
	BYTE		        c_v+35
	BYTE	W03
	BYTE		        c_v+31
	BYTE	W03
	BYTE		        c_v+23
	BYTE	W03
	BYTE		        c_v+18
	BYTE	W03
	BYTE		        c_v+13
	BYTE	W03
	BYTE		        c_v+9
	BYTE	W03
	BYTE		        c_v+4
	BYTE	W03
	BYTE		        c_v+1
	BYTE	W03
	BYTE		        c_v-1
	BYTE	W01
	BYTE		        c_v+0
	BYTE	W02
	BYTE		        c_v-2
	BYTE	W04
	BYTE		        c_v-4
	BYTE	W03
	BYTE		        c_v-8
	BYTE	W03
	BYTE		        c_v-14
	BYTE	W03
	BYTE		        c_v-16
	BYTE	W03
	BYTE		        c_v-20
	BYTE	W03
	BYTE		        c_v-24
	BYTE	W03
	BYTE		        c_v-29
	BYTE	W03
	BYTE		        c_v-33
	BYTE	W03
	BYTE		        c_v-37
	BYTE	W03
	BYTE		        c_v-41
	BYTE	W03
	BYTE		        c_v-45
	BYTE	W03
	BYTE		        c_v-48
	BYTE	W03
	BYTE		        c_v-52
	BYTE	W03
	BYTE		        c_v-56
	BYTE	W03
	BYTE		        c_v-59
	BYTE	W03
// 029   ----------------------------------------
	BYTE	W24
	BYTE		        c_v+1
	BYTE	W24
	BYTE		PAN     c_v-64
	BYTE		N03     Dn4   v044
	BYTE	W03
	BYTE		        Fn4 
	BYTE	W03
	BYTE		        Gs4 
	BYTE	W03
	BYTE		        Bn4 
	BYTE	W03
	BYTE		        Dn5 
	BYTE	W03
	BYTE		        Fn5 
	BYTE	W03
	BYTE		PAN     c_v+0
	BYTE		N03     Gs5 
	BYTE	W03
	BYTE		        Bn5 
	BYTE	W03
	BYTE		PAN     c_v+63
	BYTE		N03     Dn6 
	BYTE	W03
	BYTE		        Bn5 
	BYTE	W03
	BYTE		        Gs5 
	BYTE	W03
	BYTE		        Fn5 
	BYTE	W03
	BYTE		        Dn5 
	BYTE	W03
	BYTE		        Bn4 
	BYTE	W03
	BYTE		PAN     c_v+0
	BYTE		N03     Gs4 
	BYTE	W03
	BYTE		        Fn4 
	BYTE	W03
// 030   ----------------------------------------
	BYTE		VOICE   85
	BYTE		MOD     0
	BYTE		VOL     91*mus_b_pyramid_mvl/mxv
	BYTE		N06     An1   v112
	BYTE	W12
	BYTE		N12     Fn1 
	BYTE	W12
	BYTE		N06     Ds1 
	BYTE	W12
	BYTE		N12     Bn1 
	BYTE	W12
	BYTE		N02     An1 
	BYTE	W06
	BYTE		N02   
	BYTE	W06
	BYTE		N12     Fn2 
	BYTE	W12
	BYTE		N24     An2 
	BYTE	W24
// 031   ----------------------------------------
	BYTE	W96
// 032   ----------------------------------------
	BYTE	W72
	BYTE		N06     Ds3   v064
	BYTE	W06
	BYTE		        Fn3 
	BYTE	W06
	BYTE		        Cn4 
	BYTE	W06
	BYTE		        Fs3 
	BYTE	W06
// 033   ----------------------------------------
	BYTE	W96
// 034   ----------------------------------------
	BYTE	W72
	BYTE		        Ds3   v112
	BYTE	W06
	BYTE		        Fn3 
	BYTE	W06
	BYTE		        Fs3 
	BYTE	W06
	BYTE		        Cn4 
	BYTE	W06
	BYTE	GoTo
	 POIN2	mus_b_pyramid_7_B1
mus_b_pyramid_7_B2:
// 035   ----------------------------------------
	BYTE	FINE

//**************** Track 8 (Midi-Chn.8) ****************//

mus_b_pyramid_8:
	BYTE	KEYSH   mus_b_pyramid_key+0
// 000   ----------------------------------------
	BYTE		VOICE   86
	BYTE		LFOS    50
	BYTE		XCMD    xIECV   18
	BYTE		        xIECV   16
	BYTE		BENDR   12
	BYTE		PAN     c_v+0
	BYTE		VOL     91*mus_b_pyramid_mvl/mxv
	BYTE		BEND    c_v+0
	BYTE	W24
// 001   ----------------------------------------
	BYTE	W24
	BYTE		N06     As3   v112
	BYTE	W12
	BYTE		N48     Ds4 
	BYTE	W12
	BYTE		MOD     7
	BYTE		VOL     68*mus_b_pyramid_mvl/mxv
	BYTE	W24
	BYTE		        46*mus_b_pyramid_mvl/mxv
	BYTE	W12
	BYTE		        91*mus_b_pyramid_mvl/mxv
	BYTE		MOD     0
	BYTE		N06     En4 
	BYTE	W06
	BYTE		        Fn4 
	BYTE	W06
// 002   ----------------------------------------
	BYTE		N48     Fs4 
	BYTE	W12
	BYTE		MOD     7
	BYTE		VOL     68*mus_b_pyramid_mvl/mxv
	BYTE	W12
	BYTE		        46*mus_b_pyramid_mvl/mxv
	BYTE	W24
	BYTE		MOD     0
	BYTE		VOL     91*mus_b_pyramid_mvl/mxv
	BYTE		N24     Gn4 
	BYTE	W12
	BYTE		VOL     68*mus_b_pyramid_mvl/mxv
	BYTE		MOD     4
	BYTE	W06
	BYTE		VOL     46*mus_b_pyramid_mvl/mxv
	BYTE	W06
	BYTE		        91*mus_b_pyramid_mvl/mxv
	BYTE		MOD     0
	BYTE		N24     Gs4 
	BYTE	W12
	BYTE		VOL     68*mus_b_pyramid_mvl/mxv
	BYTE		MOD     4
	BYTE	W06
	BYTE		VOL     46*mus_b_pyramid_mvl/mxv
	BYTE	W06
// 003   ----------------------------------------
	BYTE		        91*mus_b_pyramid_mvl/mxv
	BYTE		MOD     0
	BYTE		N03     An4   v096
	BYTE	W06
	BYTE		N03   
	BYTE	W06
	BYTE		N12     Fn1   v112
	BYTE	W06
	BYTE		MOD     8
	BYTE	W06
	BYTE		        0
	BYTE		N02     An4   v096
	BYTE	W06
	BYTE		N02   
	BYTE	W06
	BYTE		N12     Bn1   v108
	BYTE	W06
	BYTE		MOD     8
	BYTE	W06
	BYTE		        0
	BYTE		N06     An1   v112
	BYTE	W12
	BYTE		VOL     46*mus_b_pyramid_mvl/mxv
	BYTE		N12     An3   v096
	BYTE	W02
	BYTE		VOL     60*mus_b_pyramid_mvl/mxv
	BYTE	W04
	BYTE		MOD     8
	BYTE		VOL     76*mus_b_pyramid_mvl/mxv
	BYTE	W02
	BYTE		        91*mus_b_pyramid_mvl/mxv
	BYTE	W04
	BYTE		MOD     0
	BYTE		N24     An4   v112
	BYTE	W04
	BYTE		VOL     26*mus_b_pyramid_mvl/mxv
	BYTE	W02
	BYTE		        33*mus_b_pyramid_mvl/mxv
	BYTE	W01
	BYTE		        37*mus_b_pyramid_mvl/mxv
	BYTE	W01
	BYTE		        46*mus_b_pyramid_mvl/mxv
	BYTE	W01
	BYTE		        54*mus_b_pyramid_mvl/mxv
	BYTE	W01
	BYTE		        60*mus_b_pyramid_mvl/mxv
	BYTE	W02
	BYTE		        73*mus_b_pyramid_mvl/mxv
	BYTE	W01
	BYTE		        78*mus_b_pyramid_mvl/mxv
	BYTE	W01
	BYTE		        84*mus_b_pyramid_mvl/mxv
	BYTE	W01
	BYTE		        94*mus_b_pyramid_mvl/mxv
	BYTE	W01
	BYTE		        102*mus_b_pyramid_mvl/mxv
	BYTE	W02
	BYTE		MOD     8
	BYTE		VOL     113*mus_b_pyramid_mvl/mxv
	BYTE	W06
// 004   ----------------------------------------
	BYTE		MOD     0
	BYTE	W96
// 005   ----------------------------------------
	BYTE	W72
	BYTE		VOICE   86
	BYTE		N06     Ds3 
	BYTE	W06
	BYTE		        Fn3 
	BYTE	W06
	BYTE		        Fs3 
	BYTE	W06
	BYTE		        Cn4 
	BYTE	W06
mus_b_pyramid_8_B1:
// 006   ----------------------------------------
	BYTE		N60     Ds4   v112
	BYTE	W12
	BYTE		MOD     6
	BYTE		VOL     68*mus_b_pyramid_mvl/mxv
	BYTE	W24
	BYTE	W03
	BYTE		        46*mus_b_pyramid_mvl/mxv
	BYTE	W21
	BYTE		MOD     0
	BYTE		VOL     91*mus_b_pyramid_mvl/mxv
	BYTE		N03     Cs4 
	BYTE	W03
	BYTE		        Ds4 
	BYTE	W03
	BYTE		N06     Cs4 
	BYTE	W06
	BYTE		N10     Cn4 
	BYTE	W10
	BYTE		N01     Bn3   v080
	BYTE	W02
	BYTE		N12     As3   v112
	BYTE	W12
// 007   ----------------------------------------
	BYTE		N32     An3 
	BYTE	W12
	BYTE		MOD     6
	BYTE		VOL     68*mus_b_pyramid_mvl/mxv
	BYTE	W12
	BYTE		        46*mus_b_pyramid_mvl/mxv
	BYTE	W09
	BYTE		MOD     0
	BYTE		VOL     91*mus_b_pyramid_mvl/mxv
	BYTE		N01     As3   v080
	BYTE	W01
	BYTE		        Bn3 
	BYTE	W02
	BYTE		N12     Cn4   v112
	BYTE	W12
	BYTE		N03     Fs3 
	BYTE	W03
	BYTE		N01     Gs3   v080
	BYTE		N01     An3 
	BYTE	W01
	BYTE		        Gn3 
	BYTE	W02
	BYTE		N06     Fs3   v112
	BYTE	W06
	BYTE		N36     Fn3 
	BYTE	W12
	BYTE		MOD     6
	BYTE		VOL     68*mus_b_pyramid_mvl/mxv
	BYTE	W12
	BYTE		        46*mus_b_pyramid_mvl/mxv
	BYTE	W12
// 008   ----------------------------------------
	BYTE		MOD     0
	BYTE		VOL     91*mus_b_pyramid_mvl/mxv
	BYTE		N12     Ds3 
	BYTE	W12
	BYTE		        Fn3 
	BYTE	W12
	BYTE		        Fs3 
	BYTE	W12
	BYTE		        Fn3 
	BYTE	W12
	BYTE		N08     An3 
	BYTE	W08
	BYTE		N01     Gs3   v080
	BYTE	W01
	BYTE		        Gn3 
	BYTE	W01
	BYTE		        Fs3 
	BYTE	W02
	BYTE		N12     Fn3   v112
	BYTE	W12
	BYTE		N08     Cn4 
	BYTE	W08
	BYTE		N01     As3   v080
	BYTE	W01
	BYTE		        An3 
	BYTE	W01
	BYTE		        Fs3 
	BYTE	W02
	BYTE		N12     Fn3   v112
	BYTE	W12
// 009   ----------------------------------------
	BYTE		N03     Fs3 
	BYTE	W03
	BYTE		N01     Gs3   v080
	BYTE		N01     An3 
	BYTE	W01
	BYTE		        Gn3 
	BYTE	W02
	BYTE		N06     Fs3   v112
	BYTE	W06
	BYTE		N36     Fn3 
	BYTE	W12
	BYTE		MOD     6
	BYTE		VOL     68*mus_b_pyramid_mvl/mxv
	BYTE	W12
	BYTE		        46*mus_b_pyramid_mvl/mxv
	BYTE	W12
	BYTE		MOD     0
	BYTE		VOL     91*mus_b_pyramid_mvl/mxv
	BYTE		N03     Cn4 
	BYTE	W03
	BYTE		N01     Gs3   v080
	BYTE		N01     An3 
	BYTE	W01
	BYTE		        Gn3 
	BYTE	W02
	BYTE		N06     Fs3   v112
	BYTE	W06
	BYTE		N24     Fn3 
	BYTE	W12
	BYTE		MOD     6
	BYTE		VOL     68*mus_b_pyramid_mvl/mxv
	BYTE	W12
	BYTE		VOICE   81
	BYTE		MOD     0
	BYTE		VOL     91*mus_b_pyramid_mvl/mxv
	BYTE		N03     Ds4 
	BYTE	W03
	BYTE		        Fs4 
	BYTE	W03
	BYTE		        An4 
	BYTE	W03
	BYTE		        Cs5 
	BYTE	W03
// 010   ----------------------------------------
	BYTE		N54     Ds5 
	BYTE	W12
	BYTE		MOD     6
	BYTE		VOL     68*mus_b_pyramid_mvl/mxv
	BYTE	W24
	BYTE		        46*mus_b_pyramid_mvl/mxv
	BYTE	W18
	BYTE		MOD     0
	BYTE		VOL     91*mus_b_pyramid_mvl/mxv
	BYTE		N01     Cs5   v080
	BYTE	W01
	BYTE		        Cn5 
	BYTE	W01
	BYTE		        As4 
	BYTE	W01
	BYTE		        Gs4 
	BYTE	W01
	BYTE		        Gn4 
	BYTE	W02
	BYTE		N12     Fs4   v112
	BYTE	W12
	BYTE		N08     Ds5 
	BYTE	W08
	BYTE		N01     Cs5   v080
	BYTE	W01
	BYTE		        Cn5 
	BYTE	W01
	BYTE		        Bn4 
	BYTE	W02
	BYTE		N12     As4   v112
	BYTE	W12
// 011   ----------------------------------------
	BYTE		N32     An4 
	BYTE	W10
	BYTE		MOD     6
	BYTE	W02
	BYTE		VOL     68*mus_b_pyramid_mvl/mxv
	BYTE	W12
	BYTE		        46*mus_b_pyramid_mvl/mxv
	BYTE	W09
	BYTE		MOD     0
	BYTE		VOL     91*mus_b_pyramid_mvl/mxv
	BYTE		N01     As4   v080
	BYTE	W01
	BYTE		        Bn4 
	BYTE	W02
	BYTE		N12     Cn5   v112
	BYTE	W12
	BYTE		N03     Fs4 
	BYTE	W03
	BYTE		N01     Gs4   v080
	BYTE		N01     An4 
	BYTE	W01
	BYTE		        Gn4 
	BYTE	W02
	BYTE		N06     Fs4   v112
	BYTE	W06
	BYTE		N36     Fn4 
	BYTE	W12
	BYTE		VOL     68*mus_b_pyramid_mvl/mxv
	BYTE		MOD     6
	BYTE	W12
	BYTE		VOL     46*mus_b_pyramid_mvl/mxv
	BYTE	W12
// 012   ----------------------------------------
	BYTE		        91*mus_b_pyramid_mvl/mxv
	BYTE		MOD     0
	BYTE		N12     Ds4 
	BYTE	W12
	BYTE		        Fn4 
	BYTE	W12
	BYTE		        Fs4 
	BYTE	W12
	BYTE		        Ds4 
	BYTE	W12
	BYTE		N07     Cn5 
	BYTE	W07
	BYTE		N01     As4   v080
	BYTE	W01
	BYTE		        An4 
	BYTE	W01
	BYTE		        Gn4 
	BYTE	W01
	BYTE		        Fs4 
	BYTE	W02
	BYTE		N12     Fn4   v112
	BYTE	W12
	BYTE		        Fs4 
	BYTE	W12
	BYTE		        Gs4 
	BYTE	W12
// 013   ----------------------------------------
	BYTE		N03     Fs4 
	BYTE	W03
	BYTE		N01     Gs4   v080
	BYTE		N01     An4 
	BYTE	W01
	BYTE		        Gn4 
	BYTE	W02
	BYTE		N06     Fs4   v112
	BYTE	W06
	BYTE		N36     Fn4 
	BYTE	W12
	BYTE		VOL     68*mus_b_pyramid_mvl/mxv
	BYTE		MOD     6
	BYTE	W13
	BYTE		VOL     46*mus_b_pyramid_mvl/mxv
	BYTE	W11
	BYTE		        91*mus_b_pyramid_mvl/mxv
	BYTE		MOD     0
	BYTE		N03     Cn5 
	BYTE	W03
	BYTE		N01     Gs4   v080
	BYTE		N01     An4 
	BYTE	W01
	BYTE		        Gn4 
	BYTE	W02
	BYTE		N06     Fs4   v112
	BYTE	W06
	BYTE		N36     Fn4 
	BYTE	W12
	BYTE		VOL     68*mus_b_pyramid_mvl/mxv
	BYTE		MOD     6
	BYTE	W12
	BYTE		VOL     46*mus_b_pyramid_mvl/mxv
	BYTE	W12
// 014   ----------------------------------------
	BYTE		VOICE   81
	BYTE		VOL     91*mus_b_pyramid_mvl/mxv
	BYTE		MOD     0
	BYTE	W24
	BYTE		N06     Ds3 
	BYTE	W12
	BYTE		        Gn3 
	BYTE	W12
	BYTE		N24     Ds4 
	BYTE	W12
	BYTE		VOL     68*mus_b_pyramid_mvl/mxv
	BYTE		MOD     6
	BYTE	W12
	BYTE		VOL     91*mus_b_pyramid_mvl/mxv
	BYTE		MOD     0
	BYTE		N18     Cs4 
	BYTE	W12
	BYTE		VOL     68*mus_b_pyramid_mvl/mxv
	BYTE	W06
	BYTE		        91*mus_b_pyramid_mvl/mxv
	BYTE		N06     Ds4 
	BYTE	W06
// 015   ----------------------------------------
	BYTE		        Cs4 
	BYTE	W12
	BYTE		N03   
	BYTE	W03
	BYTE		N24     Cn4 
	BYTE	W09
	BYTE		VOL     68*mus_b_pyramid_mvl/mxv
	BYTE		MOD     6
	BYTE	W09
	BYTE		VOL     46*mus_b_pyramid_mvl/mxv
	BYTE	W09
	BYTE		        91*mus_b_pyramid_mvl/mxv
	BYTE		MOD     0
	BYTE		N03     Ds4 
	BYTE	W03
	BYTE		        Cs4 
	BYTE	W03
	BYTE		N48     Cn4 
	BYTE	W12
	BYTE		VOL     68*mus_b_pyramid_mvl/mxv
	BYTE		MOD     6
	BYTE	W12
	BYTE		VOL     46*mus_b_pyramid_mvl/mxv
	BYTE	W24
// 016   ----------------------------------------
	BYTE		VOICE   86
	BYTE		VOL     91*mus_b_pyramid_mvl/mxv
	BYTE		MOD     0
	BYTE	W24
	BYTE		N06     Ds3 
	BYTE	W12
	BYTE		        Gn3 
	BYTE	W12
	BYTE		N18     Ds4 
	BYTE	W12
	BYTE		VOL     68*mus_b_pyramid_mvl/mxv
	BYTE		MOD     6
	BYTE	W06
	BYTE		VOL     91*mus_b_pyramid_mvl/mxv
	BYTE		MOD     0
	BYTE		N06     Cs4 
	BYTE	W06
	BYTE		N12     Cn4 
	BYTE	W12
	BYTE		        Cs4 
	BYTE	W12
// 017   ----------------------------------------
	BYTE		N06     Cn4 
	BYTE	W12
	BYTE		N84     Fn4 
	BYTE	W12
	BYTE		VOL     68*mus_b_pyramid_mvl/mxv
	BYTE		MOD     6
	BYTE	W48
	BYTE		VOL     46*mus_b_pyramid_mvl/mxv
	BYTE	W12
	BYTE		        23*mus_b_pyramid_mvl/mxv
	BYTE	W12
// 018   ----------------------------------------
	BYTE		VOICE   81
	BYTE		VOL     91*mus_b_pyramid_mvl/mxv
	BYTE		MOD     0
	BYTE		N06     Dn4 
	BYTE	W18
	BYTE		N03     Fn3 
	BYTE	W06
	BYTE		N36   
	BYTE	W12
	BYTE		VOL     68*mus_b_pyramid_mvl/mxv
	BYTE		MOD     6
	BYTE	W12
	BYTE		        0
	BYTE		VOL     46*mus_b_pyramid_mvl/mxv
	BYTE	W12
	BYTE		        91*mus_b_pyramid_mvl/mxv
	BYTE	W12
	BYTE		N24     Gn3 
	BYTE	W12
	BYTE		VOL     68*mus_b_pyramid_mvl/mxv
	BYTE		MOD     6
	BYTE	W12
// 019   ----------------------------------------
	BYTE		VOL     91*mus_b_pyramid_mvl/mxv
	BYTE		MOD     0
	BYTE		N06     An3 
	BYTE	W06
	BYTE		        As3 
	BYTE	W12
	BYTE		N54     Cn4 
	BYTE	W18
	BYTE		VOL     68*mus_b_pyramid_mvl/mxv
	BYTE	W24
	BYTE	W01
	BYTE		        46*mus_b_pyramid_mvl/mxv
	BYTE	W11
	BYTE		        91*mus_b_pyramid_mvl/mxv
	BYTE		N24     Ds4 
	BYTE	W12
	BYTE		VOL     68*mus_b_pyramid_mvl/mxv
	BYTE	W12
// 020   ----------------------------------------
	BYTE		VOICE   82
	BYTE		VOL     91*mus_b_pyramid_mvl/mxv
	BYTE		N06     Dn4 
	BYTE	W18
	BYTE		N03     Fn3 
	BYTE	W06
	BYTE		N36     Dn4 
	BYTE	W12
	BYTE		VOL     68*mus_b_pyramid_mvl/mxv
	BYTE		MOD     6
	BYTE	W12
	BYTE		VOL     46*mus_b_pyramid_mvl/mxv
	BYTE	W12
	BYTE		        91*mus_b_pyramid_mvl/mxv
	BYTE		MOD     0
	BYTE	W12
	BYTE		N24     En4 
	BYTE	W12
	BYTE		VOL     68*mus_b_pyramid_mvl/mxv
	BYTE		MOD     6
	BYTE	W12
// 021   ----------------------------------------
	BYTE		VOL     91*mus_b_pyramid_mvl/mxv
	BYTE		MOD     0
	BYTE		N06     Fn4 
	BYTE	W06
	BYTE		        Gn4 
	BYTE	W06
	BYTE		        Fn4 
	BYTE	W06
	BYTE		        En4 
	BYTE	W06
	BYTE		N48     Cn4 
	BYTE	W12
	BYTE		VOL     68*mus_b_pyramid_mvl/mxv
	BYTE		MOD     6
	BYTE	W12
	BYTE		VOL     46*mus_b_pyramid_mvl/mxv
	BYTE	W24
	BYTE		        91*mus_b_pyramid_mvl/mxv
	BYTE		MOD     0
	BYTE		N24     Fn4 
	BYTE	W12
	BYTE		VOL     68*mus_b_pyramid_mvl/mxv
	BYTE		MOD     6
	BYTE	W12
// 022   ----------------------------------------
	BYTE		VOICE   81
	BYTE		VOL     91*mus_b_pyramid_mvl/mxv
	BYTE		MOD     0
	BYTE		N06     Cs4 
	BYTE	W18
	BYTE		N03     As3 
	BYTE	W06
	BYTE		N36     Cs4 
	BYTE	W12
	BYTE		VOL     68*mus_b_pyramid_mvl/mxv
	BYTE		MOD     6
	BYTE	W24
	BYTE		VOL     91*mus_b_pyramid_mvl/mxv
	BYTE		MOD     0
	BYTE	W12
	BYTE		N24     Gn3 
	BYTE	W12
	BYTE		VOL     68*mus_b_pyramid_mvl/mxv
	BYTE		MOD     6
	BYTE	W12
// 023   ----------------------------------------
	BYTE		VOL     91*mus_b_pyramid_mvl/mxv
	BYTE		MOD     0
	BYTE		N06     Gs3 
	BYTE	W06
	BYTE		        As3 
	BYTE	W12
	BYTE		N54     Cn4 
	BYTE	W18
	BYTE		VOL     68*mus_b_pyramid_mvl/mxv
	BYTE		MOD     6
	BYTE	W12
	BYTE		VOL     46*mus_b_pyramid_mvl/mxv
	BYTE	W24
	BYTE		        91*mus_b_pyramid_mvl/mxv
	BYTE		MOD     0
	BYTE		N24     Ds4 
	BYTE	W12
	BYTE		VOL     68*mus_b_pyramid_mvl/mxv
	BYTE		MOD     6
	BYTE	W12
// 024   ----------------------------------------
	BYTE		VOL     91*mus_b_pyramid_mvl/mxv
	BYTE		MOD     0
	BYTE		N06     Cs4 
	BYTE	W18
	BYTE		N03     Fn3 
	BYTE	W06
	BYTE		N36   
	BYTE	W12
	BYTE		VOL     68*mus_b_pyramid_mvl/mxv
	BYTE		MOD     6
	BYTE	W12
	BYTE		VOL     46*mus_b_pyramid_mvl/mxv
	BYTE	W12
	BYTE		        91*mus_b_pyramid_mvl/mxv
	BYTE		MOD     0
	BYTE	W12
	BYTE		N24     Gn3 
	BYTE	W12
	BYTE		VOL     68*mus_b_pyramid_mvl/mxv
	BYTE		MOD     6
	BYTE	W12
// 025   ----------------------------------------
	BYTE		VOICE   81
	BYTE		VOL     91*mus_b_pyramid_mvl/mxv
	BYTE		MOD     0
	BYTE		N36     Gs3 
	BYTE	W12
	BYTE		VOL     68*mus_b_pyramid_mvl/mxv
	BYTE		MOD     6
	BYTE	W12
	BYTE		VOL     46*mus_b_pyramid_mvl/mxv
	BYTE	W12
	BYTE		        91*mus_b_pyramid_mvl/mxv
	BYTE		MOD     0
	BYTE		N06     As3 
	BYTE	W06
	BYTE		        Gs3 
	BYTE	W06
	BYTE		N48     Gn3 
	BYTE	W12
	BYTE		VOL     68*mus_b_pyramid_mvl/mxv
	BYTE		MOD     6
	BYTE	W12
	BYTE		VOL     46*mus_b_pyramid_mvl/mxv
	BYTE	W24
// 026   ----------------------------------------
	BYTE		VOICE   82
	BYTE		VOL     91*mus_b_pyramid_mvl/mxv
	BYTE		MOD     0
	BYTE	W96
// 027   ----------------------------------------
	BYTE		BEND    c_v+63
	BYTE		N96     Bn4   v048
	BYTE	W02
	BYTE		BEND    c_v+58
	BYTE	W03
	BYTE		        c_v+56
	BYTE	W03
	BYTE		        c_v+51
	BYTE	W03
	BYTE		        c_v+47
	BYTE	W03
	BYTE		        c_v+42
	BYTE	W03
	BYTE		        c_v+39
	BYTE	W03
	BYTE		        c_v+35
	BYTE	W03
	BYTE		        c_v+31
	BYTE	W03
	BYTE		        c_v+23
	BYTE	W03
	BYTE		        c_v+18
	BYTE	W03
	BYTE		        c_v+13
	BYTE	W03
	BYTE		        c_v+9
	BYTE	W03
	BYTE		        c_v+4
	BYTE	W03
	BYTE		        c_v+1
	BYTE	W03
	BYTE		        c_v-1
	BYTE	W03
	BYTE		        c_v-2
	BYTE	W04
	BYTE		        c_v-4
	BYTE	W03
	BYTE		        c_v-8
	BYTE	W03
	BYTE		        c_v-14
	BYTE	W03
	BYTE		        c_v-16
	BYTE	W03
	BYTE		        c_v-20
	BYTE	W03
	BYTE		        c_v-24
	BYTE	W03
	BYTE		        c_v-29
	BYTE	W03
	BYTE		        c_v-33
	BYTE	W03
	BYTE		        c_v-37
	BYTE	W03
	BYTE		        c_v-41
	BYTE	W03
	BYTE		        c_v-45
	BYTE	W03
	BYTE		        c_v-48
	BYTE	W03
	BYTE		        c_v-52
	BYTE	W03
	BYTE		        c_v-56
	BYTE	W03
	BYTE		        c_v-59
	BYTE	W03
// 028   ----------------------------------------
	BYTE		VOICE   81
	BYTE		VOL     91*mus_b_pyramid_mvl/mxv
	BYTE		BEND    c_v+63
	BYTE		N96     As3 
	BYTE	W02
	BYTE		BEND    c_v+58
	BYTE	W03
	BYTE		        c_v+56
	BYTE	W03
	BYTE		        c_v+51
	BYTE	W03
	BYTE		        c_v+47
	BYTE	W03
	BYTE		        c_v+42
	BYTE	W03
	BYTE		        c_v+39
	BYTE	W03
	BYTE		        c_v+35
	BYTE	W03
	BYTE		        c_v+31
	BYTE	W03
	BYTE		        c_v+23
	BYTE	W03
	BYTE		        c_v+18
	BYTE	W03
	BYTE		        c_v+13
	BYTE	W03
	BYTE		        c_v+9
	BYTE	W03
	BYTE		        c_v+4
	BYTE	W03
	BYTE		        c_v+1
	BYTE	W03
	BYTE		        c_v-1
	BYTE	W03
	BYTE		        c_v-2
	BYTE	W04
	BYTE		        c_v-4
	BYTE	W03
	BYTE		        c_v-8
	BYTE	W03
	BYTE		        c_v-14
	BYTE	W03
	BYTE		        c_v-16
	BYTE	W03
	BYTE		        c_v-20
	BYTE	W03
	BYTE		        c_v-24
	BYTE	W03
	BYTE		        c_v-29
	BYTE	W03
	BYTE		        c_v-33
	BYTE	W03
	BYTE		        c_v-37
	BYTE	W03
	BYTE		        c_v-41
	BYTE	W03
	BYTE		        c_v-45
	BYTE	W03
	BYTE		        c_v-48
	BYTE	W03
	BYTE		        c_v-52
	BYTE	W03
	BYTE		        c_v-56
	BYTE	W03
	BYTE		        c_v-59
	BYTE	W03
// 029   ----------------------------------------
	BYTE	W24
	BYTE		        c_v+0
	BYTE	W24
	BYTE		PAN     c_v-64
	BYTE		N03     Gs4   v044
	BYTE	W03
	BYTE		        Bn4 
	BYTE	W03
	BYTE		        Dn5 
	BYTE	W03
	BYTE		        Fn5 
	BYTE	W03
	BYTE		        Gs5 
	BYTE	W03
	BYTE		        Bn5 
	BYTE	W03
	BYTE		PAN     c_v+0
	BYTE		N03     Dn6 
	BYTE	W03
	BYTE		        Fn6 
	BYTE	W03
	BYTE		PAN     c_v+63
	BYTE		N03     Gs6 
	BYTE	W03
	BYTE		        Fn6 
	BYTE	W03
	BYTE		        Dn6 
	BYTE	W03
	BYTE		        Bn5 
	BYTE	W03
	BYTE		        Gs5 
	BYTE	W03
	BYTE		        Fn5 
	BYTE	W03
	BYTE		PAN     c_v+0
	BYTE		N03     Dn5 
	BYTE	W03
	BYTE		        Bn4 
	BYTE	W03
// 030   ----------------------------------------
	BYTE		VOICE   86
	BYTE		VOL     91*mus_b_pyramid_mvl/mxv
	BYTE		MOD     0
	BYTE		N48     An4   v064
	BYTE	W18
	BYTE		MOD     8
	BYTE	W06
	BYTE		        0
	BYTE	W18
	BYTE		        8
	BYTE	W06
	BYTE		        0
	BYTE		N24     As4   v112
	BYTE	W18
	BYTE		MOD     8
	BYTE	W06
	BYTE		        0
	BYTE		N12     Bn4 
	BYTE	W12
	BYTE		        Cn5 
	BYTE	W06
	BYTE		MOD     8
	BYTE	W06
// 031   ----------------------------------------
	BYTE		        0
	BYTE		BEND    c_v+1
	BYTE		N06     Fn1   v060
	BYTE	W06
	BYTE		        Fn1   v024
	BYTE	W18
	BYTE		        Fn1   v060
	BYTE	W06
	BYTE		        Fn1   v024
	BYTE	W18
	BYTE		        Fn1   v060
	BYTE	W06
	BYTE		        Fn1   v024
	BYTE	W18
	BYTE		        Fn1   v060
	BYTE	W06
	BYTE		        Fn1   v024
	BYTE	W06
	BYTE		N12     Fs1   v060
	BYTE	W12
// 032   ----------------------------------------
	BYTE		N06     Fn1 
	BYTE	W06
	BYTE		        Fn1   v024
	BYTE	W18
	BYTE		        Fn1   v060
	BYTE	W06
	BYTE		        Fn1   v024
	BYTE	W18
	BYTE		N03     Fn1   v060
	BYTE	W06
	BYTE		N06   
	BYTE	W06
	BYTE		N12     Cn1 
	BYTE	W12
	BYTE		BEND    c_v+0
	BYTE		N06     Ds3   v064
	BYTE	W06
	BYTE		        Fn3 
	BYTE	W06
	BYTE		        Cn4 
	BYTE	W06
	BYTE		        Fs3 
	BYTE	W06
// 033   ----------------------------------------
	BYTE		BEND    c_v+1
	BYTE		N06     Fn1   v060
	BYTE	W06
	BYTE		        Fn1   v024
	BYTE	W18
	BYTE		        Fn1   v060
	BYTE	W06
	BYTE		        Fn1   v024
	BYTE	W18
	BYTE		        Fn1   v060
	BYTE	W06
	BYTE		        Fn1   v024
	BYTE	W18
	BYTE		        Fn1   v060
	BYTE	W06
	BYTE		        Fn1   v024
	BYTE	W06
	BYTE		N12     Fs1   v060
	BYTE	W12
// 034   ----------------------------------------
	BYTE		N06     Fn1 
	BYTE	W06
	BYTE		        Fn1   v024
	BYTE	W18
	BYTE		        Ds2   v060
	BYTE	W06
	BYTE		        Fn2 
	BYTE	W06
	BYTE		        Cn2 
	BYTE	W06
	BYTE		        Fs1 
	BYTE	W06
	BYTE		N03     Fn1 
	BYTE	W06
	BYTE		N06   
	BYTE	W06
	BYTE		N12     Cn1 
	BYTE	W12
	BYTE		BEND    c_v+0
	BYTE		N06     Ds3   v112
	BYTE	W06
	BYTE		        Fn3 
	BYTE	W06
	BYTE		        Fs3 
	BYTE	W06
	BYTE		        Cn4 
	BYTE	W06
	BYTE	GoTo
	 POIN2	mus_b_pyramid_8_B1
mus_b_pyramid_8_B2:
// 035   ----------------------------------------
	BYTE	FINE

//**************** Track 9 (Midi-Chn.9) ****************//

mus_b_pyramid_9:
	BYTE	KEYSH   mus_b_pyramid_key+0
// 000   ----------------------------------------
	BYTE		VOICE   0
	BYTE		PAN     c_v+0
	BYTE		VOL     105*mus_b_pyramid_mvl/mxv
	BYTE	W24
// 001   ----------------------------------------
	BYTE		N24     An2   v072
	BYTE	W96
// 002   ----------------------------------------
	BYTE	W96
// 003   ----------------------------------------
	BYTE		        Gn2   v080
	BYTE	W36
	BYTE		        En2 
	BYTE	W24
	BYTE		N12     Bn2   v084
	BYTE	W12
	BYTE		        Cn3 
	BYTE	W24
// 004   ----------------------------------------
	BYTE		N48     An2 
	BYTE	W60
	BYTE		N18     Fn2   v044
	BYTE	W18
	BYTE		N06     Fn2   v048
	BYTE	W09
	BYTE		N03     Gs2 
	BYTE	W03
	BYTE		        Gs2   v036
	BYTE	W03
	BYTE		N03   
	BYTE	W03
// 005   ----------------------------------------
mus_b_pyramid_9_005:
	BYTE		N06     Gs2   v064
	BYTE	W12
	BYTE		        Fs2   v080
	BYTE	W12
	BYTE		        Gs2   v064
	BYTE	W06
	BYTE		        En3 
	BYTE	W06
	BYTE		        Fs2   v080
	BYTE	W12
	BYTE		        Gs2   v064
	BYTE	W06
	BYTE		        Dn3 
	BYTE	W06
	BYTE		        Fs2   v080
	BYTE	W06
	BYTE		        En3   v064
	BYTE	W06
	BYTE		        Gs2 
	BYTE	W06
	BYTE		        En3 
	BYTE	W06
	BYTE		        Fs2   v080
	BYTE	W12
	BYTE	PEND
mus_b_pyramid_9_B1:
// 006   ----------------------------------------
mus_b_pyramid_9_006:
	BYTE		N06     Gs2   v064
	BYTE	W12
	BYTE		        Fs2   v080
	BYTE	W12
	BYTE		        Gs2   v064
	BYTE	W06
	BYTE		        En3 
	BYTE	W06
	BYTE		        Fs2   v080
	BYTE	W12
	BYTE		        Gs2   v064
	BYTE	W12
	BYTE		        Fs2   v080
	BYTE	W12
	BYTE		        Gs2   v064
	BYTE	W06
	BYTE		        En3 
	BYTE	W06
	BYTE		        Fs2   v080
	BYTE	W12
	BYTE	PEND
// 007   ----------------------------------------
	BYTE	PATT
	 POIN2	mus_b_pyramid_9_005
// 008   ----------------------------------------
	BYTE	PATT
	 POIN2	mus_b_pyramid_9_006
// 009   ----------------------------------------
	BYTE		N06     Gs2   v064
	BYTE	W12
	BYTE		        Fs2   v080
	BYTE	W12
	BYTE		        Gs2   v064
	BYTE	W06
	BYTE		        En3 
	BYTE	W06
	BYTE		        Fs2   v080
	BYTE	W12
	BYTE		        Gs2   v064
	BYTE	W06
	BYTE		        Dn3 
	BYTE	W06
	BYTE		N03     Fs2   v080
	BYTE	W06
	BYTE		        Fs2   v064
	BYTE	W06
	BYTE		N12     Gn2   v088
	BYTE	W12
	BYTE		N06     Fs2   v080
	BYTE	W06
	BYTE		N03     Gs2   v036
	BYTE	W03
	BYTE		N03   
	BYTE	W03
// 010   ----------------------------------------
	BYTE	PATT
	 POIN2	mus_b_pyramid_9_006
// 011   ----------------------------------------
	BYTE	PATT
	 POIN2	mus_b_pyramid_9_005
// 012   ----------------------------------------
	BYTE		N06     Gs2   v064
	BYTE	W12
	BYTE		        Fs2   v080
	BYTE	W12
	BYTE		        Gs2   v064
	BYTE	W06
	BYTE		        En3 
	BYTE	W06
	BYTE		        Fs2   v080
	BYTE	W12
	BYTE		        Gs2   v064
	BYTE	W12
	BYTE		        Fs2   v080
	BYTE	W12
	BYTE		        Gs2   v064
	BYTE	W06
	BYTE		        En3 
	BYTE	W06
	BYTE		        Fs2   v080
	BYTE	W06
	BYTE		N03     Gs2   v036
	BYTE	W03
	BYTE		N03   
	BYTE	W03
// 013   ----------------------------------------
	BYTE		N06     Gs2   v064
	BYTE	W12
	BYTE		        Fs2   v080
	BYTE	W12
	BYTE		        Gs2   v064
	BYTE	W06
	BYTE		        En3 
	BYTE	W06
	BYTE		        Fs2   v080
	BYTE	W12
	BYTE		        Gs2   v064
	BYTE	W06
	BYTE		        Dn3 
	BYTE	W06
	BYTE		        Fs2   v080
	BYTE	W06
	BYTE		        En3   v064
	BYTE	W06
	BYTE		N12     Gn2   v092
	BYTE	W12
	BYTE		N06     Fs2   v080
	BYTE	W12
// 014   ----------------------------------------
	BYTE		        En1   v112
	BYTE	W06
	BYTE		N06   
	BYTE	W06
	BYTE		N36     Gn2 
	BYTE	W84
// 015   ----------------------------------------
	BYTE	W12
	BYTE		N18     Fn2   v032
	BYTE	W18
	BYTE		        Fn2   v040
	BYTE	W18
	BYTE		        Fn2   v032
	BYTE	W18
	BYTE		N06     Fn2   v040
	BYTE	W06
	BYTE		        Dn2   v076
	BYTE	W06
	BYTE		        Bn1 
	BYTE	W06
	BYTE		        An1 
	BYTE	W06
	BYTE		        Gn1 
	BYTE	W06
// 016   ----------------------------------------
	BYTE		        En1   v112
	BYTE	W06
	BYTE		N06   
	BYTE	W06
	BYTE		N36     En2 
	BYTE	W84
// 017   ----------------------------------------
	BYTE		N18     Cn1   v096
	BYTE		N12     Fn2   v044
	BYTE	W12
	BYTE		N18     Fn2   v032
	BYTE	W06
	BYTE		N06     Cn1   v056
	BYTE	W06
	BYTE		N18     Cn1   v076
	BYTE	W06
	BYTE		        Fn2   v044
	BYTE	W12
	BYTE		N06     Cn1   v056
	BYTE	W06
	BYTE		N18     Cn1   v076
	BYTE		N18     Fn2   v032
	BYTE	W18
	BYTE		N06     Cn1   v056
	BYTE		N06     Fn2   v044
	BYTE	W06
	BYTE		        Cn1   v076
	BYTE		N15     Gn2 
	BYTE	W06
	BYTE		N06     Dn2   v080
	BYTE	W06
	BYTE		        Cn1 
	BYTE	W03
	BYTE		N03     Gs2   v048
	BYTE	W03
	BYTE		N06     Fn1   v080
	BYTE		N03     Gs2   v036
	BYTE	W03
	BYTE		N03   
	BYTE	W03
// 018   ----------------------------------------
	BYTE		N12     En1   v112
	BYTE		N06     Gs2   v064
	BYTE	W06
	BYTE		        Gs2   v048
	BYTE	W06
	BYTE		N12     En1 
	BYTE		N06     Fs2   v064
	BYTE	W12
	BYTE		N12     En1   v104
	BYTE		N06     Gs2   v064
	BYTE	W06
	BYTE		        En3 
	BYTE	W06
	BYTE		        En1   v048
	BYTE		N06     Fs2   v064
	BYTE	W06
	BYTE		        En1   v048
	BYTE		N03     Gs2 
	BYTE	W06
	BYTE		N12     En1   v096
	BYTE		N06     Gs2   v064
	BYTE	W12
	BYTE		N12     En1   v048
	BYTE		N06     Fs2   v064
	BYTE	W06
	BYTE		N03     Gs2   v048
	BYTE	W06
	BYTE		N12     En1   v060
	BYTE		N06     Gs2   v064
	BYTE	W06
	BYTE		        En3 
	BYTE	W06
	BYTE		N03     En1   v112
	BYTE		N06     Fs2   v064
	BYTE	W03
	BYTE		N03     En1   v048
	BYTE	W03
	BYTE		N03   
	BYTE	W03
	BYTE		N03   
	BYTE	W03
// 019   ----------------------------------------
	BYTE		N12     En1   v112
	BYTE		N06     Gs2   v064
	BYTE	W06
	BYTE		        Gs2   v048
	BYTE	W06
	BYTE		N03     En1   v096
	BYTE		N06     Fs2   v064
	BYTE	W03
	BYTE		N03     En1   v036
	BYTE	W03
	BYTE		N03   
	BYTE	W03
	BYTE		N03   
	BYTE	W03
	BYTE		N06     En1   v048
	BYTE		N06     Gs2   v064
	BYTE	W06
	BYTE		        En1   v104
	BYTE		N06     En3   v064
	BYTE	W06
	BYTE		        En1   v040
	BYTE		N06     Fs2   v064
	BYTE	W06
	BYTE		        En1   v112
	BYTE	W06
	BYTE		        En1   v096
	BYTE		N06     Gs2   v064
	BYTE	W06
	BYTE		N03     En1   v072
	BYTE		N06     Dn3   v064
	BYTE	W03
	BYTE		N03     En1   v028
	BYTE	W03
	BYTE		        En1   v072
	BYTE		N06     Fs2   v064
	BYTE	W03
	BYTE		N03     En1   v032
	BYTE	W03
	BYTE		N03   
	BYTE		N06     En3   v064
	BYTE	W03
	BYTE		N03     En1   v032
	BYTE	W03
	BYTE		N12     En1   v112
	BYTE		N06     Gs2   v064
	BYTE	W06
	BYTE		        En3 
	BYTE	W06
	BYTE		        En1   v112
	BYTE		N06     Fs2   v064
	BYTE	W06
	BYTE		        En1   v088
	BYTE	W06
// 020   ----------------------------------------
	BYTE		N12     En1   v112
	BYTE		N06     Gs2   v064
	BYTE	W06
	BYTE		        Gs2   v048
	BYTE	W06
	BYTE		N12     En1 
	BYTE		N06     Fs2   v064
	BYTE	W12
	BYTE		N12     En1   v104
	BYTE		N06     Gs2   v064
	BYTE	W06
	BYTE		        En3 
	BYTE	W06
	BYTE		        En1   v048
	BYTE		N06     Fs2   v064
	BYTE	W06
	BYTE		        En1   v048
	BYTE		N06     Gs2 
	BYTE	W06
	BYTE		N12     En1   v096
	BYTE		N06     Gs2   v064
	BYTE	W12
	BYTE		N12     En1   v048
	BYTE		N06     Fs2   v064
	BYTE	W06
	BYTE		        Gs2   v048
	BYTE	W06
	BYTE		N12     En1   v060
	BYTE		N06     Gs2   v064
	BYTE	W06
	BYTE		        En3 
	BYTE	W06
	BYTE		N03     En1   v112
	BYTE		N06     Fs2   v064
	BYTE	W03
	BYTE		N03     En1   v048
	BYTE	W03
	BYTE		N03   
	BYTE	W03
	BYTE		N03   
	BYTE	W03
// 021   ----------------------------------------
	BYTE		N12     En1   v112
	BYTE		N06     Gs2   v064
	BYTE	W06
	BYTE		N03     Gs2   v048
	BYTE	W03
	BYTE		N03   
	BYTE	W03
	BYTE		        En1   v096
	BYTE		N06     Fs2   v064
	BYTE	W03
	BYTE		N03     En1   v036
	BYTE	W03
	BYTE		N03   
	BYTE	W03
	BYTE		N03   
	BYTE	W03
	BYTE		N06     En1   v048
	BYTE		N06     Gs2   v064
	BYTE	W06
	BYTE		        En1   v104
	BYTE		N06     En3   v064
	BYTE	W06
	BYTE		        En1   v040
	BYTE		N06     Fs2   v064
	BYTE	W06
	BYTE		        En1   v112
	BYTE		N06     Gs2   v048
	BYTE	W06
	BYTE		        En1   v096
	BYTE		N06     Gs2   v064
	BYTE	W06
	BYTE		N03     En1   v072
	BYTE		N06     Dn3   v064
	BYTE	W03
	BYTE		N03     En1   v028
	BYTE	W03
	BYTE		        En1   v072
	BYTE		N03     Fs2   v064
	BYTE	W03
	BYTE		        En1   v032
	BYTE	W03
	BYTE		N03   
	BYTE		N03     Fs2   v044
	BYTE	W03
	BYTE		        En1   v032
	BYTE	W03
	BYTE		N12     En1   v112
	BYTE		N06     Fs2   v064
	BYTE	W06
	BYTE		        En3 
	BYTE	W06
	BYTE		        En1   v112
	BYTE		N06     Fs2   v064
	BYTE	W06
	BYTE		        En1   v088
	BYTE		N06     Fs2   v064
	BYTE	W06
// 022   ----------------------------------------
	BYTE		N12     En1   v112
	BYTE		N06     Gs2   v064
	BYTE	W06
	BYTE		        Gs2   v048
	BYTE	W06
	BYTE		N12     En1 
	BYTE		N06     Fs2   v064
	BYTE	W12
	BYTE		N12     En1   v104
	BYTE		N06     Gs2   v064
	BYTE	W06
	BYTE		        En3 
	BYTE	W06
	BYTE		        En1   v048
	BYTE		N06     Fs2   v064
	BYTE	W06
	BYTE		        En1   v048
	BYTE		N06     Gs2 
	BYTE	W06
	BYTE		N12     En1   v096
	BYTE		N06     Gs2   v064
	BYTE	W06
	BYTE		        Dn3 
	BYTE	W06
	BYTE		N12     En1   v048
	BYTE		N06     Fs2   v064
	BYTE	W06
	BYTE		        En3 
	BYTE	W06
	BYTE		N12     En1   v060
	BYTE		N06     Gs2   v064
	BYTE	W06
	BYTE		        En3 
	BYTE	W06
	BYTE		N03     En1   v112
	BYTE		N06     Fs2   v064
	BYTE	W03
	BYTE		N03     En1   v048
	BYTE	W03
	BYTE		N03   
	BYTE	W03
	BYTE		N03   
	BYTE	W03
// 023   ----------------------------------------
	BYTE		N12     En1   v112
	BYTE		N06     Gs2   v064
	BYTE	W06
	BYTE		N03     Gs2   v048
	BYTE	W03
	BYTE		N03   
	BYTE	W03
	BYTE		        En1   v096
	BYTE		N06     Fs2   v064
	BYTE	W03
	BYTE		N03     En1   v036
	BYTE	W03
	BYTE		N03   
	BYTE	W03
	BYTE		N03   
	BYTE	W03
	BYTE		N06     En1   v048
	BYTE		N06     Gs2   v064
	BYTE	W06
	BYTE		        En1   v104
	BYTE		N06     En3   v064
	BYTE	W06
	BYTE		        En1   v040
	BYTE		N06     Fs2   v064
	BYTE	W06
	BYTE		        En1   v112
	BYTE	W06
	BYTE		        En1   v096
	BYTE		N06     Gs2   v064
	BYTE	W06
	BYTE		N03     En1   v072
	BYTE	W03
	BYTE		        En1   v028
	BYTE	W03
	BYTE		        En1   v072
	BYTE		N06     Fs2   v064
	BYTE	W03
	BYTE		N03     En1   v032
	BYTE	W03
	BYTE		N03   
	BYTE		N06     Gs2   v048
	BYTE	W03
	BYTE		N03     En1   v032
	BYTE	W03
	BYTE		N12     En1   v112
	BYTE		N06     Gs2   v064
	BYTE	W06
	BYTE		        En3 
	BYTE	W06
	BYTE		        En1   v112
	BYTE		N06     Fs2   v064
	BYTE	W06
	BYTE		        En1   v088
	BYTE	W06
// 024   ----------------------------------------
	BYTE		N12     En1   v112
	BYTE		N06     Gs2   v064
	BYTE	W12
	BYTE		N12     En1   v048
	BYTE		N06     Fs2   v064
	BYTE	W06
	BYTE		N03     Gs2   v048
	BYTE	W06
	BYTE		N12     En1   v112
	BYTE		N06     Gs2   v064
	BYTE	W06
	BYTE		        En3 
	BYTE	W06
	BYTE		        En1   v048
	BYTE		N06     Fs2   v064
	BYTE	W06
	BYTE		        En1   v048
	BYTE	W06
	BYTE		N12     En1   v108
	BYTE		N06     Gs2   v064
	BYTE	W06
	BYTE		        Dn3 
	BYTE	W06
	BYTE		N12     En1   v048
	BYTE		N03     Fs2   v064
	BYTE	W06
	BYTE		        Fs2   v044
	BYTE	W06
	BYTE		N12     En1   v112
	BYTE		N06     Fs2   v064
	BYTE	W06
	BYTE		        En3 
	BYTE	W06
	BYTE		N03     En1   v100
	BYTE		N06     Fs2   v064
	BYTE	W03
	BYTE		N03     En1   v048
	BYTE	W03
	BYTE		N03   
	BYTE		N06     Fs2   v064
	BYTE	W03
	BYTE		N03     En1   v048
	BYTE	W03
// 025   ----------------------------------------
	BYTE		N12     En1   v100
	BYTE	W12
	BYTE		        En1   v048
	BYTE	W12
	BYTE		        En1   v092
	BYTE	W12
	BYTE		N06     En1   v048
	BYTE	W06
	BYTE		        En1   v096
	BYTE	W06
	BYTE		        En1   v052
	BYTE	W06
	BYTE		        En1   v120
	BYTE	W06
	BYTE		        En1   v052
	BYTE	W06
	BYTE		        En1   v112
	BYTE	W06
	BYTE		N03   
	BYTE	W03
	BYTE		        En1   v032
	BYTE	W03
	BYTE		        En1   v092
	BYTE	W03
	BYTE		        En1   v032
	BYTE	W03
	BYTE		        En1   v064
	BYTE	W03
	BYTE		        En1   v068
	BYTE	W03
	BYTE		        En1   v088
	BYTE	W03
	BYTE		        En1   v092
	BYTE	W03
// 026   ----------------------------------------
	BYTE		N12     En1   v112
	BYTE		N03     Gs4   v036
	BYTE	W06
	BYTE		        Gs4   v016
	BYTE	W06
	BYTE		        En1   v112
	BYTE		N12     An4   v032
	BYTE	W03
	BYTE		N03     En1   v040
	BYTE	W03
	BYTE		N03   
	BYTE	W03
	BYTE		N03   
	BYTE	W03
	BYTE		N06     En1   v052
	BYTE		N03     An4   v032
	BYTE	W06
	BYTE		N06     En1   v120
	BYTE		N03     An4   v016
	BYTE	W06
	BYTE		N06     En1   v040
	BYTE		N12     Gs4   v032
	BYTE	W06
	BYTE		N06     En1   v112
	BYTE	W06
	BYTE		N12   
	BYTE		N03     Gs4   v032
	BYTE	W06
	BYTE		        Gs4   v016
	BYTE	W06
	BYTE		N12     En1   v104
	BYTE		N03     An4   v032
	BYTE	W06
	BYTE		        An4   v016
	BYTE	W06
	BYTE		        En1   v112
	BYTE		N03     An4   v032
	BYTE	W03
	BYTE		        En1 
	BYTE	W03
	BYTE		        En1   v096
	BYTE		N03     An4   v016
	BYTE	W03
	BYTE		        En1   v032
	BYTE	W03
	BYTE		        En1   v080
	BYTE		N12     Gs4   v032
	BYTE	W03
	BYTE		N03     En1   v056
	BYTE	W03
	BYTE		        En1   v068
	BYTE	W03
	BYTE		        En1   v080
	BYTE	W03
// 027   ----------------------------------------
	BYTE		        En1   v112
	BYTE		N03     Gs4   v032
	BYTE	W03
	BYTE		        En1   v036
	BYTE		N03     Gs4   v016
	BYTE	W03
	BYTE		        En1   v036
	BYTE		N03     Gs4   v016
	BYTE	W03
	BYTE		        En1   v036
	BYTE		N03     Gs4   v016
	BYTE	W03
	BYTE		N12     En1   v104
	BYTE		N03     An4   v032
	BYTE	W06
	BYTE		        An4   v016
	BYTE	W06
	BYTE		N06     En1   v048
	BYTE		N03     An4   v032
	BYTE	W06
	BYTE		N06     En1   v112
	BYTE		N03     An4   v016
	BYTE	W06
	BYTE		N06     En1   v044
	BYTE		N12     Gs4   v032
	BYTE	W06
	BYTE		N06     En1   v112
	BYTE	W06
	BYTE		N03     En1   v104
	BYTE		N03     Gs4   v032
	BYTE	W03
	BYTE		        En1   v056
	BYTE	W03
	BYTE		        En1   v048
	BYTE		N03     Gs4   v016
	BYTE	W03
	BYTE		        En1   v048
	BYTE	W03
	BYTE		N03   
	BYTE		N03     An4   v032
	BYTE	W03
	BYTE		        En1   v048
	BYTE	W03
	BYTE		N03   
	BYTE		N03     An4   v016
	BYTE	W03
	BYTE		        En1   v048
	BYTE	W03
	BYTE		        En1   v112
	BYTE		N03     An4   v032
	BYTE	W03
	BYTE		        En1   v036
	BYTE	W03
	BYTE		        En1   v104
	BYTE		N03     An4   v016
	BYTE	W03
	BYTE		        En1   v036
	BYTE	W03
	BYTE		N03   
	BYTE		N12     Gs4   v032
	BYTE	W03
	BYTE		N03     En1   v056
	BYTE	W03
	BYTE		        En1   v076
	BYTE	W03
	BYTE		        En1   v096
	BYTE	W03
// 028   ----------------------------------------
	BYTE		N12     En1   v112
	BYTE		N03     Gs4   v032
	BYTE	W06
	BYTE		        Gs4   v016
	BYTE	W06
	BYTE		        En1   v112
	BYTE		N12     An4   v032
	BYTE	W03
	BYTE		N03     En1   v040
	BYTE	W03
	BYTE		N03   
	BYTE	W03
	BYTE		N03   
	BYTE	W03
	BYTE		N06     En1   v052
	BYTE		N03     An4   v032
	BYTE	W06
	BYTE		N06     En1   v120
	BYTE		N03     An4   v016
	BYTE	W06
	BYTE		N06     En1   v040
	BYTE		N12     Gs4   v032
	BYTE	W06
	BYTE		N06     En1   v112
	BYTE	W06
	BYTE		N12   
	BYTE		N03     Gs4   v032
	BYTE	W06
	BYTE		        Gs4   v020
	BYTE	W06
	BYTE		N12     En1   v104
	BYTE		N03     An4   v032
	BYTE	W06
	BYTE		        An4   v016
	BYTE	W06
	BYTE		        En1   v112
	BYTE		N03     An4   v032
	BYTE	W03
	BYTE		        En1 
	BYTE	W03
	BYTE		        En1   v092
	BYTE		N03     An4   v016
	BYTE	W03
	BYTE		        En1   v032
	BYTE	W03
	BYTE		        En1   v108
	BYTE		N12     Gs4   v032
	BYTE	W03
	BYTE		N03     En1   v052
	BYTE	W03
	BYTE		        En1   v064
	BYTE	W03
	BYTE		        En1   v080
	BYTE	W03
// 029   ----------------------------------------
	BYTE		        En1   v096
	BYTE		N03     Gs4   v032
	BYTE	W03
	BYTE		        En1   v036
	BYTE		N03     Gs4   v016
	BYTE	W03
	BYTE		        En1   v036
	BYTE		N03     Gs4   v016
	BYTE	W03
	BYTE		        En1   v036
	BYTE		N03     Gs4   v016
	BYTE	W03
	BYTE		N12     En1   v104
	BYTE		N03     An4   v032
	BYTE	W06
	BYTE		        An4   v016
	BYTE	W06
	BYTE		N06     En1   v048
	BYTE		N03     An4   v032
	BYTE	W06
	BYTE		N06     En1   v112
	BYTE		N03     An4   v016
	BYTE	W06
	BYTE		N06     En1   v044
	BYTE		N12     Gs4   v032
	BYTE	W06
	BYTE		N06     En1   v112
	BYTE	W06
	BYTE		N12     En1   v096
	BYTE		N03     Gs4   v032
	BYTE	W06
	BYTE		        Gs4   v016
	BYTE	W06
	BYTE		        En1   v112
	BYTE		N03     An4   v032
	BYTE	W03
	BYTE		        En1   v048
	BYTE	W03
	BYTE		N03   
	BYTE		N03     An4   v016
	BYTE	W03
	BYTE		        En1   v048
	BYTE	W03
	BYTE		        En1   v112
	BYTE		N03     An4   v032
	BYTE	W03
	BYTE		        En1   v036
	BYTE	W03
	BYTE		        En1   v088
	BYTE		N03     An4   v016
	BYTE	W03
	BYTE		        En1   v044
	BYTE	W03
	BYTE		        En1   v052
	BYTE		N12     Gs4   v032
	BYTE	W03
	BYTE		N03     En1   v060
	BYTE	W03
	BYTE		        En1   v072
	BYTE	W03
	BYTE		        En1   v080
	BYTE	W03
// 030   ----------------------------------------
	BYTE		N24     Gn2 
	BYTE	W36
	BYTE		        En2 
	BYTE	W24
	BYTE		N18     Bn2   v084
	BYTE	W18
	BYTE		        Cn3 
	BYTE	W18
// 031   ----------------------------------------
	BYTE	W96
// 032   ----------------------------------------
	BYTE	W96
// 033   ----------------------------------------
	BYTE	W84
	BYTE	W03
	BYTE		N03     Gs2   v048
	BYTE	W03
	BYTE		        Gs2   v036
	BYTE	W03
	BYTE		N03   
	BYTE	W03
// 034   ----------------------------------------
	BYTE		N06     Gs2   v064
	BYTE	W12
	BYTE		        Fs2 
	BYTE	W12
	BYTE		        Gs2 
	BYTE	W06
	BYTE		        En3 
	BYTE	W06
	BYTE		        Fs2 
	BYTE	W12
	BYTE		        Gs2 
	BYTE	W06
	BYTE		        Dn3 
	BYTE	W06
	BYTE		        Fs2 
	BYTE	W06
	BYTE		        En3 
	BYTE	W06
	BYTE		        Gs2 
	BYTE	W06
	BYTE		        En3 
	BYTE	W06
	BYTE		        Fs2 
	BYTE	W12
	BYTE	GoTo
	 POIN2	mus_b_pyramid_9_B1
mus_b_pyramid_9_B2:
// 035   ----------------------------------------
	BYTE	FINE

//**************** Track 10 (Midi-Chn.10) ****************//

mus_b_pyramid_10:
	BYTE	KEYSH   mus_b_pyramid_key+0
// 000   ----------------------------------------
	BYTE		VOICE   127
	BYTE		PAN     c_v+0
	BYTE		VOL     91*mus_b_pyramid_mvl/mxv
	BYTE	W24
// 001   ----------------------------------------
	BYTE	W96
// 002   ----------------------------------------
	BYTE	W96
// 003   ----------------------------------------
	BYTE	W96
// 004   ----------------------------------------
mus_b_pyramid_10_004:
	BYTE		N03     En4   v064
	BYTE	W03
	BYTE		N01     En4   v032
	BYTE	W03
	BYTE		N01   
	BYTE	W03
	BYTE		N01   
	BYTE	W03
	BYTE		N06     En4   v048
	BYTE	W06
	BYTE		        En4   v032
	BYTE	W06
	BYTE		        En4   v048
	BYTE	W06
	BYTE		        En4   v032
	BYTE	W06
	BYTE		N01     En4   v064
	BYTE	W03
	BYTE		        En4   v032
	BYTE	W03
	BYTE		N01   
	BYTE	W03
	BYTE		N03   
	BYTE	W03
	BYTE		N06     En4   v048
	BYTE	W06
	BYTE		        En4   v032
	BYTE	W06
	BYTE		N01     En4   v064
	BYTE	W03
	BYTE		        En4   v032
	BYTE	W03
	BYTE		N01   
	BYTE	W03
	BYTE		N03   
	BYTE	W03
	BYTE		        En4   v064
	BYTE	W03
	BYTE		N01     En4   v032
	BYTE	W03
	BYTE		N01   
	BYTE	W03
	BYTE		N01   
	BYTE	W03
	BYTE		N06     En4   v048
	BYTE	W06
	BYTE		        En4   v032
	BYTE	W06
	BYTE	PEND
// 005   ----------------------------------------
mus_b_pyramid_10_005:
	BYTE		N06     En4   v064
	BYTE	W06
	BYTE		N02     En4   v032
	BYTE	W06
	BYTE		N03     En4   v048
	BYTE	W03
	BYTE		N01     En4   v032
	BYTE	W03
	BYTE		N01   
	BYTE	W03
	BYTE		N03   
	BYTE	W03
	BYTE		        En4   v064
	BYTE	W03
	BYTE		N01     En4   v032
	BYTE	W03
	BYTE		N01   
	BYTE	W03
	BYTE		N01   
	BYTE	W03
	BYTE		N06     En4   v048
	BYTE	W06
	BYTE		        En4   v032
	BYTE	W06
	BYTE		N03     En4   v064
	BYTE	W03
	BYTE		N01     En4   v032
	BYTE	W03
	BYTE		N01   
	BYTE	W03
	BYTE		N01   
	BYTE	W03
	BYTE		N06     En4   v048
	BYTE	W06
	BYTE		        En4   v032
	BYTE	W06
	BYTE		        En4   v048
	BYTE	W06
	BYTE		        En4   v032
	BYTE	W06
	BYTE		N03     En4   v064
	BYTE	W03
	BYTE		N01     En4   v032
	BYTE	W03
	BYTE		N01   
	BYTE	W03
	BYTE		N01   
	BYTE	W03
	BYTE	PEND
mus_b_pyramid_10_B1:
// 006   ----------------------------------------
	BYTE	PATT
	 POIN2	mus_b_pyramid_10_004
// 007   ----------------------------------------
	BYTE	PATT
	 POIN2	mus_b_pyramid_10_005
// 008   ----------------------------------------
	BYTE	PATT
	 POIN2	mus_b_pyramid_10_004
// 009   ----------------------------------------
	BYTE	PATT
	 POIN2	mus_b_pyramid_10_005
// 010   ----------------------------------------
	BYTE	PATT
	 POIN2	mus_b_pyramid_10_004
// 011   ----------------------------------------
	BYTE	PATT
	 POIN2	mus_b_pyramid_10_005
// 012   ----------------------------------------
	BYTE	PATT
	 POIN2	mus_b_pyramid_10_004
// 013   ----------------------------------------
	BYTE	PATT
	 POIN2	mus_b_pyramid_10_005
// 014   ----------------------------------------
	BYTE	W96
// 015   ----------------------------------------
	BYTE	W96
// 016   ----------------------------------------
	BYTE	W96
// 017   ----------------------------------------
	BYTE	W96
// 018   ----------------------------------------
	BYTE	PATT
	 POIN2	mus_b_pyramid_10_004
// 019   ----------------------------------------
	BYTE	PATT
	 POIN2	mus_b_pyramid_10_005
// 020   ----------------------------------------
	BYTE	PATT
	 POIN2	mus_b_pyramid_10_004
// 021   ----------------------------------------
	BYTE	PATT
	 POIN2	mus_b_pyramid_10_005
// 022   ----------------------------------------
	BYTE	PATT
	 POIN2	mus_b_pyramid_10_004
// 023   ----------------------------------------
	BYTE	PATT
	 POIN2	mus_b_pyramid_10_005
// 024   ----------------------------------------
	BYTE	W96
// 025   ----------------------------------------
	BYTE	W96
// 026   ----------------------------------------
	BYTE	W96
// 027   ----------------------------------------
	BYTE	W96
// 028   ----------------------------------------
	BYTE	W96
// 029   ----------------------------------------
	BYTE	W96
// 030   ----------------------------------------
	BYTE	W96
// 031   ----------------------------------------
	BYTE	W96
// 032   ----------------------------------------
	BYTE	W96
// 033   ----------------------------------------
	BYTE	PATT
	 POIN2	mus_b_pyramid_10_004
// 034   ----------------------------------------
	BYTE	PATT
	 POIN2	mus_b_pyramid_10_005
	BYTE	GoTo
	 POIN2	mus_b_pyramid_10_B1
mus_b_pyramid_10_B2:
// 035   ----------------------------------------
	BYTE	FINE

//******************************************************//
	ALIGN 4

mus_b_pyramid:
	BYTE	10	// NumTrks
	BYTE	0	// NumBlks
	BYTE	mus_b_pyramid_pri	// Priority
	BYTE	mus_b_pyramid_rev	// Reverb.

	POIN2	mus_b_pyramid_grp

	POIN2	mus_b_pyramid_1
	POIN2	mus_b_pyramid_2
	POIN2	mus_b_pyramid_3
	POIN2	mus_b_pyramid_4
	POIN2	mus_b_pyramid_5
	POIN2	mus_b_pyramid_6
	POIN2	mus_b_pyramid_7
	POIN2	mus_b_pyramid_8
	POIN2	mus_b_pyramid_9
	POIN2	mus_b_pyramid_10

	
