//Event file generated from Sappy .s format.
	#include "MPlayDef.event"

	#define	mus_mt_chimney_grp  voicegroup052
	#define	mus_mt_chimney_pri  0
	#define	mus_mt_chimney_rev  reverb_set+50
	#define	mus_mt_chimney_mvl  78
	#define	mus_mt_chimney_key  0
	#define	mus_mt_chimney_tbs  1
	#define	mus_mt_chimney_exg  1
	#define	mus_mt_chimney_cmp  1

	// .rodata
	//	mus_mt_chimney
	ALIGN 4

//**************** Track 1 (Midi-Chn.1) ****************//

mus_mt_chimney_1:
	BYTE	KEYSH   mus_mt_chimney_key+0
// 000   ----------------------------------------
	BYTE	TEMPO   124*mus_mt_chimney_tbs/2
	BYTE		VOICE   127
	BYTE		PAN     c_v-64
	BYTE		VOL     44*mus_mt_chimney_mvl/mxv
	BYTE		N03     Cn4   v112
	BYTE	W12
	BYTE		        Cn4   v096
	BYTE	W06
	BYTE		N03   
	BYTE	W06
	BYTE		VOICE   125
	BYTE		N03     Gn4   v112
	BYTE	W09
	BYTE		VOICE   127
	BYTE	W03
	BYTE		N03     Cn4   v096
	BYTE	W06
	BYTE		N03   
	BYTE	W06
	BYTE		VOICE   125
	BYTE		N03     Gn4   v112
	BYTE	W09
	BYTE		VOICE   127
	BYTE	W03
	BYTE		N03     Cn4   v096
	BYTE	W06
	BYTE		N03   
	BYTE	W06
	BYTE		VOICE   127
	BYTE		N03     Cn4   v112
	BYTE	W12
	BYTE		        Cn4   v096
	BYTE	W06
	BYTE		N03   
	BYTE	W06
// 001   ----------------------------------------
	BYTE		N02     Cn4   v112
	BYTE	W04
	BYTE		        Cn4   v088
	BYTE	W04
	BYTE		N02   
	BYTE	W04
	BYTE		N03     Cn4   v112
	BYTE	W06
	BYTE		        Cn4   v096
	BYTE	W06
	BYTE		        Cn4   v112
	BYTE	W12
	BYTE		        Cn4   v096
	BYTE	W06
	BYTE		N03   
	BYTE	W06
	BYTE		VOICE   126
	BYTE		VOL     5*mus_mt_chimney_mvl/mxv
	BYTE		PAN     c_v-1
	BYTE		N48     Fn4   v120
	BYTE	W02
	BYTE		VOL     7*mus_mt_chimney_mvl/mxv
	BYTE	W03
	BYTE		        10*mus_mt_chimney_mvl/mxv
	BYTE	W03
	BYTE		        12*mus_mt_chimney_mvl/mxv
	BYTE	W04
	BYTE		        12*mus_mt_chimney_mvl/mxv
	BYTE	W02
	BYTE		        14*mus_mt_chimney_mvl/mxv
	BYTE	W03
	BYTE		        18*mus_mt_chimney_mvl/mxv
	BYTE	W03
	BYTE		        20*mus_mt_chimney_mvl/mxv
	BYTE	W04
	BYTE		        25*mus_mt_chimney_mvl/mxv
	BYTE	W02
	BYTE		        30*mus_mt_chimney_mvl/mxv
	BYTE	W03
	BYTE		        36*mus_mt_chimney_mvl/mxv
	BYTE	W03
	BYTE		        41*mus_mt_chimney_mvl/mxv
	BYTE	W04
	BYTE		        46*mus_mt_chimney_mvl/mxv
	BYTE	W02
	BYTE		        57*mus_mt_chimney_mvl/mxv
	BYTE	W04
	BYTE		        69*mus_mt_chimney_mvl/mxv
	BYTE	W03
	BYTE		        88*mus_mt_chimney_mvl/mxv
	BYTE	W03
mus_mt_chimney_1_B1:
// 002   ----------------------------------------
mus_mt_chimney_1_002:
	BYTE		VOICE   127
	BYTE		PAN     c_v-64
	BYTE		VOL     44*mus_mt_chimney_mvl/mxv
	BYTE		N03     Cn4   v112
	BYTE	W12
	BYTE		        En4   v064
	BYTE	W06
	BYTE		        Cn4   v112
	BYTE	W12
	BYTE		        En4   v064
	BYTE	W06
	BYTE		        Cn4   v112
	BYTE	W24
	BYTE		N03   
	BYTE	W12
	BYTE		VOICE   125
	BYTE		PAN     c_v+0
	BYTE		N06     Gn3   v124
	BYTE	W24
	BYTE	PEND
// 003   ----------------------------------------
mus_mt_chimney_1_003:
	BYTE		VOICE   127
	BYTE		PAN     c_v-64
	BYTE		N03     Cn4   v112
	BYTE	W12
	BYTE		        En4   v064
	BYTE	W06
	BYTE		        Cn4   v112
	BYTE	W12
	BYTE		        En4   v064
	BYTE	W06
	BYTE		        Cn4   v112
	BYTE	W24
	BYTE		N03   
	BYTE	W06
	BYTE		        Cn4   v096
	BYTE	W06
	BYTE		VOICE   125
	BYTE		PAN     c_v+0
	BYTE		N06     Gn3   v124
	BYTE	W12
	BYTE		N03     Gn3   v064
	BYTE	W12
	BYTE	PEND
// 004   ----------------------------------------
mus_mt_chimney_1_004:
	BYTE		VOICE   127
	BYTE		PAN     c_v-64
	BYTE		N03     Cn4   v112
	BYTE	W12
	BYTE		        En4   v064
	BYTE	W06
	BYTE		        Cn4   v112
	BYTE	W12
	BYTE		        En4   v064
	BYTE	W06
	BYTE		        Cn4   v112
	BYTE	W24
	BYTE		N03   
	BYTE	W12
	BYTE		VOICE   125
	BYTE		PAN     c_v+0
	BYTE		N06     Gn3   v124
	BYTE	W24
	BYTE	PEND
// 005   ----------------------------------------
mus_mt_chimney_1_005:
	BYTE		VOICE   127
	BYTE		PAN     c_v-64
	BYTE		N03     Cn4   v112
	BYTE	W12
	BYTE		        En4   v064
	BYTE	W06
	BYTE		        Cn4   v112
	BYTE	W12
	BYTE		        En4   v064
	BYTE	W06
	BYTE		        Cn4   v112
	BYTE	W12
	BYTE		VOICE   126
	BYTE		VOL     5*mus_mt_chimney_mvl/mxv
	BYTE		PAN     c_v-1
	BYTE		N48     Fn4   v120
	BYTE	W02
	BYTE		VOL     7*mus_mt_chimney_mvl/mxv
	BYTE	W03
	BYTE		        10*mus_mt_chimney_mvl/mxv
	BYTE	W03
	BYTE		        12*mus_mt_chimney_mvl/mxv
	BYTE	W04
	BYTE		        12*mus_mt_chimney_mvl/mxv
	BYTE	W02
	BYTE		        14*mus_mt_chimney_mvl/mxv
	BYTE	W03
	BYTE		        18*mus_mt_chimney_mvl/mxv
	BYTE	W03
	BYTE		        20*mus_mt_chimney_mvl/mxv
	BYTE	W04
	BYTE		VOICE   125
	BYTE		VOL     25*mus_mt_chimney_mvl/mxv
	BYTE	W02
	BYTE		        30*mus_mt_chimney_mvl/mxv
	BYTE	W03
	BYTE		        36*mus_mt_chimney_mvl/mxv
	BYTE	W03
	BYTE		        41*mus_mt_chimney_mvl/mxv
	BYTE	W04
	BYTE		        46*mus_mt_chimney_mvl/mxv
	BYTE	W02
	BYTE		        57*mus_mt_chimney_mvl/mxv
	BYTE	W04
	BYTE		        69*mus_mt_chimney_mvl/mxv
	BYTE	W03
	BYTE		        88*mus_mt_chimney_mvl/mxv
	BYTE	W03
	BYTE	PEND
// 006   ----------------------------------------
	BYTE	PATT
	 POIN2	mus_mt_chimney_1_002
// 007   ----------------------------------------
	BYTE	PATT
	 POIN2	mus_mt_chimney_1_003
// 008   ----------------------------------------
	BYTE		VOICE   127
	BYTE		PAN     c_v-64
	BYTE		N03     Cn4   v112
	BYTE	W12
	BYTE		        En4   v064
	BYTE	W06
	BYTE		        Cn4   v112
	BYTE	W12
	BYTE		        En4   v064
	BYTE	W06
	BYTE		        Cn4   v112
	BYTE	W12
	BYTE		PAN     c_v-1
	BYTE	W12
	BYTE		N03   
	BYTE	W06
	BYTE		        Cn4   v096
	BYTE	W06
	BYTE		        Gn3   v124
	BYTE	W06
	BYTE		        Gn3   v112
	BYTE	W06
	BYTE		        Cn4 
	BYTE	W06
	BYTE		        Cn4   v096
	BYTE	W06
// 009   ----------------------------------------
	BYTE		VOICE   127
	BYTE		PAN     c_v-64
	BYTE		N03     Cn4   v112
	BYTE	W12
	BYTE		        En4   v064
	BYTE	W06
	BYTE		        Cn4   v112
	BYTE	W12
	BYTE		        En4   v064
	BYTE	W06
	BYTE		        Cn4   v112
	BYTE	W12
	BYTE		VOICE   126
	BYTE		VOL     5*mus_mt_chimney_mvl/mxv
	BYTE		N48     Fn4   v120
	BYTE	W02
	BYTE		VOL     7*mus_mt_chimney_mvl/mxv
	BYTE	W03
	BYTE		        10*mus_mt_chimney_mvl/mxv
	BYTE	W03
	BYTE		        12*mus_mt_chimney_mvl/mxv
	BYTE	W04
	BYTE		        12*mus_mt_chimney_mvl/mxv
	BYTE	W02
	BYTE		        14*mus_mt_chimney_mvl/mxv
	BYTE	W03
	BYTE		        18*mus_mt_chimney_mvl/mxv
	BYTE	W03
	BYTE		        20*mus_mt_chimney_mvl/mxv
	BYTE	W04
	BYTE		PAN     c_v+0
	BYTE		VOL     25*mus_mt_chimney_mvl/mxv
	BYTE	W02
	BYTE		        30*mus_mt_chimney_mvl/mxv
	BYTE	W03
	BYTE		        36*mus_mt_chimney_mvl/mxv
	BYTE	W03
	BYTE		        41*mus_mt_chimney_mvl/mxv
	BYTE	W04
	BYTE		        46*mus_mt_chimney_mvl/mxv
	BYTE	W02
	BYTE		        57*mus_mt_chimney_mvl/mxv
	BYTE	W04
	BYTE		        69*mus_mt_chimney_mvl/mxv
	BYTE	W03
	BYTE		        88*mus_mt_chimney_mvl/mxv
	BYTE	W03
// 010   ----------------------------------------
	BYTE	PATT
	 POIN2	mus_mt_chimney_1_002
// 011   ----------------------------------------
mus_mt_chimney_1_011:
	BYTE		VOICE   127
	BYTE		PAN     c_v-64
	BYTE		N03     Cn4   v112
	BYTE	W12
	BYTE		        En4   v064
	BYTE	W06
	BYTE		        Cn4   v112
	BYTE	W12
	BYTE		        En4   v064
	BYTE	W06
	BYTE		        Cn4   v112
	BYTE	W24
	BYTE		N03   
	BYTE	W06
	BYTE		        Cn4   v096
	BYTE	W06
	BYTE		VOICE   125
	BYTE		PAN     c_v+0
	BYTE		N06     Gn3   v124
	BYTE	W12
	BYTE		N03     Gn3   v064
	BYTE	W06
	BYTE		        Gn3   v112
	BYTE	W06
	BYTE	PEND
// 012   ----------------------------------------
	BYTE	PATT
	 POIN2	mus_mt_chimney_1_004
// 013   ----------------------------------------
mus_mt_chimney_1_013:
	BYTE		VOICE   127
	BYTE		PAN     c_v-64
	BYTE		N03     Cn4   v112
	BYTE	W12
	BYTE		        En4   v064
	BYTE	W06
	BYTE		        Cn4   v112
	BYTE	W12
	BYTE		        En4   v064
	BYTE	W06
	BYTE		        Cn4   v112
	BYTE	W12
	BYTE		VOICE   126
	BYTE		VOL     5*mus_mt_chimney_mvl/mxv
	BYTE		PAN     c_v-1
	BYTE		N48     Fn4   v120
	BYTE	W02
	BYTE		VOL     7*mus_mt_chimney_mvl/mxv
	BYTE	W03
	BYTE		        10*mus_mt_chimney_mvl/mxv
	BYTE	W03
	BYTE		        12*mus_mt_chimney_mvl/mxv
	BYTE	W04
	BYTE		        12*mus_mt_chimney_mvl/mxv
	BYTE	W02
	BYTE		        14*mus_mt_chimney_mvl/mxv
	BYTE	W03
	BYTE		        18*mus_mt_chimney_mvl/mxv
	BYTE	W03
	BYTE		        20*mus_mt_chimney_mvl/mxv
	BYTE	W04
	BYTE		        25*mus_mt_chimney_mvl/mxv
	BYTE	W02
	BYTE		        30*mus_mt_chimney_mvl/mxv
	BYTE	W03
	BYTE		        36*mus_mt_chimney_mvl/mxv
	BYTE	W03
	BYTE		        41*mus_mt_chimney_mvl/mxv
	BYTE	W04
	BYTE		        46*mus_mt_chimney_mvl/mxv
	BYTE	W02
	BYTE		        57*mus_mt_chimney_mvl/mxv
	BYTE	W04
	BYTE		        69*mus_mt_chimney_mvl/mxv
	BYTE	W03
	BYTE		        88*mus_mt_chimney_mvl/mxv
	BYTE	W03
	BYTE	PEND
// 014   ----------------------------------------
	BYTE		VOICE   127
	BYTE		PAN     c_v-64
	BYTE		VOL     40*mus_mt_chimney_mvl/mxv
	BYTE		PAN     c_v-64
	BYTE		N03     Cn4   v112
	BYTE	W03
	BYTE		VOL     44*mus_mt_chimney_mvl/mxv
	BYTE	W09
	BYTE		N03     En4   v064
	BYTE	W06
	BYTE		        Cn4   v112
	BYTE	W12
	BYTE		        En4   v064
	BYTE	W06
	BYTE		        Cn4   v112
	BYTE	W24
	BYTE		N03   
	BYTE	W12
	BYTE		VOICE   125
	BYTE		PAN     c_v+0
	BYTE		N03     Gn3   v124
	BYTE	W06
	BYTE		        Gn3   v112
	BYTE	W06
	BYTE		        Fn4 
	BYTE	W12
// 015   ----------------------------------------
	BYTE	PATT
	 POIN2	mus_mt_chimney_1_003
// 016   ----------------------------------------
	BYTE	PATT
	 POIN2	mus_mt_chimney_1_004
// 017   ----------------------------------------
mus_mt_chimney_1_017:
	BYTE		VOICE   127
	BYTE		PAN     c_v-64
	BYTE		N03     Cn4   v112
	BYTE	W12
	BYTE		        En4   v064
	BYTE	W06
	BYTE		        Cn4   v112
	BYTE	W12
	BYTE		        En4   v064
	BYTE	W06
	BYTE		        Cn4   v112
	BYTE	W12
	BYTE		N02   
	BYTE	W04
	BYTE		        Cn4   v088
	BYTE	W04
	BYTE		N02   
	BYTE	W04
	BYTE		N03     Cn4   v112
	BYTE	W06
	BYTE		        Cn4   v096
	BYTE	W06
	BYTE		PAN     c_v+0
	BYTE		N03     Gn3   v124
	BYTE	W06
	BYTE		        Gn3   v112
	BYTE	W06
	BYTE		        Cn4 
	BYTE	W06
	BYTE		        Cn4   v096
	BYTE	W06
	BYTE	PEND
// 018   ----------------------------------------
	BYTE		VOICE   127
	BYTE		PAN     c_v-64
	BYTE		VOL     48*mus_mt_chimney_mvl/mxv
	BYTE		N03     En4   v112
	BYTE	W06
	BYTE		        En4   v060
	BYTE	W06
	BYTE		N03   
	BYTE	W06
	BYTE		        En4   v064
	BYTE	W06
	BYTE		PAN     c_v+0
	BYTE		N03     En4   v112
	BYTE	W06
	BYTE		        En4   v060
	BYTE	W06
	BYTE		N03   
	BYTE	W06
	BYTE		        En4   v064
	BYTE	W06
	BYTE		PAN     c_v+63
	BYTE		N03     En4   v112
	BYTE	W06
	BYTE		        En4   v060
	BYTE	W06
	BYTE		N03   
	BYTE	W06
	BYTE		        En4   v064
	BYTE	W06
	BYTE		PAN     c_v+0
	BYTE		N03     En4   v112
	BYTE	W06
	BYTE		        En4   v108
	BYTE	W06
	BYTE		        En4   v060
	BYTE	W06
	BYTE		        En4   v064
	BYTE	W06
// 019   ----------------------------------------
mus_mt_chimney_1_019:
	BYTE		PAN     c_v-62
	BYTE		N03     En4   v112
	BYTE	W06
	BYTE		        En4   v060
	BYTE	W06
	BYTE		N03   
	BYTE	W06
	BYTE		        En4   v064
	BYTE	W06
	BYTE		PAN     c_v+0
	BYTE		N03     En4   v112
	BYTE	W06
	BYTE		        En4   v060
	BYTE	W06
	BYTE		N03   
	BYTE	W06
	BYTE		        En4   v064
	BYTE	W06
	BYTE		PAN     c_v+63
	BYTE		N02     En4   v112
	BYTE	W04
	BYTE		        En4   v068
	BYTE	W04
	BYTE		        En4   v092
	BYTE	W04
	BYTE		N03     En4   v076
	BYTE	W06
	BYTE		        En4   v064
	BYTE	W06
	BYTE		PAN     c_v+0
	BYTE		N03     En4   v112
	BYTE	W06
	BYTE		        En4   v108
	BYTE	W06
	BYTE		        En4   v060
	BYTE	W06
	BYTE		        En4   v064
	BYTE	W06
	BYTE	PEND
// 020   ----------------------------------------
	BYTE	PATT
	 POIN2	mus_mt_chimney_1_019
// 021   ----------------------------------------
mus_mt_chimney_1_021:
	BYTE		PAN     c_v-62
	BYTE		N03     En4   v112
	BYTE	W06
	BYTE		        En4   v060
	BYTE	W06
	BYTE		N03   
	BYTE	W06
	BYTE		        En4   v064
	BYTE	W06
	BYTE		PAN     c_v+0
	BYTE		N03     En4   v112
	BYTE	W06
	BYTE		        En4   v060
	BYTE	W06
	BYTE		N03   
	BYTE	W06
	BYTE		        En4   v064
	BYTE	W06
	BYTE		PAN     c_v+63
	BYTE		N03     En4   v112
	BYTE	W06
	BYTE		        En4   v060
	BYTE	W06
	BYTE		N03   
	BYTE	W06
	BYTE		        En4   v064
	BYTE	W06
	BYTE		PAN     c_v+0
	BYTE		N03     En4   v112
	BYTE	W06
	BYTE		        En4   v108
	BYTE	W06
	BYTE		        En4   v060
	BYTE	W06
	BYTE		        En4   v064
	BYTE	W06
	BYTE	PEND
// 022   ----------------------------------------
	BYTE	PATT
	 POIN2	mus_mt_chimney_1_021
// 023   ----------------------------------------
	BYTE		PAN     c_v-62
	BYTE		N03     En4   v112
	BYTE	W06
	BYTE		        En4   v060
	BYTE	W06
	BYTE		N03   
	BYTE	W06
	BYTE		        En4   v064
	BYTE	W06
	BYTE		PAN     c_v+0
	BYTE		N03     En4   v112
	BYTE	W06
	BYTE		        En4   v060
	BYTE	W06
	BYTE		N03   
	BYTE	W06
	BYTE		        En4   v064
	BYTE	W06
	BYTE		N02     En4   v112
	BYTE	W04
	BYTE		        En4   v096
	BYTE	W04
	BYTE		N02   
	BYTE	W04
	BYTE		N03     En4   v116
	BYTE	W06
	BYTE		        En4   v064
	BYTE	W06
	BYTE		        En4   v112
	BYTE	W06
	BYTE		        En4   v064
	BYTE	W06
	BYTE		        En4   v060
	BYTE	W06
	BYTE		        En4   v064
	BYTE	W06
// 024   ----------------------------------------
	BYTE		PAN     c_v-62
	BYTE		VOL     64*mus_mt_chimney_mvl/mxv
	BYTE	W06
	BYTE		N03     Cn4   v112
	BYTE	W12
	BYTE		        Cn4   v088
	BYTE	W06
	BYTE		        Cn4   v112
	BYTE	W06
	BYTE		        Gn3   v076
	BYTE	W06
	BYTE		        Cn4   v112
	BYTE	W06
	BYTE		        En4   v092
	BYTE	W06
// 025   ----------------------------------------
mus_mt_chimney_1_025:
	BYTE		VOICE   127
	BYTE		PAN     c_v-64
	BYTE		VOL     45*mus_mt_chimney_mvl/mxv
	BYTE		N03     Cn4   v112
	BYTE	W12
	BYTE		        En4   v064
	BYTE	W06
	BYTE		        Cn4   v112
	BYTE	W12
	BYTE		        En4   v064
	BYTE	W06
	BYTE		        Cn4   v112
	BYTE	W24
	BYTE		N03   
	BYTE	W12
	BYTE		VOICE   125
	BYTE		PAN     c_v+0
	BYTE		N06     Gn3   v124
	BYTE	W24
	BYTE	PEND
// 026   ----------------------------------------
	BYTE	PATT
	 POIN2	mus_mt_chimney_1_003
// 027   ----------------------------------------
	BYTE	PATT
	 POIN2	mus_mt_chimney_1_004
// 028   ----------------------------------------
	BYTE	PATT
	 POIN2	mus_mt_chimney_1_005
// 029   ----------------------------------------
	BYTE	PATT
	 POIN2	mus_mt_chimney_1_025
// 030   ----------------------------------------
	BYTE	PATT
	 POIN2	mus_mt_chimney_1_003
// 031   ----------------------------------------
	BYTE		VOICE   127
	BYTE		PAN     c_v-64
	BYTE		N03     Cn4   v112
	BYTE	W12
	BYTE		        En4   v064
	BYTE	W06
	BYTE		        Cn4   v112
	BYTE	W12
	BYTE		        En4   v064
	BYTE	W06
	BYTE		        Cn4   v112
	BYTE	W12
	BYTE		PAN     c_v-1
	BYTE	W12
	BYTE		N03     Dn4 
	BYTE	W06
	BYTE		        Dn4   v096
	BYTE	W06
	BYTE		        An3   v124
	BYTE	W06
	BYTE		        An3   v112
	BYTE	W06
	BYTE		        Dn4 
	BYTE	W06
	BYTE		        Dn4   v096
	BYTE	W06
// 032   ----------------------------------------
	BYTE		PAN     c_v-64
	BYTE		N03     Cn4   v112
	BYTE	W12
	BYTE		        En4   v064
	BYTE	W06
	BYTE		        Cn4   v112
	BYTE	W12
	BYTE		        En4   v064
	BYTE	W06
	BYTE		        Cn4   v112
	BYTE	W12
	BYTE		VOICE   126
	BYTE		VOL     5*mus_mt_chimney_mvl/mxv
	BYTE		N48     Fn4   v120
	BYTE	W02
	BYTE		VOL     7*mus_mt_chimney_mvl/mxv
	BYTE	W03
	BYTE		        10*mus_mt_chimney_mvl/mxv
	BYTE	W03
	BYTE		        12*mus_mt_chimney_mvl/mxv
	BYTE	W04
	BYTE		        12*mus_mt_chimney_mvl/mxv
	BYTE	W02
	BYTE		        14*mus_mt_chimney_mvl/mxv
	BYTE	W03
	BYTE		        18*mus_mt_chimney_mvl/mxv
	BYTE	W03
	BYTE		        20*mus_mt_chimney_mvl/mxv
	BYTE	W04
	BYTE		PAN     c_v+0
	BYTE		VOL     25*mus_mt_chimney_mvl/mxv
	BYTE	W02
	BYTE		        30*mus_mt_chimney_mvl/mxv
	BYTE	W03
	BYTE		        36*mus_mt_chimney_mvl/mxv
	BYTE	W03
	BYTE		        41*mus_mt_chimney_mvl/mxv
	BYTE	W04
	BYTE		        46*mus_mt_chimney_mvl/mxv
	BYTE	W02
	BYTE		        57*mus_mt_chimney_mvl/mxv
	BYTE	W04
	BYTE		        69*mus_mt_chimney_mvl/mxv
	BYTE	W03
	BYTE		        88*mus_mt_chimney_mvl/mxv
	BYTE	W03
// 033   ----------------------------------------
	BYTE	PATT
	 POIN2	mus_mt_chimney_1_002
// 034   ----------------------------------------
	BYTE	PATT
	 POIN2	mus_mt_chimney_1_011
// 035   ----------------------------------------
	BYTE	PATT
	 POIN2	mus_mt_chimney_1_004
// 036   ----------------------------------------
	BYTE	PATT
	 POIN2	mus_mt_chimney_1_013
// 037   ----------------------------------------
	BYTE		VOICE   127
	BYTE		PAN     c_v-64
	BYTE		VOL     44*mus_mt_chimney_mvl/mxv
	BYTE		N03     Cn4   v112
	BYTE	W12
	BYTE		        En4   v064
	BYTE	W06
	BYTE		        Cn4   v112
	BYTE	W12
	BYTE		        En4   v064
	BYTE	W06
	BYTE		        Cn4   v112
	BYTE	W24
	BYTE		N03   
	BYTE	W12
	BYTE		VOICE   125
	BYTE		PAN     c_v+0
	BYTE		N03     Gn3   v124
	BYTE	W06
	BYTE		        Gn3   v112
	BYTE	W06
	BYTE		        Fn4 
	BYTE	W12
// 038   ----------------------------------------
	BYTE	PATT
	 POIN2	mus_mt_chimney_1_003
// 039   ----------------------------------------
	BYTE	PATT
	 POIN2	mus_mt_chimney_1_004
// 040   ----------------------------------------
	BYTE	PATT
	 POIN2	mus_mt_chimney_1_017
// 041   ----------------------------------------
	BYTE	W24
	BYTE		VOICE   126
	BYTE		VOL     5*mus_mt_chimney_mvl/mxv
	BYTE		PAN     c_v-1
	BYTE		N48     Fn4   v120
	BYTE	W02
	BYTE		VOL     7*mus_mt_chimney_mvl/mxv
	BYTE	W03
	BYTE		        10*mus_mt_chimney_mvl/mxv
	BYTE	W03
	BYTE		        12*mus_mt_chimney_mvl/mxv
	BYTE	W04
	BYTE		        12*mus_mt_chimney_mvl/mxv
	BYTE	W02
	BYTE		        14*mus_mt_chimney_mvl/mxv
	BYTE	W03
	BYTE		        18*mus_mt_chimney_mvl/mxv
	BYTE	W03
	BYTE		        20*mus_mt_chimney_mvl/mxv
	BYTE	W04
	BYTE		PAN     c_v+0
	BYTE		VOL     25*mus_mt_chimney_mvl/mxv
	BYTE	W02
	BYTE		        30*mus_mt_chimney_mvl/mxv
	BYTE	W03
	BYTE		        36*mus_mt_chimney_mvl/mxv
	BYTE	W03
	BYTE		        41*mus_mt_chimney_mvl/mxv
	BYTE	W04
	BYTE		        46*mus_mt_chimney_mvl/mxv
	BYTE	W02
	BYTE		        57*mus_mt_chimney_mvl/mxv
	BYTE	W04
	BYTE		        70*mus_mt_chimney_mvl/mxv
	BYTE	W03
	BYTE		        88*mus_mt_chimney_mvl/mxv
	BYTE	W03
	BYTE		        44*mus_mt_chimney_mvl/mxv
	BYTE		N03     Cn4   v112
	BYTE	W06
	BYTE		        Cn4   v064
	BYTE	W06
	BYTE		        Cn4   v112
	BYTE	W06
	BYTE		        Cn4   v064
	BYTE	W06
// 042   ----------------------------------------
	BYTE	W24
	BYTE		VOICE   126
	BYTE		VOL     5*mus_mt_chimney_mvl/mxv
	BYTE		PAN     c_v-1
	BYTE		N48     Fn4   v120
	BYTE	W02
	BYTE		VOL     7*mus_mt_chimney_mvl/mxv
	BYTE	W03
	BYTE		        10*mus_mt_chimney_mvl/mxv
	BYTE	W03
	BYTE		        12*mus_mt_chimney_mvl/mxv
	BYTE	W04
	BYTE		        12*mus_mt_chimney_mvl/mxv
	BYTE	W02
	BYTE		        14*mus_mt_chimney_mvl/mxv
	BYTE	W03
	BYTE		        18*mus_mt_chimney_mvl/mxv
	BYTE	W03
	BYTE		        20*mus_mt_chimney_mvl/mxv
	BYTE	W04
	BYTE		PAN     c_v+0
	BYTE		VOL     25*mus_mt_chimney_mvl/mxv
	BYTE	W02
	BYTE		        30*mus_mt_chimney_mvl/mxv
	BYTE	W03
	BYTE		        36*mus_mt_chimney_mvl/mxv
	BYTE	W03
	BYTE		        41*mus_mt_chimney_mvl/mxv
	BYTE	W04
	BYTE		        46*mus_mt_chimney_mvl/mxv
	BYTE	W02
	BYTE		        57*mus_mt_chimney_mvl/mxv
	BYTE	W04
	BYTE		        69*mus_mt_chimney_mvl/mxv
	BYTE	W03
	BYTE		        88*mus_mt_chimney_mvl/mxv
	BYTE	W03
	BYTE		        44*mus_mt_chimney_mvl/mxv
	BYTE		N03     Cn4   v112
	BYTE	W06
	BYTE		        Cn4   v064
	BYTE	W06
	BYTE		        Cn4   v112
	BYTE	W06
	BYTE		        Cn4   v064
	BYTE	W06
// 043   ----------------------------------------
	BYTE		VOL     15*mus_mt_chimney_mvl/mxv
	BYTE		N24     Fn4   v112
	BYTE	W02
	BYTE		VOL     18*mus_mt_chimney_mvl/mxv
	BYTE	W03
	BYTE		        25*mus_mt_chimney_mvl/mxv
	BYTE	W03
	BYTE		        31*mus_mt_chimney_mvl/mxv
	BYTE	W04
	BYTE		        36*mus_mt_chimney_mvl/mxv
	BYTE	W02
	BYTE		        44*mus_mt_chimney_mvl/mxv
	BYTE	W03
	BYTE		        64*mus_mt_chimney_mvl/mxv
	BYTE	W30
	BYTE	W01
	BYTE		        15*mus_mt_chimney_mvl/mxv
	BYTE		N24   
	BYTE	W02
	BYTE		VOL     15*mus_mt_chimney_mvl/mxv
	BYTE	W03
	BYTE		        22*mus_mt_chimney_mvl/mxv
	BYTE	W03
	BYTE		        25*mus_mt_chimney_mvl/mxv
	BYTE	W04
	BYTE		        31*mus_mt_chimney_mvl/mxv
	BYTE	W02
	BYTE		        48*mus_mt_chimney_mvl/mxv
	BYTE	W03
	BYTE		        66*mus_mt_chimney_mvl/mxv
	BYTE	W04
	BYTE		        75*mus_mt_chimney_mvl/mxv
	BYTE	W24
	BYTE	W03
// 044   ----------------------------------------
	BYTE	W96
// 045   ----------------------------------------
	BYTE	W96
// 046   ----------------------------------------
	BYTE	W96
// 047   ----------------------------------------
	BYTE	W96
// 048   ----------------------------------------
	BYTE	W96
	BYTE	GoTo
	 POIN2	mus_mt_chimney_1_B1
mus_mt_chimney_1_B2:
// 049   ----------------------------------------
	BYTE	FINE

//**************** Track 2 (Midi-Chn.2) ****************//

mus_mt_chimney_2:
	BYTE	KEYSH   mus_mt_chimney_key+0
// 000   ----------------------------------------
	BYTE		VOICE   47
	BYTE		LFOS    44
	BYTE		VOL     114*mus_mt_chimney_mvl/mxv
	BYTE		BENDR   12
	BYTE		PAN     c_v+19
	BYTE		BEND    c_v+0
	BYTE		N12     Ds2   v108
	BYTE	W48
	BYTE		PAN     c_v-25
	BYTE		N16     Gn1   v120
	BYTE	W36
	BYTE		N03     As1   v112
	BYTE	W06
	BYTE		N03   
	BYTE	W06
// 001   ----------------------------------------
	BYTE		PAN     c_v+19
	BYTE		N12     Ds2 
	BYTE	W24
	BYTE		PAN     c_v-22
	BYTE		N12     As1 
	BYTE	W24
	BYTE		N36     Ds1 
	BYTE	W36
	BYTE		PAN     c_v+14
	BYTE		N03     Bn2 
	BYTE	W06
	BYTE		N03   
	BYTE	W06
mus_mt_chimney_2_B1:
// 002   ----------------------------------------
	BYTE		PAN     c_v+16
	BYTE		N12     Ds2   v112
	BYTE	W12
	BYTE		N06     Gs1 
	BYTE	W84
// 003   ----------------------------------------
mus_mt_chimney_2_003:
	BYTE		N03     Bn2   v112
	BYTE	W06
	BYTE		N03   
	BYTE	W06
	BYTE		N06     Gs1 
	BYTE	W24
	BYTE		N03     Bn2 
	BYTE	W06
	BYTE		N03   
	BYTE	W06
	BYTE		N12     Ds2 
	BYTE	W12
	BYTE		N06     Gs1 
	BYTE	W24
	BYTE		N03     Bn2 
	BYTE	W06
	BYTE		N03   
	BYTE	W06
	BYTE	PEND
// 004   ----------------------------------------
mus_mt_chimney_2_004:
	BYTE		N12     Ds2   v112
	BYTE	W12
	BYTE		N06     Gs1 
	BYTE	W72
	BYTE		N03     Bn2 
	BYTE	W06
	BYTE		N03   
	BYTE	W06
	BYTE	PEND
// 005   ----------------------------------------
mus_mt_chimney_2_005:
	BYTE		N03     Ds2   v112
	BYTE	W06
	BYTE		N03   
	BYTE	W06
	BYTE		N06     Gs1 
	BYTE	W24
	BYTE		N03     Bn2 
	BYTE	W06
	BYTE		N03   
	BYTE	W06
	BYTE		N03   
	BYTE	W06
	BYTE		N03   
	BYTE	W06
	BYTE		N06     Gs1 
	BYTE	W36
	BYTE	PEND
// 006   ----------------------------------------
mus_mt_chimney_2_006:
	BYTE		N12     Ds2   v112
	BYTE	W12
	BYTE		N06     Ds1 
	BYTE	W72
	BYTE		N03     As2 
	BYTE	W06
	BYTE		N03   
	BYTE	W06
	BYTE	PEND
// 007   ----------------------------------------
mus_mt_chimney_2_007:
	BYTE		N12     Ds2   v112
	BYTE	W12
	BYTE		N06     Ds1 
	BYTE	W24
	BYTE		N03     As2 
	BYTE	W06
	BYTE		N03   
	BYTE	W06
	BYTE		N12     Ds2 
	BYTE	W12
	BYTE		N06     Ds1 
	BYTE	W36
	BYTE	PEND
// 008   ----------------------------------------
	BYTE	W96
// 009   ----------------------------------------
mus_mt_chimney_2_009:
	BYTE		VOICE   56
	BYTE	W06
	BYTE		N03     Ds3   v112
	BYTE	W12
	BYTE		        Cs3 
	BYTE	W06
	BYTE		        Ds3 
	BYTE	W03
	BYTE		        En3 
	BYTE	W03
	BYTE		        Cs3 
	BYTE	W06
	BYTE		        As2 
	BYTE	W06
	BYTE		        Gn2 
	BYTE	W06
	BYTE		        Ds3 
	BYTE	W06
	BYTE		N03   
	BYTE	W06
	BYTE		N03   
	BYTE	W06
	BYTE		N03   
	BYTE	W06
	BYTE		N06     Gn3 
	BYTE	W06
	BYTE		N03     Fn3   v072
	BYTE	W03
	BYTE		        Ds3   v068
	BYTE	W03
	BYTE		        Dn3 
	BYTE	W03
	BYTE		        Cn3   v060
	BYTE	W03
	BYTE		        As2 
	BYTE	W06
	BYTE	PEND
// 010   ----------------------------------------
mus_mt_chimney_2_010:
	BYTE		VOICE   47
	BYTE		N12     Ds2   v112
	BYTE	W12
	BYTE		N05     Gs1 
	BYTE	W84
	BYTE	PEND
// 011   ----------------------------------------
	BYTE	PATT
	 POIN2	mus_mt_chimney_2_003
// 012   ----------------------------------------
	BYTE	PATT
	 POIN2	mus_mt_chimney_2_004
// 013   ----------------------------------------
mus_mt_chimney_2_013:
	BYTE		N03     Ds2   v112
	BYTE	W06
	BYTE		N03   
	BYTE	W06
	BYTE		N06     Gs1 
	BYTE	W84
	BYTE	PEND
// 014   ----------------------------------------
mus_mt_chimney_2_014:
	BYTE		N12     Ds2   v112
	BYTE	W12
	BYTE		N05     Ds1 
	BYTE	W72
	BYTE		N03     As2 
	BYTE	W06
	BYTE		N03   
	BYTE	W06
	BYTE	PEND
// 015   ----------------------------------------
	BYTE	PATT
	 POIN2	mus_mt_chimney_2_007
// 016   ----------------------------------------
	BYTE		VOICE   56
	BYTE	W96
// 017   ----------------------------------------
mus_mt_chimney_2_017:
	BYTE	W48
	BYTE		VOICE   60
	BYTE		N48     Gn3   v112
	BYTE	W32
	BYTE	W01
	BYTE		VOICE   47
	BYTE	W15
	BYTE	PEND
// 018   ----------------------------------------
	BYTE	W96
// 019   ----------------------------------------
	BYTE	W96
// 020   ----------------------------------------
	BYTE	W96
// 021   ----------------------------------------
	BYTE	W96
// 022   ----------------------------------------
	BYTE	W96
// 023   ----------------------------------------
	BYTE	W96
// 024   ----------------------------------------
	BYTE	W48
// 025   ----------------------------------------
	BYTE		N12     Ds2 
	BYTE	W12
	BYTE		N06     Gs1 
	BYTE	W84
// 026   ----------------------------------------
	BYTE	PATT
	 POIN2	mus_mt_chimney_2_003
// 027   ----------------------------------------
	BYTE	PATT
	 POIN2	mus_mt_chimney_2_004
// 028   ----------------------------------------
	BYTE	PATT
	 POIN2	mus_mt_chimney_2_005
// 029   ----------------------------------------
	BYTE	PATT
	 POIN2	mus_mt_chimney_2_006
// 030   ----------------------------------------
	BYTE	PATT
	 POIN2	mus_mt_chimney_2_007
// 031   ----------------------------------------
	BYTE	W96
// 032   ----------------------------------------
	BYTE	PATT
	 POIN2	mus_mt_chimney_2_009
// 033   ----------------------------------------
	BYTE	PATT
	 POIN2	mus_mt_chimney_2_010
// 034   ----------------------------------------
	BYTE	PATT
	 POIN2	mus_mt_chimney_2_003
// 035   ----------------------------------------
	BYTE	PATT
	 POIN2	mus_mt_chimney_2_004
// 036   ----------------------------------------
	BYTE	PATT
	 POIN2	mus_mt_chimney_2_013
// 037   ----------------------------------------
	BYTE	PATT
	 POIN2	mus_mt_chimney_2_014
// 038   ----------------------------------------
	BYTE	PATT
	 POIN2	mus_mt_chimney_2_007
// 039   ----------------------------------------
	BYTE		VOICE   56
	BYTE	W96
// 040   ----------------------------------------
	BYTE	PATT
	 POIN2	mus_mt_chimney_2_017
// 041   ----------------------------------------
mus_mt_chimney_2_041:
	BYTE		N12     Gs2   v112
	BYTE	W12
	BYTE		        Gs1 
	BYTE	W24
	BYTE		N03     Gs2 
	BYTE	W06
	BYTE		N03   
	BYTE	W06
	BYTE		N12   
	BYTE	W12
	BYTE		        Gs1 
	BYTE	W36
	BYTE	PEND
// 042   ----------------------------------------
	BYTE	PATT
	 POIN2	mus_mt_chimney_2_041
// 043   ----------------------------------------
	BYTE		N12     Gs2   v112
	BYTE	W12
	BYTE		        Gs1 
	BYTE	W24
	BYTE		N03     Gs2 
	BYTE	W06
	BYTE		N03   
	BYTE	W06
	BYTE		N12   
	BYTE	W12
	BYTE		        Gs1 
	BYTE	W24
	BYTE		N03     Gs2 
	BYTE	W06
	BYTE		N03   
	BYTE	W06
// 044   ----------------------------------------
	BYTE		N12   
	BYTE	W12
	BYTE		        Gs1 
	BYTE	W12
	BYTE		        Gs2 
	BYTE	W12
	BYTE		        Gs1 
	BYTE	W12
	BYTE		        Gs2 
	BYTE	W12
	BYTE		        Gs1 
	BYTE	W12
	BYTE		        Gs2 
	BYTE	W24
// 045   ----------------------------------------
	BYTE		PAN     c_v+24
	BYTE		N06   
	BYTE	W12
	BYTE		PAN     c_v-18
	BYTE		N12     Gs1   v127
	BYTE	W60
	BYTE		PAN     c_v+23
	BYTE	W12
	BYTE		N03     Ds3   v112
	BYTE	W06
	BYTE		N03   
	BYTE	W06
// 046   ----------------------------------------
	BYTE		N06     Gs2 
	BYTE	W12
	BYTE		PAN     c_v-19
	BYTE		N12     Gs1   v127
	BYTE	W60
	BYTE		PAN     c_v+23
	BYTE	W12
	BYTE		N03     Gs2   v096
	BYTE	W03
	BYTE		N03   
	BYTE	W03
	BYTE		N03   
	BYTE	W03
	BYTE		N03   
	BYTE	W03
// 047   ----------------------------------------
	BYTE		        Ds3   v112
	BYTE	W06
	BYTE		N03   
	BYTE	W06
	BYTE		PAN     c_v-19
	BYTE		N12     Gs1   v127
	BYTE	W60
	BYTE		PAN     c_v+23
	BYTE	W12
	BYTE		N03     Ds3   v112
	BYTE	W06
	BYTE		N03   
	BYTE	W06
// 048   ----------------------------------------
	BYTE		N06     Gs2 
	BYTE	W12
	BYTE		PAN     c_v-19
	BYTE		N12     Gs1   v127
	BYTE	W84
	BYTE	GoTo
	 POIN2	mus_mt_chimney_2_B1
mus_mt_chimney_2_B2:
// 049   ----------------------------------------
	BYTE	FINE

//**************** Track 3 (Midi-Chn.3) ****************//

mus_mt_chimney_3:
	BYTE	KEYSH   mus_mt_chimney_key+0
// 000   ----------------------------------------
	BYTE		VOICE   56
	BYTE		LFOS    44
	BYTE		VOL     53*mus_mt_chimney_mvl/mxv
	BYTE		PAN     c_v+16
	BYTE		BEND    c_v+0
	BYTE		N24     Gn1   v112
	BYTE	W12
	BYTE		MOD     6
	BYTE	W12
	BYTE		PAN     c_v-16
	BYTE		MOD     0
	BYTE		N24     Ds2 
	BYTE	W12
	BYTE		MOD     6
	BYTE	W12
	BYTE		VOL     67*mus_mt_chimney_mvl/mxv
	BYTE		PAN     c_v+47
	BYTE		MOD     0
	BYTE		N24     As1 
	BYTE	W12
	BYTE		MOD     6
	BYTE	W12
	BYTE		PAN     c_v-46
	BYTE		MOD     0
	BYTE		N24     Gn2 
	BYTE	W03
	BYTE		MOD     0
	BYTE	W09
	BYTE		        6
	BYTE	W12
// 001   ----------------------------------------
	BYTE		VOL     95*mus_mt_chimney_mvl/mxv
	BYTE		PAN     c_v+9
	BYTE		MOD     0
	BYTE		N96     As2 
	BYTE	W12
	BYTE		VOL     59*mus_mt_chimney_mvl/mxv
	BYTE	W02
	BYTE		        43*mus_mt_chimney_mvl/mxv
	BYTE	W03
	BYTE		        35*mus_mt_chimney_mvl/mxv
	BYTE	W03
	BYTE		        28*mus_mt_chimney_mvl/mxv
	BYTE	W04
	BYTE		        23*mus_mt_chimney_mvl/mxv
	BYTE	W02
	BYTE		        20*mus_mt_chimney_mvl/mxv
	BYTE	W01
	BYTE		        20*mus_mt_chimney_mvl/mxv
	BYTE	W02
	BYTE		        23*mus_mt_chimney_mvl/mxv
	BYTE	W03
	BYTE		        28*mus_mt_chimney_mvl/mxv
	BYTE	W04
	BYTE		        30*mus_mt_chimney_mvl/mxv
	BYTE	W02
	BYTE		        33*mus_mt_chimney_mvl/mxv
	BYTE	W03
	BYTE		        38*mus_mt_chimney_mvl/mxv
	BYTE	W03
	BYTE		        40*mus_mt_chimney_mvl/mxv
	BYTE	W04
	BYTE		        43*mus_mt_chimney_mvl/mxv
	BYTE		MOD     5
	BYTE	W02
	BYTE		VOL     48*mus_mt_chimney_mvl/mxv
	BYTE	W03
	BYTE		        51*mus_mt_chimney_mvl/mxv
	BYTE	W03
	BYTE		        57*mus_mt_chimney_mvl/mxv
	BYTE	W04
	BYTE		        62*mus_mt_chimney_mvl/mxv
	BYTE	W02
	BYTE		        67*mus_mt_chimney_mvl/mxv
	BYTE	W03
	BYTE		        69*mus_mt_chimney_mvl/mxv
	BYTE	W03
	BYTE		        75*mus_mt_chimney_mvl/mxv
	BYTE	W04
	BYTE		MOD     7
	BYTE		VOL     80*mus_mt_chimney_mvl/mxv
	BYTE	W02
	BYTE		        90*mus_mt_chimney_mvl/mxv
	BYTE	W03
	BYTE		        93*mus_mt_chimney_mvl/mxv
	BYTE	W03
	BYTE		        98*mus_mt_chimney_mvl/mxv
	BYTE	W04
	BYTE		        101*mus_mt_chimney_mvl/mxv
	BYTE	W02
	BYTE		        105*mus_mt_chimney_mvl/mxv
	BYTE	W03
	BYTE		        111*mus_mt_chimney_mvl/mxv
	BYTE	W03
	BYTE		        118*mus_mt_chimney_mvl/mxv
	BYTE	W04
mus_mt_chimney_3_B1:
// 002   ----------------------------------------
	BYTE		VOICE   56
	BYTE		VOL     106*mus_mt_chimney_mvl/mxv
	BYTE		MOD     1
	BYTE		PAN     c_v+0
	BYTE	W06
	BYTE		N03     Fn3   v112
	BYTE	W03
	BYTE		        En3 
	BYTE	W03
	BYTE		N06     Ds3 
	BYTE	W06
	BYTE		        Ds3   v032
	BYTE	W06
	BYTE		N03     Gs3   v112
	BYTE	W03
	BYTE		N06     Gs3   v032
	BYTE	W09
	BYTE		N03     Gn3   v112
	BYTE	W03
	BYTE		N06     Gn3   v032
	BYTE	W09
	BYTE		N03     An3   v112
	BYTE	W03
	BYTE		        An3   v032
	BYTE	W03
	BYTE		        As3   v112
	BYTE	W03
	BYTE		N06     As3   v032
	BYTE	W09
	BYTE		N03     As3   v112
	BYTE	W03
	BYTE		        As3   v032
	BYTE	W03
	BYTE		N12     Gs3   v112
	BYTE	W12
	BYTE		        Fn3 
	BYTE	W12
// 003   ----------------------------------------
mus_mt_chimney_3_003:
	BYTE		PAN     c_v-48
	BYTE		VOL     121*mus_mt_chimney_mvl/mxv
	BYTE		N03     Bn3   v112
	BYTE	W03
	BYTE		        Bn3   v032
	BYTE	W03
	BYTE		        Bn3   v112
	BYTE	W03
	BYTE		        Bn3   v032
	BYTE	W03
	BYTE		        As3   v112
	BYTE	W03
	BYTE		        As3   v032
	BYTE	W03
	BYTE		        Bn3   v112
	BYTE	W03
	BYTE		N09     Bn3   v032
	BYTE	W15
	BYTE		N03     Ds4   v112
	BYTE	W06
	BYTE		N03   
	BYTE	W06
	BYTE		N03   
	BYTE	W03
	BYTE		N06     Ds4   v032
	BYTE	W09
	BYTE		N03     Ds4   v112
	BYTE	W03
	BYTE		N06     Ds4   v032
	BYTE	W09
	BYTE		        Dn4   v112
	BYTE	W06
	BYTE		        Dn4   v032
	BYTE	W06
	BYTE		        Bn3   v112
	BYTE	W06
	BYTE		N03     Dn4 
	BYTE	W03
	BYTE		N06     Dn4   v032
	BYTE	W03
	BYTE	PEND
// 004   ----------------------------------------
	BYTE		VOL     90*mus_mt_chimney_mvl/mxv
	BYTE		PAN     c_v-18
	BYTE	W03
	BYTE		        c_v-16
	BYTE	W06
	BYTE		N03     En3   v112
	BYTE	W03
	BYTE		N06     Ds3 
	BYTE	W06
	BYTE		        Ds3   v032
	BYTE	W06
	BYTE		VOICE   56
	BYTE		N03     Gs3   v112
	BYTE	W03
	BYTE		N06     Gs3   v032
	BYTE	W09
	BYTE		N03     Gn3   v112
	BYTE	W03
	BYTE		N06     Gn3   v032
	BYTE	W09
	BYTE		N24     As3   v112
	BYTE	W24
	BYTE		N12     Gs3 
	BYTE	W12
	BYTE		        Fn3 
	BYTE	W12
// 005   ----------------------------------------
	BYTE		VOL     108*mus_mt_chimney_mvl/mxv
	BYTE		PAN     c_v-24
	BYTE		N06     Fs3 
	BYTE	W06
	BYTE		N03     Gs3 
	BYTE	W03
	BYTE		N06     Gs3   v032
	BYTE	W09
	BYTE		N03     Gs3   v112
	BYTE	W03
	BYTE		N06     Gs3   v032
	BYTE	W15
	BYTE		N03     Ds4   v112
	BYTE	W03
	BYTE		        Ds4   v032
	BYTE	W03
	BYTE		        Ds4   v112
	BYTE	W03
	BYTE		        Ds4   v032
	BYTE	W03
	BYTE		N06     Dn4   v112
	BYTE	W06
	BYTE		        Ds4 
	BYTE	W06
	BYTE		N03     Gs4 
	BYTE	W03
	BYTE		        Gs4   v032
	BYTE	W03
	BYTE		        Gs4   v112
	BYTE	W03
	BYTE		        Gs4   v032
	BYTE	W03
	BYTE		N06     Gn4   v112
	BYTE	W06
	BYTE		        Gs4 
	BYTE	W06
	BYTE		N03     Bn4 
	BYTE	W03
	BYTE		        Bn4   v032
	BYTE	W03
	BYTE		N06     Bn4   v112
	BYTE	W06
// 006   ----------------------------------------
mus_mt_chimney_3_006:
	BYTE		N06     Ds5   v112
	BYTE	W06
	BYTE		N03     Dn5 
	BYTE	W03
	BYTE		        Cn5   v064
	BYTE	W03
	BYTE		        Bn4 
	BYTE	W03
	BYTE		        An4 
	BYTE	W03
	BYTE		        Gn4 
	BYTE	W54
	BYTE		N06     Dn4   v112
	BYTE	W06
	BYTE		        Ds4 
	BYTE	W06
	BYTE		N09     Ds4   v032
	BYTE	W12
	BYTE	PEND
// 007   ----------------------------------------
mus_mt_chimney_3_007:
	BYTE	W06
	BYTE		N03     Gn3   v112
	BYTE	W03
	BYTE		N06     Gn3   v032
	BYTE	W09
	BYTE		N03     Ds3   v112
	BYTE	W03
	BYTE		        Ds3   v032
	BYTE	W03
	BYTE		N06     Gn3   v112
	BYTE	W06
	BYTE		        Fn3 
	BYTE	W06
	BYTE		        Gn3 
	BYTE	W06
	BYTE		        As3 
	BYTE	W06
	BYTE		        As3   v032
	BYTE	W24
	BYTE		        Gn2   v112
	BYTE	W06
	BYTE		        Fn2 
	BYTE	W06
	BYTE		        Gn2 
	BYTE	W06
	BYTE		        As2 
	BYTE	W06
	BYTE	PEND
// 008   ----------------------------------------
	BYTE		N96     Ds3 
	BYTE	W03
	BYTE		VOL     108*mus_mt_chimney_mvl/mxv
	BYTE	W03
	BYTE		        95*mus_mt_chimney_mvl/mxv
	BYTE	W02
	BYTE		        71*mus_mt_chimney_mvl/mxv
	BYTE	W04
	BYTE		        59*mus_mt_chimney_mvl/mxv
	BYTE	W02
	BYTE		        44*mus_mt_chimney_mvl/mxv
	BYTE	W04
	BYTE		        40*mus_mt_chimney_mvl/mxv
	BYTE	W06
	BYTE		        31*mus_mt_chimney_mvl/mxv
	BYTE	W02
	BYTE		        33*mus_mt_chimney_mvl/mxv
	BYTE	W04
	BYTE		        38*mus_mt_chimney_mvl/mxv
	BYTE	W02
	BYTE		        43*mus_mt_chimney_mvl/mxv
	BYTE	W04
	BYTE		        48*mus_mt_chimney_mvl/mxv
	BYTE	W02
	BYTE		        53*mus_mt_chimney_mvl/mxv
	BYTE	W04
	BYTE		        54*mus_mt_chimney_mvl/mxv
	BYTE	W02
	BYTE		        59*mus_mt_chimney_mvl/mxv
	BYTE	W04
	BYTE		        59*mus_mt_chimney_mvl/mxv
	BYTE	W02
	BYTE		        64*mus_mt_chimney_mvl/mxv
	BYTE	W04
	BYTE		        66*mus_mt_chimney_mvl/mxv
	BYTE	W02
	BYTE		        69*mus_mt_chimney_mvl/mxv
	BYTE	W04
	BYTE		        72*mus_mt_chimney_mvl/mxv
	BYTE	W06
	BYTE		        77*mus_mt_chimney_mvl/mxv
	BYTE	W02
	BYTE		        80*mus_mt_chimney_mvl/mxv
	BYTE	W04
	BYTE		MOD     7
	BYTE		VOL     88*mus_mt_chimney_mvl/mxv
	BYTE	W02
	BYTE		        93*mus_mt_chimney_mvl/mxv
	BYTE	W04
	BYTE		        98*mus_mt_chimney_mvl/mxv
	BYTE	W02
	BYTE		        103*mus_mt_chimney_mvl/mxv
	BYTE	W04
	BYTE		        108*mus_mt_chimney_mvl/mxv
	BYTE	W02
	BYTE		        111*mus_mt_chimney_mvl/mxv
	BYTE	W04
	BYTE		        119*mus_mt_chimney_mvl/mxv
	BYTE	W06
// 009   ----------------------------------------
	BYTE		VOICE   56
	BYTE		VOL     106*mus_mt_chimney_mvl/mxv
	BYTE		MOD     1
	BYTE	W06
	BYTE		N03     Ds4 
	BYTE	W03
	BYTE		N06     Ds4   v032
	BYTE	W09
	BYTE		N03     Cs4   v112
	BYTE	W03
	BYTE		        Cs4   v032
	BYTE	W03
	BYTE		        Ds4   v112
	BYTE	W03
	BYTE		        En4 
	BYTE	W03
	BYTE		        Cs4 
	BYTE	W03
	BYTE		        Cs4   v032
	BYTE	W03
	BYTE		        As3   v112
	BYTE	W03
	BYTE		        As3   v032
	BYTE	W03
	BYTE		        Gn3   v112
	BYTE	W03
	BYTE		        Gn3   v032
	BYTE	W03
	BYTE		        As3   v112
	BYTE	W06
	BYTE		N03   
	BYTE	W06
	BYTE		N03   
	BYTE	W06
	BYTE		N03   
	BYTE	W06
	BYTE		N06     Ds4 
	BYTE	W06
	BYTE		N03     Dn4   v072
	BYTE	W03
	BYTE		        Cn4   v068
	BYTE	W03
	BYTE		        As3 
	BYTE	W03
	BYTE		        An3   v060
	BYTE	W03
	BYTE		        Gn3 
	BYTE	W06
// 010   ----------------------------------------
	BYTE		VOICE   56
	BYTE		VOL     106*mus_mt_chimney_mvl/mxv
	BYTE	W12
	BYTE		N06     As3   v112
	BYTE	W06
	BYTE		        An3 
	BYTE	W06
	BYTE		N03     Gs3 
	BYTE	W12
	BYTE		        Gn3 
	BYTE	W12
	BYTE		        An3 
	BYTE	W06
	BYTE		        As3 
	BYTE	W12
	BYTE		N03   
	BYTE	W06
	BYTE		N12     Gs3 
	BYTE	W12
	BYTE		        Fn3 
	BYTE	W12
// 011   ----------------------------------------
mus_mt_chimney_3_011:
	BYTE		PAN     c_v-48
	BYTE		VOL     121*mus_mt_chimney_mvl/mxv
	BYTE		N03     Bn3   v112
	BYTE	W03
	BYTE		        Bn3   v032
	BYTE	W03
	BYTE		        Bn3   v112
	BYTE	W03
	BYTE		        Bn3   v032
	BYTE	W03
	BYTE		        As3   v112
	BYTE	W03
	BYTE		        As3   v032
	BYTE	W03
	BYTE		        Bn3   v112
	BYTE	W03
	BYTE		N06     Bn3   v032
	BYTE	W15
	BYTE		N03     Ds4   v112
	BYTE	W06
	BYTE		N03   
	BYTE	W06
	BYTE		N03   
	BYTE	W12
	BYTE		N03   
	BYTE	W12
	BYTE		N06     Dn4 
	BYTE	W06
	BYTE		        Dn4   v032
	BYTE	W06
	BYTE		        Bn3   v112
	BYTE	W06
	BYTE		N03     Dn4 
	BYTE	W06
	BYTE	PEND
// 012   ----------------------------------------
	BYTE		PAN     c_v-32
	BYTE		VOL     90*mus_mt_chimney_mvl/mxv
	BYTE		N03     Ds3 
	BYTE	W03
	BYTE		        Ds3   v032
	BYTE	W03
	BYTE		        Ds3   v112
	BYTE	W03
	BYTE		        Ds3   v032
	BYTE	W03
	BYTE		N06     As3   v112
	BYTE	W06
	BYTE		        An3 
	BYTE	W06
	BYTE		N03     Gs3 
	BYTE	W03
	BYTE		N06     Gs3   v032
	BYTE	W09
	BYTE		N03     Gn3   v112
	BYTE	W03
	BYTE		N06     Gn3   v032
	BYTE	W09
	BYTE		N24     As3   v112
	BYTE	W24
	BYTE		N12     Gs3 
	BYTE	W12
	BYTE		        Fn3 
	BYTE	W12
// 013   ----------------------------------------
	BYTE		VOL     108*mus_mt_chimney_mvl/mxv
	BYTE		N06     Fs3 
	BYTE	W06
	BYTE		N03     Gs3 
	BYTE	W03
	BYTE		N06     Gs3   v032
	BYTE	W09
	BYTE		N03     Gs3   v112
	BYTE	W03
	BYTE		N06     Gs3   v032
	BYTE	W15
	BYTE		N03     Ds4   v112
	BYTE	W03
	BYTE		        Ds4   v032
	BYTE	W03
	BYTE		        Ds4   v112
	BYTE	W03
	BYTE		        Ds4   v032
	BYTE	W03
	BYTE		N06     Dn4   v112
	BYTE	W06
	BYTE		        Ds4 
	BYTE	W06
	BYTE		N03     Gs4 
	BYTE	W03
	BYTE		        Gs4   v032
	BYTE	W03
	BYTE		        Gs4   v112
	BYTE	W03
	BYTE		        Gs4   v032
	BYTE	W03
	BYTE		N06     Gn4   v112
	BYTE	W06
	BYTE		        Gs4 
	BYTE	W06
	BYTE		N03     Bn4 
	BYTE	W03
	BYTE		        Bn4   v032
	BYTE	W03
	BYTE		N06     Bn4   v112
	BYTE	W06
// 014   ----------------------------------------
mus_mt_chimney_3_014:
	BYTE		N06     Ds5   v112
	BYTE	W06
	BYTE		N03     Dn5 
	BYTE	W03
	BYTE		        Cn5   v064
	BYTE	W03
	BYTE		        Bn4 
	BYTE	W03
	BYTE		        An4 
	BYTE	W03
	BYTE		        Gn4 
	BYTE	W54
	BYTE		N06     Dn4   v112
	BYTE	W06
	BYTE		        Ds4 
	BYTE	W06
	BYTE		        Ds4   v032
	BYTE	W12
	BYTE	PEND
// 015   ----------------------------------------
	BYTE	PATT
	 POIN2	mus_mt_chimney_3_007
// 016   ----------------------------------------
mus_mt_chimney_3_016:
	BYTE		N96     Ds3   v112
	BYTE	W48
	BYTE		VOL     108*mus_mt_chimney_mvl/mxv
	BYTE	W02
	BYTE		        101*mus_mt_chimney_mvl/mxv
	BYTE	W03
	BYTE		        100*mus_mt_chimney_mvl/mxv
	BYTE	W03
	BYTE		        90*mus_mt_chimney_mvl/mxv
	BYTE	W04
	BYTE		        85*mus_mt_chimney_mvl/mxv
	BYTE	W02
	BYTE		        79*mus_mt_chimney_mvl/mxv
	BYTE	W03
	BYTE		        67*mus_mt_chimney_mvl/mxv
	BYTE	W03
	BYTE		        62*mus_mt_chimney_mvl/mxv
	BYTE	W04
	BYTE		MOD     7
	BYTE		VOL     56*mus_mt_chimney_mvl/mxv
	BYTE	W02
	BYTE		        46*mus_mt_chimney_mvl/mxv
	BYTE	W03
	BYTE		        40*mus_mt_chimney_mvl/mxv
	BYTE	W03
	BYTE		        36*mus_mt_chimney_mvl/mxv
	BYTE	W04
	BYTE		        31*mus_mt_chimney_mvl/mxv
	BYTE	W02
	BYTE		        20*mus_mt_chimney_mvl/mxv
	BYTE	W03
	BYTE		        12*mus_mt_chimney_mvl/mxv
	BYTE	W03
	BYTE		        5*mus_mt_chimney_mvl/mxv
	BYTE	W04
	BYTE	PEND
// 017   ----------------------------------------
	BYTE		VOICE   60
	BYTE		MOD     1
	BYTE		VOL     111*mus_mt_chimney_mvl/mxv
	BYTE		N96     Ds2 
	BYTE	W72
	BYTE		MOD     7
	BYTE	W24
// 018   ----------------------------------------
	BYTE		VOICE   56
	BYTE		MOD     1
	BYTE		PAN     c_v+16
	BYTE		VOL     111*mus_mt_chimney_mvl/mxv
	BYTE		N06     Fs4 
	BYTE	W06
	BYTE		N03     Fn4   v076
	BYTE	W03
	BYTE		        En4 
	BYTE	W03
	BYTE		        Ds4 
	BYTE	W03
	BYTE		        Cs4 
	BYTE	W03
	BYTE		        Bn3 
	BYTE	W78
// 019   ----------------------------------------
	BYTE	W48
	BYTE		        Gs3   v112
	BYTE	W06
	BYTE		N06     Cs4 
	BYTE	W06
	BYTE		        Cs4   v032
	BYTE	W06
	BYTE		N03     Fn3   v104
	BYTE	W03
	BYTE		        Fn3   v032
	BYTE	W03
	BYTE		N06     Ds4   v112
	BYTE	W06
	BYTE		N03     Cs4   v076
	BYTE	W03
	BYTE		        Cn4 
	BYTE	W03
	BYTE		        As3 
	BYTE	W03
	BYTE		        Gs3 
	BYTE	W09
// 020   ----------------------------------------
	BYTE		        Cs4   v112
	BYTE	W06
	BYTE		N03   
	BYTE	W06
	BYTE		N03   
	BYTE	W06
	BYTE		N03   
	BYTE	W12
	BYTE		N03   
	BYTE	W12
	BYTE		N03   
	BYTE	W03
	BYTE		N06     Cs4   v032
	BYTE	W48
	BYTE	W03
// 021   ----------------------------------------
	BYTE	W48
	BYTE		N03     Gs3   v112
	BYTE	W06
	BYTE		N06     Cn4 
	BYTE	W06
	BYTE		        Cn4   v032
	BYTE	W06
	BYTE		N03     Gs3   v112
	BYTE	W03
	BYTE		        Gs3   v032
	BYTE	W03
	BYTE		N06     Ds4   v112
	BYTE	W06
	BYTE		N03     Cs4   v076
	BYTE	W03
	BYTE		        Cn4 
	BYTE	W03
	BYTE		        As3 
	BYTE	W03
	BYTE		        Gs3 
	BYTE	W09
// 022   ----------------------------------------
	BYTE	W96
// 023   ----------------------------------------
	BYTE		VOL     111*mus_mt_chimney_mvl/mxv
	BYTE	W48
	BYTE		N03     As3   v112
	BYTE	W06
	BYTE		N03   
	BYTE	W06
	BYTE		N03   
	BYTE	W06
	BYTE		N03   
	BYTE	W30
// 024   ----------------------------------------
	BYTE		PAN     c_v-32
	BYTE	W06
	BYTE		N03     Fn3 
	BYTE	W03
	BYTE		N06     Fn3   v032
	BYTE	W09
	BYTE		N03     Dn3   v112
	BYTE	W03
	BYTE		        Dn3   v032
	BYTE	W03
	BYTE		        Fn3   v112
	BYTE	W03
	BYTE		        Fn3   v032
	BYTE	W03
	BYTE		        Dn3   v112
	BYTE	W03
	BYTE		        Dn3   v032
	BYTE	W03
	BYTE		        Fn3   v112
	BYTE	W03
	BYTE		        Fn3   v032
	BYTE	W03
	BYTE		        Gs3   v112
	BYTE	W03
	BYTE		N06     Gs3   v032
	BYTE	W03
// 025   ----------------------------------------
	BYTE		MOD     1
	BYTE		PAN     c_v-39
	BYTE		VOL     93*mus_mt_chimney_mvl/mxv
	BYTE	W06
	BYTE		N03     Fn3   v112
	BYTE	W03
	BYTE		        En3 
	BYTE	W03
	BYTE		N06     Ds3 
	BYTE	W06
	BYTE		        Ds3   v032
	BYTE	W06
	BYTE		N03     Gs3   v112
	BYTE	W03
	BYTE		N06     Gs3   v032
	BYTE	W09
	BYTE		N03     Gn3   v112
	BYTE	W03
	BYTE		N06     Gn3   v032
	BYTE	W09
	BYTE		N03     An3   v112
	BYTE	W03
	BYTE		        An3   v032
	BYTE	W03
	BYTE		        As3   v112
	BYTE	W03
	BYTE		N06     As3   v032
	BYTE	W09
	BYTE		N03     As3   v112
	BYTE	W03
	BYTE		        As3   v032
	BYTE	W03
	BYTE		N12     Gs3   v112
	BYTE	W12
	BYTE		        Fn3 
	BYTE	W12
// 026   ----------------------------------------
	BYTE	PATT
	 POIN2	mus_mt_chimney_3_003
// 027   ----------------------------------------
	BYTE		PAN     c_v-32
	BYTE		VOL     88*mus_mt_chimney_mvl/mxv
	BYTE	W09
	BYTE		N03     En3   v112
	BYTE	W03
	BYTE		N06     Ds3 
	BYTE	W06
	BYTE		        Ds3   v032
	BYTE	W06
	BYTE		VOICE   56
	BYTE		N03     Gs3   v112
	BYTE	W03
	BYTE		N06     Gs3   v032
	BYTE	W09
	BYTE		N03     Gn3   v112
	BYTE	W03
	BYTE		N06     Gn3   v032
	BYTE	W09
	BYTE		N24     As3   v112
	BYTE	W24
	BYTE		N12     Gs3 
	BYTE	W12
	BYTE		        Fn3 
	BYTE	W12
// 028   ----------------------------------------
	BYTE		VOL     110*mus_mt_chimney_mvl/mxv
	BYTE		N06     Fs3 
	BYTE	W06
	BYTE		N03     Gs3 
	BYTE	W03
	BYTE		N06     Gs3   v032
	BYTE	W09
	BYTE		N03     Gs3   v112
	BYTE	W03
	BYTE		N06     Gs3   v032
	BYTE	W15
	BYTE		N03     Ds4   v112
	BYTE	W03
	BYTE		        Ds4   v032
	BYTE	W03
	BYTE		        Ds4   v112
	BYTE	W03
	BYTE		        Ds4   v032
	BYTE	W03
	BYTE		N06     Dn4   v112
	BYTE	W06
	BYTE		        Ds4 
	BYTE	W06
	BYTE		N03     Gs4 
	BYTE	W03
	BYTE		        Gs4   v032
	BYTE	W03
	BYTE		        Gs4   v112
	BYTE	W03
	BYTE		        Gs4   v032
	BYTE	W03
	BYTE		N06     Gn4   v112
	BYTE	W06
	BYTE		        Gs4 
	BYTE	W06
	BYTE		N03     Bn4 
	BYTE	W03
	BYTE		        Bn4   v032
	BYTE	W03
	BYTE		N06     Bn4   v112
	BYTE	W06
// 029   ----------------------------------------
	BYTE	PATT
	 POIN2	mus_mt_chimney_3_006
// 030   ----------------------------------------
	BYTE	PATT
	 POIN2	mus_mt_chimney_3_007
// 031   ----------------------------------------
	BYTE		N96     Ds3   v112
	BYTE	W03
	BYTE		VOL     108*mus_mt_chimney_mvl/mxv
	BYTE	W03
	BYTE		        95*mus_mt_chimney_mvl/mxv
	BYTE	W02
	BYTE		        71*mus_mt_chimney_mvl/mxv
	BYTE	W04
	BYTE		        59*mus_mt_chimney_mvl/mxv
	BYTE	W02
	BYTE		        44*mus_mt_chimney_mvl/mxv
	BYTE	W04
	BYTE		        40*mus_mt_chimney_mvl/mxv
	BYTE	W06
	BYTE		        31*mus_mt_chimney_mvl/mxv
	BYTE	W02
	BYTE		        33*mus_mt_chimney_mvl/mxv
	BYTE	W04
	BYTE		        38*mus_mt_chimney_mvl/mxv
	BYTE	W02
	BYTE		        43*mus_mt_chimney_mvl/mxv
	BYTE	W04
	BYTE		        43*mus_mt_chimney_mvl/mxv
	BYTE	W02
	BYTE		        41*mus_mt_chimney_mvl/mxv
	BYTE	W04
	BYTE		        43*mus_mt_chimney_mvl/mxv
	BYTE	W06
	BYTE		        44*mus_mt_chimney_mvl/mxv
	BYTE	W02
	BYTE		        48*mus_mt_chimney_mvl/mxv
	BYTE	W04
	BYTE		        49*mus_mt_chimney_mvl/mxv
	BYTE	W02
	BYTE		        57*mus_mt_chimney_mvl/mxv
	BYTE	W04
	BYTE		        62*mus_mt_chimney_mvl/mxv
	BYTE	W02
	BYTE		        67*mus_mt_chimney_mvl/mxv
	BYTE	W04
	BYTE		        69*mus_mt_chimney_mvl/mxv
	BYTE	W02
	BYTE		        75*mus_mt_chimney_mvl/mxv
	BYTE	W04
	BYTE		MOD     7
	BYTE		VOL     75*mus_mt_chimney_mvl/mxv
	BYTE	W02
	BYTE		        80*mus_mt_chimney_mvl/mxv
	BYTE	W04
	BYTE		        85*mus_mt_chimney_mvl/mxv
	BYTE	W02
	BYTE		        95*mus_mt_chimney_mvl/mxv
	BYTE	W04
	BYTE		        103*mus_mt_chimney_mvl/mxv
	BYTE	W02
	BYTE		        113*mus_mt_chimney_mvl/mxv
	BYTE	W04
	BYTE		        123*mus_mt_chimney_mvl/mxv
	BYTE	W06
// 032   ----------------------------------------
	BYTE		VOICE   56
	BYTE		VOL     106*mus_mt_chimney_mvl/mxv
	BYTE		MOD     1
	BYTE		VOL     106*mus_mt_chimney_mvl/mxv
	BYTE	W06
	BYTE		N03     Ds4 
	BYTE	W03
	BYTE		N06     Ds4   v032
	BYTE	W09
	BYTE		N03     Cs4   v112
	BYTE	W03
	BYTE		        Cs4   v032
	BYTE	W03
	BYTE		        Ds4   v112
	BYTE	W03
	BYTE		        En4 
	BYTE	W03
	BYTE		        Cs4 
	BYTE	W03
	BYTE		        Cs4   v032
	BYTE	W03
	BYTE		        As3   v112
	BYTE	W03
	BYTE		        As3   v032
	BYTE	W03
	BYTE		        Gn3   v112
	BYTE	W03
	BYTE		        Gn3   v032
	BYTE	W03
	BYTE		        As3   v112
	BYTE	W06
	BYTE		N03   
	BYTE	W06
	BYTE		N03   
	BYTE	W06
	BYTE		N03   
	BYTE	W06
	BYTE		N06     Ds4 
	BYTE	W06
	BYTE		N03     Dn4   v072
	BYTE	W03
	BYTE		        Cn4   v068
	BYTE	W03
	BYTE		        As3 
	BYTE	W03
	BYTE		        An3   v060
	BYTE	W03
	BYTE		        Gn3 
	BYTE	W06
// 033   ----------------------------------------
	BYTE		VOICE   56
	BYTE		VOL     88*mus_mt_chimney_mvl/mxv
	BYTE	W12
	BYTE		N06     As3   v112
	BYTE	W06
	BYTE		        An3 
	BYTE	W06
	BYTE		N03     Gs3 
	BYTE	W12
	BYTE		        Gn3 
	BYTE	W12
	BYTE		        An3 
	BYTE	W06
	BYTE		        As3 
	BYTE	W12
	BYTE		N03   
	BYTE	W06
	BYTE		N12     Gs3 
	BYTE	W12
	BYTE		        Fn3 
	BYTE	W12
// 034   ----------------------------------------
	BYTE	PATT
	 POIN2	mus_mt_chimney_3_011
// 035   ----------------------------------------
	BYTE		PAN     c_v-32
	BYTE		VOL     88*mus_mt_chimney_mvl/mxv
	BYTE		N03     Ds3   v112
	BYTE	W03
	BYTE		        Ds3   v032
	BYTE	W03
	BYTE		        Ds3   v112
	BYTE	W03
	BYTE		        Ds3   v032
	BYTE	W03
	BYTE		N06     As3   v112
	BYTE	W06
	BYTE		        An3 
	BYTE	W06
	BYTE		N03     Gs3 
	BYTE	W03
	BYTE		N06     Gs3   v032
	BYTE	W09
	BYTE		N03     Gn3   v112
	BYTE	W03
	BYTE		N06     Gn3   v032
	BYTE	W09
	BYTE		N24     As3   v112
	BYTE	W24
	BYTE		N12     Gs3 
	BYTE	W12
	BYTE		        Fn3 
	BYTE	W12
// 036   ----------------------------------------
	BYTE		VOL     109*mus_mt_chimney_mvl/mxv
	BYTE		N06     Fs3 
	BYTE	W06
	BYTE		N03     Gs3 
	BYTE	W03
	BYTE		N06     Gs3   v032
	BYTE	W09
	BYTE		N03     Gs3   v112
	BYTE	W03
	BYTE		N06     Gs3   v032
	BYTE	W15
	BYTE		N03     Ds4   v112
	BYTE	W03
	BYTE		        Ds4   v032
	BYTE	W03
	BYTE		        Ds4   v112
	BYTE	W03
	BYTE		        Ds4   v032
	BYTE	W03
	BYTE		N06     Dn4   v112
	BYTE	W06
	BYTE		        Ds4 
	BYTE	W06
	BYTE		N03     Gs4 
	BYTE	W03
	BYTE		        Gs4   v032
	BYTE	W03
	BYTE		        Gs4   v112
	BYTE	W03
	BYTE		        Gs4   v032
	BYTE	W03
	BYTE		N06     Gn4   v112
	BYTE	W06
	BYTE		        Gs4 
	BYTE	W06
	BYTE		N03     Bn4 
	BYTE	W03
	BYTE		        Bn4   v032
	BYTE	W03
	BYTE		N06     Bn4   v112
	BYTE	W06
// 037   ----------------------------------------
	BYTE	PATT
	 POIN2	mus_mt_chimney_3_014
// 038   ----------------------------------------
	BYTE	PATT
	 POIN2	mus_mt_chimney_3_007
// 039   ----------------------------------------
	BYTE	PATT
	 POIN2	mus_mt_chimney_3_016
// 040   ----------------------------------------
	BYTE		VOICE   60
	BYTE		MOD     1
	BYTE		VOL     116*mus_mt_chimney_mvl/mxv
	BYTE		N96     Ds2   v112
	BYTE	W72
	BYTE		MOD     7
	BYTE	W24
// 041   ----------------------------------------
	BYTE		        1
	BYTE		N03     Ds3 
	BYTE	W06
	BYTE		N03   
	BYTE	W06
	BYTE		N06     As3 
	BYTE	W06
	BYTE		        An3 
	BYTE	W06
	BYTE		N12     Gs3 
	BYTE	W12
	BYTE		N06     Gn3 
	BYTE	W12
	BYTE		VOICE   60
	BYTE		N03   
	BYTE	W06
	BYTE		        Gs3 
	BYTE	W12
	BYTE		N06   
	BYTE	W06
	BYTE		N24     Gn3 
	BYTE	W15
	BYTE		MOD     6
	BYTE	W09
// 042   ----------------------------------------
	BYTE		        0
	BYTE		N03     Ds3 
	BYTE	W06
	BYTE		N03   
	BYTE	W06
	BYTE		N06     As3 
	BYTE	W06
	BYTE		        An3 
	BYTE	W06
	BYTE		N12     Gs3 
	BYTE	W12
	BYTE		N06     Gn3 
	BYTE	W12
	BYTE		VOICE   56
	BYTE		N03   
	BYTE	W06
	BYTE		        Gs3 
	BYTE	W12
	BYTE		N06   
	BYTE	W06
	BYTE		N24     Bn3 
	BYTE	W15
	BYTE		MOD     6
	BYTE	W09
// 043   ----------------------------------------
	BYTE		VOICE   60
	BYTE		MOD     0
	BYTE		N03     Ds3 
	BYTE	W06
	BYTE		N03   
	BYTE	W06
	BYTE		N06     As3 
	BYTE	W06
	BYTE		        An3 
	BYTE	W06
	BYTE		N12     Gs3 
	BYTE	W12
	BYTE		N06     Gn3 
	BYTE	W12
	BYTE		VOICE   56
	BYTE		N03     Ds3 
	BYTE	W06
	BYTE		N03   
	BYTE	W06
	BYTE		N06     As3 
	BYTE	W06
	BYTE		        An3 
	BYTE	W06
	BYTE		N12     Gs3 
	BYTE	W12
	BYTE		N06     Gn3 
	BYTE	W12
// 044   ----------------------------------------
	BYTE		VOICE   60
	BYTE		N03     Ds3 
	BYTE	W06
	BYTE		N03   
	BYTE	W06
	BYTE		N06     As3 
	BYTE	W06
	BYTE		        An3 
	BYTE	W06
	BYTE		N03     Ds3 
	BYTE	W06
	BYTE		N03   
	BYTE	W06
	BYTE		N06     As3 
	BYTE	W06
	BYTE		        An3 
	BYTE	W06
	BYTE		VOICE   56
	BYTE		N03     Ds3 
	BYTE	W06
	BYTE		N03   
	BYTE	W06
	BYTE		N06     As3 
	BYTE	W06
	BYTE		        An3 
	BYTE	W06
	BYTE		N03     Ds3 
	BYTE	W06
	BYTE		N03   
	BYTE	W06
	BYTE		N02   
	BYTE	W04
	BYTE		N02   
	BYTE	W04
	BYTE		N02   
	BYTE	W04
// 045   ----------------------------------------
	BYTE	W96
// 046   ----------------------------------------
	BYTE	W96
// 047   ----------------------------------------
	BYTE	W96
// 048   ----------------------------------------
	BYTE	W96
	BYTE	GoTo
	 POIN2	mus_mt_chimney_3_B1
mus_mt_chimney_3_B2:
// 049   ----------------------------------------
	BYTE	FINE

//**************** Track 4 (Midi-Chn.4) ****************//

mus_mt_chimney_4:
	BYTE	KEYSH   mus_mt_chimney_key+0
// 000   ----------------------------------------
	BYTE		VOICE   60
	BYTE		LFOS    44
	BYTE		MOD     1
	BYTE		PAN     c_v-48
	BYTE		VOL     90*mus_mt_chimney_mvl/mxv
	BYTE		BEND    c_v+0
	BYTE		N24     Ds2   v112
	BYTE	W12
	BYTE		MOD     3
	BYTE	W12
	BYTE		        0
	BYTE		PAN     c_v+42
	BYTE		N24     As2 
	BYTE	W12
	BYTE		MOD     3
	BYTE	W12
	BYTE		PAN     c_v-31
	BYTE		VOL     106*mus_mt_chimney_mvl/mxv
	BYTE		MOD     0
	BYTE		N24     Gn2 
	BYTE	W12
	BYTE		MOD     3
	BYTE	W12
	BYTE		        0
	BYTE		PAN     c_v+23
	BYTE		N24     Cs3 
	BYTE	W03
	BYTE		MOD     0
	BYTE	W09
	BYTE		        3
	BYTE	W12
// 001   ----------------------------------------
	BYTE		VOL     118*mus_mt_chimney_mvl/mxv
	BYTE		MOD     0
	BYTE		PAN     c_v+0
	BYTE		N96     Ds3   v124
	BYTE	W09
	BYTE		VOL     110*mus_mt_chimney_mvl/mxv
	BYTE	W03
	BYTE		        103*mus_mt_chimney_mvl/mxv
	BYTE	W02
	BYTE		        98*mus_mt_chimney_mvl/mxv
	BYTE	W03
	BYTE		        93*mus_mt_chimney_mvl/mxv
	BYTE	W03
	BYTE		        88*mus_mt_chimney_mvl/mxv
	BYTE	W04
	BYTE		        79*mus_mt_chimney_mvl/mxv
	BYTE	W02
	BYTE		        75*mus_mt_chimney_mvl/mxv
	BYTE	W01
	BYTE		        77*mus_mt_chimney_mvl/mxv
	BYTE	W02
	BYTE		        79*mus_mt_chimney_mvl/mxv
	BYTE	W03
	BYTE		        82*mus_mt_chimney_mvl/mxv
	BYTE	W04
	BYTE		        82*mus_mt_chimney_mvl/mxv
	BYTE	W02
	BYTE		        84*mus_mt_chimney_mvl/mxv
	BYTE	W03
	BYTE		        85*mus_mt_chimney_mvl/mxv
	BYTE	W03
	BYTE		        90*mus_mt_chimney_mvl/mxv
	BYTE	W04
	BYTE		MOD     4
	BYTE		VOL     90*mus_mt_chimney_mvl/mxv
	BYTE	W02
	BYTE		        93*mus_mt_chimney_mvl/mxv
	BYTE	W03
	BYTE		        95*mus_mt_chimney_mvl/mxv
	BYTE	W03
	BYTE		        98*mus_mt_chimney_mvl/mxv
	BYTE	W06
	BYTE		        101*mus_mt_chimney_mvl/mxv
	BYTE	W03
	BYTE		        103*mus_mt_chimney_mvl/mxv
	BYTE	W03
	BYTE		        106*mus_mt_chimney_mvl/mxv
	BYTE	W04
	BYTE		MOD     7
	BYTE		VOL     110*mus_mt_chimney_mvl/mxv
	BYTE	W02
	BYTE		        113*mus_mt_chimney_mvl/mxv
	BYTE	W03
	BYTE		        114*mus_mt_chimney_mvl/mxv
	BYTE	W03
	BYTE		        119*mus_mt_chimney_mvl/mxv
	BYTE	W04
	BYTE		        119*mus_mt_chimney_mvl/mxv
	BYTE	W02
	BYTE		        123*mus_mt_chimney_mvl/mxv
	BYTE	W03
	BYTE		        124*mus_mt_chimney_mvl/mxv
	BYTE	W03
	BYTE		        126*mus_mt_chimney_mvl/mxv
	BYTE	W04
mus_mt_chimney_4_B1:
// 002   ----------------------------------------
	BYTE		VOICE   60
	BYTE		PAN     c_v+0
	BYTE		MOD     0
	BYTE		VOL     121*mus_mt_chimney_mvl/mxv
	BYTE	W06
	BYTE		N03     As3   v088
	BYTE	W03
	BYTE		        An3 
	BYTE	W03
	BYTE		N06     Gs3   v112
	BYTE	W06
	BYTE		        Gs3   v020
	BYTE	W06
	BYTE		N03     Ds4   v112
	BYTE	W03
	BYTE		N06     Ds4   v020
	BYTE	W09
	BYTE		N03     Dn4   v112
	BYTE	W03
	BYTE		N06     Dn4   v020
	BYTE	W09
	BYTE		N03     Fn4   v112
	BYTE	W03
	BYTE		        Fn4   v020
	BYTE	W03
	BYTE		        Fs4   v112
	BYTE	W03
	BYTE		N06     Fs4   v020
	BYTE	W09
	BYTE		N03     Fs4   v112
	BYTE	W03
	BYTE		        Fs4   v020
	BYTE	W03
	BYTE		N12     Fn4   v112
	BYTE	W12
	BYTE		        Cs4 
	BYTE	W12
// 003   ----------------------------------------
mus_mt_chimney_4_003:
	BYTE		VOICE   56
	BYTE		N03     Ds4   v112
	BYTE	W03
	BYTE		        Ds4   v020
	BYTE	W03
	BYTE		        Ds4   v112
	BYTE	W03
	BYTE		        Ds4   v020
	BYTE	W03
	BYTE		        Dn4   v112
	BYTE	W03
	BYTE		        Dn4   v020
	BYTE	W03
	BYTE		        Ds4   v112
	BYTE	W03
	BYTE		N09     Ds4   v020
	BYTE	W03
	BYTE		VOL     95*mus_mt_chimney_mvl/mxv
	BYTE		PAN     c_v+32
	BYTE	W12
	BYTE		N03     Bn3   v112
	BYTE	W06
	BYTE		N03   
	BYTE	W06
	BYTE		N03   
	BYTE	W03
	BYTE		N06     Bn3   v032
	BYTE	W09
	BYTE		N03     Bn3   v112
	BYTE	W03
	BYTE		N06     Bn3   v032
	BYTE	W09
	BYTE		        As3   v112
	BYTE	W06
	BYTE		        As3   v032
	BYTE	W06
	BYTE		        Gn3   v112
	BYTE	W06
	BYTE		N03     As3 
	BYTE	W06
	BYTE	PEND
// 004   ----------------------------------------
mus_mt_chimney_4_004:
	BYTE		VOICE   60
	BYTE		PAN     c_v+0
	BYTE		VOL     119*mus_mt_chimney_mvl/mxv
	BYTE	W09
	BYTE		N03     An3   v112
	BYTE	W03
	BYTE		N06     Gs3 
	BYTE	W06
	BYTE		        Gs3   v020
	BYTE	W06
	BYTE		N03     Ds4   v112
	BYTE	W03
	BYTE		N06     Ds4   v020
	BYTE	W09
	BYTE		N03     Dn4   v112
	BYTE	W03
	BYTE		N06     Dn4   v020
	BYTE	W06
	BYTE		N03     Gn4   v112
	BYTE	W03
	BYTE		N24     Fs4 
	BYTE	W24
	BYTE		N12     Fn4 
	BYTE	W12
	BYTE		        Cs4 
	BYTE	W12
	BYTE	PEND
// 005   ----------------------------------------
	BYTE		VOICE   56
	BYTE		N06     Dn4 
	BYTE	W06
	BYTE		N03     Ds4 
	BYTE	W03
	BYTE		N06     Ds4   v020
	BYTE	W09
	BYTE		N03     Ds4   v112
	BYTE	W03
	BYTE		N06     Ds4   v020
	BYTE	W12
	BYTE		N03     Gn4   v112
	BYTE	W03
	BYTE		N60     Gs4 
	BYTE	W06
	BYTE		VOL     110*mus_mt_chimney_mvl/mxv
	BYTE	W02
	BYTE		        95*mus_mt_chimney_mvl/mxv
	BYTE	W01
	BYTE		PAN     c_v-16
	BYTE	W03
	BYTE		VOL     75*mus_mt_chimney_mvl/mxv
	BYTE		PAN     c_v-32
	BYTE	W02
	BYTE		VOL     54*mus_mt_chimney_mvl/mxv
	BYTE	W01
	BYTE		PAN     c_v-48
	BYTE	W03
	BYTE		VOL     48*mus_mt_chimney_mvl/mxv
	BYTE	W03
	BYTE		        46*mus_mt_chimney_mvl/mxv
	BYTE	W03
	BYTE		        48*mus_mt_chimney_mvl/mxv
	BYTE	W02
	BYTE		        53*mus_mt_chimney_mvl/mxv
	BYTE	W04
	BYTE		        57*mus_mt_chimney_mvl/mxv
	BYTE	W02
	BYTE		        59*mus_mt_chimney_mvl/mxv
	BYTE	W04
	BYTE		MOD     7
	BYTE		VOL     62*mus_mt_chimney_mvl/mxv
	BYTE		PAN     c_v-32
	BYTE	W02
	BYTE		VOL     69*mus_mt_chimney_mvl/mxv
	BYTE	W01
	BYTE		PAN     c_v+0
	BYTE	W03
	BYTE		VOL     77*mus_mt_chimney_mvl/mxv
	BYTE		PAN     c_v+16
	BYTE	W02
	BYTE		VOL     80*mus_mt_chimney_mvl/mxv
	BYTE	W01
	BYTE		PAN     c_v+32
	BYTE	W03
	BYTE		VOL     90*mus_mt_chimney_mvl/mxv
	BYTE		PAN     c_v+48
	BYTE	W02
	BYTE		VOL     103*mus_mt_chimney_mvl/mxv
	BYTE	W04
	BYTE		        118*mus_mt_chimney_mvl/mxv
	BYTE	W02
	BYTE		        85*mus_mt_chimney_mvl/mxv
	BYTE	W01
	BYTE		        127*mus_mt_chimney_mvl/mxv
	BYTE	W03
// 006   ----------------------------------------
	BYTE		VOICE   60
	BYTE		MOD     1
	BYTE		VOL     119*mus_mt_chimney_mvl/mxv
	BYTE		PAN     c_v+0
	BYTE		N06     Ds4 
	BYTE	W03
	BYTE		VOL     123*mus_mt_chimney_mvl/mxv
	BYTE	W03
	BYTE		N06     As3 
	BYTE	W06
	BYTE		        Gn3 
	BYTE	W06
	BYTE		        Ds3 
	BYTE	W06
	BYTE		        Ds3   v020
	BYTE	W06
	BYTE		N03     Cs3   v112
	BYTE	W03
	BYTE		N06     Cs3   v020
	BYTE	W09
	BYTE		N03     As2   v112
	BYTE	W03
	BYTE		N06     As2   v020
	BYTE	W09
	BYTE		N03     Gn2   v112
	BYTE	W03
	BYTE		N06     Gn2   v020
	BYTE	W09
	BYTE		N03     Ds2   v112
	BYTE	W03
	BYTE		        Ds2   v020
	BYTE	W03
	BYTE		N06     Dn3   v112
	BYTE	W06
	BYTE		        Ds3 
	BYTE	W06
	BYTE		N09     Ds3   v020
	BYTE	W12
// 007   ----------------------------------------
mus_mt_chimney_4_007:
	BYTE		VOICE   56
	BYTE	W06
	BYTE		N03     Gn2   v112
	BYTE	W03
	BYTE		N06     Gn2   v020
	BYTE	W09
	BYTE		N03     Ds2   v112
	BYTE	W03
	BYTE		        Ds2   v020
	BYTE	W03
	BYTE		N06     Gn2   v112
	BYTE	W06
	BYTE		        Fn2 
	BYTE	W06
	BYTE		        Gn2 
	BYTE	W06
	BYTE		        As2 
	BYTE	W06
	BYTE		        As2   v020
	BYTE	W24
	BYTE		VOICE   60
	BYTE		N06     Ds3   v112
	BYTE	W06
	BYTE		        Dn3 
	BYTE	W06
	BYTE		        Ds3 
	BYTE	W06
	BYTE		        Gn3 
	BYTE	W06
	BYTE	PEND
// 008   ----------------------------------------
	BYTE		N96     As3 
	BYTE	W03
	BYTE		VOL     113*mus_mt_chimney_mvl/mxv
	BYTE	W03
	BYTE		        95*mus_mt_chimney_mvl/mxv
	BYTE	W02
	BYTE		        75*mus_mt_chimney_mvl/mxv
	BYTE	W04
	BYTE		        64*mus_mt_chimney_mvl/mxv
	BYTE	W02
	BYTE		        51*mus_mt_chimney_mvl/mxv
	BYTE	W04
	BYTE		        43*mus_mt_chimney_mvl/mxv
	BYTE	W02
	BYTE		        36*mus_mt_chimney_mvl/mxv
	BYTE	W04
	BYTE		        31*mus_mt_chimney_mvl/mxv
	BYTE	W02
	BYTE		        33*mus_mt_chimney_mvl/mxv
	BYTE	W04
	BYTE		        36*mus_mt_chimney_mvl/mxv
	BYTE	W02
	BYTE		        38*mus_mt_chimney_mvl/mxv
	BYTE	W04
	BYTE		        38*mus_mt_chimney_mvl/mxv
	BYTE	W02
	BYTE		        43*mus_mt_chimney_mvl/mxv
	BYTE	W04
	BYTE		        46*mus_mt_chimney_mvl/mxv
	BYTE	W02
	BYTE		        49*mus_mt_chimney_mvl/mxv
	BYTE	W04
	BYTE		        54*mus_mt_chimney_mvl/mxv
	BYTE	W02
	BYTE		        57*mus_mt_chimney_mvl/mxv
	BYTE	W04
	BYTE		        62*mus_mt_chimney_mvl/mxv
	BYTE	W02
	BYTE		        66*mus_mt_chimney_mvl/mxv
	BYTE	W04
	BYTE		        69*mus_mt_chimney_mvl/mxv
	BYTE	W02
	BYTE		        75*mus_mt_chimney_mvl/mxv
	BYTE	W04
	BYTE		        80*mus_mt_chimney_mvl/mxv
	BYTE	W02
	BYTE		        82*mus_mt_chimney_mvl/mxv
	BYTE	W04
	BYTE		MOD     7
	BYTE		VOL     88*mus_mt_chimney_mvl/mxv
	BYTE	W02
	BYTE		        93*mus_mt_chimney_mvl/mxv
	BYTE	W04
	BYTE		        103*mus_mt_chimney_mvl/mxv
	BYTE	W02
	BYTE		        111*mus_mt_chimney_mvl/mxv
	BYTE	W04
	BYTE		        119*mus_mt_chimney_mvl/mxv
	BYTE	W02
	BYTE		        123*mus_mt_chimney_mvl/mxv
	BYTE	W10
// 009   ----------------------------------------
mus_mt_chimney_4_009:
	BYTE		MOD     1
	BYTE		VOL     119*mus_mt_chimney_mvl/mxv
	BYTE		N12     As3   v020
	BYTE	W96
	BYTE	PEND
// 010   ----------------------------------------
mus_mt_chimney_4_010:
	BYTE	W12
	BYTE		N06     Fs4   v112
	BYTE	W06
	BYTE		        Fn4 
	BYTE	W06
	BYTE		N03     Ds4 
	BYTE	W03
	BYTE		N06     Ds4   v020
	BYTE	W09
	BYTE		N03     Dn4   v112
	BYTE	W03
	BYTE		N06     Dn4   v020
	BYTE	W09
	BYTE		N03     Fn4   v112
	BYTE	W03
	BYTE		        Fn4   v020
	BYTE	W03
	BYTE		        Fs4   v112
	BYTE	W03
	BYTE		N06     Fs4   v020
	BYTE	W09
	BYTE		N03     Fs4   v112
	BYTE	W03
	BYTE		        Fs4   v020
	BYTE	W03
	BYTE		N12     Fn4   v112
	BYTE	W12
	BYTE		        Cs4 
	BYTE	W12
	BYTE	PEND
// 011   ----------------------------------------
mus_mt_chimney_4_011:
	BYTE		N03     Ds4   v112
	BYTE	W03
	BYTE		        Ds4   v020
	BYTE	W03
	BYTE		        Ds4   v112
	BYTE	W03
	BYTE		        Ds4   v020
	BYTE	W03
	BYTE		        Dn4   v112
	BYTE	W03
	BYTE		        Dn4   v020
	BYTE	W03
	BYTE		        Ds4   v112
	BYTE	W03
	BYTE		N06     Ds4   v020
	BYTE	W03
	BYTE		VOICE   56
	BYTE		PAN     c_v+32
	BYTE		VOL     95*mus_mt_chimney_mvl/mxv
	BYTE	W12
	BYTE		N03     Bn3   v112
	BYTE	W06
	BYTE		N03   
	BYTE	W06
	BYTE		N03   
	BYTE	W12
	BYTE		N03   
	BYTE	W12
	BYTE		N06     As3 
	BYTE	W06
	BYTE		        As3   v032
	BYTE	W06
	BYTE		        Gn3   v112
	BYTE	W06
	BYTE		N03     As3 
	BYTE	W06
	BYTE	PEND
// 012   ----------------------------------------
	BYTE		VOICE   60
	BYTE		PAN     c_v+0
	BYTE		VOL     121*mus_mt_chimney_mvl/mxv
	BYTE		N03     Gs3 
	BYTE	W03
	BYTE		        Gs3   v020
	BYTE	W03
	BYTE		        Gs3   v112
	BYTE	W03
	BYTE		        Gs3   v020
	BYTE	W03
	BYTE		N06     Fs4   v112
	BYTE	W06
	BYTE		        Fn4 
	BYTE	W06
	BYTE		N03     Ds4 
	BYTE	W03
	BYTE		N06     Ds4   v020
	BYTE	W09
	BYTE		N03     Dn4   v112
	BYTE	W03
	BYTE		N06     Dn4   v020
	BYTE	W06
	BYTE		N03     Gn4   v112
	BYTE	W03
	BYTE		N24     Fs4 
	BYTE	W24
	BYTE		N12     Fn4 
	BYTE	W12
	BYTE		        Cs4 
	BYTE	W12
// 013   ----------------------------------------
	BYTE		N06     Dn4 
	BYTE	W06
	BYTE		N03     Ds4 
	BYTE	W03
	BYTE		N06     Ds4   v020
	BYTE	W09
	BYTE		N03     Ds4   v112
	BYTE	W03
	BYTE		N06     Ds4   v020
	BYTE	W12
	BYTE		N03     Gn4   v112
	BYTE	W03
	BYTE		N60     Gs4 
	BYTE	W06
	BYTE		VOL     110*mus_mt_chimney_mvl/mxv
	BYTE	W02
	BYTE		        95*mus_mt_chimney_mvl/mxv
	BYTE	W01
	BYTE		PAN     c_v-16
	BYTE	W03
	BYTE		VOL     75*mus_mt_chimney_mvl/mxv
	BYTE		PAN     c_v-32
	BYTE	W02
	BYTE		VOL     54*mus_mt_chimney_mvl/mxv
	BYTE	W01
	BYTE		PAN     c_v-48
	BYTE	W03
	BYTE		VOL     48*mus_mt_chimney_mvl/mxv
	BYTE	W03
	BYTE		        46*mus_mt_chimney_mvl/mxv
	BYTE	W03
	BYTE		        48*mus_mt_chimney_mvl/mxv
	BYTE	W02
	BYTE		        53*mus_mt_chimney_mvl/mxv
	BYTE	W04
	BYTE		        57*mus_mt_chimney_mvl/mxv
	BYTE	W02
	BYTE		        59*mus_mt_chimney_mvl/mxv
	BYTE	W04
	BYTE		MOD     7
	BYTE		VOL     62*mus_mt_chimney_mvl/mxv
	BYTE		PAN     c_v-32
	BYTE	W02
	BYTE		VOL     69*mus_mt_chimney_mvl/mxv
	BYTE	W01
	BYTE		PAN     c_v+0
	BYTE	W03
	BYTE		VOL     77*mus_mt_chimney_mvl/mxv
	BYTE		PAN     c_v+16
	BYTE	W02
	BYTE		VOL     80*mus_mt_chimney_mvl/mxv
	BYTE	W01
	BYTE		PAN     c_v+32
	BYTE	W03
	BYTE		VOL     90*mus_mt_chimney_mvl/mxv
	BYTE		PAN     c_v+48
	BYTE	W02
	BYTE		VOL     103*mus_mt_chimney_mvl/mxv
	BYTE	W04
	BYTE		        118*mus_mt_chimney_mvl/mxv
	BYTE	W02
	BYTE		        85*mus_mt_chimney_mvl/mxv
	BYTE	W01
	BYTE		        127*mus_mt_chimney_mvl/mxv
	BYTE	W03
// 014   ----------------------------------------
	BYTE		MOD     1
	BYTE		VOL     119*mus_mt_chimney_mvl/mxv
	BYTE		PAN     c_v+0
	BYTE		N06     Ds4 
	BYTE	W06
	BYTE		        As3 
	BYTE	W06
	BYTE		        Gn3 
	BYTE	W06
	BYTE		        Ds3 
	BYTE	W06
	BYTE		        Ds3   v020
	BYTE	W06
	BYTE		N03     Cs3   v112
	BYTE	W03
	BYTE		N06     Cs3   v020
	BYTE	W09
	BYTE		N03     As2   v112
	BYTE	W03
	BYTE		N06     As2   v020
	BYTE	W09
	BYTE		N03     Gn2   v112
	BYTE	W03
	BYTE		N06     Gn2   v020
	BYTE	W09
	BYTE		N03     Ds2   v112
	BYTE	W03
	BYTE		        Ds2   v020
	BYTE	W03
	BYTE		N06     Dn3   v112
	BYTE	W06
	BYTE		        Ds3 
	BYTE	W06
	BYTE		        Ds3   v020
	BYTE	W12
// 015   ----------------------------------------
	BYTE	PATT
	 POIN2	mus_mt_chimney_4_007
// 016   ----------------------------------------
mus_mt_chimney_4_016:
	BYTE		PAN     c_v-5
	BYTE		TIE     As3   v104
	BYTE	W12
	BYTE		PAN     c_v-23
	BYTE	W12
	BYTE		        c_v-39
	BYTE	W12
	BYTE		        c_v-53
	BYTE	W12
	BYTE		        c_v-62
	BYTE		VOL     119*mus_mt_chimney_mvl/mxv
	BYTE	W02
	BYTE		        111*mus_mt_chimney_mvl/mxv
	BYTE	W03
	BYTE		        103*mus_mt_chimney_mvl/mxv
	BYTE	W03
	BYTE		        93*mus_mt_chimney_mvl/mxv
	BYTE	W04
	BYTE		        88*mus_mt_chimney_mvl/mxv
	BYTE	W02
	BYTE		        79*mus_mt_chimney_mvl/mxv
	BYTE	W03
	BYTE		        72*mus_mt_chimney_mvl/mxv
	BYTE	W03
	BYTE		        67*mus_mt_chimney_mvl/mxv
	BYTE	W04
	BYTE		        61*mus_mt_chimney_mvl/mxv
	BYTE	W02
	BYTE		        51*mus_mt_chimney_mvl/mxv
	BYTE	W03
	BYTE		        44*mus_mt_chimney_mvl/mxv
	BYTE	W03
	BYTE		        40*mus_mt_chimney_mvl/mxv
	BYTE	W04
	BYTE		PAN     c_v-23
	BYTE		VOL     36*mus_mt_chimney_mvl/mxv
	BYTE	W02
	BYTE		        31*mus_mt_chimney_mvl/mxv
	BYTE	W03
	BYTE		        28*mus_mt_chimney_mvl/mxv
	BYTE	W03
	BYTE		        25*mus_mt_chimney_mvl/mxv
	BYTE	W04
	BYTE	PEND
// 017   ----------------------------------------
mus_mt_chimney_4_017:
	BYTE		MOD     3
	BYTE		PAN     c_v+48
	BYTE	W02
	BYTE		VOL     36*mus_mt_chimney_mvl/mxv
	BYTE	W03
	BYTE		        38*mus_mt_chimney_mvl/mxv
	BYTE	W03
	BYTE		        46*mus_mt_chimney_mvl/mxv
	BYTE	W04
	BYTE		PAN     c_v+63
	BYTE		VOL     51*mus_mt_chimney_mvl/mxv
	BYTE	W02
	BYTE		        61*mus_mt_chimney_mvl/mxv
	BYTE	W03
	BYTE		        62*mus_mt_chimney_mvl/mxv
	BYTE	W03
	BYTE		        74*mus_mt_chimney_mvl/mxv
	BYTE	W04
	BYTE		        80*mus_mt_chimney_mvl/mxv
	BYTE	W02
	BYTE		        92*mus_mt_chimney_mvl/mxv
	BYTE	W03
	BYTE		        100*mus_mt_chimney_mvl/mxv
	BYTE	W03
	BYTE		        108*mus_mt_chimney_mvl/mxv
	BYTE	W04
	BYTE		        119*mus_mt_chimney_mvl/mxv
	BYTE	W12
	BYTE		MOD     7
	BYTE		PAN     c_v+62
	BYTE	W12
	BYTE		        c_v+24
	BYTE	W12
	BYTE	PEND
	BYTE		EOT     As3 
	BYTE		MOD     1
	BYTE		PAN     c_v-1
	BYTE		N24     Cs4   v112
	BYTE	W24
// 018   ----------------------------------------
	BYTE		VOICE   60
	BYTE		VOL     95*mus_mt_chimney_mvl/mxv
	BYTE		N60     Ds4 
	BYTE	W12
	BYTE		PAN     c_v+0
	BYTE	W05
	BYTE		        c_v+9
	BYTE	W07
	BYTE		        c_v+25
	BYTE	W05
	BYTE		        c_v+41
	BYTE	W07
	BYTE		        c_v+50
	BYTE	W05
	BYTE		        c_v+63
	BYTE	W07
	BYTE		MOD     7
	BYTE	W05
	BYTE		PAN     c_v+41
	BYTE	W07
	BYTE		MOD     1
	BYTE		PAN     c_v+24
	BYTE		N06     Cs4 
	BYTE	W05
	BYTE		PAN     c_v+11
	BYTE	W01
	BYTE		N06     Cs4   v020
	BYTE	W06
	BYTE		PAN     c_v+2
	BYTE	W12
	BYTE		N06     Gs3   v112
	BYTE	W06
	BYTE		        Gs3   v020
	BYTE	W06
// 019   ----------------------------------------
	BYTE		PAN     c_v-1
	BYTE		N96     As3   v112
	BYTE	W05
	BYTE		PAN     c_v-16
	BYTE	W07
	BYTE		        c_v-32
	BYTE	W05
	BYTE		        c_v-39
	BYTE	W07
	BYTE		        c_v-48
	BYTE	W05
	BYTE		        c_v-53
	BYTE	W07
	BYTE		        c_v-58
	BYTE	W05
	BYTE		        c_v-62
	BYTE	W30
	BYTE	W01
	BYTE		MOD     7
	BYTE		PAN     c_v-53
	BYTE	W05
	BYTE		        c_v-28
	BYTE	W07
	BYTE		        c_v+0
	BYTE	W12
// 020   ----------------------------------------
	BYTE		MOD     1
	BYTE		N60     Cs4 
	BYTE	W24
	BYTE		PAN     c_v+2
	BYTE	W05
	BYTE		        c_v+11
	BYTE	W07
	BYTE		        c_v+24
	BYTE	W05
	BYTE		        c_v+16
	BYTE	W07
	BYTE		MOD     7
	BYTE		PAN     c_v+25
	BYTE	W05
	BYTE		        c_v+32
	BYTE	W07
	BYTE		MOD     1
	BYTE		PAN     c_v+54
	BYTE		N06     Cs4   v020
	BYTE	W05
	BYTE		PAN     c_v+63
	BYTE	W07
	BYTE		N06     Bn3   v112
	BYTE	W06
	BYTE		        Bn3   v020
	BYTE	W06
	BYTE		        Cs4   v112
	BYTE	W06
	BYTE		        Bn3 
	BYTE	W06
// 021   ----------------------------------------
	BYTE		PAN     c_v+34
	BYTE		N06     As3 
	BYTE	W06
	BYTE		N03     Cn4 
	BYTE	W03
	BYTE		        As3 
	BYTE	W03
	BYTE		N60     Gs3 
	BYTE	W21
	BYTE		PAN     c_v+32
	BYTE	W05
	BYTE		        c_v+25
	BYTE	W06
	BYTE		        c_v+20
	BYTE	W04
	BYTE		MOD     7
	BYTE		PAN     c_v+16
	BYTE	W05
	BYTE		        c_v+15
	BYTE	W03
	BYTE		        c_v+9
	BYTE	W06
	BYTE		        c_v+8
	BYTE	W03
	BYTE		        c_v+6
	BYTE	W03
	BYTE		        c_v+0
	BYTE	W04
	BYTE		MOD     1
	BYTE		N06     Gs3   v020
	BYTE	W24
// 022   ----------------------------------------
	BYTE		N36     Fs3   v112
	BYTE	W24
	BYTE		MOD     7
	BYTE	W12
	BYTE		        1
	BYTE		N06     Fn3 
	BYTE	W06
	BYTE		        Fs3 
	BYTE	W06
	BYTE		N24     Gs3 
	BYTE	W24
	BYTE		        Ds3 
	BYTE	W24
// 023   ----------------------------------------
	BYTE		N36     Gs3 
	BYTE	W24
	BYTE		MOD     7
	BYTE	W12
	BYTE		        1
	BYTE		N06     Gn3 
	BYTE	W06
	BYTE		        Gs3 
	BYTE	W06
	BYTE		N24     As3 
	BYTE	W24
	BYTE		N03     Gs3   v092
	BYTE	W03
	BYTE		        Gn3 
	BYTE	W03
	BYTE		        Fn3   v088
	BYTE	W03
	BYTE		        Ds3   v080
	BYTE	W03
	BYTE		        Cs3 
	BYTE	W03
	BYTE		        Cn3   v076
	BYTE	W03
	BYTE		        As2 
	BYTE	W06
// 024   ----------------------------------------
	BYTE		VOICE   56
	BYTE		VOL     118*mus_mt_chimney_mvl/mxv
	BYTE	W06
	BYTE		N03     As3   v112
	BYTE	W03
	BYTE		N06     As3   v020
	BYTE	W09
	BYTE		N03     Fn3   v112
	BYTE	W03
	BYTE		        Fn3   v020
	BYTE	W03
	BYTE		        Dn4   v112
	BYTE	W03
	BYTE		        Dn4   v020
	BYTE	W03
	BYTE		        As3   v112
	BYTE	W03
	BYTE		        As3   v020
	BYTE	W03
	BYTE		        Dn4   v112
	BYTE	W03
	BYTE		        Dn4   v020
	BYTE	W03
	BYTE		        Fn4   v112
	BYTE	W03
	BYTE		        Fn4   v020
	BYTE	W03
// 025   ----------------------------------------
	BYTE		VOICE   60
	BYTE		PAN     c_v+0
	BYTE	W06
	BYTE		N03     As3   v088
	BYTE	W03
	BYTE		        An3 
	BYTE	W03
	BYTE		N06     Gs3   v112
	BYTE	W06
	BYTE		        Gs3   v020
	BYTE	W06
	BYTE		N03     Ds4   v112
	BYTE	W03
	BYTE		N06     Ds4   v020
	BYTE	W09
	BYTE		N03     Dn4   v112
	BYTE	W03
	BYTE		N06     Dn4   v020
	BYTE	W09
	BYTE		N03     Fn4   v112
	BYTE	W03
	BYTE		        Fn4   v020
	BYTE	W03
	BYTE		        Fs4   v112
	BYTE	W03
	BYTE		N06     Fs4   v020
	BYTE	W09
	BYTE		N03     Fs4   v112
	BYTE	W03
	BYTE		        Fs4   v020
	BYTE	W03
	BYTE		N12     Fn4   v112
	BYTE	W12
	BYTE		        Cs4 
	BYTE	W12
// 026   ----------------------------------------
	BYTE	PATT
	 POIN2	mus_mt_chimney_4_003
// 027   ----------------------------------------
	BYTE	PATT
	 POIN2	mus_mt_chimney_4_004
// 028   ----------------------------------------
	BYTE		VOICE   56
	BYTE		N06     Dn4   v112
	BYTE	W06
	BYTE		N03     Ds4 
	BYTE	W03
	BYTE		N06     Ds4   v020
	BYTE	W09
	BYTE		N03     Ds4   v112
	BYTE	W03
	BYTE		N06     Ds4   v020
	BYTE	W12
	BYTE		N03     Gn4   v112
	BYTE	W03
	BYTE		N60     Gs4 
	BYTE	W09
	BYTE		PAN     c_v-16
	BYTE	W03
	BYTE		        c_v-32
	BYTE	W03
	BYTE		        c_v-48
	BYTE	W21
	BYTE		MOD     7
	BYTE		VOL     119*mus_mt_chimney_mvl/mxv
	BYTE		PAN     c_v-32
	BYTE	W02
	BYTE		VOL     116*mus_mt_chimney_mvl/mxv
	BYTE	W01
	BYTE		PAN     c_v+0
	BYTE	W02
	BYTE		VOL     114*mus_mt_chimney_mvl/mxv
	BYTE	W01
	BYTE		PAN     c_v+16
	BYTE	W02
	BYTE		VOL     111*mus_mt_chimney_mvl/mxv
	BYTE	W01
	BYTE		PAN     c_v+32
	BYTE	W03
	BYTE		VOL     106*mus_mt_chimney_mvl/mxv
	BYTE		PAN     c_v+48
	BYTE	W02
	BYTE		VOL     100*mus_mt_chimney_mvl/mxv
	BYTE	W03
	BYTE		        93*mus_mt_chimney_mvl/mxv
	BYTE	W03
	BYTE		        85*mus_mt_chimney_mvl/mxv
	BYTE	W04
// 029   ----------------------------------------
	BYTE		VOICE   60
	BYTE		MOD     1
	BYTE		VOL     119*mus_mt_chimney_mvl/mxv
	BYTE		PAN     c_v+0
	BYTE		N06     Ds4 
	BYTE	W06
	BYTE		        As3 
	BYTE	W06
	BYTE		        Gn3 
	BYTE	W06
	BYTE		        Ds3 
	BYTE	W06
	BYTE		        Ds3   v020
	BYTE	W06
	BYTE		N03     Cs3   v112
	BYTE	W03
	BYTE		N06     Cs3   v020
	BYTE	W09
	BYTE		N03     As2   v112
	BYTE	W03
	BYTE		N06     As2   v020
	BYTE	W09
	BYTE		N03     Gn2   v112
	BYTE	W03
	BYTE		N06     Gn2   v020
	BYTE	W09
	BYTE		N03     Ds2   v112
	BYTE	W03
	BYTE		        Ds2   v020
	BYTE	W03
	BYTE		N06     Dn3   v112
	BYTE	W06
	BYTE		        Ds3 
	BYTE	W06
	BYTE		N09     Ds3   v020
	BYTE	W12
// 030   ----------------------------------------
	BYTE	PATT
	 POIN2	mus_mt_chimney_4_007
// 031   ----------------------------------------
	BYTE		N96     As3   v112
	BYTE	W03
	BYTE		VOL     113*mus_mt_chimney_mvl/mxv
	BYTE	W03
	BYTE		        95*mus_mt_chimney_mvl/mxv
	BYTE	W02
	BYTE		        75*mus_mt_chimney_mvl/mxv
	BYTE	W04
	BYTE		        64*mus_mt_chimney_mvl/mxv
	BYTE	W02
	BYTE		        51*mus_mt_chimney_mvl/mxv
	BYTE	W04
	BYTE		        43*mus_mt_chimney_mvl/mxv
	BYTE	W02
	BYTE		        36*mus_mt_chimney_mvl/mxv
	BYTE	W04
	BYTE		        31*mus_mt_chimney_mvl/mxv
	BYTE	W02
	BYTE		        33*mus_mt_chimney_mvl/mxv
	BYTE	W04
	BYTE		        36*mus_mt_chimney_mvl/mxv
	BYTE	W02
	BYTE		        38*mus_mt_chimney_mvl/mxv
	BYTE	W04
	BYTE		        40*mus_mt_chimney_mvl/mxv
	BYTE	W02
	BYTE		        38*mus_mt_chimney_mvl/mxv
	BYTE	W06
	BYTE		        40*mus_mt_chimney_mvl/mxv
	BYTE	W06
	BYTE		        43*mus_mt_chimney_mvl/mxv
	BYTE	W04
	BYTE		        46*mus_mt_chimney_mvl/mxv
	BYTE	W02
	BYTE		        48*mus_mt_chimney_mvl/mxv
	BYTE	W04
	BYTE		        54*mus_mt_chimney_mvl/mxv
	BYTE	W02
	BYTE		        57*mus_mt_chimney_mvl/mxv
	BYTE	W04
	BYTE		        62*mus_mt_chimney_mvl/mxv
	BYTE	W02
	BYTE		        66*mus_mt_chimney_mvl/mxv
	BYTE	W04
	BYTE		MOD     7
	BYTE		VOL     71*mus_mt_chimney_mvl/mxv
	BYTE	W02
	BYTE		        75*mus_mt_chimney_mvl/mxv
	BYTE	W04
	BYTE		        80*mus_mt_chimney_mvl/mxv
	BYTE	W02
	BYTE		        90*mus_mt_chimney_mvl/mxv
	BYTE	W04
	BYTE		        100*mus_mt_chimney_mvl/mxv
	BYTE	W02
	BYTE		        108*mus_mt_chimney_mvl/mxv
	BYTE	W04
	BYTE		        116*mus_mt_chimney_mvl/mxv
	BYTE	W02
	BYTE		        119*mus_mt_chimney_mvl/mxv
	BYTE	W01
	BYTE		        124*mus_mt_chimney_mvl/mxv
	BYTE	W03
// 032   ----------------------------------------
	BYTE	PATT
	 POIN2	mus_mt_chimney_4_009
// 033   ----------------------------------------
	BYTE	PATT
	 POIN2	mus_mt_chimney_4_010
// 034   ----------------------------------------
	BYTE	PATT
	 POIN2	mus_mt_chimney_4_011
// 035   ----------------------------------------
	BYTE		VOICE   60
	BYTE		PAN     c_v+0
	BYTE		VOL     119*mus_mt_chimney_mvl/mxv
	BYTE		N03     Gs3   v112
	BYTE	W03
	BYTE		        Gs3   v020
	BYTE	W03
	BYTE		        Gs3   v112
	BYTE	W03
	BYTE		        Gs3   v020
	BYTE	W03
	BYTE		N06     Fs4   v112
	BYTE	W06
	BYTE		        Fn4 
	BYTE	W06
	BYTE		N03     Ds4 
	BYTE	W03
	BYTE		N06     Ds4   v020
	BYTE	W09
	BYTE		N03     Dn4   v112
	BYTE	W03
	BYTE		N06     Dn4   v020
	BYTE	W06
	BYTE		N03     Gn4   v112
	BYTE	W03
	BYTE		N24     Fs4 
	BYTE	W24
	BYTE		N12     Fn4 
	BYTE	W12
	BYTE		        Cs4 
	BYTE	W12
// 036   ----------------------------------------
	BYTE		N06     Dn4 
	BYTE	W06
	BYTE		N03     Ds4 
	BYTE	W03
	BYTE		N06     Ds4   v020
	BYTE	W09
	BYTE		N03     Ds4   v112
	BYTE	W03
	BYTE		N06     Ds4   v020
	BYTE	W12
	BYTE		N03     Gn4   v112
	BYTE	W03
	BYTE		N60     Gs4 
	BYTE	W09
	BYTE		PAN     c_v-16
	BYTE	W03
	BYTE		        c_v-32
	BYTE	W03
	BYTE		        c_v-48
	BYTE	W21
	BYTE		MOD     7
	BYTE		PAN     c_v+21
	BYTE	W03
	BYTE		        c_v+26
	BYTE	W03
	BYTE		        c_v+36
	BYTE	W03
	BYTE		        c_v+48
	BYTE	W03
	BYTE		        c_v+48
	BYTE	W12
// 037   ----------------------------------------
	BYTE		MOD     1
	BYTE		PAN     c_v+0
	BYTE		N06     Ds4 
	BYTE	W06
	BYTE		        As3 
	BYTE	W06
	BYTE		        Gn3 
	BYTE	W06
	BYTE		        Ds3 
	BYTE	W06
	BYTE		        Ds3   v020
	BYTE	W06
	BYTE		N03     Cs3   v112
	BYTE	W03
	BYTE		N06     Cs3   v020
	BYTE	W09
	BYTE		N03     As2   v112
	BYTE	W03
	BYTE		N06     As2   v020
	BYTE	W09
	BYTE		N03     Gn2   v112
	BYTE	W03
	BYTE		N06     Gn2   v020
	BYTE	W09
	BYTE		N03     Ds2   v112
	BYTE	W03
	BYTE		        Ds2   v020
	BYTE	W03
	BYTE		N06     Dn3   v112
	BYTE	W06
	BYTE		        Ds3 
	BYTE	W06
	BYTE		        Ds3   v020
	BYTE	W12
// 038   ----------------------------------------
	BYTE	PATT
	 POIN2	mus_mt_chimney_4_007
// 039   ----------------------------------------
	BYTE	PATT
	 POIN2	mus_mt_chimney_4_016
// 040   ----------------------------------------
	BYTE	PATT
	 POIN2	mus_mt_chimney_4_017
	BYTE		EOT     As3 
	BYTE		MOD     1
	BYTE		PAN     c_v+0
	BYTE		N24     Cs4   v112
	BYTE	W24
// 041   ----------------------------------------
	BYTE		N03     Gs3 
	BYTE	W06
	BYTE		N03   
	BYTE	W06
	BYTE		N06     Fs4 
	BYTE	W06
	BYTE		        Fn4 
	BYTE	W06
	BYTE		N12     Ds4 
	BYTE	W12
	BYTE		N06     Dn4 
	BYTE	W12
	BYTE		N03   
	BYTE	W06
	BYTE		        Ds4 
	BYTE	W12
	BYTE		N06   
	BYTE	W06
	BYTE		N24     Dn4 
	BYTE	W15
	BYTE		MOD     6
	BYTE	W09
// 042   ----------------------------------------
	BYTE		        0
	BYTE		N03     Gs3 
	BYTE	W06
	BYTE		N03   
	BYTE	W06
	BYTE		N06     Fs4 
	BYTE	W06
	BYTE		        Fn4 
	BYTE	W06
	BYTE		N12     Ds4 
	BYTE	W12
	BYTE		N06     Dn4 
	BYTE	W12
	BYTE		VOICE   56
	BYTE		N03   
	BYTE	W06
	BYTE		        Ds4 
	BYTE	W12
	BYTE		N06   
	BYTE	W06
	BYTE		N24     Fs4 
	BYTE	W15
	BYTE		MOD     6
	BYTE	W09
// 043   ----------------------------------------
	BYTE		VOICE   60
	BYTE		MOD     0
	BYTE		N03     Gs3 
	BYTE	W06
	BYTE		N03   
	BYTE	W06
	BYTE		N06     Fs4 
	BYTE	W06
	BYTE		        Fn4 
	BYTE	W06
	BYTE		N12     Ds4 
	BYTE	W12
	BYTE		N06     Dn4 
	BYTE	W12
	BYTE		VOICE   56
	BYTE		N03     Gs3 
	BYTE	W06
	BYTE		N03   
	BYTE	W06
	BYTE		N06     Fs4 
	BYTE	W06
	BYTE		        Fn4 
	BYTE	W06
	BYTE		N12     Ds4 
	BYTE	W12
	BYTE		N06     Dn4 
	BYTE	W12
// 044   ----------------------------------------
	BYTE		VOICE   60
	BYTE		N03     Gs3 
	BYTE	W06
	BYTE		N03   
	BYTE	W06
	BYTE		N06     Fs4 
	BYTE	W06
	BYTE		        Fn4 
	BYTE	W06
	BYTE		N03     Gs3 
	BYTE	W06
	BYTE		N03   
	BYTE	W06
	BYTE		N06     Fs4 
	BYTE	W06
	BYTE		        Fn4 
	BYTE	W06
	BYTE		VOICE   56
	BYTE		N03     Gs3 
	BYTE	W06
	BYTE		N03   
	BYTE	W06
	BYTE		N06     Fs4 
	BYTE	W06
	BYTE		        Fn4 
	BYTE	W06
	BYTE		N03     Gs3 
	BYTE	W06
	BYTE		N03   
	BYTE	W06
	BYTE		N02   
	BYTE	W04
	BYTE		N02   
	BYTE	W04
	BYTE		N02   
	BYTE	W04
// 045   ----------------------------------------
	BYTE	W96
// 046   ----------------------------------------
	BYTE	W96
// 047   ----------------------------------------
	BYTE	W96
// 048   ----------------------------------------
	BYTE	W96
	BYTE	GoTo
	 POIN2	mus_mt_chimney_4_B1
mus_mt_chimney_4_B2:
// 049   ----------------------------------------
	BYTE	FINE

//**************** Track 5 (Midi-Chn.5) ****************//

mus_mt_chimney_5:
	BYTE	KEYSH   mus_mt_chimney_key+0
// 000   ----------------------------------------
	BYTE		VOICE   48
	BYTE		PAN     c_v+0
	BYTE		VOL     79*mus_mt_chimney_mvl/mxv
	BYTE		LFOS    44
	BYTE	W96
// 001   ----------------------------------------
	BYTE	W96
mus_mt_chimney_5_B1:
// 002   ----------------------------------------
	BYTE	W96
// 003   ----------------------------------------
	BYTE	W96
// 004   ----------------------------------------
	BYTE	W96
// 005   ----------------------------------------
	BYTE	W96
// 006   ----------------------------------------
	BYTE	W96
// 007   ----------------------------------------
	BYTE	W96
// 008   ----------------------------------------
	BYTE	W96
// 009   ----------------------------------------
	BYTE	W96
// 010   ----------------------------------------
	BYTE	W96
// 011   ----------------------------------------
	BYTE	W96
// 012   ----------------------------------------
	BYTE	W96
// 013   ----------------------------------------
	BYTE	W96
// 014   ----------------------------------------
	BYTE	W96
// 015   ----------------------------------------
	BYTE	W96
// 016   ----------------------------------------
	BYTE	W96
// 017   ----------------------------------------
	BYTE	W96
// 018   ----------------------------------------
	BYTE		VOL     79*mus_mt_chimney_mvl/mxv
	BYTE		N04     Bn2   v112
	BYTE	W04
	BYTE		        Ds3   v084
	BYTE	W04
	BYTE		        Fs3 
	BYTE	W04
	BYTE		        As3 
	BYTE	W04
	BYTE		        Fs3 
	BYTE	W04
	BYTE		        Ds3 
	BYTE	W04
	BYTE		        Bn2   v112
	BYTE	W04
	BYTE		        Ds3   v084
	BYTE	W04
	BYTE		        Fs3 
	BYTE	W04
	BYTE		        As3 
	BYTE	W04
	BYTE		        Fs3 
	BYTE	W04
	BYTE		        Ds3 
	BYTE	W04
	BYTE		        Bn2   v112
	BYTE	W04
	BYTE		        Ds3   v084
	BYTE	W04
	BYTE		        Fs3 
	BYTE	W04
	BYTE		        As3 
	BYTE	W04
	BYTE		        Fs3 
	BYTE	W04
	BYTE		        Ds3 
	BYTE	W04
	BYTE		        Bn2   v112
	BYTE	W04
	BYTE		        Ds3   v084
	BYTE	W04
	BYTE		        Fs3 
	BYTE	W04
	BYTE		        As3 
	BYTE	W04
	BYTE		        Fs3 
	BYTE	W04
	BYTE		        Ds3 
	BYTE	W04
// 019   ----------------------------------------
	BYTE		PAN     c_v-16
	BYTE		N04     As2   v112
	BYTE	W04
	BYTE		        Cs3   v084
	BYTE	W04
	BYTE		        Fn3 
	BYTE	W04
	BYTE		        Gs3 
	BYTE	W04
	BYTE		        Fn3 
	BYTE	W04
	BYTE		        Cs3 
	BYTE	W04
	BYTE		PAN     c_v-32
	BYTE		N04     As2   v112
	BYTE	W04
	BYTE		        Cs3   v084
	BYTE	W04
	BYTE		        Fn3 
	BYTE	W04
	BYTE		        Gs3 
	BYTE	W04
	BYTE		        Fn3 
	BYTE	W04
	BYTE		        Cs3 
	BYTE	W04
	BYTE		PAN     c_v-48
	BYTE		N04     As2   v112
	BYTE	W04
	BYTE		        Cs3   v084
	BYTE	W04
	BYTE		        Fn3 
	BYTE	W04
	BYTE		        Gs3 
	BYTE	W04
	BYTE		        Fn3 
	BYTE	W04
	BYTE		        Cs3 
	BYTE	W04
	BYTE		PAN     c_v-62
	BYTE		N04     As2   v112
	BYTE	W04
	BYTE		        Cs3   v084
	BYTE	W04
	BYTE		        Fn3 
	BYTE	W04
	BYTE		        Gs3 
	BYTE	W04
	BYTE		        Fn3 
	BYTE	W04
	BYTE		        Cs3 
	BYTE	W04
// 020   ----------------------------------------
	BYTE		PAN     c_v+0
	BYTE		N04     An2   v112
	BYTE	W04
	BYTE		        Cs3   v084
	BYTE	W04
	BYTE		        En3 
	BYTE	W04
	BYTE		        Gs3 
	BYTE	W04
	BYTE		        En3 
	BYTE	W04
	BYTE		        Cs3 
	BYTE	W04
	BYTE		        An2   v112
	BYTE	W04
	BYTE		        Cs3   v084
	BYTE	W04
	BYTE		        En3 
	BYTE	W04
	BYTE		        Gs3 
	BYTE	W04
	BYTE		        En3 
	BYTE	W04
	BYTE		        Cs3 
	BYTE	W04
	BYTE		        An2   v112
	BYTE	W04
	BYTE		        Cs3   v084
	BYTE	W04
	BYTE		        En3 
	BYTE	W04
	BYTE		        Gs3 
	BYTE	W04
	BYTE		        En3 
	BYTE	W04
	BYTE		        Cs3 
	BYTE	W04
	BYTE		        An2   v112
	BYTE	W04
	BYTE		        Cs3   v084
	BYTE	W04
	BYTE		        En3 
	BYTE	W04
	BYTE		        Gs3 
	BYTE	W04
	BYTE		        En3 
	BYTE	W04
	BYTE		        Cs3 
	BYTE	W04
// 021   ----------------------------------------
	BYTE		PAN     c_v+16
	BYTE		N04     Gs2   v112
	BYTE	W04
	BYTE		        Cn3   v084
	BYTE	W04
	BYTE		        Ds3 
	BYTE	W04
	BYTE		        Gn3 
	BYTE	W04
	BYTE		        Ds3 
	BYTE	W04
	BYTE		        Cn3 
	BYTE	W04
	BYTE		PAN     c_v+32
	BYTE		N04     Gs2   v112
	BYTE	W04
	BYTE		        Cn3   v084
	BYTE	W04
	BYTE		        Ds3 
	BYTE	W04
	BYTE		        Gn3 
	BYTE	W04
	BYTE		        Ds3 
	BYTE	W04
	BYTE		        Cn3 
	BYTE	W04
	BYTE		PAN     c_v+48
	BYTE		N04     Gs2   v112
	BYTE	W04
	BYTE		        Cn3   v084
	BYTE	W04
	BYTE		        Ds3 
	BYTE	W04
	BYTE		        Gn3 
	BYTE	W04
	BYTE		        Ds3 
	BYTE	W04
	BYTE		        Cn3 
	BYTE	W04
	BYTE		PAN     c_v+63
	BYTE		N04     Gs2   v112
	BYTE	W04
	BYTE		        Cn3   v084
	BYTE	W04
	BYTE		        Ds3 
	BYTE	W04
	BYTE		        Gn3 
	BYTE	W04
	BYTE		        Ds3 
	BYTE	W04
	BYTE		        Cn3 
	BYTE	W04
// 022   ----------------------------------------
	BYTE		PAN     c_v+0
	BYTE		N36     As2   v112
	BYTE	W36
	BYTE		N06     Gs2 
	BYTE	W06
	BYTE		        As2 
	BYTE	W06
	BYTE		N24     Cn3 
	BYTE	W24
	BYTE		N06     Gs2 
	BYTE	W06
	BYTE		        As2 
	BYTE	W06
	BYTE		        Cn3 
	BYTE	W06
	BYTE		        Cs3 
	BYTE	W06
// 023   ----------------------------------------
	BYTE		N36     En3 
	BYTE	W36
	BYTE		N06     Ds3 
	BYTE	W06
	BYTE		        En3 
	BYTE	W06
	BYTE		N24     Fn3 
	BYTE	W48
// 024   ----------------------------------------
	BYTE	W48
// 025   ----------------------------------------
	BYTE	W96
// 026   ----------------------------------------
	BYTE	W96
// 027   ----------------------------------------
	BYTE	W96
// 028   ----------------------------------------
	BYTE	W96
// 029   ----------------------------------------
	BYTE	W96
// 030   ----------------------------------------
	BYTE	W96
// 031   ----------------------------------------
	BYTE	W96
// 032   ----------------------------------------
	BYTE	W96
// 033   ----------------------------------------
	BYTE	W96
// 034   ----------------------------------------
	BYTE	W96
// 035   ----------------------------------------
	BYTE	W96
// 036   ----------------------------------------
	BYTE	W96
// 037   ----------------------------------------
	BYTE	W96
// 038   ----------------------------------------
	BYTE	W96
// 039   ----------------------------------------
	BYTE	W96
// 040   ----------------------------------------
	BYTE	W96
// 041   ----------------------------------------
	BYTE	W96
// 042   ----------------------------------------
	BYTE	W96
// 043   ----------------------------------------
	BYTE	W96
// 044   ----------------------------------------
	BYTE	W96
// 045   ----------------------------------------
	BYTE	W96
// 046   ----------------------------------------
	BYTE	W96
// 047   ----------------------------------------
	BYTE	W96
// 048   ----------------------------------------
	BYTE	W96
	BYTE	GoTo
	 POIN2	mus_mt_chimney_5_B1
mus_mt_chimney_5_B2:
// 049   ----------------------------------------
	BYTE	FINE

//**************** Track 6 (Midi-Chn.6) ****************//

mus_mt_chimney_6:
	BYTE	KEYSH   mus_mt_chimney_key+0
// 000   ----------------------------------------
	BYTE		VOICE   87
	BYTE		LFOS    44
	BYTE		XCMD    xIECV   18
	BYTE		        xIECV   12
	BYTE		PAN     c_v+0
	BYTE		BENDR   12
	BYTE		VOL     64*mus_mt_chimney_mvl/mxv
	BYTE		N12     Ds2   v112
	BYTE	W48
	BYTE		        As1 
	BYTE	W36
	BYTE		N03   
	BYTE	W06
	BYTE		N03   
	BYTE	W06
// 001   ----------------------------------------
	BYTE		N09     Ds2 
	BYTE	W24
	BYTE		        As1 
	BYTE	W24
	BYTE		        Ds1 
	BYTE	W36
	BYTE		N06     Gn1 
	BYTE	W06
	BYTE		        As1 
	BYTE	W06
mus_mt_chimney_6_B1:
// 002   ----------------------------------------
	BYTE		VOICE   81
	BYTE		PAN     c_v+0
	BYTE		VOL     64*mus_mt_chimney_mvl/mxv
	BYTE	W06
	BYTE		N03     As2   v088
	BYTE	W03
	BYTE		        An2 
	BYTE	W03
	BYTE		N06     Gs2   v112
	BYTE	W12
	BYTE		N03     Ds3 
	BYTE	W12
	BYTE		        Dn3 
	BYTE	W12
	BYTE		        Fn3 
	BYTE	W06
	BYTE		        Fs3 
	BYTE	W12
	BYTE		N03   
	BYTE	W06
	BYTE		N12     Fn3 
	BYTE	W12
	BYTE		        Cs3 
	BYTE	W09
	BYTE		N03     Fn3 
	BYTE	W03
// 003   ----------------------------------------
mus_mt_chimney_6_003:
	BYTE		PAN     c_v-64
	BYTE		N03     Fs3   v112
	BYTE	W06
	BYTE		N03   
	BYTE	W06
	BYTE		        Fn3 
	BYTE	W06
	BYTE		        Fs3 
	BYTE	W18
	BYTE		N03   
	BYTE	W06
	BYTE		N03   
	BYTE	W06
	BYTE		N03   
	BYTE	W12
	BYTE		N03   
	BYTE	W06
	BYTE		        Bn2   v068
	BYTE	W03
	BYTE		        Dn3 
	BYTE	W03
	BYTE		N06     Fn3   v112
	BYTE	W12
	BYTE		        Cs3 
	BYTE	W06
	BYTE		N03     Fn3 
	BYTE	W06
	BYTE	PEND
// 004   ----------------------------------------
mus_mt_chimney_6_004:
	BYTE		PAN     c_v+0
	BYTE	W12
	BYTE		N03     Gs2   v112
	BYTE	W12
	BYTE		        Ds3 
	BYTE	W12
	BYTE		        Dn3 
	BYTE	W09
	BYTE		        Gn3 
	BYTE	W03
	BYTE		N24     Fs3 
	BYTE	W24
	BYTE		N12     Fn3 
	BYTE	W12
	BYTE		        Cs3 
	BYTE	W12
	BYTE	PEND
// 005   ----------------------------------------
	BYTE		N06     Dn3 
	BYTE	W06
	BYTE		N03     Ds3 
	BYTE	W12
	BYTE		N03   
	BYTE	W15
	BYTE		        Gn3 
	BYTE	W03
	BYTE		N60     Gs3 
	BYTE	W18
	BYTE		VOL     53*mus_mt_chimney_mvl/mxv
	BYTE	W02
	BYTE		        40*mus_mt_chimney_mvl/mxv
	BYTE	W04
	BYTE		        33*mus_mt_chimney_mvl/mxv
	BYTE	W02
	BYTE		        25*mus_mt_chimney_mvl/mxv
	BYTE	W03
	BYTE		        23*mus_mt_chimney_mvl/mxv
	BYTE	W03
	BYTE		        31*mus_mt_chimney_mvl/mxv
	BYTE	W04
	BYTE		MOD     8
	BYTE		VOL     38*mus_mt_chimney_mvl/mxv
	BYTE	W02
	BYTE		        54*mus_mt_chimney_mvl/mxv
	BYTE	W03
	BYTE		        59*mus_mt_chimney_mvl/mxv
	BYTE	W03
	BYTE		        71*mus_mt_chimney_mvl/mxv
	BYTE	W04
	BYTE		        77*mus_mt_chimney_mvl/mxv
	BYTE	W02
	BYTE		        77*mus_mt_chimney_mvl/mxv
	BYTE	W01
	BYTE		        90*mus_mt_chimney_mvl/mxv
	BYTE	W03
	BYTE		        93*mus_mt_chimney_mvl/mxv
	BYTE	W03
	BYTE		        98*mus_mt_chimney_mvl/mxv
	BYTE	W03
// 006   ----------------------------------------
	BYTE		MOD     0
	BYTE		VOL     62*mus_mt_chimney_mvl/mxv
	BYTE		N06     Ds3 
	BYTE	W06
	BYTE		        As2 
	BYTE	W06
	BYTE		        Gn2 
	BYTE	W06
	BYTE		        Ds2 
	BYTE	W12
	BYTE		N03     Cs2 
	BYTE	W12
	BYTE		        As1 
	BYTE	W12
	BYTE		        Gn1 
	BYTE	W12
	BYTE		        Ds1 
	BYTE	W06
	BYTE		N06     Dn2 
	BYTE	W06
	BYTE		        Ds2 
	BYTE	W18
// 007   ----------------------------------------
	BYTE	W96
// 008   ----------------------------------------
	BYTE	W96
// 009   ----------------------------------------
	BYTE	W96
// 010   ----------------------------------------
mus_mt_chimney_6_010:
	BYTE	W12
	BYTE		N06     Fs3   v112
	BYTE	W06
	BYTE		        Fn3 
	BYTE	W06
	BYTE		N03     Ds3 
	BYTE	W12
	BYTE		        Dn3 
	BYTE	W12
	BYTE		        Fn3 
	BYTE	W06
	BYTE		        Fs3 
	BYTE	W12
	BYTE		N03   
	BYTE	W06
	BYTE		N12     Fn3 
	BYTE	W12
	BYTE		        Cs3 
	BYTE	W09
	BYTE		N03     Fn3 
	BYTE	W03
	BYTE	PEND
// 011   ----------------------------------------
	BYTE	PATT
	 POIN2	mus_mt_chimney_6_003
// 012   ----------------------------------------
mus_mt_chimney_6_012:
	BYTE		PAN     c_v+0
	BYTE		N03     Gs2   v112
	BYTE	W06
	BYTE		N03   
	BYTE	W06
	BYTE		N06     Fs3 
	BYTE	W06
	BYTE		        Fn3 
	BYTE	W06
	BYTE		N03     Ds3 
	BYTE	W12
	BYTE		        Dn3 
	BYTE	W09
	BYTE		        Gn3 
	BYTE	W03
	BYTE		N24     Fs3 
	BYTE	W24
	BYTE		N12     Fn3 
	BYTE	W12
	BYTE		        Cs3 
	BYTE	W12
	BYTE	PEND
// 013   ----------------------------------------
mus_mt_chimney_6_013:
	BYTE		N06     Dn3   v112
	BYTE	W06
	BYTE		N03     Ds3 
	BYTE	W12
	BYTE		N03   
	BYTE	W15
	BYTE		        Gn3 
	BYTE	W03
	BYTE		N60     Gs3 
	BYTE	W36
	BYTE		MOD     8
	BYTE	W24
	BYTE	PEND
// 014   ----------------------------------------
mus_mt_chimney_6_014:
	BYTE		MOD     0
	BYTE		N06     Ds3   v112
	BYTE	W06
	BYTE		        As2 
	BYTE	W06
	BYTE		        Gn2 
	BYTE	W06
	BYTE		        Ds2 
	BYTE	W12
	BYTE		N03     Cs2 
	BYTE	W12
	BYTE		        As1 
	BYTE	W12
	BYTE		        Gn1 
	BYTE	W12
	BYTE		        Ds1 
	BYTE	W06
	BYTE		N06     Dn2 
	BYTE	W06
	BYTE		        Ds2 
	BYTE	W18
	BYTE	PEND
// 015   ----------------------------------------
	BYTE	W96
// 016   ----------------------------------------
	BYTE	W96
// 017   ----------------------------------------
mus_mt_chimney_6_017:
	BYTE		VOICE   60
	BYTE	W24
	BYTE		N48     As2   v112
	BYTE	W72
	BYTE	PEND
// 018   ----------------------------------------
	BYTE		VOICE   81
	BYTE		VOL     71*mus_mt_chimney_mvl/mxv
	BYTE		PAN     c_v-63
	BYTE		N06     As3 
	BYTE	W06
	BYTE		N03     Gs3   v076
	BYTE	W03
	BYTE		        Gn3 
	BYTE	W03
	BYTE		        Fn3 
	BYTE	W03
	BYTE		        Ds3 
	BYTE	W03
	BYTE		        Cs3 
	BYTE	W78
// 019   ----------------------------------------
	BYTE	W48
	BYTE		        Cs3   v112
	BYTE	W06
	BYTE		N06     Fn3 
	BYTE	W12
	BYTE		N03     As2 
	BYTE	W06
	BYTE		N06     Fn3 
	BYTE	W06
	BYTE		N03     Ds3   v076
	BYTE	W03
	BYTE		        Cs3 
	BYTE	W03
	BYTE		        Cn3 
	BYTE	W03
	BYTE		        As2 
	BYTE	W09
// 020   ----------------------------------------
	BYTE		        En3   v112
	BYTE	W06
	BYTE		N03   
	BYTE	W06
	BYTE		N03   
	BYTE	W06
	BYTE		N03   
	BYTE	W12
	BYTE		N03   
	BYTE	W12
	BYTE		N03   
	BYTE	W54
// 021   ----------------------------------------
	BYTE	W48
	BYTE		        Ds3 
	BYTE	W06
	BYTE		N06     Gs3 
	BYTE	W12
	BYTE		N03     Ds3 
	BYTE	W06
	BYTE		N06     Gs3 
	BYTE	W06
	BYTE		N03     Gn3   v076
	BYTE	W03
	BYTE		        Fn3 
	BYTE	W03
	BYTE		        Ds3 
	BYTE	W03
	BYTE		        Cs3 
	BYTE	W09
// 022   ----------------------------------------
	BYTE	W96
// 023   ----------------------------------------
	BYTE	W48
	BYTE		        Fn3   v112
	BYTE	W06
	BYTE		N03   
	BYTE	W06
	BYTE		N03   
	BYTE	W06
	BYTE		N03   
	BYTE	W30
// 024   ----------------------------------------
	BYTE	W06
	BYTE		        Dn3 
	BYTE	W12
	BYTE		N03   
	BYTE	W06
	BYTE		N03   
	BYTE	W06
	BYTE		        As2 
	BYTE	W06
	BYTE		        Dn3 
	BYTE	W06
	BYTE		        Fn3 
	BYTE	W06
// 025   ----------------------------------------
	BYTE		PAN     c_v+0
	BYTE		VOL     80*mus_mt_chimney_mvl/mxv
	BYTE	W06
	BYTE		N03     As2   v088
	BYTE	W03
	BYTE		        An2 
	BYTE	W03
	BYTE		N06     Gs2   v112
	BYTE	W12
	BYTE		N03     Ds3 
	BYTE	W12
	BYTE		        Dn3 
	BYTE	W12
	BYTE		        Fn3 
	BYTE	W06
	BYTE		        Fs3 
	BYTE	W12
	BYTE		N03   
	BYTE	W06
	BYTE		N12     Fn3 
	BYTE	W12
	BYTE		        Cs3 
	BYTE	W09
	BYTE		N03     Fn3 
	BYTE	W03
// 026   ----------------------------------------
	BYTE	PATT
	 POIN2	mus_mt_chimney_6_003
// 027   ----------------------------------------
	BYTE	PATT
	 POIN2	mus_mt_chimney_6_004
// 028   ----------------------------------------
	BYTE	PATT
	 POIN2	mus_mt_chimney_6_013
// 029   ----------------------------------------
	BYTE	PATT
	 POIN2	mus_mt_chimney_6_014
// 030   ----------------------------------------
	BYTE	W96
// 031   ----------------------------------------
	BYTE	W96
// 032   ----------------------------------------
	BYTE	W96
// 033   ----------------------------------------
	BYTE	PATT
	 POIN2	mus_mt_chimney_6_010
// 034   ----------------------------------------
	BYTE	PATT
	 POIN2	mus_mt_chimney_6_003
// 035   ----------------------------------------
	BYTE	PATT
	 POIN2	mus_mt_chimney_6_012
// 036   ----------------------------------------
	BYTE	PATT
	 POIN2	mus_mt_chimney_6_013
// 037   ----------------------------------------
	BYTE	PATT
	 POIN2	mus_mt_chimney_6_014
// 038   ----------------------------------------
	BYTE	W96
// 039   ----------------------------------------
	BYTE	W96
// 040   ----------------------------------------
	BYTE	PATT
	 POIN2	mus_mt_chimney_6_017
// 041   ----------------------------------------
	BYTE		N03     Gs2   v112
	BYTE	W06
	BYTE		N03   
	BYTE	W06
	BYTE		N06     Fs3 
	BYTE	W06
	BYTE		        Fn3 
	BYTE	W06
	BYTE		N12     Ds3 
	BYTE	W12
	BYTE		N06     Dn3 
	BYTE	W12
	BYTE		VOICE   60
	BYTE		N03   
	BYTE	W06
	BYTE		        Ds3 
	BYTE	W12
	BYTE		N06   
	BYTE	W06
	BYTE		N24     Dn3 
	BYTE	W24
// 042   ----------------------------------------
	BYTE		N03     Gs2 
	BYTE	W06
	BYTE		N03   
	BYTE	W06
	BYTE		N06     Fs3 
	BYTE	W06
	BYTE		        Fn3 
	BYTE	W06
	BYTE		N12     Ds3 
	BYTE	W12
	BYTE		N06     Dn3 
	BYTE	W12
	BYTE		VOICE   56
	BYTE		N03   
	BYTE	W06
	BYTE		        Ds3 
	BYTE	W12
	BYTE		N06   
	BYTE	W06
	BYTE		N24     Fs3 
	BYTE	W24
// 043   ----------------------------------------
	BYTE		VOICE   60
	BYTE		N03     Gs2 
	BYTE	W06
	BYTE		N03   
	BYTE	W06
	BYTE		N06     Fs3 
	BYTE	W06
	BYTE		        Fn3 
	BYTE	W06
	BYTE		N12     Ds3 
	BYTE	W12
	BYTE		N06     Dn3 
	BYTE	W12
	BYTE		VOICE   56
	BYTE		N03     Gs2 
	BYTE	W06
	BYTE		N03   
	BYTE	W06
	BYTE		N06     Fs3 
	BYTE	W06
	BYTE		        Fn3 
	BYTE	W06
	BYTE		N12     Ds3 
	BYTE	W12
	BYTE		N06     Dn3 
	BYTE	W12
// 044   ----------------------------------------
	BYTE		N03     Gs2 
	BYTE	W06
	BYTE		N03   
	BYTE	W06
	BYTE		N06     Fs3 
	BYTE	W06
	BYTE		        Fn3 
	BYTE	W06
	BYTE		N03     Gs2 
	BYTE	W06
	BYTE		N03   
	BYTE	W06
	BYTE		N06     Fs3 
	BYTE	W06
	BYTE		        Fn3 
	BYTE	W06
	BYTE		N03     Gs2 
	BYTE	W06
	BYTE		N03   
	BYTE	W06
	BYTE		N06     Fs3 
	BYTE	W06
	BYTE		        Fn3 
	BYTE	W06
	BYTE		N03     Gs2 
	BYTE	W06
	BYTE		N03   
	BYTE	W06
	BYTE		N02   
	BYTE	W04
	BYTE		N02   
	BYTE	W04
	BYTE		N02   
	BYTE	W04
// 045   ----------------------------------------
	BYTE	W96
// 046   ----------------------------------------
	BYTE	W96
// 047   ----------------------------------------
	BYTE	W96
// 048   ----------------------------------------
	BYTE	W96
	BYTE	GoTo
	 POIN2	mus_mt_chimney_6_B1
mus_mt_chimney_6_B2:
// 049   ----------------------------------------
	BYTE	FINE

//**************** Track 7 (Midi-Chn.7) ****************//

mus_mt_chimney_7:
	BYTE	KEYSH   mus_mt_chimney_key+0
// 000   ----------------------------------------
	BYTE		VOICE   80
	BYTE		LFOS    44
	BYTE		XCMD    xIECV   18
	BYTE		        xIECV   16
	BYTE		BENDR   12
	BYTE		VOL     80*mus_mt_chimney_mvl/mxv
	BYTE		PAN     c_v+0
	BYTE		BEND    c_v+1
	BYTE		N24     Ds1   v112
	BYTE	W03
	BYTE		BEND    c_v+0
	BYTE	W09
	BYTE		MOD     6
	BYTE	W12
	BYTE		        0
	BYTE		N24     As1 
	BYTE	W12
	BYTE		MOD     6
	BYTE	W12
	BYTE		        0
	BYTE		N24     Gn1 
	BYTE	W12
	BYTE		MOD     6
	BYTE	W12
	BYTE		        0
	BYTE		N24     Cs2 
	BYTE	W12
	BYTE		MOD     6
	BYTE	W12
// 001   ----------------------------------------
	BYTE		VOICE   83
	BYTE		PAN     c_v+0
	BYTE		VOL     23*mus_mt_chimney_mvl/mxv
	BYTE		MOD     0
	BYTE		N72     Ds4 
	BYTE	W02
	BYTE		VOL     30*mus_mt_chimney_mvl/mxv
	BYTE	W03
	BYTE		        35*mus_mt_chimney_mvl/mxv
	BYTE	W03
	BYTE		        40*mus_mt_chimney_mvl/mxv
	BYTE	W04
	BYTE		        43*mus_mt_chimney_mvl/mxv
	BYTE	W02
	BYTE		        48*mus_mt_chimney_mvl/mxv
	BYTE	W03
	BYTE		        54*mus_mt_chimney_mvl/mxv
	BYTE	W03
	BYTE		        59*mus_mt_chimney_mvl/mxv
	BYTE	W04
	BYTE		        62*mus_mt_chimney_mvl/mxv
	BYTE		MOD     4
	BYTE	W02
	BYTE		VOL     67*mus_mt_chimney_mvl/mxv
	BYTE	W03
	BYTE		        75*mus_mt_chimney_mvl/mxv
	BYTE	W03
	BYTE		        77*mus_mt_chimney_mvl/mxv
	BYTE	W04
	BYTE		        82*mus_mt_chimney_mvl/mxv
	BYTE	W02
	BYTE		        88*mus_mt_chimney_mvl/mxv
	BYTE	W03
	BYTE		        92*mus_mt_chimney_mvl/mxv
	BYTE	W03
	BYTE		        100*mus_mt_chimney_mvl/mxv
	BYTE	W04
	BYTE		        106*mus_mt_chimney_mvl/mxv
	BYTE		MOD     8
	BYTE	W02
	BYTE		VOL     116*mus_mt_chimney_mvl/mxv
	BYTE	W03
	BYTE		        116*mus_mt_chimney_mvl/mxv
	BYTE	W03
	BYTE		        100*mus_mt_chimney_mvl/mxv
	BYTE	W01
	BYTE		        121*mus_mt_chimney_mvl/mxv
	BYTE	W15
	BYTE		MOD     1
	BYTE		VOL     103*mus_mt_chimney_mvl/mxv
	BYTE		N03     Cs4   v088
	BYTE	W03
	BYTE		        As3 
	BYTE	W03
	BYTE		        Gn3   v084
	BYTE	W03
	BYTE		        Ds3   v080
	BYTE	W03
	BYTE		        Cs3   v072
	BYTE	W03
	BYTE		        As2   v068
	BYTE	W03
	BYTE		        Gn2   v064
	BYTE	W03
	BYTE		        Ds2   v060
	BYTE	W03
mus_mt_chimney_7_B1:
// 002   ----------------------------------------
	BYTE		VOICE   88
	BYTE		PAN     c_v-63
	BYTE		VOL     95*mus_mt_chimney_mvl/mxv
	BYTE		N18     Gs1   v112
	BYTE	W18
	BYTE		N03     Ds2 
	BYTE	W03
	BYTE		N06     Ds2   v036
	BYTE	W15
	BYTE		PAN     c_v+0
	BYTE		N03     Bn2   v112
	BYTE	W03
	BYTE		N06     Bn2   v036
	BYTE	W09
	BYTE		PAN     c_v+63
	BYTE	W06
	BYTE		N03     Bn2   v112
	BYTE	W03
	BYTE		        Bn2   v036
	BYTE	W03
	BYTE		N12     Bn1   v112
	BYTE	W12
	BYTE		N06     Ds2 
	BYTE	W06
	BYTE		        Ds2   v036
	BYTE	W06
	BYTE		PAN     c_v+0
	BYTE		N06     Cs2   v112
	BYTE	W06
	BYTE		        Cs2   v036
	BYTE	W06
// 003   ----------------------------------------
mus_mt_chimney_7_003:
	BYTE		PAN     c_v-63
	BYTE		N18     Gs1   v112
	BYTE	W18
	BYTE		N03     Ds2 
	BYTE	W03
	BYTE		N06     Ds2   v036
	BYTE	W15
	BYTE		PAN     c_v+0
	BYTE		N03     Bn2   v112
	BYTE	W03
	BYTE		N06     Bn2   v036
	BYTE	W09
	BYTE		PAN     c_v+63
	BYTE	W06
	BYTE		N03     Bn2   v112
	BYTE	W03
	BYTE		        Bn2   v036
	BYTE	W03
	BYTE		N12     Bn1   v112
	BYTE	W12
	BYTE		N03     Ds2 
	BYTE	W03
	BYTE		        Ds2   v036
	BYTE	W03
	BYTE		        Gs2   v112
	BYTE	W03
	BYTE		        Gs2   v036
	BYTE	W03
	BYTE		PAN     c_v+0
	BYTE		N12     Bn1   v112
	BYTE	W12
	BYTE	PEND
// 004   ----------------------------------------
mus_mt_chimney_7_004:
	BYTE		PAN     c_v-63
	BYTE		N18     Gs1   v112
	BYTE	W18
	BYTE		N03     Ds2 
	BYTE	W03
	BYTE		N06     Ds2   v036
	BYTE	W15
	BYTE		PAN     c_v+0
	BYTE		N03     Bn2   v112
	BYTE	W03
	BYTE		N06     Bn2   v036
	BYTE	W09
	BYTE		PAN     c_v+63
	BYTE	W06
	BYTE		N03     Bn2   v112
	BYTE	W03
	BYTE		        Bn2   v036
	BYTE	W03
	BYTE		N12     Bn1   v112
	BYTE	W12
	BYTE		N06     Ds2 
	BYTE	W06
	BYTE		        Ds2   v036
	BYTE	W06
	BYTE		PAN     c_v+0
	BYTE		N06     Cs2   v112
	BYTE	W06
	BYTE		        Cs2   v036
	BYTE	W06
	BYTE	PEND
// 005   ----------------------------------------
mus_mt_chimney_7_005:
	BYTE		PAN     c_v-63
	BYTE		N18     Gs1   v112
	BYTE	W18
	BYTE		N03     Ds2 
	BYTE	W03
	BYTE		N06     Ds2   v036
	BYTE	W15
	BYTE		PAN     c_v+0
	BYTE		N03     Bn2   v112
	BYTE	W03
	BYTE		N06     Bn2   v036
	BYTE	W09
	BYTE		PAN     c_v+63
	BYTE	W06
	BYTE		N03     Bn2   v112
	BYTE	W03
	BYTE		        Bn2   v036
	BYTE	W03
	BYTE		N12     Bn1   v112
	BYTE	W12
	BYTE		N03     Ds2 
	BYTE	W03
	BYTE		        Ds2   v036
	BYTE	W03
	BYTE		        Cs2   v112
	BYTE	W03
	BYTE		        Cs2   v036
	BYTE	W03
	BYTE		PAN     c_v+0
	BYTE		N03     As1   v112
	BYTE	W03
	BYTE		        As1   v036
	BYTE	W03
	BYTE		        Gn1   v112
	BYTE	W03
	BYTE		        Gn1   v036
	BYTE	W03
	BYTE	PEND
// 006   ----------------------------------------
mus_mt_chimney_7_006:
	BYTE		PAN     c_v-63
	BYTE		N18     Ds1   v112
	BYTE	W18
	BYTE		N03     As1 
	BYTE	W03
	BYTE		N06     As1   v036
	BYTE	W15
	BYTE		PAN     c_v+0
	BYTE		N03     Ds2   v112
	BYTE	W03
	BYTE		N06     Ds2   v036
	BYTE	W09
	BYTE		PAN     c_v+63
	BYTE	W06
	BYTE		N03     Ds2   v112
	BYTE	W03
	BYTE		        Ds2   v036
	BYTE	W03
	BYTE		N12     Ds1   v112
	BYTE	W12
	BYTE		N06     As1 
	BYTE	W06
	BYTE		        As1   v036
	BYTE	W06
	BYTE		PAN     c_v+0
	BYTE		N06     Gn1   v112
	BYTE	W06
	BYTE		        Gn1   v036
	BYTE	W06
	BYTE	PEND
// 007   ----------------------------------------
mus_mt_chimney_7_007:
	BYTE		PAN     c_v-63
	BYTE		N18     Ds1   v112
	BYTE	W18
	BYTE		N03     As1 
	BYTE	W03
	BYTE		N06     As1   v036
	BYTE	W15
	BYTE		PAN     c_v+0
	BYTE		N03     Ds2   v112
	BYTE	W03
	BYTE		N06     Ds2   v036
	BYTE	W09
	BYTE		PAN     c_v+63
	BYTE	W06
	BYTE		N03     Ds2   v112
	BYTE	W03
	BYTE		        Ds2   v036
	BYTE	W03
	BYTE		N12     Ds1   v112
	BYTE	W12
	BYTE		N03     As1 
	BYTE	W03
	BYTE		        As1   v036
	BYTE	W03
	BYTE		        Ds2   v112
	BYTE	W03
	BYTE		        Ds2   v036
	BYTE	W03
	BYTE		PAN     c_v+0
	BYTE		N12     Gn1   v112
	BYTE	W12
	BYTE	PEND
// 008   ----------------------------------------
	BYTE	PATT
	 POIN2	mus_mt_chimney_7_006
// 009   ----------------------------------------
mus_mt_chimney_7_009:
	BYTE		PAN     c_v-63
	BYTE		N18     Ds1   v112
	BYTE	W18
	BYTE		N03     As1 
	BYTE	W03
	BYTE		N06     As1   v036
	BYTE	W15
	BYTE		PAN     c_v+0
	BYTE		N03     Ds2   v112
	BYTE	W03
	BYTE		N06     Ds2   v036
	BYTE	W09
	BYTE		PAN     c_v+63
	BYTE	W06
	BYTE		N03     Ds2   v112
	BYTE	W03
	BYTE		        Ds2   v036
	BYTE	W03
	BYTE		N12     Ds1   v112
	BYTE	W12
	BYTE		N03     Gn1 
	BYTE	W03
	BYTE		        Gn1   v036
	BYTE	W03
	BYTE		        Cs2   v112
	BYTE	W03
	BYTE		        Cs2   v036
	BYTE	W03
	BYTE		PAN     c_v+0
	BYTE		N03     Ds2   v072
	BYTE	W03
	BYTE		        Gn2   v080
	BYTE	W03
	BYTE		        As2   v096
	BYTE	W03
	BYTE		        Cs3   v104
	BYTE	W03
	BYTE	PEND
// 010   ----------------------------------------
	BYTE	PATT
	 POIN2	mus_mt_chimney_7_004
// 011   ----------------------------------------
	BYTE	PATT
	 POIN2	mus_mt_chimney_7_003
// 012   ----------------------------------------
	BYTE		PAN     c_v-63
	BYTE		N18     Gs1   v112
	BYTE	W18
	BYTE		N03     Ds2 
	BYTE	W03
	BYTE		        Ds2   v036
	BYTE	W15
	BYTE		PAN     c_v+0
	BYTE		N03     Bn2   v112
	BYTE	W03
	BYTE		N06     Bn2   v036
	BYTE	W09
	BYTE		PAN     c_v+63
	BYTE	W06
	BYTE		N03     Bn2   v112
	BYTE	W03
	BYTE		        Bn2   v036
	BYTE	W03
	BYTE		N12     Bn1   v112
	BYTE	W12
	BYTE		N06     Ds2 
	BYTE	W06
	BYTE		        Ds2   v036
	BYTE	W06
	BYTE		PAN     c_v+0
	BYTE		N06     Cs2   v112
	BYTE	W06
	BYTE		        Cs2   v036
	BYTE	W06
// 013   ----------------------------------------
	BYTE	PATT
	 POIN2	mus_mt_chimney_7_005
// 014   ----------------------------------------
	BYTE	PATT
	 POIN2	mus_mt_chimney_7_006
// 015   ----------------------------------------
	BYTE	PATT
	 POIN2	mus_mt_chimney_7_007
// 016   ----------------------------------------
	BYTE	PATT
	 POIN2	mus_mt_chimney_7_006
// 017   ----------------------------------------
mus_mt_chimney_7_017:
	BYTE		PAN     c_v-63
	BYTE		N18     Ds1   v112
	BYTE	W18
	BYTE		N03     As1 
	BYTE	W03
	BYTE		N06     As1   v036
	BYTE	W15
	BYTE		PAN     c_v+0
	BYTE		N03     Ds2   v112
	BYTE	W03
	BYTE		N06     Ds2   v036
	BYTE	W09
	BYTE		PAN     c_v+63
	BYTE	W06
	BYTE		N03     Ds2   v112
	BYTE	W03
	BYTE		        Ds2   v036
	BYTE	W03
	BYTE		N12     Ds1   v112
	BYTE	W12
	BYTE		N03     Gn1 
	BYTE	W03
	BYTE		        Gn1   v036
	BYTE	W03
	BYTE		        Cs2   v112
	BYTE	W03
	BYTE		        Cs2   v036
	BYTE	W03
	BYTE		PAN     c_v+0
	BYTE		N03     Ds2   v112
	BYTE	W03
	BYTE		        Ds2   v036
	BYTE	W03
	BYTE		        Gn2   v112
	BYTE	W03
	BYTE		        Gn2   v036
	BYTE	W03
	BYTE	PEND
// 018   ----------------------------------------
	BYTE		VOICE   80
	BYTE		N08     Bn1   v112
	BYTE	W08
	BYTE		        Fs1 
	BYTE	W10
	BYTE		N03     Fs2 
	BYTE	W03
	BYTE		N06     Fs2   v036
	BYTE	W15
	BYTE		N03     As2   v112
	BYTE	W03
	BYTE		N06     As2   v036
	BYTE	W15
	BYTE		N03     As2   v112
	BYTE	W03
	BYTE		        As2   v036
	BYTE	W03
	BYTE		N12     Ds2   v112
	BYTE	W12
	BYTE		N06     Fs2 
	BYTE	W06
	BYTE		        Fs2   v036
	BYTE	W06
	BYTE		        Cs2   v112
	BYTE	W06
	BYTE		        Cs2   v036
	BYTE	W06
// 019   ----------------------------------------
	BYTE		N08     As1   v112
	BYTE	W08
	BYTE		        Fn1 
	BYTE	W10
	BYTE		N03     Fn2 
	BYTE	W03
	BYTE		N06     Fn2   v036
	BYTE	W15
	BYTE		N03     Gs2   v112
	BYTE	W03
	BYTE		N06     Gs2   v036
	BYTE	W15
	BYTE		N03     Gs2   v112
	BYTE	W03
	BYTE		        Gs2   v036
	BYTE	W03
	BYTE		N12     Cs2   v112
	BYTE	W12
	BYTE		N03     Fn2 
	BYTE	W03
	BYTE		        Fn2   v036
	BYTE	W03
	BYTE		        Gs2   v112
	BYTE	W03
	BYTE		        Gs2   v036
	BYTE	W03
	BYTE		N12     As1   v112
	BYTE	W12
// 020   ----------------------------------------
	BYTE		N08     An1 
	BYTE	W08
	BYTE		        En1 
	BYTE	W10
	BYTE		N03     En2 
	BYTE	W03
	BYTE		N06     En2   v036
	BYTE	W15
	BYTE		N03     Gs2   v112
	BYTE	W03
	BYTE		N06     Gs2   v036
	BYTE	W15
	BYTE		N03     Gs2   v112
	BYTE	W03
	BYTE		        Gs2   v036
	BYTE	W03
	BYTE		N12     Cs2   v112
	BYTE	W12
	BYTE		N06     En2 
	BYTE	W06
	BYTE		        En2   v036
	BYTE	W06
	BYTE		        An1   v112
	BYTE	W06
	BYTE		        An1   v036
	BYTE	W06
// 021   ----------------------------------------
	BYTE		N08     Gs1   v112
	BYTE	W08
	BYTE		        Ds1 
	BYTE	W10
	BYTE		N03     Ds2 
	BYTE	W03
	BYTE		N06     Ds2   v036
	BYTE	W15
	BYTE		N03     Gn2   v112
	BYTE	W03
	BYTE		N06     Gn2   v036
	BYTE	W15
	BYTE		N03     Gn2   v112
	BYTE	W03
	BYTE		        Gn2   v036
	BYTE	W03
	BYTE		N12     Cn2   v112
	BYTE	W12
	BYTE		N03     Ds2 
	BYTE	W03
	BYTE		        Ds2   v036
	BYTE	W03
	BYTE		        Gn2   v112
	BYTE	W03
	BYTE		        Gn2   v036
	BYTE	W03
	BYTE		N12     Gs1   v112
	BYTE	W12
// 022   ----------------------------------------
	BYTE		N18     Fs1 
	BYTE	W18
	BYTE		N06     As1 
	BYTE	W06
	BYTE		        As1   v036
	BYTE	W12
	BYTE		        Cs2   v112
	BYTE	W06
	BYTE		        Cs2   v036
	BYTE	W06
	BYTE		        Fn1   v112
	BYTE	W06
	BYTE		        Gs1 
	BYTE	W06
	BYTE		        Cn2 
	BYTE	W06
	BYTE		        Ds2 
	BYTE	W06
	BYTE		        Ds2   v036
	BYTE	W06
	BYTE		        Fn2   v112
	BYTE	W06
	BYTE		        Fn2   v036
	BYTE	W06
	BYTE		        Gn2   v112
	BYTE	W06
// 023   ----------------------------------------
	BYTE		N18     En1 
	BYTE	W18
	BYTE		N06     Bn1 
	BYTE	W06
	BYTE		        Bn1   v036
	BYTE	W12
	BYTE		        Ds2   v112
	BYTE	W06
	BYTE		        Ds2   v036
	BYTE	W06
	BYTE		        Dn1   v112
	BYTE	W06
	BYTE		        Fn1 
	BYTE	W06
	BYTE		        Gs1 
	BYTE	W06
	BYTE		        As1 
	BYTE	W06
	BYTE		        Dn2 
	BYTE	W06
	BYTE		        Fn2 
	BYTE	W06
	BYTE		        Gs2 
	BYTE	W06
	BYTE		        As2 
	BYTE	W06
// 024   ----------------------------------------
	BYTE		        As2   v036
	BYTE	W06
	BYTE		N03     Dn2   v112
	BYTE	W03
	BYTE		N06     Dn2   v036
	BYTE	W09
	BYTE		N03     Dn2   v112
	BYTE	W06
	BYTE		N03   
	BYTE	W03
	BYTE		        Dn2   v036
	BYTE	W03
	BYTE		        As2   v112
	BYTE	W03
	BYTE		        As2   v036
	BYTE	W03
	BYTE		        Dn2   v112
	BYTE	W03
	BYTE		        Dn2   v036
	BYTE	W03
	BYTE		        An1   v112
	BYTE	W03
	BYTE		        An1   v036
	BYTE	W03
// 025   ----------------------------------------
	BYTE		PAN     c_v-63
	BYTE		VOL     95*mus_mt_chimney_mvl/mxv
	BYTE		N18     Gs1   v112
	BYTE	W18
	BYTE		N03     Ds2 
	BYTE	W03
	BYTE		N06     Ds2   v036
	BYTE	W15
	BYTE		PAN     c_v+0
	BYTE		N03     Bn2   v112
	BYTE	W03
	BYTE		N06     Bn2   v036
	BYTE	W09
	BYTE		PAN     c_v+63
	BYTE	W06
	BYTE		N03     Bn2   v112
	BYTE	W03
	BYTE		        Bn2   v036
	BYTE	W03
	BYTE		N12     Bn1   v112
	BYTE	W12
	BYTE		N06     Ds2 
	BYTE	W06
	BYTE		        Ds2   v036
	BYTE	W06
	BYTE		PAN     c_v+0
	BYTE		N06     Cs2   v112
	BYTE	W06
	BYTE		        Cs2   v036
	BYTE	W06
// 026   ----------------------------------------
	BYTE	PATT
	 POIN2	mus_mt_chimney_7_003
// 027   ----------------------------------------
	BYTE	PATT
	 POIN2	mus_mt_chimney_7_004
// 028   ----------------------------------------
	BYTE	PATT
	 POIN2	mus_mt_chimney_7_005
// 029   ----------------------------------------
	BYTE	PATT
	 POIN2	mus_mt_chimney_7_006
// 030   ----------------------------------------
	BYTE	PATT
	 POIN2	mus_mt_chimney_7_007
// 031   ----------------------------------------
	BYTE	PATT
	 POIN2	mus_mt_chimney_7_006
// 032   ----------------------------------------
	BYTE	PATT
	 POIN2	mus_mt_chimney_7_009
// 033   ----------------------------------------
	BYTE	PATT
	 POIN2	mus_mt_chimney_7_004
// 034   ----------------------------------------
	BYTE	PATT
	 POIN2	mus_mt_chimney_7_003
// 035   ----------------------------------------
	BYTE	PATT
	 POIN2	mus_mt_chimney_7_004
// 036   ----------------------------------------
	BYTE	PATT
	 POIN2	mus_mt_chimney_7_005
// 037   ----------------------------------------
	BYTE		PAN     c_v-63
	BYTE		N18     Ds1   v112
	BYTE	W18
	BYTE		N03     As1 
	BYTE	W03
	BYTE		N06     As1   v036
	BYTE	W15
	BYTE		PAN     c_v+0
	BYTE		N03     Ds2   v112
	BYTE	W03
	BYTE		N06     Ds2   v036
	BYTE	W09
	BYTE		PAN     c_v+63
	BYTE	W06
	BYTE		N03     Ds2   v112
	BYTE	W03
	BYTE		N06     Ds2   v036
	BYTE	W03
	BYTE		N12     Ds1   v112
	BYTE	W12
	BYTE		N06     As1 
	BYTE	W06
	BYTE		        As1   v036
	BYTE	W06
	BYTE		PAN     c_v+0
	BYTE		N06     Gn1   v112
	BYTE	W06
	BYTE		        Gn1   v036
	BYTE	W06
// 038   ----------------------------------------
	BYTE	PATT
	 POIN2	mus_mt_chimney_7_007
// 039   ----------------------------------------
	BYTE	PATT
	 POIN2	mus_mt_chimney_7_006
// 040   ----------------------------------------
	BYTE	PATT
	 POIN2	mus_mt_chimney_7_017
// 041   ----------------------------------------
	BYTE		VOICE   88
	BYTE		PAN     c_v+0
	BYTE		N12     Gs2   v112
	BYTE	W12
	BYTE		        Gs1 
	BYTE	W12
	BYTE		N06     Gs1   v036
	BYTE	W12
	BYTE		N01     Gs1   v048
	BYTE	W06
	BYTE		        Gs1   v060
	BYTE	W06
	BYTE		        Gs1   v072
	BYTE	W06
	BYTE		        Gs1   v084
	BYTE	W06
	BYTE		        Gs1   v096
	BYTE	W06
	BYTE		        Gs1   v104
	BYTE	W06
	BYTE		        Gs1   v112
	BYTE	W03
	BYTE		N03     Bn1   v096
	BYTE	W03
	BYTE		        Cs2 
	BYTE	W03
	BYTE		        Dn2 
	BYTE	W03
	BYTE		        Ds2 
	BYTE	W03
	BYTE		        En2 
	BYTE	W03
	BYTE		        Fn2 
	BYTE	W03
	BYTE		        Gn2   v112
	BYTE	W03
// 042   ----------------------------------------
	BYTE		N12     Gs2 
	BYTE	W12
	BYTE		        Gs1 
	BYTE	W12
	BYTE		N06     Gs1   v036
	BYTE	W12
	BYTE		N01     Gs1   v048
	BYTE	W06
	BYTE		        Gs1   v060
	BYTE	W06
	BYTE		        Gs1   v072
	BYTE	W06
	BYTE		        Gs1   v084
	BYTE	W06
	BYTE		        Gs1   v096
	BYTE	W06
	BYTE		        Gs1   v104
	BYTE	W06
	BYTE		        Gs1   v112
	BYTE	W06
	BYTE		N03     Cs2   v096
	BYTE	W03
	BYTE		        Dn2 
	BYTE	W03
	BYTE		        Ds2 
	BYTE	W03
	BYTE		        En2 
	BYTE	W03
	BYTE		        Fn2 
	BYTE	W03
	BYTE		        Gn2   v112
	BYTE	W03
// 043   ----------------------------------------
	BYTE		N12     Gs2 
	BYTE	W12
	BYTE		        Gs1 
	BYTE	W12
	BYTE		N06     Gs1   v036
	BYTE	W12
	BYTE		N03     Gs1   v112
	BYTE	W06
	BYTE		N03   
	BYTE	W06
	BYTE		N12     Gs2 
	BYTE	W12
	BYTE		        Gs1 
	BYTE	W12
	BYTE		N06     Gs1   v036
	BYTE	W12
	BYTE		N03     Gs1   v112
	BYTE	W06
	BYTE		N03   
	BYTE	W06
// 044   ----------------------------------------
	BYTE		N12     Gs2 
	BYTE	W12
	BYTE		N06     Gs1 
	BYTE	W06
	BYTE		        Gs1   v036
	BYTE	W06
	BYTE		N12     Gs2   v112
	BYTE	W12
	BYTE		N06     Gs1 
	BYTE	W06
	BYTE		        Gs1   v036
	BYTE	W06
	BYTE		N12     Gs2   v112
	BYTE	W12
	BYTE		N06     Gs1 
	BYTE	W06
	BYTE		        Gs1   v036
	BYTE	W03
	BYTE		N03     Gn2   v112
	BYTE	W03
	BYTE		N12     Gs2 
	BYTE	W12
	BYTE		N06     Gs1 
	BYTE	W06
	BYTE		        Gs1   v036
	BYTE	W06
// 045   ----------------------------------------
	BYTE	W96
// 046   ----------------------------------------
	BYTE	W96
// 047   ----------------------------------------
	BYTE	W96
// 048   ----------------------------------------
	BYTE	W96
	BYTE	GoTo
	 POIN2	mus_mt_chimney_7_B1
mus_mt_chimney_7_B2:
// 049   ----------------------------------------
	BYTE	FINE

//**************** Track 8 (Midi-Chn.8) ****************//

mus_mt_chimney_8:
	BYTE	KEYSH   mus_mt_chimney_key+0
// 000   ----------------------------------------
	BYTE		VOICE   0
	BYTE		PAN     c_v+0
	BYTE		VOL     103*mus_mt_chimney_mvl/mxv
	BYTE		N06     En1   v112
	BYTE		N72     An2 
	BYTE	W12
	BYTE		N06     En1 
	BYTE	W06
	BYTE		N03     En1   v064
	BYTE	W03
	BYTE		        En1   v020
	BYTE	W03
	BYTE		N06     En1   v112
	BYTE	W06
	BYTE		N06   
	BYTE	W12
	BYTE		N06   
	BYTE	W06
	BYTE		N06   
	BYTE	W06
	BYTE		        En1   v084
	BYTE	W06
	BYTE		        En1   v112
	BYTE	W06
	BYTE		        En1   v084
	BYTE	W06
	BYTE		N03     En1   v048
	BYTE	W03
	BYTE		N03   
	BYTE	W03
	BYTE		N03   
	BYTE	W03
	BYTE		N03   
	BYTE	W03
	BYTE		N06     En1   v112
	BYTE	W06
	BYTE		N06   
	BYTE	W06
// 001   ----------------------------------------
	BYTE		N06   
	BYTE	W06
	BYTE		N06   
	BYTE	W06
	BYTE		N03     En1   v048
	BYTE	W03
	BYTE		N03   
	BYTE	W03
	BYTE		N03   
	BYTE	W03
	BYTE		N03   
	BYTE	W03
	BYTE		N06     En1   v112
	BYTE	W06
	BYTE		        En1   v088
	BYTE	W06
	BYTE		        En1   v112
	BYTE	W06
	BYTE		        En1   v080
	BYTE	W06
	BYTE		        En1   v112
	BYTE	W06
	BYTE		N06   
	BYTE	W06
	BYTE		N03     En1   v048
	BYTE	W03
	BYTE		N03   
	BYTE	W03
	BYTE		N03   
	BYTE	W03
	BYTE		N03   
	BYTE	W03
	BYTE		N06     En1   v112
	BYTE	W06
	BYTE		N06   
	BYTE	W06
	BYTE		N03     En1   v048
	BYTE	W03
	BYTE		N03   
	BYTE	W03
	BYTE		N03   
	BYTE	W03
	BYTE		N03   
	BYTE	W03
mus_mt_chimney_8_B1:
// 002   ----------------------------------------
	BYTE		N48     An2   v112
	BYTE	W48
	BYTE		N03     Fs1 
	BYTE	W06
	BYTE		        Fs1   v064
	BYTE	W12
	BYTE		        Fs1   v084
	BYTE	W06
	BYTE		N06     Dn1   v112
	BYTE	W12
	BYTE		N12     As1   v064
	BYTE	W12
// 003   ----------------------------------------
mus_mt_chimney_8_003:
	BYTE		N06     Dn1   v112
	BYTE	W06
	BYTE		        Dn1   v076
	BYTE	W06
	BYTE		        Cn1 
	BYTE	W12
	BYTE		        En1 
	BYTE	W12
	BYTE		        Dn1   v112
	BYTE	W06
	BYTE		        Dn1   v072
	BYTE	W06
	BYTE		        Dn1   v112
	BYTE	W12
	BYTE		        En1   v084
	BYTE	W12
	BYTE		        Dn1   v112
	BYTE	W12
	BYTE		        En1 
	BYTE	W06
	BYTE		        En1   v084
	BYTE	W06
	BYTE	PEND
// 004   ----------------------------------------
mus_mt_chimney_8_004:
	BYTE		N06     Cn1   v124
	BYTE	W18
	BYTE		        Cn1   v112
	BYTE	W18
	BYTE		N06   
	BYTE	W24
	BYTE		N03   
	BYTE	W06
	BYTE		N03   
	BYTE	W06
	BYTE		N06     En1 
	BYTE	W12
	BYTE		        Dn1 
	BYTE	W12
	BYTE	PEND
// 005   ----------------------------------------
	BYTE		        En1 
	BYTE	W06
	BYTE		N06   
	BYTE	W06
	BYTE		        Cn1 
	BYTE	W12
	BYTE		        En1 
	BYTE	W12
	BYTE		        Cn1 
	BYTE	W06
	BYTE		N06   
	BYTE	W06
	BYTE		N06   
	BYTE	W21
	BYTE		N03     En1   v080
	BYTE	W03
	BYTE		N06     En1   v127
	BYTE	W12
	BYTE		        Dn1   v096
	BYTE	W12
// 006   ----------------------------------------
mus_mt_chimney_8_006:
	BYTE		N48     An2   v112
	BYTE	W48
	BYTE		N03     Fs1 
	BYTE	W06
	BYTE		        Fs1   v072
	BYTE	W06
	BYTE		N12     As1   v064
	BYTE	W12
	BYTE		N06     En1   v112
	BYTE	W12
	BYTE		N03     Cn1 
	BYTE	W06
	BYTE		N03   
	BYTE	W06
	BYTE	PEND
// 007   ----------------------------------------
mus_mt_chimney_8_007:
	BYTE		N06     Cn1   v124
	BYTE	W18
	BYTE		        Cn1   v112
	BYTE	W18
	BYTE		N06   
	BYTE	W24
	BYTE		N03   
	BYTE	W06
	BYTE		N03   
	BYTE	W06
	BYTE		N06     En1 
	BYTE	W12
	BYTE		        Dn1   v096
	BYTE	W12
	BYTE	PEND
// 008   ----------------------------------------
mus_mt_chimney_8_008:
	BYTE		N06     Cn1   v124
	BYTE	W18
	BYTE		        Cn1   v112
	BYTE	W18
	BYTE		N06   
	BYTE	W18
	BYTE		N06   
	BYTE	W06
	BYTE		N06   
	BYTE	W12
	BYTE		        Dn1 
	BYTE	W12
	BYTE		        En1 
	BYTE	W12
	BYTE	PEND
// 009   ----------------------------------------
	BYTE		N48     An2 
	BYTE	W48
	BYTE		N03     Fs1 
	BYTE	W06
	BYTE		        Fs1   v076
	BYTE	W06
	BYTE		        Fs1   v068
	BYTE	W06
	BYTE		N03   
	BYTE	W06
	BYTE		N06     Cn1   v116
	BYTE	W06
	BYTE		        Cn1   v092
	BYTE	W06
	BYTE		        En1   v084
	BYTE	W06
	BYTE		        En1   v112
	BYTE	W06
// 010   ----------------------------------------
mus_mt_chimney_8_010:
	BYTE		N48     An2   v112
	BYTE	W48
	BYTE		N03     Fs1 
	BYTE	W06
	BYTE		        Fs1   v064
	BYTE	W12
	BYTE		        Fs1   v116
	BYTE	W06
	BYTE		N06     Dn1   v112
	BYTE	W24
	BYTE	PEND
// 011   ----------------------------------------
	BYTE	PATT
	 POIN2	mus_mt_chimney_8_003
// 012   ----------------------------------------
	BYTE	PATT
	 POIN2	mus_mt_chimney_8_004
// 013   ----------------------------------------
	BYTE		N06     En1   v120
	BYTE	W06
	BYTE		        En1   v112
	BYTE	W06
	BYTE		        Cn1 
	BYTE	W12
	BYTE		        En1 
	BYTE	W12
	BYTE		        Cn1 
	BYTE	W06
	BYTE		N06   
	BYTE	W06
	BYTE		N06   
	BYTE	W21
	BYTE		N03     En1   v084
	BYTE	W03
	BYTE		N06     En1   v127
	BYTE	W12
	BYTE		        Dn1   v096
	BYTE	W12
// 014   ----------------------------------------
	BYTE	PATT
	 POIN2	mus_mt_chimney_8_006
// 015   ----------------------------------------
	BYTE	PATT
	 POIN2	mus_mt_chimney_8_004
// 016   ----------------------------------------
	BYTE	PATT
	 POIN2	mus_mt_chimney_8_008
// 017   ----------------------------------------
	BYTE	W48
	BYTE		N03     Fs1   v112
	BYTE	W06
	BYTE		        Fs1   v076
	BYTE	W06
	BYTE		        Fs1   v068
	BYTE	W06
	BYTE		N03   
	BYTE	W06
	BYTE		N06     Cn1   v116
	BYTE	W06
	BYTE		        Cn1   v092
	BYTE	W06
	BYTE		        En1   v084
	BYTE	W06
	BYTE		        En1   v112
	BYTE	W06
// 018   ----------------------------------------
	BYTE		VOL     114*mus_mt_chimney_mvl/mxv
	BYTE		N48     An2 
	BYTE	W48
	BYTE		N06     Cn1   v048
	BYTE	W06
	BYTE		        Dn1   v040
	BYTE	W06
	BYTE		        Cn1   v064
	BYTE	W06
	BYTE		N03     En1   v048
	BYTE	W03
	BYTE		N03   
	BYTE	W03
	BYTE		N06     En1   v080
	BYTE	W12
	BYTE		N12     As1   v064
	BYTE	W12
// 019   ----------------------------------------
	BYTE		N04     Cn1   v112
	BYTE	W08
	BYTE		        Cn1   v068
	BYTE	W08
	BYTE		        Cn1   v076
	BYTE	W05
	BYTE		N03     En1   v048
	BYTE	W03
	BYTE		N06     En1   v100
	BYTE	W12
	BYTE		        Cn1   v112
	BYTE	W06
	BYTE		        Dn1   v080
	BYTE	W06
	BYTE		        Cn1   v112
	BYTE	W06
	BYTE		        Dn1   v080
	BYTE	W06
	BYTE		        Cn1   v112
	BYTE	W06
	BYTE		N03     En1   v048
	BYTE	W03
	BYTE		N03   
	BYTE	W03
	BYTE		N06     En1   v112
	BYTE	W12
	BYTE		N03     Fs1   v064
	BYTE	W06
	BYTE		        Fs1   v068
	BYTE	W06
// 020   ----------------------------------------
	BYTE		N06     Cn1   v104
	BYTE	W12
	BYTE		N03     En1   v048
	BYTE	W03
	BYTE		N03   
	BYTE	W03
	BYTE		N03   
	BYTE	W03
	BYTE		N03   
	BYTE	W03
	BYTE		N06     En1   v108
	BYTE	W12
	BYTE		        Cn1   v112
	BYTE	W06
	BYTE		        Dn1   v080
	BYTE	W06
	BYTE		        Cn1   v112
	BYTE	W06
	BYTE		        Dn1   v080
	BYTE	W06
	BYTE		        Cn1   v076
	BYTE	W06
	BYTE		N03     En1   v048
	BYTE	W03
	BYTE		N03   
	BYTE	W03
	BYTE		N06     En1   v112
	BYTE	W12
	BYTE		        Dn1   v088
	BYTE	W06
	BYTE		        Dn1   v068
	BYTE	W06
// 021   ----------------------------------------
	BYTE		        Cn1   v112
	BYTE	W08
	BYTE		N04     Cn1   v068
	BYTE	W08
	BYTE		        Cn1   v076
	BYTE	W02
	BYTE		N03     En1   v048
	BYTE	W03
	BYTE		N03   
	BYTE	W03
	BYTE		N06     En1   v108
	BYTE	W12
	BYTE		        Cn1   v112
	BYTE	W06
	BYTE		        Dn1   v080
	BYTE	W06
	BYTE		        Cn1   v112
	BYTE	W06
	BYTE		        Dn1   v080
	BYTE	W06
	BYTE		        Cn1   v112
	BYTE	W06
	BYTE		N03     En1   v048
	BYTE	W03
	BYTE		N03   
	BYTE	W03
	BYTE		N06     En1   v112
	BYTE	W12
	BYTE		N12     As1   v064
	BYTE	W12
// 022   ----------------------------------------
	BYTE		N06     Cn1   v112
	BYTE	W18
	BYTE		N03     En1   v048
	BYTE	W03
	BYTE		N03   
	BYTE	W03
	BYTE		N06     En1   v112
	BYTE	W12
	BYTE		        Cn1 
	BYTE	W06
	BYTE		        Dn1   v080
	BYTE	W06
	BYTE		        Cn1   v112
	BYTE	W06
	BYTE		        Dn1 
	BYTE	W06
	BYTE		        Cn1 
	BYTE	W06
	BYTE		N03     En1   v044
	BYTE	W03
	BYTE		N03   
	BYTE	W03
	BYTE		N06     En1   v112
	BYTE	W12
	BYTE		        En1   v108
	BYTE	W12
// 023   ----------------------------------------
	BYTE		        Cn1   v112
	BYTE	W06
	BYTE		        En1 
	BYTE	W06
	BYTE		        Cn1 
	BYTE	W12
	BYTE		        En1   v116
	BYTE	W06
	BYTE		        Cn1   v108
	BYTE	W06
	BYTE		        En1   v124
	BYTE	W12
	BYTE		        Cn1   v112
	BYTE	W12
	BYTE		        En1 
	BYTE	W06
	BYTE		N03     En1   v068
	BYTE	W03
	BYTE		N03   
	BYTE	W03
	BYTE		N06     En1   v088
	BYTE	W06
	BYTE		        En1   v096
	BYTE	W06
	BYTE		        En1   v104
	BYTE	W06
	BYTE		        En1   v116
	BYTE	W06
// 024   ----------------------------------------
	BYTE		VOL     64*mus_mt_chimney_mvl/mxv
	BYTE	W06
	BYTE		N03     Gs1   v112
	BYTE	W12
	BYTE		        Gs1   v076
	BYTE	W06
	BYTE		        Gs1   v112
	BYTE	W06
	BYTE		        Gs1   v076
	BYTE	W06
	BYTE		N12     As1   v072
	BYTE	W12
// 025   ----------------------------------------
	BYTE		VOL     114*mus_mt_chimney_mvl/mxv
	BYTE		N48     An2   v112
	BYTE	W48
	BYTE		N03     Fs1 
	BYTE	W06
	BYTE		        Fs1   v064
	BYTE	W12
	BYTE		        Fs1   v084
	BYTE	W06
	BYTE		N06     Dn1   v112
	BYTE	W12
	BYTE		N12     As1   v064
	BYTE	W12
// 026   ----------------------------------------
	BYTE	PATT
	 POIN2	mus_mt_chimney_8_003
// 027   ----------------------------------------
	BYTE	PATT
	 POIN2	mus_mt_chimney_8_004
// 028   ----------------------------------------
	BYTE		N06     En1   v112
	BYTE	W06
	BYTE		N06   
	BYTE	W06
	BYTE		        Cn1 
	BYTE	W12
	BYTE		        En1 
	BYTE	W12
	BYTE		        Cn1 
	BYTE	W06
	BYTE		N06   
	BYTE	W06
	BYTE		N06   
	BYTE	W21
	BYTE		N03     En1   v072
	BYTE	W03
	BYTE		N06     En1   v116
	BYTE	W12
	BYTE		        Dn1   v096
	BYTE	W12
// 029   ----------------------------------------
	BYTE	PATT
	 POIN2	mus_mt_chimney_8_006
// 030   ----------------------------------------
	BYTE	PATT
	 POIN2	mus_mt_chimney_8_007
// 031   ----------------------------------------
	BYTE	PATT
	 POIN2	mus_mt_chimney_8_008
// 032   ----------------------------------------
	BYTE		N48     An2   v112
	BYTE	W48
	BYTE		N03     Fs1 
	BYTE	W06
	BYTE		        Fs1   v076
	BYTE	W06
	BYTE		        Fs1   v068
	BYTE	W06
	BYTE		N03   
	BYTE	W06
	BYTE		N06     Cn1   v120
	BYTE	W06
	BYTE		        Cn1   v092
	BYTE	W06
	BYTE		        En1   v084
	BYTE	W06
	BYTE		        En1   v112
	BYTE	W06
// 033   ----------------------------------------
	BYTE	PATT
	 POIN2	mus_mt_chimney_8_010
// 034   ----------------------------------------
	BYTE		N06     Dn1   v120
	BYTE	W06
	BYTE		        Dn1   v076
	BYTE	W06
	BYTE		        Cn1 
	BYTE	W12
	BYTE		        En1 
	BYTE	W12
	BYTE		        Dn1   v112
	BYTE	W06
	BYTE		        Dn1   v072
	BYTE	W06
	BYTE		        Dn1   v112
	BYTE	W12
	BYTE		        En1   v084
	BYTE	W12
	BYTE		        Dn1   v112
	BYTE	W12
	BYTE		        En1 
	BYTE	W06
	BYTE		        En1   v084
	BYTE	W06
// 035   ----------------------------------------
	BYTE	PATT
	 POIN2	mus_mt_chimney_8_004
// 036   ----------------------------------------
	BYTE		N06     En1   v120
	BYTE	W06
	BYTE		        En1   v112
	BYTE	W06
	BYTE		        Cn1 
	BYTE	W12
	BYTE		        En1 
	BYTE	W12
	BYTE		        Cn1 
	BYTE	W06
	BYTE		N06   
	BYTE	W06
	BYTE		N06   
	BYTE	W21
	BYTE		N03     En1   v072
	BYTE	W03
	BYTE		N06     En1   v116
	BYTE	W12
	BYTE		        Dn1   v096
	BYTE	W12
// 037   ----------------------------------------
	BYTE	PATT
	 POIN2	mus_mt_chimney_8_006
// 038   ----------------------------------------
	BYTE	PATT
	 POIN2	mus_mt_chimney_8_004
// 039   ----------------------------------------
	BYTE	PATT
	 POIN2	mus_mt_chimney_8_008
// 040   ----------------------------------------
	BYTE	W48
	BYTE		N03     Fs1   v112
	BYTE	W06
	BYTE		        Fs1   v076
	BYTE	W06
	BYTE		        Fs1   v068
	BYTE	W06
	BYTE		N03   
	BYTE	W06
	BYTE		N06     Cn1   v112
	BYTE	W06
	BYTE		        Cn1   v092
	BYTE	W06
	BYTE		        En1   v084
	BYTE	W06
	BYTE		        En1   v112
	BYTE	W06
// 041   ----------------------------------------
	BYTE	W72
	BYTE		N24     Gn2 
	BYTE	W24
// 042   ----------------------------------------
	BYTE	W72
	BYTE		        An2 
	BYTE	W24
// 043   ----------------------------------------
	BYTE	W24
	BYTE		        Gn2 
	BYTE	W48
	BYTE		        An2 
	BYTE	W24
// 044   ----------------------------------------
	BYTE		        Gn2   v076
	BYTE	W24
	BYTE		        An2   v080
	BYTE	W24
	BYTE		        Gn2   v096
	BYTE	W24
	BYTE		        An2 
	BYTE	W12
	BYTE		N02     En1   v112
	BYTE	W04
	BYTE		N02   
	BYTE	W04
	BYTE		N02   
	BYTE	W04
// 045   ----------------------------------------
	BYTE		N06   
	BYTE		N72     An2 
	BYTE		N06     En3   v084
	BYTE	W06
	BYTE		        En3   v064
	BYTE	W06
	BYTE		        En1   v112
	BYTE		N06     Dn3   v064
	BYTE	W06
	BYTE		N03     En1 
	BYTE		N06     Dn3 
	BYTE	W03
	BYTE		N03     En1 
	BYTE	W03
	BYTE		N06     En1   v112
	BYTE		N06     Dn3   v064
	BYTE	W06
	BYTE		        En1   v112
	BYTE		N06     Dn3   v064
	BYTE	W06
	BYTE		        En3 
	BYTE	W06
	BYTE		        En1   v112
	BYTE		N06     En3   v064
	BYTE	W06
	BYTE		        En1   v112
	BYTE		N06     En3   v084
	BYTE	W06
	BYTE		        En1 
	BYTE		N06     En3   v064
	BYTE	W06
	BYTE		        En1   v112
	BYTE		N06     En3   v064
	BYTE	W06
	BYTE		        En1   v084
	BYTE		N06     En3   v064
	BYTE	W06
	BYTE		N03     En1 
	BYTE		N06     En3 
	BYTE	W03
	BYTE		N03     En1   v032
	BYTE	W03
	BYTE		N03   
	BYTE		N06     Dn3 
	BYTE	W03
	BYTE		N03     En1 
	BYTE	W03
	BYTE		N06     En1   v112
	BYTE		N06     En3   v084
	BYTE	W06
	BYTE		        En1   v112
	BYTE		N06     En3   v064
	BYTE	W06
// 046   ----------------------------------------
	BYTE		        En1   v112
	BYTE		N06     En3   v084
	BYTE	W06
	BYTE		        En1   v112
	BYTE		N06     Dn3   v064
	BYTE	W06
	BYTE		N03     En1   v032
	BYTE		N06     En3 
	BYTE	W03
	BYTE		N03     En1 
	BYTE	W03
	BYTE		N03   
	BYTE		N06     En3 
	BYTE	W03
	BYTE		N03     En1 
	BYTE	W03
	BYTE		N06     En1   v112
	BYTE		N03     Dn3   v084
	BYTE	W03
	BYTE		        Dn3   v048
	BYTE	W03
	BYTE		N06     En1   v088
	BYTE		N03     Dn3   v048
	BYTE	W03
	BYTE		N03   
	BYTE	W03
	BYTE		N06     En1   v112
	BYTE		N06     En3   v084
	BYTE	W06
	BYTE		        En1   v080
	BYTE		N06     Dn3   v084
	BYTE	W06
	BYTE		        En1   v112
	BYTE		N06     En3   v084
	BYTE	W06
	BYTE		        En1   v112
	BYTE		N06     En3   v064
	BYTE	W06
	BYTE		N03     En1   v032
	BYTE		N06     Dn3 
	BYTE	W03
	BYTE		N03     En1 
	BYTE	W03
	BYTE		N03   
	BYTE		N06     En3 
	BYTE	W03
	BYTE		N03     En1 
	BYTE	W03
	BYTE		N06     En1   v112
	BYTE		N06     En3   v084
	BYTE	W06
	BYTE		        En1   v112
	BYTE		N06     Dn3   v064
	BYTE	W06
	BYTE		N03     En1   v032
	BYTE		N06     En3 
	BYTE	W03
	BYTE		N03     En1 
	BYTE	W03
	BYTE		N03   
	BYTE		N06     En3 
	BYTE	W03
	BYTE		N03     En1 
	BYTE	W03
// 047   ----------------------------------------
	BYTE		N06     En1   v112
	BYTE		N06     En3   v084
	BYTE	W06
	BYTE		        En3   v064
	BYTE	W06
	BYTE		        En1   v112
	BYTE		N06     Dn3   v064
	BYTE	W06
	BYTE		N03     En1   v032
	BYTE		N06     Dn3 
	BYTE	W03
	BYTE		N03     En1 
	BYTE	W03
	BYTE		N06     En1   v112
	BYTE		N06     Dn3   v064
	BYTE	W06
	BYTE		        En1   v112
	BYTE		N06     Dn3   v064
	BYTE	W06
	BYTE		        En3 
	BYTE	W06
	BYTE		        En1   v112
	BYTE		N06     En3   v064
	BYTE	W06
	BYTE		        En1   v112
	BYTE		N06     En3   v084
	BYTE	W06
	BYTE		        En1 
	BYTE		N06     En3   v064
	BYTE	W06
	BYTE		        En1   v112
	BYTE		N06     En3   v064
	BYTE	W06
	BYTE		        En1   v084
	BYTE		N06     En3   v064
	BYTE	W06
	BYTE		N03     En1 
	BYTE		N06     En3 
	BYTE	W03
	BYTE		N03     En1   v032
	BYTE	W03
	BYTE		N03   
	BYTE		N06     Dn3 
	BYTE	W03
	BYTE		N03     En1 
	BYTE	W03
	BYTE		N06     En1   v112
	BYTE		N06     En3   v084
	BYTE	W06
	BYTE		        En1   v112
	BYTE		N06     En3   v064
	BYTE	W06
// 048   ----------------------------------------
	BYTE		        En1   v112
	BYTE		N06     En3   v084
	BYTE	W06
	BYTE		        En1   v112
	BYTE		N06     Dn3   v064
	BYTE	W06
	BYTE		N03     En1   v032
	BYTE		N06     En3 
	BYTE	W03
	BYTE		N03     En1 
	BYTE	W03
	BYTE		N03   
	BYTE		N06     En3 
	BYTE	W03
	BYTE		N03     En1 
	BYTE	W03
	BYTE		N06     En1   v112
	BYTE		N03     Dn3   v084
	BYTE	W03
	BYTE		        Dn3   v032
	BYTE	W03
	BYTE		N06     En1   v088
	BYTE		N03     Dn3   v048
	BYTE	W03
	BYTE		        Dn3   v032
	BYTE	W03
	BYTE		N06     En1   v112
	BYTE		N06     En3   v084
	BYTE	W06
	BYTE		        En1   v080
	BYTE		N06     Dn3   v084
	BYTE	W06
	BYTE		        En1   v112
	BYTE		N06     En3   v084
	BYTE	W06
	BYTE		        En1   v112
	BYTE		N06     En3   v064
	BYTE	W06
	BYTE		N03     En1   v032
	BYTE		N06     Dn3 
	BYTE	W03
	BYTE		N03     En1 
	BYTE	W03
	BYTE		N03   
	BYTE		N06     En3 
	BYTE	W03
	BYTE		N03     En1 
	BYTE	W03
	BYTE		N06     En1   v112
	BYTE		N06     En3   v084
	BYTE	W06
	BYTE		        En1   v112
	BYTE		N06     Dn3   v064
	BYTE	W06
	BYTE		N03     En1   v032
	BYTE		N06     En3 
	BYTE	W03
	BYTE		N03     En1 
	BYTE	W03
	BYTE		N03   
	BYTE		N06     En3 
	BYTE	W03
	BYTE		N03     En1 
	BYTE	W03
	BYTE	GoTo
	 POIN2	mus_mt_chimney_8_B1
mus_mt_chimney_8_B2:
// 049   ----------------------------------------
	BYTE	FINE

//**************** Track 9 (Midi-Chn.9) ****************//

mus_mt_chimney_9:
	BYTE	KEYSH   mus_mt_chimney_key+0
// 000   ----------------------------------------
	BYTE		VOICE   29
	BYTE		LFOS    44
	BYTE		XCMD    xIECV   18
	BYTE		        xIECV   12
	BYTE		BENDR   12
	BYTE		VOL     80*mus_mt_chimney_mvl/mxv
	BYTE		PAN     c_v+63
	BYTE		BEND    c_v+0
	BYTE	W96
// 001   ----------------------------------------
	BYTE		N96     Ds2   v112
	BYTE	W96
mus_mt_chimney_9_B1:
// 002   ----------------------------------------
mus_mt_chimney_9_002:
	BYTE	W92
	BYTE	W01
	BYTE		N03     Dn3   v112
	BYTE	W03
	BYTE	PEND
// 003   ----------------------------------------
mus_mt_chimney_9_003:
	BYTE		N03     Ds3   v112
	BYTE	W06
	BYTE		N03   
	BYTE	W06
	BYTE		        Dn3 
	BYTE	W06
	BYTE		        Ds3 
	BYTE	W18
	BYTE		N03   
	BYTE	W06
	BYTE		N03   
	BYTE	W06
	BYTE		N03   
	BYTE	W12
	BYTE		N03   
	BYTE	W06
	BYTE		        Gn2   v068
	BYTE	W03
	BYTE		        As2 
	BYTE	W03
	BYTE		N06     Cs3   v112
	BYTE	W12
	BYTE		        As2 
	BYTE	W06
	BYTE		N03     Cs3 
	BYTE	W06
	BYTE	PEND
// 004   ----------------------------------------
	BYTE	W96
// 005   ----------------------------------------
mus_mt_chimney_9_005:
	BYTE	W36
	BYTE		N03     Ds3   v112
	BYTE	W06
	BYTE		N03   
	BYTE	W06
	BYTE		N06     Dn3 
	BYTE	W06
	BYTE		        Ds3 
	BYTE	W06
	BYTE		N03     Gs3 
	BYTE	W06
	BYTE		N03   
	BYTE	W06
	BYTE		N06     Gn3 
	BYTE	W06
	BYTE		        Gs3 
	BYTE	W06
	BYTE		N03     Bn3 
	BYTE	W06
	BYTE		N06   
	BYTE	W06
	BYTE	PEND
// 006   ----------------------------------------
mus_mt_chimney_9_006:
	BYTE		N06     Ds4   v112
	BYTE	W06
	BYTE		N03     Dn4   v064
	BYTE	W03
	BYTE		        Cn4 
	BYTE	W03
	BYTE		        Bn3 
	BYTE	W03
	BYTE		        An3 
	BYTE	W03
	BYTE		        Gn3 
	BYTE	W78
	BYTE	PEND
// 007   ----------------------------------------
	BYTE	W96
// 008   ----------------------------------------
	BYTE	W96
// 009   ----------------------------------------
mus_mt_chimney_9_009:
	BYTE	W06
	BYTE		N03     Gn2   v112
	BYTE	W12
	BYTE		        Fn2 
	BYTE	W06
	BYTE		        Fs2   v084
	BYTE	W03
	BYTE		        Gn2   v112
	BYTE	W03
	BYTE		        En2 
	BYTE	W06
	BYTE		        Ds2 
	BYTE	W06
	BYTE		        Cs2 
	BYTE	W06
	BYTE		        Gn2 
	BYTE	W06
	BYTE		N03   
	BYTE	W06
	BYTE		N03   
	BYTE	W06
	BYTE		N03   
	BYTE	W06
	BYTE		N06     As2 
	BYTE	W06
	BYTE		N03     An2   v048
	BYTE	W03
	BYTE		        Gn2   v052
	BYTE	W03
	BYTE		        Fn2 
	BYTE	W03
	BYTE		        Ds2 
	BYTE	W03
	BYTE		        Cs2 
	BYTE	W06
	BYTE	PEND
// 010   ----------------------------------------
	BYTE	PATT
	 POIN2	mus_mt_chimney_9_002
// 011   ----------------------------------------
	BYTE	PATT
	 POIN2	mus_mt_chimney_9_003
// 012   ----------------------------------------
	BYTE	W96
// 013   ----------------------------------------
	BYTE	PATT
	 POIN2	mus_mt_chimney_9_005
// 014   ----------------------------------------
	BYTE	PATT
	 POIN2	mus_mt_chimney_9_006
// 015   ----------------------------------------
	BYTE	W96
// 016   ----------------------------------------
	BYTE	W96
// 017   ----------------------------------------
	BYTE	W96
// 018   ----------------------------------------
	BYTE		N06     Fs4   v112
	BYTE	W06
	BYTE		N03     Fn4   v076
	BYTE	W03
	BYTE		        En4 
	BYTE	W03
	BYTE		        Ds4 
	BYTE	W03
	BYTE		        Cs4 
	BYTE	W03
	BYTE		        Bn3 
	BYTE	W78
// 019   ----------------------------------------
	BYTE	W48
	BYTE		        Gs3   v112
	BYTE	W06
	BYTE		N06     Cs4 
	BYTE	W06
	BYTE		        Cs4   v032
	BYTE	W06
	BYTE		N03     Fn3   v104
	BYTE	W03
	BYTE		        Fn3   v032
	BYTE	W03
	BYTE		N06     Ds4   v112
	BYTE	W06
	BYTE		N03     Cs4   v076
	BYTE	W03
	BYTE		        Cn4 
	BYTE	W03
	BYTE		        As3 
	BYTE	W03
	BYTE		        Gs3 
	BYTE	W09
// 020   ----------------------------------------
	BYTE		        Cs4   v112
	BYTE	W06
	BYTE		N03   
	BYTE	W06
	BYTE		N03   
	BYTE	W06
	BYTE		N03   
	BYTE	W12
	BYTE		N03   
	BYTE	W12
	BYTE		N03   
	BYTE	W03
	BYTE		N06     Cs4   v032
	BYTE	W48
	BYTE	W03
// 021   ----------------------------------------
	BYTE	W48
	BYTE		N03     Gs3   v112
	BYTE	W06
	BYTE		N06     Cn4 
	BYTE	W06
	BYTE		        Cn4   v032
	BYTE	W06
	BYTE		N03     Gs3   v112
	BYTE	W03
	BYTE		        Gs3   v032
	BYTE	W03
	BYTE		N06     Ds4   v112
	BYTE	W06
	BYTE		N03     Cs4   v076
	BYTE	W03
	BYTE		        Cn4 
	BYTE	W03
	BYTE		        As3 
	BYTE	W03
	BYTE		        Gs3 
	BYTE	W09
// 022   ----------------------------------------
	BYTE	W96
// 023   ----------------------------------------
	BYTE	W48
	BYTE		        As3   v112
	BYTE	W06
	BYTE		N03   
	BYTE	W06
	BYTE		N03   
	BYTE	W06
	BYTE		N03   
	BYTE	W30
// 024   ----------------------------------------
	BYTE	W48
// 025   ----------------------------------------
	BYTE		PAN     c_v+63
	BYTE	W92
	BYTE	W01
	BYTE		N03     Dn3 
	BYTE	W03
// 026   ----------------------------------------
	BYTE	PATT
	 POIN2	mus_mt_chimney_9_003
// 027   ----------------------------------------
	BYTE	W96
// 028   ----------------------------------------
	BYTE	PATT
	 POIN2	mus_mt_chimney_9_005
// 029   ----------------------------------------
	BYTE	PATT
	 POIN2	mus_mt_chimney_9_006
// 030   ----------------------------------------
	BYTE	W96
// 031   ----------------------------------------
	BYTE	W96
// 032   ----------------------------------------
	BYTE	PATT
	 POIN2	mus_mt_chimney_9_009
// 033   ----------------------------------------
	BYTE	PATT
	 POIN2	mus_mt_chimney_9_002
// 034   ----------------------------------------
	BYTE	PATT
	 POIN2	mus_mt_chimney_9_003
// 035   ----------------------------------------
	BYTE	W96
// 036   ----------------------------------------
	BYTE	PATT
	 POIN2	mus_mt_chimney_9_005
// 037   ----------------------------------------
	BYTE	PATT
	 POIN2	mus_mt_chimney_9_006
// 038   ----------------------------------------
	BYTE	W96
// 039   ----------------------------------------
	BYTE	W96
// 040   ----------------------------------------
	BYTE	W96
// 041   ----------------------------------------
	BYTE	W96
// 042   ----------------------------------------
	BYTE	W96
// 043   ----------------------------------------
	BYTE	W96
// 044   ----------------------------------------
	BYTE	W96
// 045   ----------------------------------------
	BYTE	W96
// 046   ----------------------------------------
	BYTE	W96
// 047   ----------------------------------------
	BYTE	W96
// 048   ----------------------------------------
	BYTE	W96
	BYTE	GoTo
	 POIN2	mus_mt_chimney_9_B1
mus_mt_chimney_9_B2:
// 049   ----------------------------------------
	BYTE	FINE

//******************************************************//
	ALIGN 4

mus_mt_chimney:
	BYTE	9	// NumTrks
	BYTE	0	// NumBlks
	BYTE	mus_mt_chimney_pri	// Priority
	BYTE	mus_mt_chimney_rev	// Reverb.

	POIN2	mus_mt_chimney_grp

	POIN2	mus_mt_chimney_1
	POIN2	mus_mt_chimney_2
	POIN2	mus_mt_chimney_3
	POIN2	mus_mt_chimney_4
	POIN2	mus_mt_chimney_5
	POIN2	mus_mt_chimney_6
	POIN2	mus_mt_chimney_7
	POIN2	mus_mt_chimney_8
	POIN2	mus_mt_chimney_9

	
